<svg width="80" height="80" viewBox="0 0 80 80" fill="none" xmlns="http://www.w3.org/2000/svg">
<rect x="0.5" y="0.5" width="79" height="79" rx="7.5" fill="#F2F4F7" stroke="#F2F4F7"/>
<g clip-path="url(#clip0_1_18606)">
<path d="M56.4073 29.5167V59.7638C56.4073 61.3887 55.086 62.71 53.4611 62.71H26.2494C24.6245 62.71 23.3032 61.3887 23.3032 59.7638V19.9462C23.3032 18.3213 24.6245 17 26.2494 17H43.8906L56.4073 29.5167Z" fill="#518FF5"/>
<path d="M31.3916 39.9532H48.3186V41.8369H31.3916V39.9532ZM31.3916 44.1492H48.3186V46.033H31.3916V44.1492ZM31.3916 48.3542H48.3186V50.2379H31.3916V48.3542ZM31.3916 52.5502H43.4351V54.434H31.3916V52.5502Z" fill="white"/>
<path d="M45.5957 29.0435L56.4072 37.8016V29.5703L50.2828 26.017L45.5957 29.0435Z" fill="black" fill-opacity="0.098"/>
<path d="M56.4073 29.5167H46.8368C45.2119 29.5167 43.8906 28.1954 43.8906 26.5705V17L56.4073 29.5167Z" fill="#A6C5FA"/>
</g>
<defs>
<clipPath id="clip0_1_18606">
<rect width="45.71" height="45.71" fill="white" transform="translate(17 17)"/>
</clipPath>
</defs>
</svg>
