<svg width="918" height="418" viewBox="0 0 918 418" fill="none" xmlns="http://www.w3.org/2000/svg">
<rect width="916" height="418" transform="translate(1)" fill="white"/>
<rect width="918" height="418" rx="14.1186" fill="#FBFBFB"/>
<path d="M63.4532 395H62.5407L65.18 387.812H66.0784L68.7176 395H67.8051L65.6573 388.949H65.6011L63.4532 395ZM63.7902 392.192H67.4682V392.964H63.7902V392.192ZM71.1461 391.757V395H70.3179V389.609H71.118V390.452H71.1882C71.3146 390.178 71.5064 389.958 71.7638 389.792C72.0212 389.623 72.3534 389.539 72.7605 389.539C73.1255 389.539 73.4449 389.614 73.7186 389.764C73.9924 389.911 74.2053 390.136 74.3574 390.438C74.5095 390.737 74.5855 391.116 74.5855 391.575V395H73.7573V391.631C73.7573 391.207 73.6473 390.877 73.4274 390.641C73.2074 390.402 72.9056 390.283 72.5219 390.283C72.2575 390.283 72.0212 390.34 71.8129 390.455C71.607 390.57 71.4444 390.737 71.3251 390.957C71.2058 391.177 71.1461 391.444 71.1461 391.757ZM80.5104 390.817L79.7664 391.027C79.7196 390.903 79.6506 390.783 79.5593 390.666C79.4704 390.546 79.3488 390.448 79.1944 390.371C79.0399 390.294 78.8422 390.255 78.6012 390.255C78.2713 390.255 77.9964 390.331 77.7765 390.483C77.5589 390.633 77.4501 390.824 77.4501 391.055C77.4501 391.261 77.525 391.424 77.6747 391.543C77.8244 391.662 78.0584 391.762 78.3766 391.841L79.1768 392.038C79.6588 392.155 80.0179 392.334 80.2542 392.575C80.4906 392.814 80.6087 393.121 80.6087 393.498C80.6087 393.807 80.5198 394.083 80.342 394.326C80.1665 394.569 79.9208 394.761 79.605 394.902C79.2891 395.042 78.9218 395.112 78.503 395.112C77.9531 395.112 77.498 394.993 77.1377 394.754C76.7774 394.516 76.5493 394.167 76.4534 393.708L77.2395 393.512C77.3144 393.802 77.4559 394.02 77.6642 394.165C77.8747 394.31 78.1497 394.382 78.4889 394.382C78.875 394.382 79.1815 394.3 79.4084 394.137C79.6377 393.971 79.7524 393.772 79.7524 393.54C79.7524 393.353 79.6869 393.196 79.5558 393.07C79.4248 392.941 79.2236 392.845 78.9522 392.782L78.0537 392.571C77.5601 392.454 77.1974 392.273 76.9658 392.027C76.7365 391.779 76.6218 391.469 76.6218 391.097C76.6218 390.793 76.7072 390.524 76.878 390.29C77.0512 390.056 77.2863 389.872 77.5834 389.739C77.8829 389.606 78.2222 389.539 78.6012 389.539C79.1347 389.539 79.5535 389.656 79.8577 389.89C80.1642 390.124 80.3818 390.433 80.5104 390.817ZM83.6698 395L82.0273 389.609H82.8977L84.0629 393.737H84.119L85.2702 389.609H86.1546L87.2917 393.723H87.3479L88.5131 389.609H89.3834L87.7409 395H86.9267L85.7475 390.859H85.6633L84.484 395H83.6698ZM93.1482 395.112C92.6288 395.112 92.1807 394.998 91.804 394.768C91.4297 394.537 91.1407 394.214 90.9372 393.8C90.7359 393.383 90.6353 392.899 90.6353 392.347C90.6353 391.795 90.7359 391.308 90.9372 390.887C91.1407 390.463 91.4238 390.133 91.7865 389.897C92.1515 389.658 92.5773 389.539 93.064 389.539C93.3447 389.539 93.622 389.586 93.8958 389.679C94.1695 389.773 94.4187 389.925 94.6433 390.136C94.8679 390.344 95.0469 390.62 95.1803 390.964C95.3136 391.308 95.3803 391.731 95.3803 392.234V392.585H91.225V391.869H94.538C94.538 391.565 94.4772 391.294 94.3555 391.055C94.2362 390.817 94.0654 390.628 93.8431 390.49C93.6232 390.352 93.3635 390.283 93.064 390.283C92.7341 390.283 92.4486 390.365 92.2076 390.529C91.969 390.69 91.7853 390.901 91.6566 391.161C91.5279 391.42 91.4636 391.699 91.4636 391.996V392.473C91.4636 392.88 91.5338 393.225 91.6742 393.508C91.8169 393.789 92.0146 394.003 92.2673 394.151C92.52 394.296 92.8136 394.368 93.1482 394.368C93.3658 394.368 93.5623 394.338 93.7378 394.277C93.9156 394.214 94.0689 394.12 94.1976 393.996C94.3263 393.87 94.4257 393.713 94.4959 393.526L95.2961 393.751C95.2118 394.022 95.0703 394.261 94.8714 394.467C94.6725 394.67 94.4269 394.829 94.1344 394.944C93.8419 395.056 93.5132 395.112 93.1482 395.112ZM97.2332 395V389.609H98.0334V390.423H98.0896C98.1878 390.157 98.3657 389.94 98.623 389.774C98.8804 389.608 99.1705 389.525 99.4934 389.525C99.5542 389.525 99.6303 389.526 99.7215 389.529C99.8128 389.531 99.8818 389.534 99.9286 389.539V390.381C99.9005 390.374 99.8362 390.364 99.7356 390.35C99.6373 390.333 99.5332 390.325 99.4232 390.325C99.1612 390.325 98.9272 390.38 98.7213 390.49C98.5177 390.598 98.3563 390.748 98.237 390.939C98.12 391.129 98.0615 391.345 98.0615 391.589V395H97.2332ZM107.389 387.812V395H106.518V388.725H106.476L104.722 389.89V389.006L106.518 387.812H107.389Z" fill="#615E83"/>
<path d="M183.091 395H182.179L184.818 387.812H185.717L188.356 395H187.443L185.295 388.949H185.239L183.091 395ZM183.428 392.192H187.106V392.964H183.428V392.192ZM190.784 391.757V395H189.956V389.609H190.756V390.452H190.826C190.953 390.178 191.145 389.958 191.402 389.792C191.659 389.623 191.992 389.539 192.399 389.539C192.764 389.539 193.083 389.614 193.357 389.764C193.631 389.911 193.843 390.136 193.996 390.438C194.148 390.737 194.224 391.116 194.224 391.575V395H193.395V391.631C193.395 391.207 193.285 390.877 193.065 390.641C192.846 390.402 192.544 390.283 192.16 390.283C191.896 390.283 191.659 390.34 191.451 390.455C191.245 390.57 191.083 390.737 190.963 390.957C190.844 391.177 190.784 391.444 190.784 391.757ZM200.149 390.817L199.405 391.027C199.358 390.903 199.289 390.783 199.197 390.666C199.109 390.546 198.987 390.448 198.832 390.371C198.678 390.294 198.48 390.255 198.239 390.255C197.909 390.255 197.635 390.331 197.415 390.483C197.197 390.633 197.088 390.824 197.088 391.055C197.088 391.261 197.163 391.424 197.313 391.543C197.463 391.662 197.697 391.762 198.015 391.841L198.815 392.038C199.297 392.155 199.656 392.334 199.892 392.575C200.129 392.814 200.247 393.121 200.247 393.498C200.247 393.807 200.158 394.083 199.98 394.326C199.805 394.569 199.559 394.761 199.243 394.902C198.927 395.042 198.56 395.112 198.141 395.112C197.591 395.112 197.136 394.993 196.776 394.754C196.416 394.516 196.187 394.167 196.091 393.708L196.878 393.512C196.952 393.802 197.094 394.02 197.302 394.165C197.513 394.31 197.788 394.382 198.127 394.382C198.513 394.382 198.82 394.3 199.047 394.137C199.276 393.971 199.39 393.772 199.39 393.54C199.39 393.353 199.325 393.196 199.194 393.07C199.063 392.941 198.862 392.845 198.59 392.782L197.692 392.571C197.198 392.454 196.836 392.273 196.604 392.027C196.375 391.779 196.26 391.469 196.26 391.097C196.26 390.793 196.345 390.524 196.516 390.29C196.689 390.056 196.924 389.872 197.222 389.739C197.521 389.606 197.86 389.539 198.239 389.539C198.773 389.539 199.192 389.656 199.496 389.89C199.802 390.124 200.02 390.433 200.149 390.817ZM203.308 395L201.665 389.609H202.536L203.701 393.737H203.757L204.908 389.609H205.793L206.93 393.723H206.986L208.151 389.609H209.022L207.379 395H206.565L205.386 390.859H205.301L204.122 395H203.308ZM212.786 395.112C212.267 395.112 211.819 394.998 211.442 394.768C211.068 394.537 210.779 394.214 210.575 393.8C210.374 393.383 210.273 392.899 210.273 392.347C210.273 391.795 210.374 391.308 210.575 390.887C210.779 390.463 211.062 390.133 211.425 389.897C211.79 389.658 212.215 389.539 212.702 389.539C212.983 389.539 213.26 389.586 213.534 389.679C213.808 389.773 214.057 389.925 214.281 390.136C214.506 390.344 214.685 390.62 214.818 390.964C214.952 391.308 215.018 391.731 215.018 392.234V392.585H210.863V391.869H214.176C214.176 391.565 214.115 391.294 213.994 391.055C213.874 390.817 213.703 390.628 213.481 390.49C213.261 390.352 213.002 390.283 212.702 390.283C212.372 390.283 212.087 390.365 211.846 390.529C211.607 390.69 211.423 390.901 211.295 391.161C211.166 391.42 211.102 391.699 211.102 391.996V392.473C211.102 392.88 211.172 393.225 211.312 393.508C211.455 393.789 211.653 394.003 211.905 394.151C212.158 394.296 212.452 394.368 212.786 394.368C213.004 394.368 213.2 394.338 213.376 394.277C213.554 394.214 213.707 394.12 213.836 393.996C213.964 393.87 214.064 393.713 214.134 393.526L214.934 393.751C214.85 394.022 214.708 394.261 214.51 394.467C214.311 394.67 214.065 394.829 213.773 394.944C213.48 395.056 213.151 395.112 212.786 395.112ZM216.871 395V389.609H217.672V390.423H217.728C217.826 390.157 218.004 389.94 218.261 389.774C218.519 389.608 218.809 389.525 219.132 389.525C219.192 389.525 219.268 389.526 219.36 389.529C219.451 389.531 219.52 389.534 219.567 389.539V390.381C219.539 390.374 219.474 390.364 219.374 390.35C219.275 390.333 219.171 390.325 219.061 390.325C218.799 390.325 218.565 390.38 218.359 390.49C218.156 390.598 217.994 390.748 217.875 390.939C217.758 391.129 217.7 391.345 217.7 391.589V395H216.871ZM224.5 395V394.368L226.873 391.771C227.151 391.467 227.38 391.203 227.56 390.978C227.741 390.751 227.874 390.538 227.96 390.339C228.049 390.138 228.094 389.927 228.094 389.708C228.094 389.455 228.033 389.236 227.911 389.051C227.792 388.866 227.628 388.724 227.42 388.623C227.212 388.522 226.978 388.472 226.718 388.472C226.442 388.472 226.201 388.529 225.995 388.644C225.792 388.756 225.634 388.914 225.521 389.118C225.411 389.321 225.356 389.56 225.356 389.834H224.528C224.528 389.413 224.625 389.043 224.819 388.725C225.014 388.407 225.278 388.159 225.613 387.981C225.949 387.803 226.327 387.714 226.746 387.714C227.167 387.714 227.541 387.803 227.866 387.981C228.191 388.159 228.446 388.398 228.631 388.7C228.816 389.002 228.908 389.338 228.908 389.708C228.908 389.972 228.86 390.23 228.764 390.483C228.671 390.734 228.507 391.013 228.273 391.322C228.041 391.628 227.72 392.003 227.308 392.445L225.693 394.172V394.228H229.034V395H224.5Z" fill="#615E83"/>
<path d="M304.271 395H303.358L305.998 387.812H306.896L309.535 395H308.623L306.475 388.949H306.419L304.271 395ZM304.608 392.192H308.286V392.964H304.608V392.192ZM311.964 391.757V395H311.136V389.609H311.936V390.452H312.006C312.132 390.178 312.324 389.958 312.581 389.792C312.839 389.623 313.171 389.539 313.578 389.539C313.943 389.539 314.263 389.614 314.536 389.764C314.81 389.911 315.023 390.136 315.175 390.438C315.327 390.737 315.403 391.116 315.403 391.575V395H314.575V391.631C314.575 391.207 314.465 390.877 314.245 390.641C314.025 390.402 313.723 390.283 313.34 390.283C313.075 390.283 312.839 390.34 312.631 390.455C312.425 390.57 312.262 390.737 312.143 390.957C312.023 391.177 311.964 391.444 311.964 391.757ZM321.328 390.817L320.584 391.027C320.537 390.903 320.468 390.783 320.377 390.666C320.288 390.546 320.166 390.448 320.012 390.371C319.858 390.294 319.66 390.255 319.419 390.255C319.089 390.255 318.814 390.331 318.594 390.483C318.377 390.633 318.268 390.824 318.268 391.055C318.268 391.261 318.343 391.424 318.492 391.543C318.642 391.662 318.876 391.762 319.194 391.841L319.994 392.038C320.476 392.155 320.836 392.334 321.072 392.575C321.308 392.814 321.426 393.121 321.426 393.498C321.426 393.807 321.337 394.083 321.16 394.326C320.984 394.569 320.739 394.761 320.423 394.902C320.107 395.042 319.739 395.112 319.321 395.112C318.771 395.112 318.316 394.993 317.955 394.754C317.595 394.516 317.367 394.167 317.271 393.708L318.057 393.512C318.132 393.802 318.274 394.02 318.482 394.165C318.692 394.31 318.967 394.382 319.307 394.382C319.693 394.382 319.999 394.3 320.226 394.137C320.455 393.971 320.57 393.772 320.57 393.54C320.57 393.353 320.505 393.196 320.374 393.07C320.242 392.941 320.041 392.845 319.77 392.782L318.871 392.571C318.378 392.454 318.015 392.273 317.783 392.027C317.554 391.779 317.439 391.469 317.439 391.097C317.439 390.793 317.525 390.524 317.696 390.29C317.869 390.056 318.104 389.872 318.401 389.739C318.701 389.606 319.04 389.539 319.419 389.539C319.952 389.539 320.371 389.656 320.675 389.89C320.982 390.124 321.199 390.433 321.328 390.817ZM324.487 395L322.845 389.609H323.715L324.881 393.737H324.937L326.088 389.609H326.972L328.109 393.723H328.166L329.331 389.609H330.201L328.559 395H327.744L326.565 390.859H326.481L325.302 395H324.487ZM333.966 395.112C333.446 395.112 332.998 394.998 332.622 394.768C332.247 394.537 331.958 394.214 331.755 393.8C331.554 393.383 331.453 392.899 331.453 392.347C331.453 391.795 331.554 391.308 331.755 390.887C331.958 390.463 332.241 390.133 332.604 389.897C332.969 389.658 333.395 389.539 333.882 389.539C334.162 389.539 334.44 389.586 334.713 389.679C334.987 389.773 335.236 389.925 335.461 390.136C335.686 390.344 335.865 390.62 335.998 390.964C336.131 391.308 336.198 391.731 336.198 392.234V392.585H332.043V391.869H335.356C335.356 391.565 335.295 391.294 335.173 391.055C335.054 390.817 334.883 390.628 334.661 390.49C334.441 390.352 334.181 390.283 333.882 390.283C333.552 390.283 333.266 390.365 333.025 390.529C332.787 390.69 332.603 390.901 332.474 391.161C332.346 391.42 332.281 391.699 332.281 391.996V392.473C332.281 392.88 332.351 393.225 332.492 393.508C332.635 393.789 332.832 394.003 333.085 394.151C333.338 394.296 333.631 394.368 333.966 394.368C334.183 394.368 334.38 394.338 334.555 394.277C334.733 394.214 334.887 394.12 335.015 393.996C335.144 393.87 335.243 393.713 335.314 393.526L336.114 393.751C336.03 394.022 335.888 394.261 335.689 394.467C335.49 394.67 335.245 394.829 334.952 394.944C334.66 395.056 334.331 395.112 333.966 395.112ZM338.051 395V389.609H338.851V390.423H338.907C339.006 390.157 339.183 389.94 339.441 389.774C339.698 389.608 339.988 389.525 340.311 389.525C340.372 389.525 340.448 389.526 340.539 389.529C340.63 389.531 340.699 389.534 340.746 389.539V390.381C340.718 390.374 340.654 390.364 340.553 390.35C340.455 390.333 340.351 390.325 340.241 390.325C339.979 390.325 339.745 390.38 339.539 390.49C339.335 390.598 339.174 390.748 339.055 390.939C338.938 391.129 338.879 391.345 338.879 391.589V395H338.051ZM348.108 395.098C347.645 395.098 347.232 395.019 346.869 394.86C346.509 394.701 346.222 394.479 346.01 394.196C345.799 393.911 345.684 393.58 345.666 393.203H346.55C346.569 393.435 346.648 393.635 346.789 393.803C346.929 393.969 347.113 394.098 347.34 394.189C347.567 394.281 347.818 394.326 348.094 394.326C348.403 394.326 348.677 394.272 348.915 394.165C349.154 394.057 349.341 393.907 349.477 393.715C349.613 393.524 349.681 393.301 349.681 393.049C349.681 392.784 349.615 392.551 349.484 392.35C349.353 392.147 349.161 391.988 348.908 391.873C348.656 391.758 348.347 391.701 347.982 391.701H347.406V390.929H347.982C348.267 390.929 348.518 390.877 348.733 390.774C348.951 390.672 349.12 390.526 349.242 390.339C349.366 390.152 349.428 389.932 349.428 389.679C349.428 389.436 349.374 389.224 349.266 389.044C349.159 388.864 349.007 388.724 348.81 388.623C348.616 388.522 348.387 388.472 348.122 388.472C347.874 388.472 347.64 388.518 347.42 388.609C347.203 388.698 347.025 388.828 346.887 388.999C346.749 389.167 346.674 389.371 346.662 389.609H345.82C345.834 389.233 345.947 388.903 346.16 388.62C346.373 388.334 346.652 388.112 346.996 387.953C347.342 387.794 347.722 387.714 348.136 387.714C348.581 387.714 348.962 387.804 349.28 387.984C349.599 388.162 349.843 388.397 350.014 388.69C350.185 388.982 350.27 389.298 350.27 389.637C350.27 390.042 350.164 390.387 349.951 390.673C349.74 390.958 349.454 391.156 349.091 391.266V391.322C349.545 391.397 349.899 391.59 350.154 391.901C350.409 392.21 350.537 392.592 350.537 393.049C350.537 393.439 350.43 393.79 350.218 394.102C350.007 394.41 349.719 394.654 349.354 394.832C348.989 395.009 348.574 395.098 348.108 395.098Z" fill="#615E83"/>
<path d="M426.08 395H425.167L427.807 387.812H428.705L431.344 395H430.432L428.284 388.949H428.228L426.08 395ZM426.417 392.192H430.095V392.964H426.417V392.192ZM433.773 391.757V395H432.944V389.609H433.745V390.452H433.815C433.941 390.178 434.133 389.958 434.39 389.792C434.648 389.623 434.98 389.539 435.387 389.539C435.752 389.539 436.071 389.614 436.345 389.764C436.619 389.911 436.832 390.136 436.984 390.438C437.136 390.737 437.212 391.116 437.212 391.575V395H436.384V391.631C436.384 391.207 436.274 390.877 436.054 390.641C435.834 390.402 435.532 390.283 435.148 390.283C434.884 390.283 434.648 390.34 434.439 390.455C434.234 390.57 434.071 390.737 433.952 390.957C433.832 391.177 433.773 391.444 433.773 391.757ZM443.137 390.817L442.393 391.027C442.346 390.903 442.277 390.783 442.186 390.666C442.097 390.546 441.975 390.448 441.821 390.371C441.666 390.294 441.469 390.255 441.228 390.255C440.898 390.255 440.623 390.331 440.403 390.483C440.185 390.633 440.077 390.824 440.077 391.055C440.077 391.261 440.152 391.424 440.301 391.543C440.451 391.662 440.685 391.762 441.003 391.841L441.803 392.038C442.285 392.155 442.644 392.334 442.881 392.575C443.117 392.814 443.235 393.121 443.235 393.498C443.235 393.807 443.146 394.083 442.969 394.326C442.793 394.569 442.547 394.761 442.232 394.902C441.916 395.042 441.548 395.112 441.13 395.112C440.58 395.112 440.125 394.993 439.764 394.754C439.404 394.516 439.176 394.167 439.08 393.708L439.866 393.512C439.941 393.802 440.082 394.02 440.291 394.165C440.501 394.31 440.776 394.382 441.115 394.382C441.502 394.382 441.808 394.3 442.035 394.137C442.264 393.971 442.379 393.772 442.379 393.54C442.379 393.353 442.313 393.196 442.182 393.07C442.051 392.941 441.85 392.845 441.579 392.782L440.68 392.571C440.187 392.454 439.824 392.273 439.592 392.027C439.363 391.779 439.248 391.469 439.248 391.097C439.248 390.793 439.334 390.524 439.505 390.29C439.678 390.056 439.913 389.872 440.21 389.739C440.509 389.606 440.849 389.539 441.228 389.539C441.761 389.539 442.18 389.656 442.484 389.89C442.791 390.124 443.008 390.433 443.137 390.817ZM446.296 395L444.654 389.609H445.524L446.689 393.737H446.746L447.897 389.609H448.781L449.918 393.723H449.974L451.14 389.609H452.01L450.367 395H449.553L448.374 390.859H448.29L447.111 395H446.296ZM455.775 395.112C455.255 395.112 454.807 394.998 454.431 394.768C454.056 394.537 453.767 394.214 453.564 393.8C453.362 393.383 453.262 392.899 453.262 392.347C453.262 391.795 453.362 391.308 453.564 390.887C453.767 390.463 454.05 390.133 454.413 389.897C454.778 389.658 455.204 389.539 455.691 389.539C455.971 389.539 456.249 389.586 456.522 389.679C456.796 389.773 457.045 389.925 457.27 390.136C457.494 390.344 457.673 390.62 457.807 390.964C457.94 391.308 458.007 391.731 458.007 392.234V392.585H453.852V391.869H457.165C457.165 391.565 457.104 391.294 456.982 391.055C456.863 390.817 456.692 390.628 456.47 390.49C456.25 390.352 455.99 390.283 455.691 390.283C455.361 390.283 455.075 390.365 454.834 390.529C454.596 390.69 454.412 390.901 454.283 391.161C454.154 391.42 454.09 391.699 454.09 391.996V392.473C454.09 392.88 454.16 393.225 454.301 393.508C454.443 393.789 454.641 394.003 454.894 394.151C455.147 394.296 455.44 394.368 455.775 394.368C455.992 394.368 456.189 394.338 456.364 394.277C456.542 394.214 456.695 394.12 456.824 393.996C456.953 393.87 457.052 393.713 457.122 393.526L457.923 393.751C457.838 394.022 457.697 394.261 457.498 394.467C457.299 394.67 457.053 394.829 456.761 394.944C456.468 395.056 456.14 395.112 455.775 395.112ZM459.86 395V389.609H460.66V390.423H460.716C460.814 390.157 460.992 389.94 461.25 389.774C461.507 389.608 461.797 389.525 462.12 389.525C462.181 389.525 462.257 389.526 462.348 389.529C462.439 389.531 462.508 389.534 462.555 389.539V390.381C462.527 390.374 462.463 390.364 462.362 390.35C462.264 390.333 462.16 390.325 462.05 390.325C461.788 390.325 461.554 390.38 461.348 390.49C461.144 390.598 460.983 390.748 460.864 390.939C460.747 391.129 460.688 391.345 460.688 391.589V395H459.86ZM467.32 393.526V392.81L470.479 387.812H470.998V388.921H470.647L468.261 392.698V392.754H472.514V393.526H467.32ZM470.703 395V393.308V392.975V387.812H471.532V395H470.703Z" fill="#615E83"/>
<path d="M547.577 395H546.664L549.304 387.812H550.202L552.841 395H551.929L549.781 388.949H549.725L547.577 395ZM547.914 392.192H551.592V392.964H547.914V392.192ZM555.27 391.757V395H554.441V389.609H555.242V390.452H555.312C555.438 390.178 555.63 389.958 555.887 389.792C556.145 389.623 556.477 389.539 556.884 389.539C557.249 389.539 557.569 389.614 557.842 389.764C558.116 389.911 558.329 390.136 558.481 390.438C558.633 390.737 558.709 391.116 558.709 391.575V395H557.881V391.631C557.881 391.207 557.771 390.877 557.551 390.641C557.331 390.402 557.029 390.283 556.646 390.283C556.381 390.283 556.145 390.34 555.937 390.455C555.731 390.57 555.568 390.737 555.449 390.957C555.329 391.177 555.27 391.444 555.27 391.757ZM564.634 390.817L563.89 391.027C563.843 390.903 563.774 390.783 563.683 390.666C563.594 390.546 563.472 390.448 563.318 390.371C563.164 390.294 562.966 390.255 562.725 390.255C562.395 390.255 562.12 390.331 561.9 390.483C561.683 390.633 561.574 390.824 561.574 391.055C561.574 391.261 561.649 391.424 561.798 391.543C561.948 391.662 562.182 391.762 562.5 391.841L563.3 392.038C563.782 392.155 564.142 392.334 564.378 392.575C564.614 392.814 564.732 393.121 564.732 393.498C564.732 393.807 564.643 394.083 564.466 394.326C564.29 394.569 564.044 394.761 563.729 394.902C563.413 395.042 563.045 395.112 562.627 395.112C562.077 395.112 561.622 394.993 561.261 394.754C560.901 394.516 560.673 394.167 560.577 393.708L561.363 393.512C561.438 393.802 561.58 394.02 561.788 394.165C561.998 394.31 562.273 394.382 562.613 394.382C562.999 394.382 563.305 394.3 563.532 394.137C563.761 393.971 563.876 393.772 563.876 393.54C563.876 393.353 563.81 393.196 563.679 393.07C563.548 392.941 563.347 392.845 563.076 392.782L562.177 392.571C561.684 392.454 561.321 392.273 561.089 392.027C560.86 391.779 560.745 391.469 560.745 391.097C560.745 390.793 560.831 390.524 561.002 390.29C561.175 390.056 561.41 389.872 561.707 389.739C562.007 389.606 562.346 389.539 562.725 389.539C563.258 389.539 563.677 389.656 563.981 389.89C564.288 390.124 564.505 390.433 564.634 390.817ZM567.793 395L566.151 389.609H567.021L568.187 393.737H568.243L569.394 389.609H570.278L571.415 393.723H571.472L572.637 389.609H573.507L571.865 395H571.05L569.871 390.859H569.787L568.608 395H567.793ZM577.272 395.112C576.752 395.112 576.304 394.998 575.928 394.768C575.553 394.537 575.264 394.214 575.061 393.8C574.86 393.383 574.759 392.899 574.759 392.347C574.759 391.795 574.86 391.308 575.061 390.887C575.264 390.463 575.547 390.133 575.91 389.897C576.275 389.658 576.701 389.539 577.188 389.539C577.468 389.539 577.746 389.586 578.019 389.679C578.293 389.773 578.542 389.925 578.767 390.136C578.992 390.344 579.171 390.62 579.304 390.964C579.437 391.308 579.504 391.731 579.504 392.234V392.585H575.349V391.869H578.662C578.662 391.565 578.601 391.294 578.479 391.055C578.36 390.817 578.189 390.628 577.967 390.49C577.747 390.352 577.487 390.283 577.188 390.283C576.858 390.283 576.572 390.365 576.331 390.529C576.093 390.69 575.909 390.901 575.78 391.161C575.652 391.42 575.587 391.699 575.587 391.996V392.473C575.587 392.88 575.657 393.225 575.798 393.508C575.941 393.789 576.138 394.003 576.391 394.151C576.644 394.296 576.937 394.368 577.272 394.368C577.489 394.368 577.686 394.338 577.861 394.277C578.039 394.214 578.193 394.12 578.321 393.996C578.45 393.87 578.549 393.713 578.62 393.526L579.42 393.751C579.335 394.022 579.194 394.261 578.995 394.467C578.796 394.67 578.551 394.829 578.258 394.944C577.966 395.056 577.637 395.112 577.272 395.112ZM581.357 395V389.609H582.157V390.423H582.213C582.311 390.157 582.489 389.94 582.747 389.774C583.004 389.608 583.294 389.525 583.617 389.525C583.678 389.525 583.754 389.526 583.845 389.529C583.936 389.531 584.005 389.534 584.052 389.539V390.381C584.024 390.374 583.96 390.364 583.859 390.35C583.761 390.333 583.657 390.325 583.547 390.325C583.285 390.325 583.051 390.38 582.845 390.49C582.641 390.598 582.48 390.748 582.361 390.939C582.244 391.129 582.185 391.345 582.185 391.589V395H581.357ZM591.232 395.098C590.82 395.098 590.449 395.016 590.119 394.853C589.789 394.689 589.525 394.464 589.326 394.179C589.127 393.893 589.018 393.568 589 393.203H589.842C589.875 393.528 590.022 393.797 590.284 394.01C590.548 394.221 590.864 394.326 591.232 394.326C591.527 394.326 591.789 394.257 592.018 394.119C592.249 393.981 592.431 393.792 592.562 393.551C592.695 393.307 592.762 393.032 592.762 392.726C592.762 392.412 592.693 392.133 592.555 391.887C592.419 391.639 592.232 391.444 591.993 391.301C591.755 391.158 591.482 391.086 591.176 391.083C590.956 391.081 590.73 391.115 590.498 391.185C590.267 391.253 590.076 391.341 589.926 391.448L589.112 391.35L589.547 387.812H593.281V388.584H590.277L590.024 390.704H590.067C590.214 390.587 590.399 390.49 590.621 390.413C590.843 390.336 591.075 390.297 591.316 390.297C591.756 390.297 592.148 390.402 592.492 390.613C592.838 390.821 593.109 391.107 593.306 391.469C593.505 391.832 593.604 392.246 593.604 392.712C593.604 393.17 593.501 393.58 593.295 393.94C593.092 394.298 592.811 394.581 592.453 394.789C592.095 394.995 591.688 395.098 591.232 395.098Z" fill="#615E83"/>
<path d="M668.411 395H667.498L670.138 387.812H671.036L673.675 395H672.763L670.615 388.949H670.559L668.411 395ZM668.748 392.192H672.426V392.964H668.748V392.192ZM676.104 391.757V395H675.275V389.609H676.076V390.452H676.146C676.272 390.178 676.464 389.958 676.721 389.792C676.979 389.623 677.311 389.539 677.718 389.539C678.083 389.539 678.403 389.614 678.676 389.764C678.95 389.911 679.163 390.136 679.315 390.438C679.467 390.737 679.543 391.116 679.543 391.575V395H678.715V391.631C678.715 391.207 678.605 390.877 678.385 390.641C678.165 390.402 677.863 390.283 677.479 390.283C677.215 390.283 676.979 390.34 676.771 390.455C676.565 390.57 676.402 390.737 676.283 390.957C676.163 391.177 676.104 391.444 676.104 391.757ZM685.468 390.817L684.724 391.027C684.677 390.903 684.608 390.783 684.517 390.666C684.428 390.546 684.306 390.448 684.152 390.371C683.998 390.294 683.8 390.255 683.559 390.255C683.229 390.255 682.954 390.331 682.734 390.483C682.516 390.633 682.408 390.824 682.408 391.055C682.408 391.261 682.483 391.424 682.632 391.543C682.782 391.662 683.016 391.762 683.334 391.841L684.134 392.038C684.616 392.155 684.976 392.334 685.212 392.575C685.448 392.814 685.566 393.121 685.566 393.498C685.566 393.807 685.477 394.083 685.3 394.326C685.124 394.569 684.878 394.761 684.563 394.902C684.247 395.042 683.879 395.112 683.461 395.112C682.911 395.112 682.456 394.993 682.095 394.754C681.735 394.516 681.507 394.167 681.411 393.708L682.197 393.512C682.272 393.802 682.414 394.02 682.622 394.165C682.832 394.31 683.107 394.382 683.447 394.382C683.833 394.382 684.139 394.3 684.366 394.137C684.595 393.971 684.71 393.772 684.71 393.54C684.71 393.353 684.644 393.196 684.513 393.07C684.382 392.941 684.181 392.845 683.91 392.782L683.011 392.571C682.518 392.454 682.155 392.273 681.923 392.027C681.694 391.779 681.579 391.469 681.579 391.097C681.579 390.793 681.665 390.524 681.836 390.29C682.009 390.056 682.244 389.872 682.541 389.739C682.841 389.606 683.18 389.539 683.559 389.539C684.092 389.539 684.511 389.656 684.815 389.89C685.122 390.124 685.339 390.433 685.468 390.817ZM688.627 395L686.985 389.609H687.855L689.021 393.737H689.077L690.228 389.609H691.112L692.249 393.723H692.305L693.471 389.609H694.341L692.699 395H691.884L690.705 390.859H690.621L689.442 395H688.627ZM698.106 395.112C697.586 395.112 697.138 394.998 696.762 394.768C696.387 394.537 696.098 394.214 695.895 393.8C695.694 393.383 695.593 392.899 695.593 392.347C695.593 391.795 695.694 391.308 695.895 390.887C696.098 390.463 696.381 390.133 696.744 389.897C697.109 389.658 697.535 389.539 698.022 389.539C698.302 389.539 698.58 389.586 698.853 389.679C699.127 389.773 699.376 389.925 699.601 390.136C699.826 390.344 700.005 390.62 700.138 390.964C700.271 391.308 700.338 391.731 700.338 392.234V392.585H696.183V391.869H699.496C699.496 391.565 699.435 391.294 699.313 391.055C699.194 390.817 699.023 390.628 698.801 390.49C698.581 390.352 698.321 390.283 698.022 390.283C697.692 390.283 697.406 390.365 697.165 390.529C696.927 390.69 696.743 390.901 696.614 391.161C696.486 391.42 696.421 391.699 696.421 391.996V392.473C696.421 392.88 696.491 393.225 696.632 393.508C696.775 393.789 696.972 394.003 697.225 394.151C697.478 394.296 697.771 394.368 698.106 394.368C698.323 394.368 698.52 394.338 698.695 394.277C698.873 394.214 699.027 394.12 699.155 393.996C699.284 393.87 699.383 393.713 699.454 393.526L700.254 393.751C700.169 394.022 700.028 394.261 699.829 394.467C699.63 394.67 699.384 394.829 699.092 394.944C698.8 395.056 698.471 395.112 698.106 395.112ZM702.191 395V389.609H702.991V390.423H703.047C703.145 390.157 703.323 389.94 703.581 389.774C703.838 389.608 704.128 389.525 704.451 389.525C704.512 389.525 704.588 389.526 704.679 389.529C704.77 389.531 704.839 389.534 704.886 389.539V390.381C704.858 390.374 704.794 390.364 704.693 390.35C704.595 390.333 704.491 390.325 704.381 390.325C704.119 390.325 703.885 390.38 703.679 390.49C703.475 390.598 703.314 390.748 703.195 390.939C703.078 391.129 703.019 391.345 703.019 391.589V395H702.191ZM712.066 395.098C711.654 395.098 711.283 395.016 710.953 394.853C710.623 394.689 710.359 394.464 710.16 394.179C709.961 393.893 709.852 393.568 709.834 393.203H710.676C710.709 393.528 710.856 393.797 711.118 394.01C711.382 394.221 711.698 394.326 712.066 394.326C712.36 394.326 712.623 394.257 712.852 394.119C713.083 393.981 713.265 393.792 713.396 393.551C713.529 393.307 713.596 393.032 713.596 392.726C713.596 392.412 713.527 392.133 713.389 391.887C713.253 391.639 713.066 391.444 712.827 391.301C712.589 391.158 712.316 391.086 712.01 391.083C711.79 391.081 711.564 391.115 711.332 391.185C711.101 391.253 710.91 391.341 710.76 391.448L709.946 391.35L710.381 387.812H714.115V388.584H711.111L710.858 390.704H710.901C711.048 390.587 711.233 390.49 711.455 390.413C711.677 390.336 711.909 390.297 712.15 390.297C712.59 390.297 712.982 390.402 713.326 390.613C713.672 390.821 713.943 391.107 714.14 391.469C714.339 391.832 714.438 392.246 714.438 392.712C714.438 393.17 714.335 393.58 714.129 393.94C713.926 394.298 713.645 394.581 713.287 394.789C712.929 394.995 712.522 395.098 712.066 395.098Z" fill="#615E83"/>
<path d="M789.244 395H788.331L790.971 387.812H791.869L794.508 395H793.596L791.448 388.949H791.392L789.244 395ZM789.581 392.192H793.259V392.964H789.581V392.192ZM796.937 391.757V395H796.108V389.609H796.909V390.452H796.979C797.105 390.178 797.297 389.958 797.554 389.792C797.812 389.623 798.144 389.539 798.551 389.539C798.916 389.539 799.236 389.614 799.509 389.764C799.783 389.911 799.996 390.136 800.148 390.438C800.3 390.737 800.376 391.116 800.376 391.575V395H799.548V391.631C799.548 391.207 799.438 390.877 799.218 390.641C798.998 390.402 798.696 390.283 798.313 390.283C798.048 390.283 797.812 390.34 797.604 390.455C797.398 390.57 797.235 390.737 797.116 390.957C796.996 391.177 796.937 391.444 796.937 391.757ZM806.301 390.817L805.557 391.027C805.51 390.903 805.441 390.783 805.35 390.666C805.261 390.546 805.139 390.448 804.985 390.371C804.831 390.294 804.633 390.255 804.392 390.255C804.062 390.255 803.787 390.331 803.567 390.483C803.35 390.633 803.241 390.824 803.241 391.055C803.241 391.261 803.316 391.424 803.465 391.543C803.615 391.662 803.849 391.762 804.167 391.841L804.967 392.038C805.449 392.155 805.809 392.334 806.045 392.575C806.281 392.814 806.399 393.121 806.399 393.498C806.399 393.807 806.31 394.083 806.133 394.326C805.957 394.569 805.711 394.761 805.396 394.902C805.08 395.042 804.712 395.112 804.294 395.112C803.744 395.112 803.289 394.993 802.928 394.754C802.568 394.516 802.34 394.167 802.244 393.708L803.03 393.512C803.105 393.802 803.247 394.02 803.455 394.165C803.665 394.31 803.94 394.382 804.28 394.382C804.666 394.382 804.972 394.3 805.199 394.137C805.428 393.971 805.543 393.772 805.543 393.54C805.543 393.353 805.477 393.196 805.346 393.07C805.215 392.941 805.014 392.845 804.743 392.782L803.844 392.571C803.351 392.454 802.988 392.273 802.756 392.027C802.527 391.779 802.412 391.469 802.412 391.097C802.412 390.793 802.498 390.524 802.669 390.29C802.842 390.056 803.077 389.872 803.374 389.739C803.674 389.606 804.013 389.539 804.392 389.539C804.925 389.539 805.344 389.656 805.648 389.89C805.955 390.124 806.172 390.433 806.301 390.817ZM809.46 395L807.818 389.609H808.688L809.854 393.737H809.91L811.061 389.609H811.945L813.082 393.723H813.138L814.304 389.609H815.174L813.532 395H812.717L811.538 390.859H811.454L810.275 395H809.46ZM818.939 395.112C818.419 395.112 817.971 394.998 817.595 394.768C817.22 394.537 816.931 394.214 816.728 393.8C816.527 393.383 816.426 392.899 816.426 392.347C816.426 391.795 816.527 391.308 816.728 390.887C816.931 390.463 817.214 390.133 817.577 389.897C817.942 389.658 818.368 389.539 818.855 389.539C819.135 389.539 819.413 389.586 819.686 389.679C819.96 389.773 820.209 389.925 820.434 390.136C820.659 390.344 820.838 390.62 820.971 390.964C821.104 391.308 821.171 391.731 821.171 392.234V392.585H817.016V391.869H820.329C820.329 391.565 820.268 391.294 820.146 391.055C820.027 390.817 819.856 390.628 819.634 390.49C819.414 390.352 819.154 390.283 818.855 390.283C818.525 390.283 818.239 390.365 817.998 390.529C817.76 390.69 817.576 390.901 817.447 391.161C817.319 391.42 817.254 391.699 817.254 391.996V392.473C817.254 392.88 817.324 393.225 817.465 393.508C817.608 393.789 817.805 394.003 818.058 394.151C818.311 394.296 818.604 394.368 818.939 394.368C819.156 394.368 819.353 394.338 819.528 394.277C819.706 394.214 819.86 394.12 819.988 393.996C820.117 393.87 820.216 393.713 820.287 393.526L821.087 393.751C821.002 394.022 820.861 394.261 820.662 394.467C820.463 394.67 820.217 394.829 819.925 394.944C819.633 395.056 819.304 395.112 818.939 395.112ZM823.024 395V389.609H823.824V390.423H823.88C823.978 390.157 824.156 389.94 824.414 389.774C824.671 389.608 824.961 389.525 825.284 389.525C825.345 389.525 825.421 389.526 825.512 389.529C825.603 389.531 825.672 389.534 825.719 389.539V390.381C825.691 390.374 825.627 390.364 825.526 390.35C825.428 390.333 825.324 390.325 825.214 390.325C824.952 390.325 824.718 390.38 824.512 390.49C824.308 390.598 824.147 390.748 824.028 390.939C823.911 391.129 823.852 391.345 823.852 391.589V395H823.024ZM832.899 395.098C832.487 395.098 832.116 395.016 831.786 394.853C831.456 394.689 831.192 394.464 830.993 394.179C830.794 393.893 830.685 393.568 830.667 393.203H831.509C831.542 393.528 831.689 393.797 831.951 394.01C832.215 394.221 832.531 394.326 832.899 394.326C833.193 394.326 833.456 394.257 833.685 394.119C833.916 393.981 834.098 393.792 834.229 393.551C834.362 393.307 834.429 393.032 834.429 392.726C834.429 392.412 834.36 392.133 834.222 391.887C834.086 391.639 833.899 391.444 833.66 391.301C833.422 391.158 833.149 391.086 832.843 391.083C832.623 391.081 832.397 391.115 832.165 391.185C831.934 391.253 831.743 391.341 831.593 391.448L830.779 391.35L831.214 387.812H834.948V388.584H831.944L831.691 390.704H831.734C831.881 390.587 832.066 390.49 832.288 390.413C832.51 390.336 832.742 390.297 832.983 390.297C833.423 390.297 833.815 390.402 834.159 390.613C834.505 390.821 834.776 391.107 834.973 391.469C835.172 391.832 835.271 392.246 835.271 392.712C835.271 393.17 835.168 393.58 834.962 393.94C834.759 394.298 834.478 394.581 834.12 394.789C833.762 394.995 833.355 395.098 832.899 395.098Z" fill="#615E83"/>
<path d="M22.1346 23.7191V31.9336H21.1399V24.762H21.0917L19.0862 26.0936V25.0829L21.1399 23.7191H22.1346ZM27.1764 32.0459C26.572 32.0459 26.0573 31.8815 25.6321 31.5526C25.207 31.221 24.8821 30.741 24.6575 30.1126C24.4329 29.4816 24.3206 28.7195 24.3206 27.8264C24.3206 26.9386 24.4329 26.1805 24.6575 25.5522C24.8848 24.9211 25.211 24.4398 25.6361 24.1082C26.064 23.774 26.5774 23.6068 27.1764 23.6068C27.7753 23.6068 28.2874 23.774 28.7126 24.1082C29.1404 24.4398 29.4666 24.9211 29.6912 25.5522C29.9185 26.1805 30.0322 26.9386 30.0322 27.8264C30.0322 28.7195 29.9199 29.4816 29.6952 30.1126C29.4706 30.741 29.1457 31.221 28.7206 31.5526C28.2954 31.8815 27.7807 32.0459 27.1764 32.0459ZM27.1764 31.1635C27.7753 31.1635 28.2406 30.8747 28.5722 30.2971C28.9037 29.7195 29.0695 28.896 29.0695 27.8264C29.0695 27.1151 28.9933 26.5094 28.8409 26.0094C28.6912 25.5094 28.4746 25.1283 28.1911 24.8663C27.9104 24.6042 27.5721 24.4732 27.1764 24.4732C26.5827 24.4732 26.1188 24.766 25.7846 25.3516C25.4503 25.9345 25.2832 26.7595 25.2832 27.8264C25.2832 28.5376 25.3581 29.142 25.5078 29.6393C25.6575 30.1367 25.8728 30.515 26.1536 30.7744C26.437 31.0338 26.7779 31.1635 27.1764 31.1635ZM34.2357 32.0459C33.6313 32.0459 33.1166 31.8815 32.6914 31.5526C32.2663 31.221 31.9414 30.741 31.7168 30.1126C31.4922 29.4816 31.3798 28.7195 31.3798 27.8264C31.3798 26.9386 31.4922 26.1805 31.7168 25.5522C31.9441 24.9211 32.2703 24.4398 32.6954 24.1082C33.1233 23.774 33.6367 23.6068 34.2357 23.6068C34.8346 23.6068 35.3467 23.774 35.7719 24.1082C36.1997 24.4398 36.5259 24.9211 36.7505 25.5522C36.9778 26.1805 37.0915 26.9386 37.0915 27.8264C37.0915 28.7195 36.9792 29.4816 36.7545 30.1126C36.5299 30.741 36.205 31.221 35.7799 31.5526C35.3547 31.8815 34.84 32.0459 34.2357 32.0459ZM34.2357 31.1635C34.8346 31.1635 35.2999 30.8747 35.6315 30.2971C35.963 29.7195 36.1288 28.896 36.1288 27.8264C36.1288 27.1151 36.0526 26.5094 35.9002 26.0094C35.7505 25.5094 35.5339 25.1283 35.2504 24.8663C34.9697 24.6042 34.6314 24.4732 34.2357 24.4732C33.642 24.4732 33.1781 24.766 32.8438 25.3516C32.5096 25.9345 32.3425 26.7595 32.3425 27.8264C32.3425 28.5376 32.4173 29.142 32.5671 29.6393C32.7168 30.1367 32.9321 30.515 33.2129 30.7744C33.4963 31.0338 33.8372 31.1635 34.2357 31.1635ZM42.8031 30.3934V29.9602C42.8031 29.6607 42.8646 29.3866 42.9876 29.138C43.1133 28.8866 43.2951 28.6861 43.5331 28.5363C43.7737 28.3839 44.0652 28.3077 44.4075 28.3077C44.7551 28.3077 45.0465 28.3839 45.2818 28.5363C45.5172 28.6861 45.695 28.8866 45.8153 29.138C45.9356 29.3866 45.9958 29.6607 45.9958 29.9602V30.3934C45.9958 30.6929 45.9343 30.9683 45.8113 31.2196C45.691 31.4683 45.5118 31.6689 45.2738 31.8213C45.0385 31.971 44.7497 32.0459 44.4075 32.0459C44.0598 32.0459 43.767 31.971 43.5291 31.8213C43.2911 31.6689 43.1106 31.4683 42.9876 31.2196C42.8646 30.9683 42.8031 30.6929 42.8031 30.3934ZM43.6213 29.9602V30.3934C43.6213 30.6421 43.6801 30.8653 43.7978 31.0632C43.9154 31.2584 44.1187 31.356 44.4075 31.356C44.6882 31.356 44.8861 31.2584 45.0011 31.0632C45.1187 30.8653 45.1776 30.6421 45.1776 30.3934V29.9602C45.1776 29.7115 45.1214 29.4896 45.0091 29.2944C44.8968 29.0965 44.6962 28.9976 44.4075 28.9976C44.1267 28.9976 43.9248 29.0965 43.8018 29.2944C43.6815 29.4896 43.6213 29.7115 43.6213 29.9602ZM38.7119 25.6925V25.2594C38.7119 24.9599 38.7734 24.6858 38.8964 24.4371C39.0221 24.1858 39.2039 23.9852 39.4419 23.8355C39.6825 23.683 39.974 23.6068 40.3163 23.6068C40.6639 23.6068 40.9554 23.683 41.1907 23.8355C41.426 23.9852 41.6038 24.1858 41.7241 24.4371C41.8445 24.6858 41.9046 24.9599 41.9046 25.2594V25.6925C41.9046 25.992 41.8431 26.2674 41.7201 26.5188C41.5998 26.7675 41.4206 26.968 41.1826 27.1204C40.9473 27.2702 40.6585 27.3451 40.3163 27.3451C39.9687 27.3451 39.6759 27.2702 39.4379 27.1204C39.1999 26.968 39.0194 26.7675 38.8964 26.5188C38.7734 26.2674 38.7119 25.992 38.7119 25.6925ZM39.5301 25.2594V25.6925C39.5301 25.9412 39.589 26.1645 39.7066 26.3624C39.8243 26.5576 40.0275 26.6552 40.3163 26.6552C40.597 26.6552 40.7949 26.5576 40.9099 26.3624C41.0276 26.1645 41.0864 25.9412 41.0864 25.6925V25.2594C41.0864 25.0107 41.0302 24.7887 40.9179 24.5935C40.8056 24.3957 40.6051 24.2967 40.3163 24.2967C40.0355 24.2967 39.8336 24.3957 39.7106 24.5935C39.5903 24.7887 39.5301 25.0107 39.5301 25.2594ZM39.0167 31.9336L44.6642 23.7191H45.5787L39.9312 31.9336H39.0167Z" fill="#615E83"/>
<path d="M27.1233 57.7846C27.4602 57.7872 27.7971 57.8514 28.134 57.9771C28.4709 58.1028 28.7785 58.3113 29.0565 58.6028C29.3346 58.8916 29.5579 59.286 29.7264 59.786C29.8948 60.2861 29.9791 60.9131 29.9791 61.6672C29.9791 62.3972 29.9095 63.0456 29.7705 63.6125C29.6341 64.1767 29.4362 64.6527 29.1769 65.0404C28.9202 65.4281 28.6073 65.7223 28.2383 65.9228C27.872 66.1234 27.4575 66.2236 26.9949 66.2236C26.535 66.2236 26.1245 66.1327 25.7635 65.9509C25.4052 65.7664 25.1111 65.511 24.8811 65.1848C24.6538 64.8559 24.5081 64.4749 24.4439 64.0417H25.4226C25.5109 64.4187 25.686 64.7302 25.948 64.9762C26.2128 65.2196 26.5617 65.3412 26.9949 65.3412C27.6286 65.3412 28.1287 65.0645 28.495 64.511C28.864 63.9574 29.0485 63.1753 29.0485 62.1645H28.9843C28.8346 62.3892 28.6568 62.583 28.4509 62.7461C28.245 62.9092 28.0164 63.0349 27.765 63.1232C27.5137 63.2114 27.2463 63.2555 26.9628 63.2555C26.4922 63.2555 26.0604 63.1392 25.6673 62.9066C25.2769 62.6713 24.964 62.349 24.7287 61.9399C24.4961 61.5281 24.3798 61.0575 24.3798 60.5281C24.3798 60.0254 24.4921 59.5654 24.7167 59.1483C24.944 58.7285 25.2622 58.3942 25.6713 58.1456C26.0831 57.8969 26.5671 57.7765 27.1233 57.7846ZM27.1233 58.667C26.7863 58.667 26.4828 58.7512 26.2128 58.9197C25.9454 59.0855 25.7328 59.3101 25.575 59.5935C25.4199 59.8743 25.3424 60.1858 25.3424 60.5281C25.3424 60.8703 25.4173 61.1819 25.567 61.4626C25.7194 61.7407 25.9267 61.9627 26.1887 62.1284C26.4534 62.2916 26.7543 62.3731 27.0912 62.3731C27.3452 62.3731 27.5818 62.3236 27.8011 62.2247C28.0204 62.1231 28.2116 61.9854 28.3747 61.8116C28.5405 61.6351 28.6702 61.4359 28.7637 61.2139C28.8573 60.9893 28.9041 60.7554 28.9041 60.512C28.9041 60.1911 28.8266 59.8903 28.6715 59.6096C28.5191 59.3288 28.3078 59.1015 28.0378 58.9277C27.7704 58.7539 27.4655 58.667 27.1233 58.667ZM34.2357 66.2236C33.6314 66.2236 33.1166 66.0592 32.6915 65.7303C32.2663 65.3987 31.9414 64.9187 31.7168 64.2904C31.4922 63.6593 31.3799 62.8972 31.3799 62.0041C31.3799 61.1163 31.4922 60.3583 31.7168 59.7299C31.9441 59.0988 32.2703 58.6175 32.6955 58.2859C33.1233 57.9517 33.6367 57.7846 34.2357 57.7846C34.8347 57.7846 35.3467 57.9517 35.7719 58.2859C36.1997 58.6175 36.526 59.0988 36.7506 59.7299C36.9779 60.3583 37.0915 61.1163 37.0915 62.0041C37.0915 62.8972 36.9792 63.6593 36.7546 64.2904C36.53 64.9187 36.2051 65.3987 35.7799 65.7303C35.3548 66.0592 34.84 66.2236 34.2357 66.2236ZM34.2357 65.3412C34.8347 65.3412 35.2999 65.0524 35.6315 64.4749C35.9631 63.8973 36.1289 63.0737 36.1289 62.0041C36.1289 61.2928 36.0527 60.6872 35.9002 60.1871C35.7505 59.6871 35.5339 59.3061 35.2505 59.044C34.9697 58.782 34.6314 58.6509 34.2357 58.6509C33.6421 58.6509 33.1781 58.9437 32.8439 59.5293C32.5096 60.1123 32.3425 60.9372 32.3425 62.0041C32.3425 62.7154 32.4174 63.3197 32.5671 63.8171C32.7169 64.3144 32.9321 64.6928 33.2129 64.9522C33.4963 65.2115 33.8373 65.3412 34.2357 65.3412ZM42.8031 64.5711V64.1379C42.8031 63.8384 42.8646 63.5644 42.9876 63.3157C43.1133 63.0643 43.2951 62.8638 43.5331 62.714C43.7738 62.5616 44.0652 62.4854 44.4075 62.4854C44.7551 62.4854 45.0466 62.5616 45.2819 62.714C45.5172 62.8638 45.695 63.0643 45.8153 63.3157C45.9357 63.5644 45.9958 63.8384 45.9958 64.1379V64.5711C45.9958 64.8706 45.9343 65.146 45.8113 65.3974C45.691 65.6461 45.5119 65.8466 45.2739 65.999C45.0386 66.1488 44.7498 66.2236 44.4075 66.2236C44.0599 66.2236 43.7671 66.1488 43.5291 65.999C43.2911 65.8466 43.1106 65.6461 42.9876 65.3974C42.8646 65.146 42.8031 64.8706 42.8031 64.5711ZM43.6214 64.1379V64.5711C43.6214 64.8198 43.6802 65.0431 43.7978 65.2409C43.9155 65.4361 44.1187 65.5337 44.4075 65.5337C44.6883 65.5337 44.8861 65.4361 45.0011 65.2409C45.1188 65.0431 45.1776 64.8198 45.1776 64.5711V64.1379C45.1776 63.8893 45.1215 63.6673 45.0091 63.4721C44.8968 63.2742 44.6963 63.1753 44.4075 63.1753C44.1267 63.1753 43.9248 63.2742 43.8018 63.4721C43.6815 63.6673 43.6214 63.8893 43.6214 64.1379ZM38.7119 59.8703V59.4371C38.7119 59.1376 38.7734 58.8635 38.8964 58.6148C39.0221 58.3635 39.2039 58.1629 39.4419 58.0132C39.6826 57.8608 39.9741 57.7846 40.3163 57.7846C40.6639 57.7846 40.9554 57.8608 41.1907 58.0132C41.426 58.1629 41.6038 58.3635 41.7242 58.6148C41.8445 58.8635 41.9047 59.1376 41.9047 59.4371V59.8703C41.9047 60.1698 41.8432 60.4452 41.7202 60.6965C41.5998 60.9452 41.4207 61.1458 41.1827 61.2982C40.9474 61.4479 40.6586 61.5228 40.3163 61.5228C39.9687 61.5228 39.6759 61.4479 39.4379 61.2982C39.1999 61.1458 39.0194 60.9452 38.8964 60.6965C38.7734 60.4452 38.7119 60.1698 38.7119 59.8703ZM39.5302 59.4371V59.8703C39.5302 60.1189 39.589 60.3422 39.7067 60.5401C39.8243 60.7353 40.0275 60.8329 40.3163 60.8329C40.5971 60.8329 40.795 60.7353 40.9099 60.5401C41.0276 60.3422 41.0864 60.1189 41.0864 59.8703V59.4371C41.0864 59.1884 41.0303 58.9665 40.918 58.7713C40.8057 58.5734 40.6051 58.4745 40.3163 58.4745C40.0356 58.4745 39.8337 58.5734 39.7107 58.7713C39.5903 58.9665 39.5302 59.1884 39.5302 59.4371ZM39.0168 66.1113L44.6642 57.8969H45.5787L39.9313 66.1113H39.0168Z" fill="#615E83"/>
<path d="M27.2275 100.401C26.6767 100.401 26.19 100.304 25.7676 100.109C25.3477 99.9107 25.0202 99.6393 24.7849 99.2943C24.5496 98.9467 24.4332 98.551 24.4359 98.1071C24.4332 97.7595 24.5014 97.4386 24.6405 97.1445C24.7795 96.8477 24.9694 96.6003 25.21 96.4024C25.4534 96.2019 25.7248 96.0749 26.0243 96.0214V95.9733C25.6312 95.8717 25.3183 95.6511 25.0857 95.3115C24.8531 94.9692 24.7381 94.5801 24.7407 94.1443C24.7381 93.7271 24.8437 93.3541 25.0576 93.0252C25.2715 92.6963 25.5657 92.4369 25.94 92.2471C26.3171 92.0572 26.7462 91.9623 27.2275 91.9623C27.7035 91.9623 28.1287 92.0572 28.503 92.2471C28.8774 92.4369 29.1715 92.6963 29.3854 93.0252C29.602 93.3541 29.7117 93.7271 29.7143 94.1443C29.7117 94.5801 29.5927 94.9692 29.3574 95.3115C29.1247 95.6511 28.8159 95.8717 28.4308 95.9733V96.0214C28.7276 96.0749 28.995 96.2019 29.233 96.4024C29.471 96.6003 29.6609 96.8477 29.8026 97.1445C29.9443 97.4386 30.0165 97.7595 30.0192 98.1071C30.0165 98.551 29.8962 98.9467 29.6582 99.2943C29.4229 99.6393 29.0953 99.9107 28.6755 100.109C28.2584 100.304 27.7757 100.401 27.2275 100.401ZM27.2275 99.519C27.5992 99.519 27.9201 99.4588 28.1902 99.3385C28.4602 99.2181 28.6688 99.0483 28.8159 98.8291C28.963 98.6098 29.0378 98.3531 29.0405 98.059C29.0378 97.7488 28.9576 97.4747 28.7998 97.2367C28.6421 96.9987 28.4268 96.8116 28.1541 96.6752C27.884 96.5388 27.5752 96.4706 27.2275 96.4706C26.8773 96.4706 26.5644 96.5388 26.289 96.6752C26.0162 96.8116 25.801 96.9987 25.6432 97.2367C25.4881 97.4747 25.4119 97.7488 25.4146 98.059C25.4119 98.3531 25.4828 98.6098 25.6272 98.8291C25.7742 99.0483 25.9841 99.2181 26.2569 99.3385C26.5296 99.4588 26.8532 99.519 27.2275 99.519ZM27.2275 95.6203C27.5217 95.6203 27.7824 95.5615 28.0097 95.4438C28.2396 95.3262 28.4201 95.1617 28.5512 94.9505C28.6822 94.7392 28.749 94.4919 28.7517 94.2084C28.749 93.9303 28.6835 93.6884 28.5552 93.4825C28.4268 93.2739 28.249 93.1134 28.0217 93.0011C27.7944 92.8862 27.5297 92.8287 27.2275 92.8287C26.92 92.8287 26.6513 92.8862 26.4213 93.0011C26.1914 93.1134 26.0136 93.2739 25.8879 93.4825C25.7622 93.6884 25.7007 93.9303 25.7034 94.2084C25.7007 94.4919 25.7635 94.7392 25.8919 94.9505C26.0229 95.1617 26.2034 95.3262 26.4334 95.4438C26.6633 95.5615 26.9281 95.6203 27.2275 95.6203ZM34.2357 100.401C33.6314 100.401 33.1166 100.237 32.6915 99.908C32.2663 99.5764 31.9414 99.0965 31.7168 98.4681C31.4922 97.837 31.3799 97.0749 31.3799 96.1818C31.3799 95.2941 31.4922 94.536 31.7168 93.9076C31.9441 93.2766 32.2703 92.7952 32.6955 92.4637C33.1233 92.1294 33.6367 91.9623 34.2357 91.9623C34.8347 91.9623 35.3467 92.1294 35.7719 92.4637C36.1997 92.7952 36.526 93.2766 36.7506 93.9076C36.9779 94.536 37.0915 95.2941 37.0915 96.1818C37.0915 97.0749 36.9792 97.837 36.7546 98.4681C36.53 99.0965 36.2051 99.5764 35.7799 99.908C35.3548 100.237 34.84 100.401 34.2357 100.401ZM34.2357 99.519C34.8347 99.519 35.2999 99.2302 35.6315 98.6526C35.9631 98.075 36.1289 97.2514 36.1289 96.1818C36.1289 95.4706 36.0527 94.8649 35.9002 94.3649C35.7505 93.8648 35.5339 93.4838 35.2505 93.2217C34.9697 92.9597 34.6314 92.8287 34.2357 92.8287C33.6421 92.8287 33.1781 93.1215 32.8439 93.7071C32.5096 94.29 32.3425 95.1149 32.3425 96.1818C32.3425 96.8931 32.4174 97.4974 32.5671 97.9948C32.7169 98.4922 32.9321 98.8705 33.2129 99.1299C33.4963 99.3893 33.8373 99.519 34.2357 99.519ZM42.8031 98.7489V98.3157C42.8031 98.0162 42.8646 97.7421 42.9876 97.4934C43.1133 97.2421 43.2951 97.0415 43.5331 96.8918C43.7738 96.7394 44.0652 96.6632 44.4075 96.6632C44.7551 96.6632 45.0466 96.7394 45.2819 96.8918C45.5172 97.0415 45.695 97.2421 45.8153 97.4934C45.9357 97.7421 45.9958 98.0162 45.9958 98.3157V98.7489C45.9958 99.0483 45.9343 99.3238 45.8113 99.5751C45.691 99.8238 45.5119 100.024 45.2739 100.177C45.0386 100.326 44.7498 100.401 44.4075 100.401C44.0599 100.401 43.7671 100.326 43.5291 100.177C43.2911 100.024 43.1106 99.8238 42.9876 99.5751C42.8646 99.3238 42.8031 99.0483 42.8031 98.7489ZM43.6214 98.3157V98.7489C43.6214 98.9975 43.6802 99.2208 43.7978 99.4187C43.9155 99.6139 44.1187 99.7115 44.4075 99.7115C44.6883 99.7115 44.8861 99.6139 45.0011 99.4187C45.1188 99.2208 45.1776 98.9975 45.1776 98.7489V98.3157C45.1776 98.067 45.1215 97.845 45.0091 97.6498C44.8968 97.452 44.6963 97.353 44.4075 97.353C44.1267 97.353 43.9248 97.452 43.8018 97.6498C43.6815 97.845 43.6214 98.067 43.6214 98.3157ZM38.7119 94.048V93.6148C38.7119 93.3153 38.7734 93.0413 38.8964 92.7926C39.0221 92.5412 39.2039 92.3407 39.4419 92.1909C39.6826 92.0385 39.974 91.9623 40.3163 91.9623C40.6639 91.9623 40.9554 92.0385 41.1907 92.1909C41.426 92.3407 41.6038 92.5412 41.7242 92.7926C41.8445 93.0413 41.9047 93.3153 41.9047 93.6148V94.048C41.9047 94.3475 41.8432 94.6229 41.7202 94.8743C41.5998 95.1229 41.4207 95.3235 41.1827 95.4759C40.9474 95.6256 40.6586 95.7005 40.3163 95.7005C39.9687 95.7005 39.6759 95.6256 39.4379 95.4759C39.1999 95.3235 39.0194 95.1229 38.8964 94.8743C38.7734 94.6229 38.7119 94.3475 38.7119 94.048ZM39.5302 93.6148V94.048C39.5302 94.2967 39.589 94.52 39.7067 94.7178C39.8243 94.913 40.0275 95.0106 40.3163 95.0106C40.5971 95.0106 40.795 94.913 40.9099 94.7178C41.0276 94.52 41.0864 94.2967 41.0864 94.048V93.6148C41.0864 93.3661 41.0303 93.1442 40.918 92.949C40.8057 92.7511 40.6051 92.6522 40.3163 92.6522C40.0355 92.6522 39.8337 92.7511 39.7107 92.949C39.5903 93.1442 39.5302 93.3661 39.5302 93.6148ZM39.0168 100.289L44.6642 92.0746H45.5787L39.9313 100.289H39.0168Z" fill="#615E83"/>
<path d="M25.5369 134.467L29.211 127.199V127.135H24.9754V126.252H30.2378V127.183L26.5798 134.467H25.5369ZM34.2357 134.579C33.6314 134.579 33.1166 134.415 32.6915 134.086C32.2663 133.754 31.9414 133.274 31.7168 132.646C31.4922 132.015 31.3799 131.253 31.3799 130.36C31.3799 129.472 31.4922 128.714 31.7168 128.085C31.9441 127.454 32.2703 126.973 32.6955 126.641C33.1233 126.307 33.6367 126.14 34.2357 126.14C34.8347 126.14 35.3467 126.307 35.7719 126.641C36.1997 126.973 36.526 127.454 36.7506 128.085C36.9779 128.714 37.0915 129.472 37.0915 130.36C37.0915 131.253 36.9792 132.015 36.7546 132.646C36.53 133.274 36.2051 133.754 35.7799 134.086C35.3548 134.415 34.84 134.579 34.2357 134.579ZM34.2357 133.697C34.8347 133.697 35.2999 133.408 35.6315 132.83C35.9631 132.253 36.1289 131.429 36.1289 130.36C36.1289 129.648 36.0527 129.043 35.9002 128.543C35.7505 128.043 35.5339 127.662 35.2505 127.399C34.9697 127.137 34.6314 127.006 34.2357 127.006C33.6421 127.006 33.1781 127.299 32.8439 127.885C32.5096 128.468 32.3425 129.293 32.3425 130.36C32.3425 131.071 32.4174 131.675 32.5671 132.173C32.7169 132.67 32.9321 133.048 33.2129 133.308C33.4963 133.567 33.8373 133.697 34.2357 133.697ZM42.8031 132.927V132.493C42.8031 132.194 42.8646 131.92 42.9876 131.671C43.1133 131.42 43.2951 131.219 43.5331 131.07C43.7738 130.917 44.0652 130.841 44.4075 130.841C44.7551 130.841 45.0466 130.917 45.2819 131.07C45.5172 131.219 45.695 131.42 45.8153 131.671C45.9357 131.92 45.9958 132.194 45.9958 132.493V132.927C45.9958 133.226 45.9343 133.501 45.8113 133.753C45.691 134.002 45.5119 134.202 45.2739 134.354C45.0386 134.504 44.7498 134.579 44.4075 134.579C44.0599 134.579 43.7671 134.504 43.5291 134.354C43.2911 134.202 43.1106 134.002 42.9876 133.753C42.8646 133.501 42.8031 133.226 42.8031 132.927ZM43.6214 132.493V132.927C43.6214 133.175 43.6802 133.399 43.7978 133.596C43.9155 133.792 44.1187 133.889 44.4075 133.889C44.6883 133.889 44.8861 133.792 45.0011 133.596C45.1188 133.399 45.1776 133.175 45.1776 132.927V132.493C45.1776 132.245 45.1215 132.023 45.0091 131.828C44.8968 131.63 44.6963 131.531 44.4075 131.531C44.1267 131.531 43.9248 131.63 43.8018 131.828C43.6815 132.023 43.6214 132.245 43.6214 132.493ZM38.7119 128.226V127.793C38.7119 127.493 38.7734 127.219 38.8964 126.97C39.0221 126.719 39.2039 126.518 39.4419 126.369C39.6826 126.216 39.9741 126.14 40.3163 126.14C40.6639 126.14 40.9554 126.216 41.1907 126.369C41.426 126.518 41.6038 126.719 41.7242 126.97C41.8445 127.219 41.9047 127.493 41.9047 127.793V128.226C41.9047 128.525 41.8432 128.801 41.7202 129.052C41.5998 129.301 41.4207 129.501 41.1827 129.654C40.9474 129.803 40.6586 129.878 40.3163 129.878C39.9687 129.878 39.6759 129.803 39.4379 129.654C39.1999 129.501 39.0194 129.301 38.8964 129.052C38.7734 128.801 38.7119 128.525 38.7119 128.226ZM39.5302 127.793V128.226C39.5302 128.474 39.589 128.698 39.7067 128.896C39.8243 129.091 40.0275 129.188 40.3163 129.188C40.5971 129.188 40.795 129.091 40.9099 128.896C41.0276 128.698 41.0864 128.474 41.0864 128.226V127.793C41.0864 127.544 41.0303 127.322 40.918 127.127C40.8057 126.929 40.6051 126.83 40.3163 126.83C40.0356 126.83 39.8337 126.929 39.7107 127.127C39.5903 127.322 39.5302 127.544 39.5302 127.793ZM39.0168 134.467L44.6642 126.252H45.5787L39.9313 134.467H39.0168Z" fill="#615E83"/>
<path d="M27.2356 168.757C26.8986 168.751 26.5617 168.687 26.2248 168.564C25.8879 168.441 25.5804 168.234 25.3023 167.943C25.0242 167.648 24.8009 167.251 24.6325 166.751C24.464 166.249 24.3798 165.618 24.3798 164.858C24.3798 164.131 24.4479 163.486 24.5843 162.925C24.7207 162.361 24.9186 161.886 25.1779 161.501C25.4373 161.113 25.7502 160.819 26.1165 160.619C26.4855 160.418 26.9013 160.318 27.3639 160.318C27.8238 160.318 28.233 160.41 28.5913 160.595C28.9523 160.776 29.2464 161.03 29.4737 161.357C29.701 161.683 29.848 162.059 29.9149 162.484H28.9362C28.8453 162.115 28.6688 161.809 28.4068 161.565C28.1447 161.322 27.7971 161.2 27.3639 161.2C26.7275 161.2 26.2261 161.477 25.8598 162.03C25.4961 162.584 25.313 163.361 25.3103 164.361H25.3745C25.5242 164.134 25.702 163.94 25.9079 163.779C26.1165 163.616 26.3465 163.49 26.5978 163.402C26.8492 163.314 27.1152 163.27 27.396 163.27C27.8666 163.27 28.2971 163.387 28.6875 163.623C29.0779 163.855 29.3908 164.178 29.6261 164.589C29.8614 164.999 29.9791 165.468 29.9791 165.997C29.9791 166.505 29.8654 166.971 29.6381 167.393C29.4108 167.813 29.0913 168.147 28.6795 168.396C28.2704 168.642 27.7891 168.762 27.2356 168.757ZM27.2356 167.874C27.5725 167.874 27.8746 167.79 28.142 167.622C28.4121 167.453 28.6247 167.227 28.7798 166.944C28.9376 166.66 29.0164 166.345 29.0164 165.997C29.0164 165.658 28.9402 165.349 28.7878 165.071C28.6381 164.79 28.4308 164.567 28.1661 164.401C27.9041 164.235 27.6046 164.152 27.2677 164.152C27.0136 164.152 26.777 164.203 26.5577 164.305C26.3384 164.404 26.1459 164.54 25.9801 164.714C25.817 164.888 25.6887 165.087 25.5951 165.311C25.5015 165.533 25.4547 165.767 25.4547 166.013C25.4547 166.34 25.5309 166.644 25.6833 166.928C25.8384 167.211 26.0497 167.44 26.3171 167.614C26.5871 167.788 26.8933 167.874 27.2356 167.874ZM34.2357 168.757C33.6314 168.757 33.1166 168.592 32.6915 168.263C32.2663 167.932 31.9414 167.452 31.7168 166.824C31.4922 166.192 31.3799 165.43 31.3799 164.537C31.3799 163.65 31.4922 162.891 31.7168 162.263C31.9441 161.632 32.2703 161.151 32.6955 160.819C33.1233 160.485 33.6367 160.318 34.2357 160.318C34.8347 160.318 35.3467 160.485 35.7719 160.819C36.1997 161.151 36.526 161.632 36.7506 162.263C36.9779 162.891 37.0915 163.65 37.0915 164.537C37.0915 165.43 36.9792 166.192 36.7546 166.824C36.53 167.452 36.2051 167.932 35.7799 168.263C35.3548 168.592 34.84 168.757 34.2357 168.757ZM34.2357 167.874C34.8347 167.874 35.2999 167.586 35.6315 167.008C35.9631 166.43 36.1289 165.607 36.1289 164.537C36.1289 163.826 36.0527 163.22 35.9002 162.72C35.7505 162.22 35.5339 161.839 35.2505 161.577C34.9697 161.315 34.6314 161.184 34.2357 161.184C33.6421 161.184 33.1781 161.477 32.8439 162.063C32.5096 162.645 32.3425 163.47 32.3425 164.537C32.3425 165.249 32.4174 165.853 32.5671 166.35C32.7169 166.848 32.9321 167.226 33.2129 167.485C33.4963 167.745 33.8373 167.874 34.2357 167.874ZM42.8031 167.104V166.671C42.8031 166.372 42.8646 166.098 42.9876 165.849C43.1133 165.598 43.2951 165.397 43.5331 165.247C43.7738 165.095 44.0652 165.019 44.4075 165.019C44.7551 165.019 45.0466 165.095 45.2819 165.247C45.5172 165.397 45.695 165.598 45.8153 165.849C45.9357 166.098 45.9958 166.372 45.9958 166.671V167.104C45.9958 167.404 45.9343 167.679 45.8113 167.931C45.691 168.179 45.5119 168.38 45.2739 168.532C45.0386 168.682 44.7498 168.757 44.4075 168.757C44.0599 168.757 43.7671 168.682 43.5291 168.532C43.2911 168.38 43.1106 168.179 42.9876 167.931C42.8646 167.679 42.8031 167.404 42.8031 167.104ZM43.6214 166.671V167.104C43.6214 167.353 43.6802 167.576 43.7978 167.774C43.9155 167.969 44.1187 168.067 44.4075 168.067C44.6883 168.067 44.8861 167.969 45.0011 167.774C45.1188 167.576 45.1776 167.353 45.1776 167.104V166.671C45.1776 166.422 45.1215 166.201 45.0091 166.005C44.8968 165.807 44.6963 165.709 44.4075 165.709C44.1267 165.709 43.9248 165.807 43.8018 166.005C43.6815 166.201 43.6214 166.422 43.6214 166.671ZM38.7119 162.403V161.97C38.7119 161.671 38.7734 161.397 38.8964 161.148C39.0221 160.897 39.2039 160.696 39.4419 160.546C39.6826 160.394 39.9741 160.318 40.3163 160.318C40.6639 160.318 40.9554 160.394 41.1907 160.546C41.426 160.696 41.6038 160.897 41.7242 161.148C41.8445 161.397 41.9047 161.671 41.9047 161.97V162.403C41.9047 162.703 41.8432 162.978 41.7202 163.23C41.5998 163.478 41.4207 163.679 41.1827 163.831C40.9474 163.981 40.6586 164.056 40.3163 164.056C39.9687 164.056 39.6759 163.981 39.4379 163.831C39.1999 163.679 39.0194 163.478 38.8964 163.23C38.7734 162.978 38.7119 162.703 38.7119 162.403ZM39.5302 161.97V162.403C39.5302 162.652 39.589 162.875 39.7067 163.073C39.8243 163.269 40.0275 163.366 40.3163 163.366C40.5971 163.366 40.795 163.269 40.9099 163.073C41.0276 162.875 41.0864 162.652 41.0864 162.403V161.97C41.0864 161.722 41.0303 161.5 40.918 161.304C40.8057 161.107 40.6051 161.008 40.3163 161.008C40.0356 161.008 39.8337 161.107 39.7107 161.304C39.5903 161.5 39.5302 161.722 39.5302 161.97ZM39.0168 168.645L44.6642 160.43H45.5787L39.9313 168.645H39.0168Z" fill="#615E83"/>
<path d="M27.2516 202.935C26.781 202.935 26.3572 202.841 25.9801 202.654C25.6031 202.467 25.3009 202.21 25.0737 201.884C24.8464 201.557 24.722 201.186 24.7006 200.769H25.6633C25.7007 201.14 25.8692 201.448 26.1686 201.691C26.4708 201.932 26.8318 202.052 27.2516 202.052C27.5885 202.052 27.888 201.973 28.1501 201.816C28.4148 201.658 28.622 201.441 28.7718 201.166C28.9242 200.888 29.0004 200.573 29.0004 200.223C29.0004 199.865 28.9215 199.545 28.7637 199.265C28.6087 198.981 28.3947 198.758 28.122 198.595C27.8492 198.432 27.5377 198.349 27.1874 198.346C26.9361 198.343 26.678 198.382 26.4133 198.462C26.1486 198.54 25.9307 198.64 25.7595 198.763L24.829 198.651L25.3263 194.608H29.594V195.49H26.1606L25.8718 197.913H25.92C26.0884 197.779 26.2997 197.668 26.5537 197.58C26.8077 197.492 27.0725 197.448 27.3479 197.448C27.8506 197.448 28.2985 197.568 28.6915 197.809C29.0873 198.047 29.3975 198.373 29.6221 198.787C29.8494 199.202 29.963 199.675 29.963 200.207C29.963 200.731 29.8454 201.199 29.6101 201.611C29.3774 202.02 29.0565 202.344 28.6474 202.582C28.2383 202.817 27.773 202.935 27.2516 202.935ZM34.2357 202.935C33.6314 202.935 33.1166 202.77 32.6915 202.441C32.2663 202.11 31.9414 201.63 31.7168 201.001C31.4922 200.37 31.3799 199.608 31.3799 198.715C31.3799 197.827 31.4922 197.069 31.7168 196.441C31.9441 195.81 32.2703 195.328 32.6955 194.997C33.1233 194.663 33.6367 194.496 34.2357 194.496C34.8347 194.496 35.3467 194.663 35.7719 194.997C36.1997 195.328 36.526 195.81 36.7506 196.441C36.9779 197.069 37.0915 197.827 37.0915 198.715C37.0915 199.608 36.9792 200.37 36.7546 201.001C36.53 201.63 36.2051 202.11 35.7799 202.441C35.3548 202.77 34.84 202.935 34.2357 202.935ZM34.2357 202.052C34.8347 202.052 35.2999 201.763 35.6315 201.186C35.9631 200.608 36.1289 199.785 36.1289 198.715C36.1289 198.004 36.0527 197.398 35.9002 196.898C35.7505 196.398 35.5339 196.017 35.2505 195.755C34.9697 195.493 34.6314 195.362 34.2357 195.362C33.6421 195.362 33.1781 195.655 32.8439 196.24C32.5096 196.823 32.3425 197.648 32.3425 198.715C32.3425 199.426 32.4174 200.031 32.5671 200.528C32.7169 201.025 32.9321 201.404 33.2129 201.663C33.4963 201.922 33.8373 202.052 34.2357 202.052ZM42.8031 201.282V200.849C42.8031 200.549 42.8646 200.275 42.9876 200.027C43.1133 199.775 43.2951 199.575 43.5331 199.425C43.7738 199.273 44.0652 199.196 44.4075 199.196C44.7551 199.196 45.0466 199.273 45.2819 199.425C45.5172 199.575 45.695 199.775 45.8153 200.027C45.9357 200.275 45.9958 200.549 45.9958 200.849V201.282C45.9958 201.582 45.9343 201.857 45.8113 202.108C45.691 202.357 45.5119 202.558 45.2739 202.71C45.0386 202.86 44.7498 202.935 44.4075 202.935C44.0599 202.935 43.7671 202.86 43.5291 202.71C43.2911 202.558 43.1106 202.357 42.9876 202.108C42.8646 201.857 42.8031 201.582 42.8031 201.282ZM43.6214 200.849V201.282C43.6214 201.531 43.6802 201.754 43.7978 201.952C43.9155 202.147 44.1187 202.245 44.4075 202.245C44.6883 202.245 44.8861 202.147 45.0011 201.952C45.1188 201.754 45.1776 201.531 45.1776 201.282V200.849C45.1776 200.6 45.1215 200.378 45.0091 200.183C44.8968 199.985 44.6963 199.886 44.4075 199.886C44.1267 199.886 43.9248 199.985 43.8018 200.183C43.6815 200.378 43.6214 200.6 43.6214 200.849ZM38.7119 196.581V196.148C38.7119 195.849 38.7734 195.574 38.8964 195.326C39.0221 195.074 39.2039 194.874 39.4419 194.724C39.6826 194.572 39.9741 194.496 40.3163 194.496C40.6639 194.496 40.9554 194.572 41.1907 194.724C41.426 194.874 41.6038 195.074 41.7242 195.326C41.8445 195.574 41.9047 195.849 41.9047 196.148V196.581C41.9047 196.881 41.8432 197.156 41.7202 197.407C41.5998 197.656 41.4207 197.857 41.1827 198.009C40.9474 198.159 40.6586 198.234 40.3163 198.234C39.9687 198.234 39.6759 198.159 39.4379 198.009C39.1999 197.857 39.0194 197.656 38.8964 197.407C38.7734 197.156 38.7119 196.881 38.7119 196.581ZM39.5302 196.148V196.581C39.5302 196.83 39.589 197.053 39.7067 197.251C39.8243 197.446 40.0275 197.544 40.3163 197.544C40.5971 197.544 40.795 197.446 40.9099 197.251C41.0276 197.053 41.0864 196.83 41.0864 196.581V196.148C41.0864 195.899 41.0303 195.677 40.918 195.482C40.8057 195.284 40.6051 195.185 40.3163 195.185C40.0356 195.185 39.8337 195.284 39.7107 195.482C39.5903 195.677 39.5302 195.899 39.5302 196.148ZM39.0168 202.822L44.6642 194.608H45.5787L39.9313 202.822H39.0168Z" fill="#615E83"/>
<path d="M24.1172 235.315V234.497L27.727 228.786H28.3206V230.053H27.9196L25.1921 234.369V234.433H30.0534V235.315H24.1172ZM27.9837 237V235.067V234.686V228.786H28.9303V237H27.9837ZM34.2358 237.112C33.6315 237.112 33.1168 236.948 32.6916 236.619C32.2664 236.287 31.9415 235.807 31.7169 235.179C31.4923 234.548 31.38 233.786 31.38 232.893C31.38 232.005 31.4923 231.247 31.7169 230.619C31.9442 229.987 32.2704 229.506 32.6956 229.175C33.1234 228.84 33.6368 228.673 34.2358 228.673C34.8348 228.673 35.3469 228.84 35.772 229.175C36.1999 229.506 36.5261 229.987 36.7507 230.619C36.978 231.247 37.0916 232.005 37.0916 232.893C37.0916 233.786 36.9793 234.548 36.7547 235.179C36.5301 235.807 36.2052 236.287 35.78 236.619C35.3549 236.948 34.8401 237.112 34.2358 237.112ZM34.2358 236.23C34.8348 236.23 35.3001 235.941 35.6316 235.364C35.9632 234.786 36.129 233.962 36.129 232.893C36.129 232.181 36.0528 231.576 35.9004 231.076C35.7506 230.576 35.534 230.195 35.2506 229.933C34.9698 229.671 34.6316 229.54 34.2358 229.54C33.6422 229.54 33.1783 229.832 32.844 230.418C32.5098 231.001 32.3426 231.826 32.3426 232.893C32.3426 233.604 32.4175 234.208 32.5673 234.706C32.717 235.203 32.9323 235.581 33.213 235.841C33.4965 236.1 33.8374 236.23 34.2358 236.23ZM42.8032 235.46V235.027C42.8032 234.727 42.8647 234.453 42.9877 234.204C43.1134 233.953 43.2952 233.752 43.5332 233.603C43.7739 233.45 44.0654 233.374 44.4076 233.374C44.7552 233.374 45.0467 233.45 45.282 233.603C45.5173 233.752 45.6951 233.953 45.8155 234.204C45.9358 234.453 45.996 234.727 45.996 235.027V235.46C45.996 235.759 45.9345 236.035 45.8115 236.286C45.6911 236.535 45.512 236.735 45.274 236.888C45.0387 237.037 44.7499 237.112 44.4076 237.112C44.06 237.112 43.7672 237.037 43.5292 236.888C43.2912 236.735 43.1107 236.535 42.9877 236.286C42.8647 236.035 42.8032 235.759 42.8032 235.46ZM43.6215 235.027V235.46C43.6215 235.708 43.6803 235.932 43.798 236.13C43.9156 236.325 44.1188 236.422 44.4076 236.422C44.6884 236.422 44.8863 236.325 45.0012 236.13C45.1189 235.932 45.1777 235.708 45.1777 235.46V235.027C45.1777 234.778 45.1216 234.556 45.0093 234.361C44.897 234.163 44.6964 234.064 44.4076 234.064C44.1269 234.064 43.925 234.163 43.802 234.361C43.6816 234.556 43.6215 234.778 43.6215 235.027ZM38.7121 230.759V230.326C38.7121 230.026 38.7736 229.752 38.8966 229.504C39.0222 229.252 39.2041 229.052 39.442 228.902C39.6827 228.749 39.9742 228.673 40.3164 228.673C40.6641 228.673 40.9555 228.749 41.1908 228.902C41.4261 229.052 41.604 229.252 41.7243 229.504C41.8446 229.752 41.9048 230.026 41.9048 230.326V230.759C41.9048 231.058 41.8433 231.334 41.7203 231.585C41.5999 231.834 41.4208 232.034 41.1828 232.187C40.9475 232.337 40.6587 232.411 40.3164 232.411C39.9688 232.411 39.676 232.337 39.438 232.187C39.2001 232.034 39.0196 231.834 38.8966 231.585C38.7736 231.334 38.7121 231.058 38.7121 230.759ZM39.5303 230.326V230.759C39.5303 231.008 39.5891 231.231 39.7068 231.429C39.8244 231.624 40.0276 231.722 40.3164 231.722C40.5972 231.722 40.7951 231.624 40.9101 231.429C41.0277 231.231 41.0865 231.008 41.0865 230.759V230.326C41.0865 230.077 41.0304 229.855 40.9181 229.66C40.8058 229.462 40.6052 229.363 40.3164 229.363C40.0357 229.363 39.8338 229.462 39.7108 229.66C39.5905 229.855 39.5303 230.077 39.5303 230.326ZM39.0169 237L44.6643 228.786H45.5788L39.9314 237H39.0169Z" fill="#615E83"/>
<path d="M27.1404 271.292C26.611 271.292 26.139 271.201 25.7246 271.019C25.3128 270.837 24.9852 270.585 24.7419 270.261C24.5012 269.935 24.3702 269.557 24.3488 269.126H25.3596C25.3809 269.391 25.4719 269.619 25.6323 269.812C25.7927 270.002 26.0026 270.149 26.262 270.253C26.5214 270.357 26.8089 270.41 27.1244 270.41C27.4773 270.41 27.7902 270.348 28.0629 270.225C28.3357 270.102 28.5496 269.931 28.7047 269.712C28.8598 269.492 28.9373 269.238 28.9373 268.95C28.9373 268.647 28.8625 268.381 28.7127 268.151C28.563 267.919 28.3437 267.737 28.0549 267.606C27.7661 267.475 27.4132 267.409 26.996 267.409H26.3382V266.527H26.996C27.3223 266.527 27.6084 266.468 27.8544 266.35C28.1031 266.233 28.2969 266.067 28.436 265.853C28.5777 265.639 28.6485 265.388 28.6485 265.099C28.6485 264.821 28.587 264.579 28.464 264.373C28.341 264.167 28.1672 264.007 27.9426 263.892C27.7207 263.777 27.4586 263.719 27.1565 263.719C26.873 263.719 26.6056 263.771 26.3543 263.876C26.1056 263.977 25.9024 264.126 25.7446 264.321C25.5868 264.513 25.5013 264.746 25.4879 265.019H24.5253C24.5413 264.588 24.671 264.211 24.9143 263.888C25.1577 263.562 25.4759 263.308 25.8689 263.126C26.2647 262.944 26.6992 262.853 27.1725 262.853C27.6806 262.853 28.1164 262.956 28.4801 263.162C28.8437 263.365 29.1232 263.634 29.3184 263.968C29.5136 264.302 29.6112 264.663 29.6112 265.051C29.6112 265.514 29.4895 265.908 29.2462 266.234C29.0055 266.56 28.678 266.786 28.2635 266.912V266.976C28.7822 267.062 29.1874 267.282 29.4788 267.638C29.7703 267.991 29.916 268.428 29.916 268.95C29.916 269.396 29.7943 269.797 29.551 270.153C29.3104 270.506 28.9815 270.784 28.5643 270.987C28.1472 271.19 27.6725 271.292 27.1404 271.292ZM34.2358 271.292C33.6315 271.292 33.1168 271.128 32.6916 270.799C32.2664 270.467 31.9415 269.987 31.7169 269.359C31.4923 268.728 31.38 267.966 31.38 267.072C31.38 266.185 31.4923 265.427 31.7169 264.798C31.9442 264.167 32.2704 263.686 32.6956 263.354C33.1234 263.02 33.6368 262.853 34.2358 262.853C34.8348 262.853 35.3469 263.02 35.772 263.354C36.1999 263.686 36.5261 264.167 36.7507 264.798C36.978 265.427 37.0916 266.185 37.0916 267.072C37.0916 267.966 36.9793 268.728 36.7547 269.359C36.5301 269.987 36.2052 270.467 35.78 270.799C35.3549 271.128 34.8401 271.292 34.2358 271.292ZM34.2358 270.41C34.8348 270.41 35.3001 270.121 35.6316 269.543C35.9632 268.966 36.129 268.142 36.129 267.072C36.129 266.361 36.0528 265.756 35.9004 265.255C35.7506 264.755 35.534 264.374 35.2506 264.112C34.9698 263.85 34.6316 263.719 34.2358 263.719C33.6422 263.719 33.1783 264.012 32.844 264.598C32.5098 265.181 32.3426 266.006 32.3426 267.072C32.3426 267.784 32.4175 268.388 32.5673 268.885C32.717 269.383 32.9323 269.761 33.213 270.021C33.4965 270.28 33.8374 270.41 34.2358 270.41ZM42.8032 269.639V269.206C42.8032 268.907 42.8647 268.633 42.9877 268.384C43.1134 268.133 43.2952 267.932 43.5332 267.782C43.7739 267.63 44.0654 267.554 44.4076 267.554C44.7552 267.554 45.0467 267.63 45.282 267.782C45.5173 267.932 45.6951 268.133 45.8155 268.384C45.9358 268.633 45.996 268.907 45.996 269.206V269.639C45.996 269.939 45.9345 270.214 45.8115 270.466C45.6911 270.714 45.512 270.915 45.274 271.067C45.0387 271.217 44.7499 271.292 44.4076 271.292C44.06 271.292 43.7672 271.217 43.5292 271.067C43.2912 270.915 43.1107 270.714 42.9877 270.466C42.8647 270.214 42.8032 269.939 42.8032 269.639ZM43.6215 269.206V269.639C43.6215 269.888 43.6803 270.111 43.798 270.309C43.9156 270.505 44.1188 270.602 44.4076 270.602C44.6884 270.602 44.8863 270.505 45.0012 270.309C45.1189 270.111 45.1777 269.888 45.1777 269.639V269.206C45.1777 268.958 45.1216 268.736 45.0093 268.54C44.897 268.343 44.6964 268.244 44.4076 268.244C44.1269 268.244 43.925 268.343 43.802 268.54C43.6816 268.736 43.6215 268.958 43.6215 269.206ZM38.7121 264.939V264.505C38.7121 264.206 38.7736 263.932 38.8966 263.683C39.0222 263.432 39.2041 263.231 39.442 263.082C39.6827 262.929 39.9742 262.853 40.3164 262.853C40.6641 262.853 40.9555 262.929 41.1908 263.082C41.4261 263.231 41.604 263.432 41.7243 263.683C41.8446 263.932 41.9048 264.206 41.9048 264.505V264.939C41.9048 265.238 41.8433 265.514 41.7203 265.765C41.5999 266.014 41.4208 266.214 41.1828 266.367C40.9475 266.516 40.6587 266.591 40.3164 266.591C39.9688 266.591 39.676 266.516 39.438 266.367C39.2001 266.214 39.0196 266.014 38.8966 265.765C38.7736 265.514 38.7121 265.238 38.7121 264.939ZM39.5303 264.505V264.939C39.5303 265.187 39.5891 265.411 39.7068 265.608C39.8244 265.804 40.0276 265.901 40.3164 265.901C40.5972 265.901 40.7951 265.804 40.9101 265.608C41.0277 265.411 41.0865 265.187 41.0865 264.939V264.505C41.0865 264.257 41.0304 264.035 40.9181 263.84C40.8058 263.642 40.6052 263.543 40.3164 263.543C40.0357 263.543 39.8338 263.642 39.7108 263.84C39.5905 264.035 39.5303 264.257 39.5303 264.505ZM39.0169 271.18L44.6643 262.965H45.5788L39.9314 271.18H39.0169Z" fill="#615E83"/>
<path d="M24.7177 305.357V304.635L27.4291 301.667C27.7473 301.32 28.0093 301.018 28.2152 300.761C28.4211 300.501 28.5736 300.258 28.6725 300.031C28.7741 299.801 28.8249 299.56 28.8249 299.309C28.8249 299.02 28.7554 298.77 28.6163 298.559C28.48 298.348 28.2928 298.184 28.0548 298.07C27.8168 297.955 27.5494 297.897 27.2526 297.897C26.9371 297.897 26.6617 297.963 26.4264 298.094C26.1937 298.222 26.0132 298.402 25.8849 298.635C25.7592 298.868 25.6964 299.14 25.6964 299.453H24.7498C24.7498 298.972 24.8607 298.549 25.0827 298.186C25.3046 297.822 25.6068 297.539 25.9892 297.335C26.3742 297.132 26.8061 297.031 27.2847 297.031C27.766 297.031 28.1925 297.132 28.5642 297.335C28.9359 297.539 29.2273 297.813 29.4386 298.158C29.6498 298.503 29.7555 298.886 29.7555 299.309C29.7555 299.611 29.7006 299.907 29.591 300.195C29.484 300.481 29.2969 300.801 29.0295 301.154C28.7647 301.504 28.3971 301.932 27.9265 302.437L26.0814 304.411V304.475H29.8998V305.357H24.7177ZM34.2357 305.47C33.6314 305.47 33.1166 305.305 32.6915 304.976C32.2663 304.645 31.9414 304.165 31.7168 303.536C31.4922 302.905 31.3799 302.143 31.3799 301.25C31.3799 300.362 31.4922 299.604 31.7168 298.976C31.9441 298.345 32.2703 297.864 32.6955 297.532C33.1233 297.198 33.6367 297.031 34.2357 297.031C34.8347 297.031 35.3467 297.198 35.7719 297.532C36.1997 297.864 36.526 298.345 36.7506 298.976C36.9779 299.604 37.0915 300.362 37.0915 301.25C37.0915 302.143 36.9792 302.905 36.7546 303.536C36.53 304.165 36.2051 304.645 35.7799 304.976C35.3548 305.305 34.84 305.47 34.2357 305.47ZM34.2357 304.587C34.8347 304.587 35.2999 304.299 35.6315 303.721C35.9631 303.143 36.1289 302.32 36.1289 301.25C36.1289 300.539 36.0527 299.933 35.9002 299.433C35.7505 298.933 35.5339 298.552 35.2505 298.29C34.9697 298.028 34.6314 297.897 34.2357 297.897C33.6421 297.897 33.1781 298.19 32.8439 298.775C32.5096 299.358 32.3425 300.183 32.3425 301.25C32.3425 301.961 32.4174 302.566 32.5671 303.063C32.7169 303.561 32.9321 303.939 33.2129 304.198C33.4963 304.458 33.8373 304.587 34.2357 304.587ZM42.8031 303.817V303.384C42.8031 303.085 42.8646 302.81 42.9876 302.562C43.1133 302.31 43.2951 302.11 43.5331 301.96C43.7738 301.808 44.0652 301.732 44.4075 301.732C44.7551 301.732 45.0466 301.808 45.2819 301.96C45.5172 302.11 45.695 302.31 45.8153 302.562C45.9357 302.81 45.9958 303.085 45.9958 303.384V303.817C45.9958 304.117 45.9343 304.392 45.8113 304.643C45.691 304.892 45.5119 305.093 45.2739 305.245C45.0386 305.395 44.7498 305.47 44.4075 305.47C44.0599 305.47 43.7671 305.395 43.5291 305.245C43.2911 305.093 43.1106 304.892 42.9876 304.643C42.8646 304.392 42.8031 304.117 42.8031 303.817ZM43.6214 303.384V303.817C43.6214 304.066 43.6802 304.289 43.7978 304.487C43.9155 304.682 44.1187 304.78 44.4075 304.78C44.6883 304.78 44.8861 304.682 45.0011 304.487C45.1188 304.289 45.1776 304.066 45.1776 303.817V303.384C45.1776 303.135 45.1215 302.913 45.0091 302.718C44.8968 302.52 44.6963 302.421 44.4075 302.421C44.1267 302.421 43.9248 302.52 43.8018 302.718C43.6815 302.913 43.6214 303.135 43.6214 303.384ZM38.7119 299.116V298.683C38.7119 298.384 38.7734 298.11 38.8964 297.861C39.0221 297.61 39.2039 297.409 39.4419 297.259C39.6826 297.107 39.9741 297.031 40.3163 297.031C40.6639 297.031 40.9554 297.107 41.1907 297.259C41.426 297.409 41.6038 297.61 41.7242 297.861C41.8445 298.11 41.9047 298.384 41.9047 298.683V299.116C41.9047 299.416 41.8432 299.691 41.7202 299.943C41.5998 300.191 41.4207 300.392 41.1827 300.544C40.9474 300.694 40.6586 300.769 40.3163 300.769C39.9687 300.769 39.6759 300.694 39.4379 300.544C39.1999 300.392 39.0194 300.191 38.8964 299.943C38.7734 299.691 38.7119 299.416 38.7119 299.116ZM39.5302 298.683V299.116C39.5302 299.365 39.589 299.588 39.7067 299.786C39.8243 299.981 40.0275 300.079 40.3163 300.079C40.5971 300.079 40.795 299.981 40.9099 299.786C41.0276 299.588 41.0864 299.365 41.0864 299.116V298.683C41.0864 298.434 41.0303 298.213 40.918 298.017C40.8057 297.819 40.6051 297.721 40.3163 297.721C40.0356 297.721 39.8337 297.819 39.7107 298.017C39.5903 298.213 39.5302 298.434 39.5302 298.683ZM39.0168 305.357L44.6642 297.143H45.5787L39.9313 305.357H39.0168Z" fill="#615E83"/>
<path d="M29.1937 331.321V339.535H28.199V332.364H28.1508L26.1453 333.695V332.684L28.199 331.321H29.1937ZM34.2355 339.647C33.6311 339.647 33.1164 339.483 32.6912 339.154C32.2661 338.823 31.9412 338.343 31.7166 337.714C31.492 337.083 31.3797 336.321 31.3797 335.428C31.3797 334.54 31.492 333.782 31.7166 333.154C31.9439 332.523 32.2701 332.041 32.6952 331.71C33.1231 331.376 33.6365 331.208 34.2355 331.208C34.8344 331.208 35.3465 331.376 35.7717 331.71C36.1995 332.041 36.5257 332.523 36.7503 333.154C36.9776 333.782 37.0913 334.54 37.0913 335.428C37.0913 336.321 36.979 337.083 36.7543 337.714C36.5297 338.343 36.2048 338.823 35.7797 339.154C35.3545 339.483 34.8398 339.647 34.2355 339.647ZM34.2355 338.765C34.8344 338.765 35.2997 338.476 35.6313 337.899C35.9628 337.321 36.1286 336.498 36.1286 335.428C36.1286 334.717 36.0524 334.111 35.9 333.611C35.7503 333.111 35.5337 332.73 35.2502 332.468C34.9695 332.206 34.6312 332.075 34.2355 332.075C33.6418 332.075 33.1779 332.368 32.8437 332.953C32.5094 333.536 32.3423 334.361 32.3423 335.428C32.3423 336.139 32.4172 336.744 32.5669 337.241C32.7166 337.738 32.9319 338.117 33.2127 338.376C33.4961 338.635 33.837 338.765 34.2355 338.765ZM42.8029 337.995V337.562C42.8029 337.262 42.8644 336.988 42.9874 336.74C43.1131 336.488 43.2949 336.288 43.5329 336.138C43.7735 335.985 44.065 335.909 44.4073 335.909C44.7549 335.909 45.0463 335.985 45.2816 336.138C45.517 336.288 45.6948 336.488 45.8151 336.74C45.9354 336.988 45.9956 337.262 45.9956 337.562V337.995C45.9956 338.294 45.9341 338.57 45.8111 338.821C45.6908 339.07 45.5116 339.27 45.2736 339.423C45.0383 339.573 44.7495 339.647 44.4073 339.647C44.0596 339.647 43.7668 339.573 43.5289 339.423C43.2909 339.27 43.1104 339.07 42.9874 338.821C42.8644 338.57 42.8029 338.294 42.8029 337.995ZM43.6211 337.562V337.995C43.6211 338.244 43.6799 338.467 43.7976 338.665C43.9152 338.86 44.1185 338.958 44.4073 338.958C44.688 338.958 44.8859 338.86 45.0009 338.665C45.1185 338.467 45.1774 338.244 45.1774 337.995V337.562C45.1774 337.313 45.1212 337.091 45.0089 336.896C44.8966 336.698 44.696 336.599 44.4073 336.599C44.1265 336.599 43.9246 336.698 43.8016 336.896C43.6813 337.091 43.6211 337.313 43.6211 337.562ZM38.7117 333.294V332.861C38.7117 332.561 38.7732 332.287 38.8962 332.039C39.0219 331.787 39.2037 331.587 39.4417 331.437C39.6823 331.285 39.9738 331.208 40.3161 331.208C40.6637 331.208 40.9552 331.285 41.1905 331.437C41.4258 331.587 41.6036 331.787 41.7239 332.039C41.8443 332.287 41.9044 332.561 41.9044 332.861V333.294C41.9044 333.594 41.8429 333.869 41.7199 334.12C41.5996 334.369 41.4204 334.57 41.1824 334.722C40.9471 334.872 40.6583 334.947 40.3161 334.947C39.9685 334.947 39.6757 334.872 39.4377 334.722C39.1997 334.57 39.0192 334.369 38.8962 334.12C38.7732 333.869 38.7117 333.594 38.7117 333.294ZM39.5299 332.861V333.294C39.5299 333.543 39.5888 333.766 39.7064 333.964C39.8241 334.159 40.0273 334.257 40.3161 334.257C40.5968 334.257 40.7947 334.159 40.9097 333.964C41.0274 333.766 41.0862 333.543 41.0862 333.294V332.861C41.0862 332.612 41.03 332.39 40.9177 332.195C40.8054 331.997 40.6049 331.898 40.3161 331.898C40.0353 331.898 39.8334 331.997 39.7104 332.195C39.5901 332.39 39.5299 332.612 39.5299 332.861ZM39.0165 339.535L44.664 331.321H45.5785L39.931 339.535H39.0165Z" fill="#615E83"/>
<path d="M43.413 373.825C42.8086 373.825 42.2939 373.661 41.8687 373.332C41.4436 373 41.1187 372.52 40.8941 371.892C40.6695 371.261 40.5572 370.499 40.5572 369.606C40.5572 368.718 40.6695 367.96 40.8941 367.331C41.1214 366.7 41.4476 366.219 41.8727 365.888C42.3006 365.553 42.814 365.386 43.413 365.386C44.0119 365.386 44.524 365.553 44.9492 365.888C45.377 366.219 45.7032 366.7 45.9278 367.331C46.1551 367.96 46.2688 368.718 46.2688 369.606C46.2688 370.499 46.1565 371.261 45.9318 371.892C45.7072 372.52 45.3823 373 44.9572 373.332C44.532 373.661 44.0173 373.825 43.413 373.825ZM43.413 372.943C44.0119 372.943 44.4772 372.654 44.8088 372.076C45.1403 371.499 45.3061 370.675 45.3061 369.606C45.3061 368.894 45.2299 368.289 45.0775 367.789C44.9278 367.289 44.7112 366.908 44.4277 366.646C44.147 366.384 43.8087 366.252 43.413 366.252C42.8193 366.252 42.3554 366.545 42.0212 367.131C41.6869 367.714 41.5198 368.539 41.5198 369.606C41.5198 370.317 41.5947 370.921 41.7444 371.419C41.8941 371.916 42.1094 372.294 42.3902 372.554C42.6736 372.813 43.0145 372.943 43.413 372.943Z" fill="#615E83"/>
<line opacity="0.7" x1="58.5294" y1="28.4706" x2="832.471" y2="28.4706" stroke="#E5E5EF" stroke-width="1.05889" stroke-linecap="round" stroke-dasharray="2.82 4.94"/>
<line opacity="0.7" x1="58.5294" y1="62.3553" x2="832.471" y2="62.3553" stroke="#E5E5EF" stroke-width="1.05889" stroke-linecap="round" stroke-dasharray="2.82 4.94"/>
<line opacity="0.7" x1="58.5294" y1="96.2401" x2="832.471" y2="96.2401" stroke="#E5E5EF" stroke-width="1.05889" stroke-linecap="round" stroke-dasharray="2.82 4.94"/>
<line opacity="0.7" x1="58.5294" y1="130.125" x2="832.471" y2="130.125" stroke="#E5E5EF" stroke-width="1.05889" stroke-linecap="round" stroke-dasharray="2.82 4.94"/>
<line opacity="0.7" x1="58.5294" y1="164.01" x2="832.471" y2="164.01" stroke="#E5E5EF" stroke-width="1.05889" stroke-linecap="round" stroke-dasharray="2.82 4.94"/>
<line opacity="0.7" x1="58.5294" y1="197.894" x2="832.471" y2="197.894" stroke="#E5E5EF" stroke-width="1.05889" stroke-linecap="round" stroke-dasharray="2.82 4.94"/>
<line opacity="0.7" x1="58.5294" y1="231.779" x2="832.471" y2="231.779" stroke="#E5E5EF" stroke-width="1.05889" stroke-linecap="round" stroke-dasharray="2.82 4.94"/>
<line opacity="0.7" x1="58.5294" y1="265.662" x2="832.471" y2="265.662" stroke="#E5E5EF" stroke-width="1.05889" stroke-linecap="round" stroke-dasharray="2.82 4.94"/>
<line opacity="0.7" x1="58.5294" y1="299.547" x2="832.471" y2="299.547" stroke="#E5E5EF" stroke-width="1.05889" stroke-linecap="round" stroke-dasharray="2.82 4.94"/>
<line opacity="0.7" x1="58.5294" y1="333.431" x2="832.471" y2="333.431" stroke="#E5E5EF" stroke-width="1.05889" stroke-linecap="round" stroke-dasharray="2.82 4.94"/>
<line opacity="0.7" x1="58.5294" y1="367.316" x2="832.471" y2="367.316" stroke="#E5E5EF" stroke-width="1.05889" stroke-linecap="round"/>
<rect x="91" y="22" width="29.47" height="337.353" rx="2.11779" fill="#F2F4F7"/>
<rect x="193.181" y="22" width="29.47" height="335.728" rx="2.11779" fill="#F2F4F7"/>
<rect x="295.361" y="22" width="29.47" height="335.728" rx="2.11779" fill="#F2F4F7"/>
<rect x="397.542" y="22" width="29.47" height="335.728" rx="2.11779" fill="#F2F4F7"/>
<rect x="499.723" y="22" width="29.47" height="335.728" rx="2.11779" fill="#F2F4F7"/>
<rect x="601.903" y="22" width="29.47" height="335.728" rx="2.11779" fill="#F2F4F7"/>
<rect x="704.084" y="22" width="29.47" height="335.728" rx="2.11779" fill="#F2F4F7"/>
<rect x="806.266" y="22" width="29.47" height="335.728" rx="2.11779" fill="#F2F4F7"/>
</svg>
