<svg width="644" height="814" viewBox="0 0 644 814" fill="none" xmlns="http://www.w3.org/2000/svg">
<rect width="644" height="814" rx="24" fill="white"/>
<path d="M39.44 58.168C38.272 58.168 37.216 57.968 36.272 57.568C35.344 57.168 34.608 56.592 34.064 55.84C33.52 55.088 33.24 54.2 33.224 53.176H36.824C36.872 53.864 37.112 54.408 37.544 54.808C37.992 55.208 38.6 55.408 39.368 55.408C40.152 55.408 40.768 55.224 41.216 54.856C41.664 54.472 41.888 53.976 41.888 53.368C41.888 52.872 41.736 52.464 41.432 52.144C41.128 51.824 40.744 51.576 40.28 51.4C39.832 51.208 39.208 51 38.408 50.776C37.32 50.456 36.432 50.144 35.744 49.84C35.072 49.52 34.488 49.048 33.992 48.424C33.512 47.784 33.272 46.936 33.272 45.88C33.272 44.888 33.52 44.024 34.016 43.288C34.512 42.552 35.208 41.992 36.104 41.608C37 41.208 38.024 41.008 39.176 41.008C40.904 41.008 42.304 41.432 43.376 42.28C44.464 43.112 45.064 44.28 45.176 45.784H41.48C41.448 45.208 41.2 44.736 40.736 44.368C40.288 43.984 39.688 43.792 38.936 43.792C38.28 43.792 37.752 43.96 37.352 44.296C36.968 44.632 36.776 45.12 36.776 45.76C36.776 46.208 36.92 46.584 37.208 46.888C37.512 47.176 37.88 47.416 38.312 47.608C38.76 47.784 39.384 47.992 40.184 48.232C41.272 48.552 42.16 48.872 42.848 49.192C43.536 49.512 44.128 49.992 44.624 50.632C45.12 51.272 45.368 52.112 45.368 53.152C45.368 54.048 45.136 54.88 44.672 55.648C44.208 56.416 43.528 57.032 42.632 57.496C41.736 57.944 40.672 58.168 39.44 58.168ZM60.833 44.704V58H57.449V56.32C57.017 56.896 56.449 57.352 55.745 57.688C55.057 58.008 54.305 58.168 53.489 58.168C52.449 58.168 51.529 57.952 50.729 57.52C49.929 57.072 49.297 56.424 48.833 55.576C48.385 54.712 48.161 53.688 48.161 52.504V44.704H51.521V52.024C51.521 53.08 51.785 53.896 52.313 54.472C52.841 55.032 53.561 55.312 54.473 55.312C55.401 55.312 56.129 55.032 56.657 54.472C57.185 53.896 57.449 53.08 57.449 52.024V44.704H60.833ZM67.5082 46.768C67.9402 46.064 68.5002 45.512 69.1882 45.112C69.8922 44.712 70.6922 44.512 71.5882 44.512V48.04H70.7002C69.6442 48.04 68.8442 48.288 68.3002 48.784C67.7722 49.28 67.5082 50.144 67.5082 51.376V58H64.1482V44.704H67.5082V46.768ZM79.3953 54.904L82.7553 44.704H86.3313L81.4113 58H77.3313L72.4353 44.704H76.0353L79.3953 54.904ZM100.579 51.064C100.579 51.544 100.547 51.976 100.483 52.36H90.7625C90.8425 53.32 91.1785 54.072 91.7705 54.616C92.3625 55.16 93.0905 55.432 93.9545 55.432C95.2025 55.432 96.0905 54.896 96.6185 53.824H100.243C99.8585 55.104 99.1225 56.16 98.0345 56.992C96.9465 57.808 95.6105 58.216 94.0265 58.216C92.7465 58.216 91.5945 57.936 90.5705 57.376C89.5625 56.8 88.7705 55.992 88.1945 54.952C87.6345 53.912 87.3545 52.712 87.3545 51.352C87.3545 49.976 87.6345 48.768 88.1945 47.728C88.7545 46.688 89.5385 45.888 90.5465 45.328C91.5545 44.768 92.7145 44.488 94.0265 44.488C95.2905 44.488 96.4185 44.76 97.4105 45.304C98.4185 45.848 99.1945 46.624 99.7385 47.632C100.299 48.624 100.579 49.768 100.579 51.064ZM97.0985 50.104C97.0825 49.24 96.7705 48.552 96.1625 48.04C95.5545 47.512 94.8105 47.248 93.9305 47.248C93.0985 47.248 92.3945 47.504 91.8185 48.016C91.2585 48.512 90.9145 49.208 90.7865 50.104H97.0985ZM115.751 44.704L107.519 64.288H103.943L106.823 57.664L101.495 44.704H105.263L108.695 53.992L112.175 44.704H115.751ZM126.641 55.336H132.161V58H123.281V41.248H126.641V55.336ZM133.433 51.304C133.433 49.96 133.697 48.768 134.225 47.728C134.769 46.688 135.497 45.888 136.409 45.328C137.337 44.768 138.369 44.488 139.505 44.488C140.497 44.488 141.361 44.688 142.097 45.088C142.849 45.488 143.449 45.992 143.897 46.6V44.704H147.281V58H143.897V56.056C143.465 56.68 142.865 57.2 142.097 57.616C141.345 58.016 140.473 58.216 139.481 58.216C138.361 58.216 137.337 57.928 136.409 57.352C135.497 56.776 134.769 55.968 134.225 54.928C133.697 53.872 133.433 52.664 133.433 51.304ZM143.897 51.352C143.897 50.536 143.737 49.84 143.417 49.264C143.097 48.672 142.665 48.224 142.121 47.92C141.577 47.6 140.993 47.44 140.369 47.44C139.745 47.44 139.169 47.592 138.641 47.896C138.113 48.2 137.681 48.648 137.345 49.24C137.025 49.816 136.865 50.504 136.865 51.304C136.865 52.104 137.025 52.808 137.345 53.416C137.681 54.008 138.113 54.464 138.641 54.784C139.185 55.104 139.761 55.264 140.369 55.264C140.993 55.264 141.577 55.112 142.121 54.808C142.665 54.488 143.097 54.04 143.417 53.464C143.737 52.872 143.897 52.168 143.897 51.352ZM157.93 44.512C159.514 44.512 160.794 45.016 161.77 46.024C162.746 47.016 163.234 48.408 163.234 50.2V58H159.874V50.656C159.874 49.6 159.61 48.792 159.082 48.232C158.554 47.656 157.834 47.368 156.922 47.368C155.994 47.368 155.258 47.656 154.714 48.232C154.186 48.792 153.922 49.6 153.922 50.656V58H150.562V44.704H153.922V46.36C154.37 45.784 154.938 45.336 155.626 45.016C156.33 44.68 157.098 44.512 157.93 44.512ZM171.637 44.488C172.629 44.488 173.501 44.688 174.253 45.088C175.005 45.472 175.597 45.976 176.029 46.6V44.704H179.413V58.096C179.413 59.328 179.165 60.424 178.669 61.384C178.173 62.36 177.429 63.128 176.437 63.688C175.445 64.264 174.245 64.552 172.837 64.552C170.949 64.552 169.397 64.112 168.181 63.232C166.981 62.352 166.301 61.152 166.141 59.632H169.477C169.653 60.24 170.029 60.72 170.605 61.072C171.197 61.44 171.909 61.624 172.741 61.624C173.717 61.624 174.509 61.328 175.117 60.736C175.725 60.16 176.029 59.28 176.029 58.096V56.032C175.597 56.656 174.997 57.176 174.229 57.592C173.477 58.008 172.613 58.216 171.637 58.216C170.517 58.216 169.493 57.928 168.565 57.352C167.637 56.776 166.901 55.968 166.357 54.928C165.829 53.872 165.565 52.664 165.565 51.304C165.565 49.96 165.829 48.768 166.357 47.728C166.901 46.688 167.629 45.888 168.541 45.328C169.469 44.768 170.501 44.488 171.637 44.488ZM176.029 51.352C176.029 50.536 175.869 49.84 175.549 49.264C175.229 48.672 174.797 48.224 174.253 47.92C173.709 47.6 173.125 47.44 172.501 47.44C171.877 47.44 171.301 47.592 170.773 47.896C170.245 48.2 169.813 48.648 169.477 49.24C169.157 49.816 168.997 50.504 168.997 51.304C168.997 52.104 169.157 52.808 169.477 53.416C169.813 54.008 170.245 54.464 170.773 54.784C171.317 55.104 171.893 55.264 172.501 55.264C173.125 55.264 173.709 55.112 174.253 54.808C174.797 54.488 175.229 54.04 175.549 53.464C175.869 52.872 176.029 52.168 176.029 51.352ZM195.247 44.704V58H191.863V56.32C191.431 56.896 190.863 57.352 190.159 57.688C189.471 58.008 188.719 58.168 187.903 58.168C186.863 58.168 185.943 57.952 185.143 57.52C184.343 57.072 183.711 56.424 183.247 55.576C182.799 54.712 182.575 53.688 182.575 52.504V44.704H185.935V52.024C185.935 53.08 186.199 53.896 186.727 54.472C187.255 55.032 187.975 55.312 188.887 55.312C189.815 55.312 190.543 55.032 191.071 54.472C191.599 53.896 191.863 53.08 191.863 52.024V44.704H195.247ZM197.698 51.304C197.698 49.96 197.962 48.768 198.49 47.728C199.034 46.688 199.762 45.888 200.674 45.328C201.602 44.768 202.634 44.488 203.77 44.488C204.762 44.488 205.626 44.688 206.362 45.088C207.114 45.488 207.714 45.992 208.162 46.6V44.704H211.546V58H208.162V56.056C207.73 56.68 207.13 57.2 206.362 57.616C205.61 58.016 204.738 58.216 203.746 58.216C202.626 58.216 201.602 57.928 200.674 57.352C199.762 56.776 199.034 55.968 198.49 54.928C197.962 53.872 197.698 52.664 197.698 51.304ZM208.162 51.352C208.162 50.536 208.002 49.84 207.682 49.264C207.362 48.672 206.93 48.224 206.386 47.92C205.842 47.6 205.258 47.44 204.634 47.44C204.01 47.44 203.434 47.592 202.906 47.896C202.378 48.2 201.946 48.648 201.61 49.24C201.29 49.816 201.13 50.504 201.13 51.304C201.13 52.104 201.29 52.808 201.61 53.416C201.946 54.008 202.378 54.464 202.906 54.784C203.45 55.104 204.026 55.264 204.634 55.264C205.258 55.264 205.842 55.112 206.386 54.808C206.93 54.488 207.362 54.04 207.682 53.464C208.002 52.872 208.162 52.168 208.162 51.352ZM220.036 44.488C221.028 44.488 221.9 44.688 222.652 45.088C223.404 45.472 223.996 45.976 224.428 46.6V44.704H227.812V58.096C227.812 59.328 227.564 60.424 227.068 61.384C226.572 62.36 225.828 63.128 224.836 63.688C223.844 64.264 222.644 64.552 221.236 64.552C219.348 64.552 217.796 64.112 216.58 63.232C215.38 62.352 214.7 61.152 214.54 59.632H217.876C218.052 60.24 218.428 60.72 219.004 61.072C219.596 61.44 220.308 61.624 221.14 61.624C222.116 61.624 222.908 61.328 223.516 60.736C224.124 60.16 224.428 59.28 224.428 58.096V56.032C223.996 56.656 223.396 57.176 222.628 57.592C221.876 58.008 221.012 58.216 220.036 58.216C218.916 58.216 217.892 57.928 216.964 57.352C216.036 56.776 215.3 55.968 214.756 54.928C214.228 53.872 213.964 52.664 213.964 51.304C213.964 49.96 214.228 48.768 214.756 47.728C215.3 46.688 216.028 45.888 216.94 45.328C217.868 44.768 218.9 44.488 220.036 44.488ZM224.428 51.352C224.428 50.536 224.268 49.84 223.948 49.264C223.628 48.672 223.196 48.224 222.652 47.92C222.108 47.6 221.524 47.44 220.9 47.44C220.276 47.44 219.7 47.592 219.172 47.896C218.644 48.2 218.212 48.648 217.876 49.24C217.556 49.816 217.396 50.504 217.396 51.304C217.396 52.104 217.556 52.808 217.876 53.416C218.212 54.008 218.644 54.464 219.172 54.784C219.716 55.104 220.292 55.264 220.9 55.264C221.524 55.264 222.108 55.112 222.652 54.808C223.196 54.488 223.628 54.04 223.948 53.464C224.268 52.872 224.428 52.168 224.428 51.352ZM243.454 51.064C243.454 51.544 243.422 51.976 243.358 52.36H233.638C233.718 53.32 234.054 54.072 234.646 54.616C235.238 55.16 235.966 55.432 236.83 55.432C238.078 55.432 238.966 54.896 239.494 53.824H243.118C242.734 55.104 241.998 56.16 240.91 56.992C239.822 57.808 238.486 58.216 236.902 58.216C235.622 58.216 234.47 57.936 233.446 57.376C232.438 56.8 231.646 55.992 231.07 54.952C230.51 53.912 230.229 52.712 230.229 51.352C230.229 49.976 230.51 48.768 231.07 47.728C231.63 46.688 232.414 45.888 233.422 45.328C234.43 44.768 235.59 44.488 236.902 44.488C238.166 44.488 239.294 44.76 240.286 45.304C241.294 45.848 242.07 46.624 242.614 47.632C243.174 48.624 243.454 49.768 243.454 51.064ZM239.974 50.104C239.958 49.24 239.646 48.552 239.038 48.04C238.43 47.512 237.686 47.248 236.806 47.248C235.974 47.248 235.27 47.504 234.694 48.016C234.134 48.512 233.79 49.208 233.662 50.104H239.974Z" fill="#11002A"/>
<path d="M600 60.75C594.07 60.75 589.25 55.93 589.25 50C589.25 44.07 594.07 39.25 600 39.25C605.93 39.25 610.75 44.07 610.75 50C610.75 55.93 605.93 60.75 600 60.75ZM600 40.75C594.9 40.75 590.75 44.9 590.75 50C590.75 55.1 594.9 59.25 600 59.25C605.1 59.25 609.25 55.1 609.25 50C609.25 44.9 605.1 40.75 600 40.75Z" fill="#8094AE"/>
<path d="M597.17 53.5794C596.98 53.5794 596.79 53.5094 596.64 53.3594C596.35 53.0694 596.35 52.5894 596.64 52.2994L602.3 46.6394C602.59 46.3494 603.07 46.3494 603.36 46.6394C603.65 46.9294 603.65 47.4094 603.36 47.6994L597.7 53.3594C597.56 53.5094 597.36 53.5794 597.17 53.5794Z" fill="#8094AE"/>
<path d="M602.83 53.5794C602.64 53.5794 602.45 53.5094 602.3 53.3594L596.64 47.6994C596.35 47.4094 596.35 46.9294 596.64 46.6394C596.93 46.3494 597.41 46.3494 597.7 46.6394L603.36 52.2994C603.65 52.5894 603.65 53.0694 603.36 53.3594C603.21 53.5094 603.02 53.5794 602.83 53.5794Z" fill="#8094AE"/>
<line x1="32" y1="91.5" x2="612" y2="91.5" stroke="#F2F4F7"/>
<rect x="32.5" y="116.5" width="579" height="49" rx="7.5" stroke="#D8DEE6"/>
<path d="M59.5 150.75C53.85 150.75 49.25 146.15 49.25 140.5C49.25 134.85 53.85 130.25 59.5 130.25C65.15 130.25 69.75 134.85 69.75 140.5C69.75 146.15 65.15 150.75 59.5 150.75ZM59.5 131.75C54.67 131.75 50.75 135.68 50.75 140.5C50.75 145.32 54.67 149.25 59.5 149.25C64.33 149.25 68.25 145.32 68.25 140.5C68.25 135.68 64.33 131.75 59.5 131.75Z" fill="#99A9BE"/>
<path d="M69.9999 151.749C69.8099 151.749 69.6199 151.679 69.4699 151.529L67.4699 149.529C67.1799 149.239 67.1799 148.759 67.4699 148.469C67.7599 148.179 68.2399 148.179 68.5299 148.469L70.5299 150.469C70.8199 150.759 70.8199 151.239 70.5299 151.529C70.3799 151.679 70.1899 151.749 69.9999 151.749Z" fill="#99A9BE"/>
<path d="M84.172 145.598C83.528 145.598 82.9493 145.486 82.436 145.262C81.932 145.029 81.5353 144.711 81.246 144.31C80.9567 143.899 80.8073 143.428 80.798 142.896H82.156C82.2027 143.353 82.3893 143.741 82.716 144.058C83.052 144.366 83.5373 144.52 84.172 144.52C84.7787 144.52 85.2547 144.371 85.6 144.072C85.9547 143.764 86.132 143.372 86.132 142.896C86.132 142.523 86.0293 142.219 85.824 141.986C85.6187 141.753 85.362 141.575 85.054 141.454C84.746 141.333 84.3307 141.202 83.808 141.062C83.164 140.894 82.646 140.726 82.254 140.558C81.8713 140.39 81.54 140.129 81.26 139.774C80.9893 139.41 80.854 138.925 80.854 138.318C80.854 137.786 80.9893 137.315 81.26 136.904C81.5307 136.493 81.9087 136.176 82.394 135.952C82.8887 135.728 83.4533 135.616 84.088 135.616C85.0027 135.616 85.7493 135.845 86.328 136.302C86.916 136.759 87.2473 137.366 87.322 138.122H85.922C85.8753 137.749 85.6793 137.422 85.334 137.142C84.9887 136.853 84.5313 136.708 83.962 136.708C83.43 136.708 82.996 136.848 82.66 137.128C82.324 137.399 82.156 137.781 82.156 138.276C82.156 138.631 82.254 138.92 82.45 139.144C82.6553 139.368 82.9027 139.541 83.192 139.662C83.4907 139.774 83.906 139.905 84.438 140.054C85.082 140.231 85.6 140.409 85.992 140.586C86.384 140.754 86.72 141.02 87 141.384C87.28 141.739 87.42 142.224 87.42 142.84C87.42 143.316 87.294 143.764 87.042 144.184C86.79 144.604 86.4167 144.945 85.922 145.206C85.4273 145.467 84.844 145.598 84.172 145.598ZM96.2948 141.37C96.2948 141.613 96.2808 141.869 96.2528 142.14H90.1208C90.1675 142.896 90.4241 143.489 90.8908 143.918C91.3668 144.338 91.9408 144.548 92.6128 144.548C93.1635 144.548 93.6208 144.422 93.9848 144.17C94.3581 143.909 94.6195 143.563 94.7688 143.134H96.1408C95.9355 143.871 95.5248 144.473 94.9088 144.94C94.2928 145.397 93.5275 145.626 92.6128 145.626C91.8848 145.626 91.2315 145.463 90.6528 145.136C90.0835 144.809 89.6355 144.347 89.3088 143.75C88.9821 143.143 88.8188 142.443 88.8188 141.65C88.8188 140.857 88.9775 140.161 89.2948 139.564C89.6121 138.967 90.0555 138.509 90.6248 138.192C91.2035 137.865 91.8661 137.702 92.6128 137.702C93.3408 137.702 93.9848 137.861 94.5448 138.178C95.1048 138.495 95.5341 138.934 95.8328 139.494C96.1408 140.045 96.2948 140.67 96.2948 141.37ZM94.9788 141.104C94.9788 140.619 94.8715 140.203 94.6568 139.858C94.4421 139.503 94.1481 139.237 93.7748 139.06C93.4108 138.873 93.0048 138.78 92.5568 138.78C91.9128 138.78 91.3621 138.985 90.9048 139.396C90.4568 139.807 90.2001 140.376 90.1348 141.104H94.9788ZM97.5004 141.636C97.5004 140.852 97.6591 140.166 97.9764 139.578C98.2938 138.981 98.7278 138.519 99.2784 138.192C99.8384 137.865 100.459 137.702 101.14 137.702C101.812 137.702 102.396 137.847 102.89 138.136C103.385 138.425 103.754 138.789 103.996 139.228V137.828H105.284V145.5H103.996V144.072C103.744 144.52 103.366 144.893 102.862 145.192C102.368 145.481 101.789 145.626 101.126 145.626C100.445 145.626 99.8291 145.458 99.2784 145.122C98.7278 144.786 98.2938 144.315 97.9764 143.708C97.6591 143.101 97.5004 142.411 97.5004 141.636ZM103.996 141.65C103.996 141.071 103.88 140.567 103.646 140.138C103.413 139.709 103.096 139.382 102.694 139.158C102.302 138.925 101.868 138.808 101.392 138.808C100.916 138.808 100.482 138.92 100.09 139.144C99.6984 139.368 99.3858 139.695 99.1524 140.124C98.9191 140.553 98.8024 141.057 98.8024 141.636C98.8024 142.224 98.9191 142.737 99.1524 143.176C99.3858 143.605 99.6984 143.937 100.09 144.17C100.482 144.394 100.916 144.506 101.392 144.506C101.868 144.506 102.302 144.394 102.694 144.17C103.096 143.937 103.413 143.605 103.646 143.176C103.88 142.737 103.996 142.229 103.996 141.65ZM108.711 139.074C108.935 138.635 109.253 138.295 109.663 138.052C110.083 137.809 110.592 137.688 111.189 137.688V139.004H110.853C109.425 139.004 108.711 139.779 108.711 141.328V145.5H107.437V137.828H108.711V139.074ZM112.184 141.65C112.184 140.857 112.343 140.166 112.66 139.578C112.977 138.981 113.416 138.519 113.976 138.192C114.545 137.865 115.194 137.702 115.922 137.702C116.865 137.702 117.639 137.931 118.246 138.388C118.862 138.845 119.268 139.48 119.464 140.292H118.092C117.961 139.825 117.705 139.457 117.322 139.186C116.949 138.915 116.482 138.78 115.922 138.78C115.194 138.78 114.606 139.032 114.158 139.536C113.71 140.031 113.486 140.735 113.486 141.65C113.486 142.574 113.71 143.288 114.158 143.792C114.606 144.296 115.194 144.548 115.922 144.548C116.482 144.548 116.949 144.417 117.322 144.156C117.695 143.895 117.952 143.521 118.092 143.036H119.464C119.259 143.82 118.848 144.45 118.232 144.926C117.616 145.393 116.846 145.626 115.922 145.626C115.194 145.626 114.545 145.463 113.976 145.136C113.416 144.809 112.977 144.347 112.66 143.75C112.343 143.153 112.184 142.453 112.184 141.65ZM124.972 137.688C125.551 137.688 126.073 137.814 126.54 138.066C127.007 138.309 127.371 138.677 127.632 139.172C127.903 139.667 128.038 140.269 128.038 140.978V145.5H126.778V141.16C126.778 140.395 126.587 139.811 126.204 139.41C125.821 138.999 125.299 138.794 124.636 138.794C123.964 138.794 123.427 139.004 123.026 139.424C122.634 139.844 122.438 140.455 122.438 141.258V145.5H121.164V135.14H122.438V138.92C122.69 138.528 123.035 138.225 123.474 138.01C123.922 137.795 124.421 137.688 124.972 137.688ZM136.973 138.878H135.363V145.5H134.089V138.878H133.095V137.828H134.089V137.282C134.089 136.423 134.309 135.798 134.747 135.406C135.195 135.005 135.909 134.804 136.889 134.804V135.868C136.329 135.868 135.933 135.98 135.699 136.204C135.475 136.419 135.363 136.778 135.363 137.282V137.828H136.973V138.878ZM141.805 145.626C141.086 145.626 140.433 145.463 139.845 145.136C139.266 144.809 138.809 144.347 138.473 143.75C138.146 143.143 137.983 142.443 137.983 141.65C137.983 140.866 138.151 140.175 138.487 139.578C138.832 138.971 139.299 138.509 139.887 138.192C140.475 137.865 141.133 137.702 141.861 137.702C142.589 137.702 143.247 137.865 143.835 138.192C144.423 138.509 144.885 138.967 145.221 139.564C145.566 140.161 145.739 140.857 145.739 141.65C145.739 142.443 145.562 143.143 145.207 143.75C144.862 144.347 144.39 144.809 143.793 145.136C143.196 145.463 142.533 145.626 141.805 145.626ZM141.805 144.506C142.262 144.506 142.692 144.399 143.093 144.184C143.494 143.969 143.816 143.647 144.059 143.218C144.311 142.789 144.437 142.266 144.437 141.65C144.437 141.034 144.316 140.511 144.073 140.082C143.83 139.653 143.513 139.335 143.121 139.13C142.729 138.915 142.304 138.808 141.847 138.808C141.38 138.808 140.951 138.915 140.559 139.13C140.176 139.335 139.868 139.653 139.635 140.082C139.402 140.511 139.285 141.034 139.285 141.65C139.285 142.275 139.397 142.803 139.621 143.232C139.854 143.661 140.162 143.983 140.545 144.198C140.928 144.403 141.348 144.506 141.805 144.506ZM148.688 139.074C148.912 138.635 149.229 138.295 149.64 138.052C150.06 137.809 150.569 137.688 151.166 137.688V139.004H150.83C149.402 139.004 148.688 139.779 148.688 141.328V145.5H147.414V137.828H148.688V139.074ZM157.643 135.14V145.5H156.369V135.14H157.643ZM159.338 141.636C159.338 140.852 159.497 140.166 159.814 139.578C160.132 138.981 160.566 138.519 161.116 138.192C161.676 137.865 162.297 137.702 162.978 137.702C163.65 137.702 164.234 137.847 164.728 138.136C165.223 138.425 165.592 138.789 165.834 139.228V137.828H167.122V145.5H165.834V144.072C165.582 144.52 165.204 144.893 164.7 145.192C164.206 145.481 163.627 145.626 162.964 145.626C162.283 145.626 161.667 145.458 161.116 145.122C160.566 144.786 160.132 144.315 159.814 143.708C159.497 143.101 159.338 142.411 159.338 141.636ZM165.834 141.65C165.834 141.071 165.718 140.567 165.484 140.138C165.251 139.709 164.934 139.382 164.532 139.158C164.14 138.925 163.706 138.808 163.23 138.808C162.754 138.808 162.32 138.92 161.928 139.144C161.536 139.368 161.224 139.695 160.99 140.124C160.757 140.553 160.64 141.057 160.64 141.636C160.64 142.224 160.757 142.737 160.99 143.176C161.224 143.605 161.536 143.937 161.928 144.17C162.32 144.394 162.754 144.506 163.23 144.506C163.706 144.506 164.14 144.394 164.532 144.17C164.934 143.937 165.251 143.605 165.484 143.176C165.718 142.737 165.834 142.229 165.834 141.65ZM173.013 137.688C173.947 137.688 174.703 137.973 175.281 138.542C175.86 139.102 176.149 139.914 176.149 140.978V145.5H174.889V141.16C174.889 140.395 174.698 139.811 174.315 139.41C173.933 138.999 173.41 138.794 172.747 138.794C172.075 138.794 171.539 139.004 171.137 139.424C170.745 139.844 170.549 140.455 170.549 141.258V145.5H169.275V137.828H170.549V138.92C170.801 138.528 171.142 138.225 171.571 138.01C172.01 137.795 172.491 137.688 173.013 137.688ZM181.394 137.702C182.057 137.702 182.636 137.847 183.13 138.136C183.634 138.425 184.008 138.789 184.25 139.228V137.828H185.538V145.668C185.538 146.368 185.389 146.989 185.09 147.53C184.792 148.081 184.362 148.51 183.802 148.818C183.252 149.126 182.608 149.28 181.87 149.28C180.862 149.28 180.022 149.042 179.35 148.566C178.678 148.09 178.282 147.441 178.16 146.62H179.42C179.56 147.087 179.85 147.46 180.288 147.74C180.727 148.029 181.254 148.174 181.87 148.174C182.57 148.174 183.14 147.955 183.578 147.516C184.026 147.077 184.25 146.461 184.25 145.668V144.058C183.998 144.506 183.625 144.879 183.13 145.178C182.636 145.477 182.057 145.626 181.394 145.626C180.713 145.626 180.092 145.458 179.532 145.122C178.982 144.786 178.548 144.315 178.23 143.708C177.913 143.101 177.754 142.411 177.754 141.636C177.754 140.852 177.913 140.166 178.23 139.578C178.548 138.981 178.982 138.519 179.532 138.192C180.092 137.865 180.713 137.702 181.394 137.702ZM184.25 141.65C184.25 141.071 184.134 140.567 183.9 140.138C183.667 139.709 183.35 139.382 182.948 139.158C182.556 138.925 182.122 138.808 181.646 138.808C181.17 138.808 180.736 138.92 180.344 139.144C179.952 139.368 179.64 139.695 179.406 140.124C179.173 140.553 179.056 141.057 179.056 141.636C179.056 142.224 179.173 142.737 179.406 143.176C179.64 143.605 179.952 143.937 180.344 144.17C180.736 144.394 181.17 144.506 181.646 144.506C182.122 144.506 182.556 144.394 182.948 144.17C183.35 143.937 183.667 143.605 183.9 143.176C184.134 142.737 184.25 142.229 184.25 141.65ZM194.495 137.828V145.5H193.221V144.366C192.979 144.758 192.638 145.066 192.199 145.29C191.77 145.505 191.294 145.612 190.771 145.612C190.174 145.612 189.637 145.491 189.161 145.248C188.685 144.996 188.307 144.623 188.027 144.128C187.757 143.633 187.621 143.031 187.621 142.322V137.828H188.881V142.154C188.881 142.91 189.073 143.493 189.455 143.904C189.838 144.305 190.361 144.506 191.023 144.506C191.705 144.506 192.241 144.296 192.633 143.876C193.025 143.456 193.221 142.845 193.221 142.042V137.828H194.495ZM196.17 141.636C196.17 140.852 196.329 140.166 196.646 139.578C196.964 138.981 197.398 138.519 197.948 138.192C198.508 137.865 199.129 137.702 199.81 137.702C200.482 137.702 201.066 137.847 201.56 138.136C202.055 138.425 202.424 138.789 202.666 139.228V137.828H203.954V145.5H202.666V144.072C202.414 144.52 202.036 144.893 201.532 145.192C201.038 145.481 200.459 145.626 199.796 145.626C199.115 145.626 198.499 145.458 197.948 145.122C197.398 144.786 196.964 144.315 196.646 143.708C196.329 143.101 196.17 142.411 196.17 141.636ZM202.666 141.65C202.666 141.071 202.55 140.567 202.316 140.138C202.083 139.709 201.766 139.382 201.364 139.158C200.972 138.925 200.538 138.808 200.062 138.808C199.586 138.808 199.152 138.92 198.76 139.144C198.368 139.368 198.056 139.695 197.822 140.124C197.589 140.553 197.472 141.057 197.472 141.636C197.472 142.224 197.589 142.737 197.822 143.176C198.056 143.605 198.368 143.937 198.76 144.17C199.152 144.394 199.586 144.506 200.062 144.506C200.538 144.506 200.972 144.394 201.364 144.17C201.766 143.937 202.083 143.605 202.316 143.176C202.55 142.737 202.666 142.229 202.666 141.65ZM209.271 137.702C209.934 137.702 210.513 137.847 211.007 138.136C211.511 138.425 211.885 138.789 212.127 139.228V137.828H213.415V145.668C213.415 146.368 213.266 146.989 212.967 147.53C212.669 148.081 212.239 148.51 211.679 148.818C211.129 149.126 210.485 149.28 209.747 149.28C208.739 149.28 207.899 149.042 207.227 148.566C206.555 148.09 206.159 147.441 206.037 146.62H207.297C207.437 147.087 207.727 147.46 208.165 147.74C208.604 148.029 209.131 148.174 209.747 148.174C210.447 148.174 211.017 147.955 211.455 147.516C211.903 147.077 212.127 146.461 212.127 145.668V144.058C211.875 144.506 211.502 144.879 211.007 145.178C210.513 145.477 209.934 145.626 209.271 145.626C208.59 145.626 207.969 145.458 207.409 145.122C206.859 144.786 206.425 144.315 206.107 143.708C205.79 143.101 205.631 142.411 205.631 141.636C205.631 140.852 205.79 140.166 206.107 139.578C206.425 138.981 206.859 138.519 207.409 138.192C207.969 137.865 208.59 137.702 209.271 137.702ZM212.127 141.65C212.127 141.071 212.011 140.567 211.777 140.138C211.544 139.709 211.227 139.382 210.825 139.158C210.433 138.925 209.999 138.808 209.523 138.808C209.047 138.808 208.613 138.92 208.221 139.144C207.829 139.368 207.517 139.695 207.283 140.124C207.05 140.553 206.933 141.057 206.933 141.636C206.933 142.224 207.05 142.737 207.283 143.176C207.517 143.605 207.829 143.937 208.221 144.17C208.613 144.394 209.047 144.506 209.523 144.506C209.999 144.506 210.433 144.394 210.825 144.17C211.227 143.937 211.544 143.605 211.777 143.176C212.011 142.737 212.127 142.229 212.127 141.65ZM222.568 141.37C222.568 141.613 222.554 141.869 222.526 142.14H216.394C216.441 142.896 216.698 143.489 217.164 143.918C217.64 144.338 218.214 144.548 218.886 144.548C219.437 144.548 219.894 144.422 220.258 144.17C220.632 143.909 220.893 143.563 221.042 143.134H222.414C222.209 143.871 221.798 144.473 221.182 144.94C220.566 145.397 219.801 145.626 218.886 145.626C218.158 145.626 217.505 145.463 216.926 145.136C216.357 144.809 215.909 144.347 215.582 143.75C215.256 143.143 215.092 142.443 215.092 141.65C215.092 140.857 215.251 140.161 215.568 139.564C215.886 138.967 216.329 138.509 216.898 138.192C217.477 137.865 218.14 137.702 218.886 137.702C219.614 137.702 220.258 137.861 220.818 138.178C221.378 138.495 221.808 138.934 222.106 139.494C222.414 140.045 222.568 140.67 222.568 141.37ZM221.252 141.104C221.252 140.619 221.145 140.203 220.93 139.858C220.716 139.503 220.422 139.237 220.048 139.06C219.684 138.873 219.278 138.78 218.83 138.78C218.186 138.78 217.636 138.985 217.178 139.396C216.73 139.807 216.474 140.376 216.408 141.104H221.252Z" fill="#AAB7C9"/>
<mask id="path-11-inside-1_1_14025" fill="white">
<path d="M32 190H612V260.857H32V190Z"/>
</mask>
<path d="M612 259.857H32V261.857H612V259.857Z" fill="#F2F4F7" mask="url(#path-11-inside-1_1_14025)"/>
<g clip-path="url(#clip0_1_14025)">
<rect x="40" y="214.52" width="30" height="21.8182" rx="2.72727" fill="#249F58"/>
<path fill-rule="evenodd" clip-rule="evenodd" d="M62.8573 229.065V227.611H47.1431L50.0002 229.065H58.5716C58.5716 229.868 59.5316 230.52 60.7145 230.52C61.8973 230.52 62.8573 229.868 62.8573 229.065ZM52.4716 220.201C52.4545 220.201 52.4288 220.21 52.3959 220.23C52.3188 220.283 52.1673 220.444 52.1616 220.63C52.1573 220.736 52.1373 220.736 52.2045 220.805C52.2531 220.875 52.3045 220.869 52.4016 220.815C52.4588 220.771 52.4773 220.747 52.4973 220.675C52.5202 220.559 52.3731 220.734 52.3545 220.6C52.3216 220.478 52.4159 220.425 52.5045 220.309C52.5073 220.251 52.5073 220.207 52.4716 220.204V220.201ZM53.9045 220.208C53.8759 220.214 53.8431 220.252 53.7959 220.336C53.7631 220.427 53.6188 220.563 53.7245 220.846C53.8073 221.024 53.8431 221.314 53.8045 221.638C53.7445 221.73 53.7331 221.762 53.6545 221.854C53.5459 221.974 53.4259 221.944 53.3373 221.897C53.2516 221.839 53.1859 221.81 53.1473 221.627C53.1545 221.336 53.1716 220.853 53.1188 220.751C53.0416 220.594 52.9131 220.649 52.8588 220.697C52.5973 220.944 52.4673 221.356 52.3873 221.686C52.3159 221.925 52.2373 221.855 52.1831 221.759C52.0502 221.631 52.0402 220.639 51.8802 220.803C51.6231 221.551 52.0273 222.37 52.3088 222.29C52.5088 222.377 52.6373 221.984 52.7202 221.555C52.7773 221.435 52.8202 221.42 52.8488 221.483C52.8416 222.053 52.8916 222.181 53.0345 222.352C53.3545 222.606 53.6202 222.384 53.6416 222.364L53.8916 222.111C53.9488 222.053 54.0202 222.047 54.0988 222.099C54.1759 222.172 54.1659 222.293 54.3273 222.376C54.4673 222.434 54.7602 222.39 54.8273 222.27C54.9202 222.11 54.9416 222.054 54.9845 221.993C55.0502 221.906 55.1631 221.945 55.1631 221.973C55.1531 222.024 55.0873 222.075 55.1316 222.162C55.2102 222.22 55.2288 222.182 55.2745 222.169C55.4373 222.091 55.5602 221.73 55.5602 221.73C55.5673 221.596 55.4931 221.606 55.4459 221.634C55.3816 221.673 55.3788 221.686 55.3173 221.726C55.2359 221.737 55.0816 221.791 55.0059 221.67C54.9273 221.525 54.9273 221.324 54.8673 221.176C54.8673 221.167 54.7631 220.947 54.8588 220.934C54.9059 220.943 55.0116 220.971 55.0273 220.882C55.0788 220.795 54.9173 220.547 54.8073 220.425C54.7131 220.319 54.5816 220.306 54.4545 220.414C54.3645 220.498 54.3788 220.591 54.3602 220.68C54.3388 220.782 54.3431 220.908 54.4459 221.043C54.5345 221.221 54.6959 221.451 54.6416 221.774C54.6416 221.774 54.5488 221.928 54.3845 221.907C54.3131 221.893 54.2016 221.864 54.1416 221.413C54.0988 221.074 54.1531 220.598 54.0131 220.376C53.9802 220.293 53.9531 220.211 53.9073 220.216L53.9045 220.208ZM53.4502 220.246C53.4073 220.251 53.3602 220.302 53.3216 220.399C53.2888 220.475 53.2473 220.864 53.2545 220.864C53.2259 220.981 53.3731 221.03 53.4402 220.882C53.5402 220.606 53.5402 220.489 53.5459 220.376C53.5316 220.288 53.4931 220.245 53.4502 220.248V220.246ZM55.1259 220.275C55.0831 220.281 55.0473 220.307 55.0345 220.374C55.0159 220.528 55.0259 220.614 55.0516 220.744C55.0702 220.831 55.1945 220.974 55.2545 221.058C55.5445 221.455 55.8259 221.854 56.0945 222.265C56.1373 222.574 56.1659 222.873 56.1873 223.173C56.2331 223.827 56.2445 224.642 56.2059 225.333C56.3259 225.337 56.5202 225.134 56.5873 224.838C56.6302 224.425 56.5731 223.587 56.5673 223.343L56.5531 222.997C56.8673 223.52 57.1702 224.073 57.4673 224.678C57.5773 224.626 57.5531 224.002 57.4902 223.915C57.2502 223.391 56.9188 222.873 56.8145 222.674C56.7759 222.601 56.6459 222.402 56.4931 222.171C56.4645 221.839 56.4331 221.56 56.4131 221.475C56.3631 221.126 56.5531 221.515 56.5273 221.312C56.4645 220.963 56.2759 220.728 56.0531 220.408C55.9816 220.306 55.9816 220.283 55.8716 220.434C55.8073 220.587 55.8073 220.715 55.8288 220.834C55.7973 220.79 55.7616 220.741 55.7102 220.677L55.3459 220.363C55.2959 220.326 55.1988 220.271 55.1259 220.275ZM60.0916 220.329C60.0702 220.326 60.0488 220.336 60.0202 220.376C59.9702 220.419 59.9173 220.502 59.9202 220.608C59.9302 220.79 59.9631 220.978 59.9745 221.161L59.9888 221.234C59.9688 221.211 59.9516 221.19 59.9416 221.182C59.5888 220.803 60.1031 221.118 59.8731 220.828C59.6802 220.61 59.6231 220.543 59.4588 220.412C59.3731 220.36 59.3245 220.255 59.2973 220.432C59.2859 220.588 59.2745 220.77 59.2831 220.901C59.2831 220.974 59.3588 221.112 59.4231 221.192C59.6573 221.487 59.8973 221.8 60.1373 222.126C60.1888 222.79 60.2016 223.4 60.2516 224.066C60.2459 224.351 60.1602 224.729 60.0802 224.764C60.0802 224.764 59.9545 224.837 59.8716 224.757C59.8102 224.732 59.5688 224.345 59.5688 224.345C59.4445 224.229 59.3616 224.262 59.2745 224.345C59.0316 224.584 58.9202 225.032 58.7559 225.34C58.7131 225.408 58.5945 225.468 58.4616 225.334C58.1231 224.863 58.3188 224.192 58.2788 224.366C57.9788 224.712 58.1102 225.285 58.1788 225.408C58.2788 225.612 58.3588 225.743 58.5502 225.84C58.7288 225.971 58.8645 225.891 58.9416 225.797C59.1188 225.611 59.1216 225.132 59.2045 225.038C59.2616 224.863 59.4088 224.892 59.4802 224.971C59.5516 225.072 59.6316 225.138 59.7331 225.193C59.8988 225.342 60.0959 225.368 60.2902 225.232C60.4231 225.157 60.5102 225.058 60.5873 224.863C60.6731 224.636 60.6302 223.443 60.6116 222.78L60.9831 223.327C61.0345 223.909 61.0588 224.483 61.0402 225.033C61.0288 225.142 61.4159 224.707 61.4116 224.501C61.4116 224.322 61.4145 224.158 61.4116 224.006C61.6016 224.312 61.7831 224.622 61.9545 224.937C62.0616 224.879 62.0259 224.264 61.9588 224.181C61.7788 223.872 61.5473 223.541 61.3688 223.282C61.3331 222.958 61.2859 222.575 61.2631 222.457C61.2302 222.274 61.1959 221.999 61.1445 221.782C61.1302 221.699 61.0873 221.429 61.1016 221.404C61.1216 221.342 61.2016 221.404 61.2402 221.334C61.2973 221.269 61.0373 220.578 60.9045 220.383C60.8573 220.296 60.7702 220.325 60.6645 220.47C60.5645 220.563 60.6016 220.779 60.6388 220.984C60.7359 221.507 60.8245 222.037 60.8931 222.569C60.7645 222.373 60.6073 222.137 60.4531 221.912L60.4331 221.81C60.4331 221.798 60.4131 221.381 60.3945 221.282C60.3902 221.241 60.3802 221.23 60.4231 221.235C60.4659 221.273 60.4716 221.275 60.4988 221.288C60.5445 221.294 60.5845 221.218 60.5559 221.147L60.1416 220.37C60.1273 220.351 60.1073 220.334 60.0845 220.331L60.0916 220.329ZM47.2773 220.344C47.1988 220.341 47.1159 220.387 47.1488 220.482C47.1288 220.533 47.2973 220.704 47.3273 220.799C47.3516 220.867 47.2988 221.083 47.3559 221.104C47.4059 221.126 47.4759 220.953 47.5016 220.795C47.5159 220.707 47.5059 220.408 47.3059 220.347C47.2959 220.344 47.2859 220.344 47.2745 220.342L47.2773 220.344ZM61.8773 220.344C61.8588 220.347 61.8373 220.373 61.8059 220.446C61.7273 220.576 61.7002 220.809 61.7316 221.013C61.9173 222.307 62.0602 223.561 62.0888 224.707C62.0716 224.818 62.0659 224.876 62.0173 225.013C61.9059 225.158 61.7831 225.339 61.6673 225.426C61.5531 225.513 61.3073 225.598 61.2273 225.662C60.9702 225.81 60.9702 225.982 61.1759 225.989C61.5302 225.945 61.9502 225.916 62.2388 225.472C62.3159 225.349 62.4073 225.011 62.4102 224.803C62.4388 223.596 62.3959 222.411 62.2173 221.536C62.2059 221.449 62.1688 221.256 62.1831 221.231C62.2045 221.17 62.3202 221.235 62.3616 221.167C62.4231 221.103 62.0616 220.633 61.9359 220.432C61.9102 220.383 61.8931 220.341 61.8731 220.345L61.8773 220.344ZM58.1588 220.364C58.1445 220.367 58.1245 220.39 58.0845 220.444C57.9845 220.773 57.9502 221.04 57.9888 221.247C58.2459 222.6 58.5031 223.829 58.4631 225.116C58.5831 225.116 58.7231 224.835 58.7831 224.556C58.8159 224.171 58.7602 223.936 58.7516 223.712C58.7416 223.486 58.5002 221.653 58.4516 221.483C58.3916 221.16 58.6859 221.439 58.6545 221.253C58.5516 221.014 58.2973 220.671 58.2202 220.463C58.1916 220.408 58.1859 220.357 58.1631 220.361L58.1588 220.364ZM49.1102 220.39C49.0816 220.396 49.0488 220.422 49.0388 220.463C49.0316 220.492 49.0502 220.54 49.0245 220.555C49.0102 220.569 48.9559 220.559 48.9588 220.482C48.9588 220.456 48.9402 220.43 48.9302 220.414C48.9188 220.408 48.9116 220.406 48.8916 220.406C48.8673 220.406 48.8673 220.414 48.8545 220.435C48.8488 220.456 48.8402 220.476 48.8402 220.499C48.8373 220.528 48.8259 220.536 48.8073 220.54C48.7845 220.54 48.7888 220.543 48.7716 220.53C48.7573 220.52 48.7459 220.515 48.7459 220.495C48.7459 220.473 48.7402 220.437 48.7345 220.425C48.7245 220.411 48.7088 220.405 48.6916 220.4C48.5973 220.4 48.5916 220.514 48.5959 220.555C48.5888 220.563 48.5859 220.758 48.7145 220.814C48.8859 220.898 49.2116 220.862 49.2002 220.578C49.2002 220.553 49.1931 220.469 49.1902 220.447C49.1731 220.403 49.1402 220.389 49.1088 220.393L49.1102 220.39ZM51.4331 220.393C51.3731 220.396 51.3188 220.414 51.2759 220.437C51.1616 220.549 51.1331 220.728 51.2245 220.84C51.3102 220.883 51.4002 220.971 51.3416 221.022C51.0931 221.291 50.4459 221.743 50.4131 221.826V221.835H50.4188V221.838C50.4516 221.859 50.8573 221.859 50.9016 221.838H50.9045C51.0445 221.784 51.7045 221.016 51.7045 221.016C51.6702 220.987 51.6388 220.963 51.6045 220.933C51.5673 220.901 51.5716 220.869 51.6045 220.837C51.7673 220.741 51.7159 220.527 51.6302 220.43C51.5588 220.398 51.4931 220.386 51.4331 220.39V220.393ZM57.5045 220.393C57.4873 220.398 57.4659 220.422 57.4331 220.495C57.3545 220.626 57.3016 220.851 57.3088 221.062C57.4773 222.255 57.5288 223.298 57.6402 224.491C57.6488 224.607 57.6316 224.773 57.5573 224.84C57.2773 225.136 56.8759 225.5 56.4388 225.669C56.3916 225.723 56.5559 225.951 56.7673 225.951C57.1216 225.907 57.4331 225.707 57.7245 225.173C57.8002 225.049 57.9359 224.783 57.9388 224.576C57.9673 223.366 57.8816 222.424 57.7016 221.551C57.6916 221.464 57.6988 221.362 57.7131 221.339C57.7359 221.31 57.8131 221.339 57.8559 221.27C57.9159 221.206 57.6931 220.684 57.5673 220.485C57.5416 220.434 57.5273 220.393 57.5045 220.395V220.393ZM48.0988 220.432C48.0502 220.438 48.0045 220.476 47.9816 220.534C47.9745 220.723 47.9731 220.912 47.9959 221.09C48.0816 221.4 48.1059 221.672 48.1473 221.987C48.1616 222.412 47.9073 222.171 47.9188 221.961C47.9759 221.688 47.9616 221.259 47.9102 221.15C47.8673 221.04 47.8216 221.014 47.7216 221.033C47.6431 221.027 47.4388 221.251 47.3816 221.63C47.3816 221.63 47.3331 221.822 47.3131 221.993C47.2845 222.187 47.1588 222.325 47.0702 221.967C46.9945 221.705 46.9488 221.065 46.8216 221.214C46.7845 221.714 46.7416 222.595 47.1588 222.686C47.6645 222.735 47.3845 221.816 47.5673 221.648C47.6031 221.568 47.6673 221.567 47.6716 221.67V222.451C47.6659 222.704 47.8288 222.78 47.9573 222.832C48.0902 222.822 48.1773 222.827 48.2288 222.958L48.2931 224.31C48.2931 224.31 48.5988 224.398 48.6131 223.55C48.6273 223.051 48.5131 222.633 48.5802 222.536C48.5831 222.44 48.7031 222.434 48.7859 222.482C48.9188 222.576 48.9773 222.693 49.1831 222.646C49.4973 222.559 49.6831 222.405 49.6873 222.16C49.6731 221.928 49.6445 221.695 49.5445 221.462C49.5588 221.422 49.4873 221.312 49.5016 221.27C49.5559 221.358 49.6416 221.352 49.6588 221.27C49.6073 221.091 49.5245 220.921 49.3902 220.848C49.2802 220.747 49.1188 220.768 49.0588 220.975C49.0302 221.214 49.1445 221.496 49.3159 221.727C49.3502 221.817 49.4016 221.967 49.3788 222.102C49.2888 222.155 49.1988 222.131 49.1216 222.051C49.1216 222.051 48.8745 221.862 48.8745 221.819C48.9416 221.39 48.8888 221.339 48.8531 221.222C48.8273 221.056 48.7502 221.004 48.6888 220.891C48.6259 220.822 48.5416 220.822 48.5031 220.891C48.3916 221.084 48.4431 221.502 48.5231 221.686C48.5802 221.858 48.6688 221.966 48.6273 221.966C48.5931 222.06 48.5216 222.038 48.4702 221.926C48.3988 221.694 48.3816 221.35 48.3816 221.195C48.3602 221.003 48.3359 220.591 48.2102 220.486C48.1773 220.44 48.1388 220.424 48.1002 220.428L48.0988 220.432ZM49.8731 220.432C49.8488 220.438 49.8202 220.453 49.7873 220.462C49.6802 220.495 49.5802 220.59 49.6116 220.773C49.7402 221.558 49.8216 222.159 49.9488 222.944C49.9673 223.038 49.8916 223.158 49.7945 223.148C49.6288 223.032 49.5873 222.799 49.3045 222.811C49.0988 222.811 48.8645 223.04 48.8359 223.259C48.8016 223.433 48.7902 223.622 48.8359 223.774C48.9788 223.948 49.1531 223.931 49.3045 223.89C49.4288 223.839 49.5331 223.715 49.5759 223.744C49.6045 223.792 49.5731 224.201 48.9902 224.515C48.6302 224.681 48.3445 224.719 48.1902 224.422C48.0959 224.236 48.1988 223.526 47.9645 223.689C47.2702 225.51 49.5888 225.763 49.8473 223.765C49.8645 223.707 49.9145 223.651 49.9516 223.666C49.9659 223.673 49.9802 223.695 49.9859 223.736C49.9316 225.545 48.1916 225.67 47.8973 225.1C47.8231 224.966 47.8016 224.667 47.7945 224.489C47.7802 224.38 47.7545 224.318 47.7231 224.293C47.6516 224.239 47.5573 224.38 47.5373 224.623C47.5088 224.819 47.5159 224.873 47.5159 225.062C47.6102 226.492 49.8488 225.877 50.2131 224.699C50.3931 224.088 50.2088 223.627 50.2702 223.57L50.2745 223.567H50.2788L50.2859 223.564C50.5088 223.808 50.8202 223.593 50.8888 223.51C50.9173 223.467 50.9916 223.438 51.0431 223.496C51.2145 223.621 51.5202 223.561 51.5831 223.336C51.6202 223.118 51.6516 222.894 51.6588 222.659C51.5445 222.696 51.4531 222.722 51.4159 222.761C51.4073 222.771 51.4016 222.783 51.3988 222.795L51.3702 222.988C51.3702 222.995 51.3673 223 51.3645 223.003C51.3602 223.013 51.3502 223.02 51.3445 223.024C51.3045 223.046 51.2345 223.035 51.2302 222.975C51.1773 222.728 50.9559 222.696 50.8216 223.081C50.7316 223.154 50.5645 223.168 50.5502 223.058C50.5716 222.799 50.4688 222.764 50.2645 222.886L50.0673 221.374C50.1531 221.369 50.2302 221.432 50.3102 221.333C50.2245 221.065 50.0459 220.521 49.9445 220.469H49.9416L49.9273 220.454C49.9273 220.451 49.9231 220.45 49.9202 220.448L49.9145 220.44C49.9088 220.44 49.9031 220.437 49.9002 220.435C49.8902 220.432 49.8816 220.432 49.8716 220.432H49.8731ZM56.7902 220.438C56.7016 220.435 56.6045 220.492 56.6416 220.606C56.6188 220.668 56.8316 220.878 56.8659 220.991C56.9273 221.166 56.8188 221.336 56.8831 221.36C56.9431 221.387 57.0259 221.179 57.0545 220.985C57.0916 220.828 56.9831 220.508 56.8259 220.443L56.7902 220.44V220.438ZM51.4002 220.629C51.4402 220.626 51.4888 220.664 51.5145 220.716C51.5388 220.774 51.5259 220.828 51.4859 220.838C51.4431 220.848 51.3888 220.812 51.3631 220.754C51.3373 220.696 51.3488 220.642 51.3916 220.632H51.4002V220.629ZM61.3959 220.894C61.3145 220.891 61.2245 220.952 61.2616 221.075C61.2416 221.142 61.4331 221.369 61.4659 221.494C61.4945 221.582 61.4231 221.867 61.4802 221.893C61.5345 221.922 61.6088 221.695 61.6373 221.486C61.6545 221.369 61.5716 220.969 61.4302 220.898C61.4202 220.895 61.4088 220.892 61.3973 220.892L61.3959 220.894ZM55.8673 221.033C55.8773 221.067 55.8845 221.1 55.8888 221.135C55.9059 221.208 55.9202 221.28 55.9345 221.356C55.8716 221.266 55.8202 221.193 55.7959 221.167C55.6531 220.992 55.7988 221.054 55.8673 221.033ZM57.1431 221.67C57.1116 221.676 57.0816 221.704 57.0716 221.747C57.0631 221.774 57.0831 221.82 57.0573 221.835C57.0431 221.849 56.9859 221.84 56.9902 221.762C56.9902 221.736 56.9716 221.708 56.9616 221.694C56.9502 221.686 56.9431 221.683 56.9231 221.683C56.8988 221.683 56.8988 221.691 56.8859 221.712C56.8802 221.733 56.8716 221.753 56.8716 221.778C56.8716 221.807 56.8602 221.816 56.8402 221.822C56.8173 221.822 56.8216 221.822 56.8031 221.811C56.7916 221.797 56.7788 221.794 56.7788 221.774C56.7788 221.752 56.7745 221.718 56.7673 221.704C56.7573 221.689 56.7431 221.685 56.7245 221.679C56.6316 221.679 56.6245 221.79 56.6302 221.83C56.6245 221.839 56.6202 222.037 56.7488 222.092C56.9231 222.175 57.2488 222.136 57.2345 221.854C57.2345 221.829 57.2273 221.744 57.2259 221.723C57.2073 221.679 57.1745 221.664 57.1445 221.669L57.1431 221.67ZM51.3288 221.728C51.3088 221.728 51.2802 221.734 51.2473 221.755C51.0945 221.839 51.0359 222.089 51.1331 222.235C51.2188 222.366 51.3616 222.318 51.3802 222.318C51.5302 222.338 51.6188 222.032 51.6188 222.032C51.6188 222.032 51.6231 221.945 51.4473 222.108C51.3702 222.123 51.3616 222.094 51.3416 222.05C51.3245 221.973 51.3273 221.89 51.3631 221.813C51.3802 221.765 51.3631 221.734 51.3288 221.731V221.728ZM59.5473 221.768C59.4616 221.763 59.3716 221.82 59.3473 221.938C59.3473 222.008 59.3788 222.046 59.3731 222.11C59.3659 222.146 59.3302 222.168 59.2416 222.127C59.2559 222.112 59.1845 222.014 59.1845 222.014C59.1173 221.97 59.0273 222.014 58.9673 222.054C58.9345 222.115 58.9102 222.219 58.9473 222.323C59.0445 222.508 59.3802 222.822 59.5402 222.825C59.5431 222.659 59.5588 222.438 59.5688 222.302C59.5716 222.249 59.5831 222.192 59.6331 222.179C59.6816 222.165 59.7659 222.229 59.7659 222.175C59.7573 222.07 59.7373 221.913 59.6802 221.84C59.6488 221.797 59.5988 221.771 59.5488 221.768H59.5473ZM52.7431 222.345L52.7388 222.35C52.7388 222.35 52.7359 222.35 52.7345 222.352C52.7173 222.367 52.6973 222.396 52.6531 222.425C52.5773 222.512 52.5645 222.575 52.5673 222.75C52.5731 222.768 52.7102 223.161 52.8288 223.436C52.9088 223.723 52.9816 224.051 52.9288 224.361C52.7431 224.771 52.3716 225.139 52.0102 225.34C51.8245 225.398 51.6673 225.378 51.6245 225.337C51.5188 225.264 51.5173 225.134 51.5245 225.113V225.109C51.8273 224.894 52.1745 224.719 52.4459 224.139C52.5259 223.916 52.5516 223.782 52.4716 223.44C52.4402 223.31 52.4002 223.208 52.3145 223.115H52.3173C52.3688 223.09 52.5031 223.19 52.5245 223.129C52.4916 222.963 52.3816 222.744 52.2602 222.63C52.1516 222.528 52.0316 222.518 51.9345 222.61C51.8231 222.674 51.8002 222.901 51.8531 223.099C51.9131 223.247 52.0745 223.273 52.1888 223.574C52.1916 223.595 52.2273 223.8 52.1702 223.884C52.1216 224.032 51.5202 224.515 51.4773 224.544L51.4731 224.547L51.4702 224.55H51.4673H51.4645V224.546C51.4616 224.534 51.4645 224.502 51.4645 224.454C51.4602 224.364 51.4973 224.159 51.4931 224.123V224.12C51.2931 224.251 51.2259 224.651 51.1902 224.77C50.6859 225.123 50.1145 225.387 49.7845 225.744C49.6131 226.021 50.9673 225.433 51.1245 225.362L51.1288 225.366C51.1602 225.4 51.1616 225.516 51.2516 225.622C51.3945 225.816 51.6916 225.935 51.9831 225.861C52.4716 225.682 52.7545 225.343 53.0402 224.966C53.0802 224.908 53.1445 224.859 53.2045 224.905C53.4002 225.353 53.9688 225.673 54.7016 225.705C54.8731 225.496 54.7916 225.392 54.7231 225.349C54.7016 225.334 54.3588 225.198 54.3045 225.062C54.2716 224.937 54.3531 224.825 54.5159 224.742C54.9873 224.684 55.4502 224.619 55.8988 224.472C55.9031 224.318 55.9916 224.089 56.0516 223.989C56.0945 223.92 56.1188 223.913 56.1288 223.904V223.902H56.1316V223.897V223.883L56.0545 223.836L54.5502 223.83C54.5316 223.823 54.5188 223.816 54.5102 223.808L54.5073 223.804C54.5073 223.804 54.5045 223.804 54.5045 223.801C54.5045 223.798 54.5016 223.798 54.5016 223.798V223.8V223.797V223.794V223.791L54.5045 223.787C54.5116 223.778 54.5302 223.768 54.5516 223.758C54.9116 223.71 55.5488 223.603 55.5916 222.979C55.5845 222.654 55.4545 222.441 55.0631 222.383C54.7745 222.405 54.5688 222.688 54.6016 223C54.5873 223.083 54.6302 223.247 54.5445 223.266C53.9931 223.318 53.3902 223.67 53.3702 223.923H53.3673H53.3645H53.3616C53.3616 223.926 53.3588 223.926 53.3573 223.926H53.3516H53.3488H53.3431C53.3073 223.915 53.2616 223.854 53.2688 223.771C53.2473 223.334 53.1073 222.84 52.8902 222.462C52.8116 222.382 52.7759 222.35 52.7559 222.345H52.7516H52.7473H52.7445H52.7431ZM54.1831 222.575C54.1545 222.581 54.1216 222.607 54.1116 222.651C54.1045 222.68 54.1259 222.726 54.1002 222.741C54.0859 222.755 54.0288 222.747 54.0316 222.668C54.0316 222.643 54.0131 222.616 54.0031 222.6C53.9916 222.592 53.9845 222.591 53.9659 222.591C53.9416 222.591 53.9402 222.597 53.9273 222.617C53.9202 222.638 53.9131 222.661 53.9131 222.683C53.9102 222.712 53.8988 222.72 53.8802 222.723C53.8573 222.723 53.8631 222.728 53.8445 222.716C53.8331 222.704 53.8188 222.699 53.8188 222.678C53.8188 222.656 53.8145 222.62 53.8088 222.606C53.7988 222.595 53.7831 222.591 53.7659 222.585C53.6702 222.585 53.6659 222.694 53.6702 222.736C53.6631 222.744 53.6588 222.94 53.7873 222.995C53.9588 223.08 54.3731 223.03 54.2731 222.758C54.2731 222.734 54.2659 222.649 54.2645 222.627C54.2459 222.584 54.2131 222.569 54.1816 222.574L54.1831 222.575ZM59.9902 222.818H59.9759C59.9759 222.818 59.1731 223.4 59.1545 223.42C59.0745 223.493 59.1145 223.744 59.1545 223.715C59.2116 223.737 60.0188 223.18 60.0031 223.115C60.0388 223.118 60.0559 222.828 59.9888 222.816L59.9902 222.818ZM54.9416 222.905C54.9731 222.901 55.0159 222.912 55.0559 222.934C55.1173 222.972 55.1559 223.024 55.1488 223.065V223.071C55.1459 223.071 55.1459 223.071 55.1459 223.074V223.077C55.1459 223.077 55.1431 223.077 55.1431 223.08C55.1431 223.083 55.1388 223.086 55.1359 223.088C55.1073 223.118 55.0416 223.112 54.9788 223.074C54.9188 223.04 54.8831 222.987 54.8859 222.949V222.944L54.8931 222.93C54.8931 222.93 54.8931 222.927 54.8959 222.926L54.9031 222.917C54.9131 222.91 54.9259 222.902 54.9416 222.902V222.905ZM47.9159 223.051C47.5016 223.059 46.8916 223.606 46.8759 223.909L48.1902 223.269C48.1188 223.158 48.1859 223.059 47.9159 223.051ZM49.2631 223.24C49.3031 223.243 49.3459 223.263 49.3688 223.321C49.3888 223.375 49.3688 223.43 49.3445 223.458V223.462C49.3245 223.486 49.2645 223.477 49.2202 223.477C49.1673 223.474 49.1416 223.465 49.1102 223.422C49.0931 223.371 49.1388 223.323 49.1602 223.288L49.1702 223.273C49.1845 223.259 49.2131 223.247 49.2416 223.244L49.2602 223.241L49.2631 223.24ZM59.8345 223.41C59.7588 223.419 59.6888 223.49 59.7202 223.603C59.7002 223.67 59.8202 223.904 59.8531 224.028C59.8816 224.115 59.8159 224.367 59.8745 224.392C59.9288 224.421 60.0702 224.246 60.0659 224.022C60.0802 223.906 60.0259 223.484 59.8845 223.414C59.8673 223.41 59.8502 223.408 59.8331 223.41H59.8345ZM50.8573 223.823C50.7916 223.827 50.7331 223.862 50.7602 223.957C50.7559 224.024 50.9459 224.107 50.9559 224.262C50.9816 224.329 50.9131 224.539 50.9702 224.556C51.0216 224.578 51.0931 224.411 51.1202 224.259C51.1345 224.175 51.0545 223.881 50.9202 223.827C50.8988 223.822 50.8773 223.82 50.8559 223.822L50.8573 223.823ZM53.5431 224.195H53.5602C53.7288 224.242 53.9745 224.248 54.1888 224.268C54.3645 224.283 54.4502 224.419 54.2888 224.479C54.1259 224.534 53.9702 224.581 53.9702 224.816C53.9902 224.933 53.9845 224.994 53.9673 225.02C53.9673 225.024 53.9631 225.027 53.9616 225.029C53.9616 225.029 53.9616 225.032 53.9588 225.032V225.035H53.9545L53.9445 225.039H53.9373C53.8988 225.046 53.8431 225.01 53.8016 224.987C53.7016 224.914 53.4231 224.739 53.3831 224.361C53.3773 224.274 53.4402 224.201 53.5402 224.194L53.5431 224.195ZM46.9802 224.486C46.9702 224.486 46.9516 224.518 46.9231 224.555C46.6745 224.955 46.6516 225.552 46.7888 225.733C46.8602 225.816 46.9802 225.854 47.0688 225.827C47.2259 225.759 47.2931 225.438 47.2545 225.321C47.2045 225.238 47.1631 225.225 47.1116 225.295C47.0016 225.52 46.9545 225.365 46.9473 225.237C46.9302 225 46.9531 224.779 46.9788 224.604C46.9931 224.517 46.9931 224.483 46.9788 224.483L46.9802 224.486ZM55.4045 225.013C55.3859 225.013 55.3673 225.016 55.3473 225.027C55.3431 225.027 55.1702 225.144 55.1145 225.228C55.0802 225.254 55.0859 225.276 55.0945 225.323C55.1202 225.385 55.1659 225.366 55.2202 225.337C55.2916 225.326 55.3245 225.374 55.3202 225.459C55.2873 225.568 55.3345 225.608 55.3345 225.615C55.3345 225.621 55.4016 225.68 55.4816 225.634C55.6488 225.568 55.7531 225.503 55.9888 225.452C56.0502 225.452 56.0459 225.283 55.9488 225.278C55.8202 225.283 55.7059 225.292 55.5773 225.394C55.4988 225.411 55.4859 225.362 55.4673 225.318C55.4473 225.211 55.5131 225.135 55.4988 225.054C55.5016 225.058 55.4588 225.019 55.4031 225.016L55.4045 225.013ZM60.7988 225.216L60.6845 225.228C60.6331 225.238 60.6159 225.262 60.6059 225.326C60.6102 225.42 60.6673 225.416 60.7273 225.454C60.7616 225.497 60.7845 225.538 60.7245 225.614C60.6673 225.664 60.6288 225.694 60.5716 225.744C60.5473 225.791 60.5288 225.861 60.6116 225.884C60.7616 225.928 61.1088 225.698 61.1088 225.695C61.1659 225.651 61.1459 225.568 61.1416 225.568C61.1073 225.531 61.0331 225.554 60.9845 225.547C60.9602 225.547 60.8845 225.535 60.9188 225.465C60.9502 225.422 60.9616 225.397 60.9831 225.343C61.0045 225.291 60.9831 225.256 60.9002 225.227C60.8573 225.218 60.8288 225.215 60.7959 225.216H60.7988ZM58.7231 230.831C59.1088 230.85 59.4688 230.835 59.8516 230.854C59.9145 230.907 59.8845 231.029 59.8445 231.049L59.8373 231.052H59.8331H59.8273L59.5045 231.043V231.024C59.4731 230.934 59.2588 230.94 59.2073 231.01V231.014C59.2045 231.014 59.2031 231.019 59.2031 231.02L59.2002 231.027V231.045C59.0288 231.067 58.8788 231.039 58.7102 231.033C58.6602 230.971 58.6673 230.859 58.7245 230.83L58.7231 230.831Z" fill="white"/>
</g>
<path d="M83.8141 229.928C83.1981 229.928 82.6101 229.853 82.0501 229.704C81.4901 229.554 81.0001 229.326 80.5801 229.018C80.1601 228.71 79.8241 228.318 79.5721 227.842C79.3201 227.366 79.1941 226.796 79.1941 226.134C79.1941 225.592 79.3015 225.088 79.5161 224.622C79.7401 224.155 80.0528 223.754 80.4541 223.418C80.8555 223.072 81.3408 222.806 81.9101 222.62C82.4795 222.424 83.1141 222.326 83.8141 222.326H84.4581V221.626H85.5781V228.808H87.3281V229.928H83.8141ZM84.4581 228.808V223.446H83.3521C82.9695 223.446 82.5961 223.511 82.2321 223.642C81.8681 223.763 81.5415 223.945 81.2521 224.188C80.9721 224.421 80.7435 224.706 80.5661 225.042C80.3981 225.368 80.3141 225.732 80.3141 226.134C80.3141 226.554 80.3935 226.932 80.5521 227.268C80.7108 227.594 80.9255 227.874 81.1961 228.108C81.4761 228.332 81.7981 228.504 82.1621 228.626C82.5355 228.747 82.9321 228.808 83.3521 228.808H84.4581ZM84.9901 220.212C84.7755 220.212 84.5935 220.146 84.4441 220.016C84.2948 219.876 84.2201 219.694 84.2201 219.47C84.2201 219.264 84.2948 219.092 84.4441 218.952C84.5935 218.812 84.7755 218.742 84.9901 218.742C85.2141 218.742 85.4008 218.812 85.5501 218.952C85.6995 219.092 85.7741 219.264 85.7741 219.47C85.7741 219.694 85.6948 219.876 85.5361 220.016C85.3868 220.146 85.2048 220.212 84.9901 220.212ZM82.2881 220.212C82.0735 220.212 81.8915 220.146 81.7421 220.016C81.5928 219.876 81.5181 219.694 81.5181 219.47C81.5181 219.264 81.5928 219.092 81.7421 218.952C81.8915 218.812 82.0735 218.742 82.2881 218.742C82.5028 218.742 82.6848 218.812 82.8341 218.952C82.9835 219.092 83.0581 219.264 83.0581 219.47C83.0581 219.694 82.9835 219.876 82.8341 220.016C82.6848 220.146 82.5028 220.212 82.2881 220.212ZM87.0664 228.808H90.0344V222.326H91.1544V228.808H93.9964V229.928H87.0664V228.808ZM91.8404 232.854C91.6257 232.854 91.4437 232.788 91.2944 232.658C91.1451 232.527 91.0704 232.35 91.0704 232.126C91.0704 231.911 91.1451 231.734 91.2944 231.594C91.4437 231.454 91.6257 231.384 91.8404 231.384C92.0644 231.384 92.2511 231.454 92.4004 231.594C92.5497 231.734 92.6244 231.911 92.6244 232.126C92.6244 232.35 92.5451 232.527 92.3864 232.658C92.2371 232.788 92.0551 232.854 91.8404 232.854ZM89.1384 232.854C88.9237 232.854 88.7417 232.788 88.5924 232.658C88.4431 232.527 88.3684 232.35 88.3684 232.126C88.3684 231.911 88.4431 231.734 88.5924 231.594C88.7417 231.454 88.9237 231.384 89.1384 231.384C89.3531 231.384 89.5351 231.454 89.6844 231.594C89.8337 231.734 89.9084 231.911 89.9084 232.126C89.9084 232.35 89.8337 232.527 89.6844 232.658C89.5351 232.788 89.3531 232.854 89.1384 232.854ZM95.9366 232.854C95.7219 232.854 95.5353 232.784 95.3766 232.644C95.2179 232.513 95.1386 232.331 95.1386 232.098C95.1386 231.883 95.2133 231.706 95.3626 231.566C95.5213 231.426 95.7126 231.356 95.9366 231.356C96.1606 231.356 96.3473 231.426 96.4966 231.566C96.6553 231.706 96.7346 231.883 96.7346 232.098C96.7346 232.331 96.6553 232.513 96.4966 232.644C96.3379 232.784 96.1513 232.854 95.9366 232.854ZM93.7246 228.808H95.3766V222.326H96.4966V229.928H93.7246V228.808ZM98.8147 233.008C98.516 233.008 98.2127 232.966 97.9047 232.882L98.1987 231.804C98.3294 231.841 98.432 231.864 98.5067 231.874C98.5814 231.883 98.67 231.888 98.7727 231.888C98.9874 231.888 99.16 231.855 99.2907 231.79C99.4307 231.734 99.538 231.636 99.6127 231.496C99.6967 231.365 99.7527 231.188 99.7807 230.964C99.818 230.749 99.8367 230.483 99.8367 230.166V222.326H100.957V228.808H102.721V229.928H100.957V230.166C100.957 230.604 100.919 230.996 100.845 231.342C100.779 231.696 100.663 231.995 100.495 232.238C100.327 232.49 100.103 232.681 99.8227 232.812C99.552 232.942 99.216 233.008 98.8147 233.008ZM102.447 228.808H105.135L103.161 224.118C103.451 223.856 103.759 223.609 104.085 223.376C104.421 223.142 104.767 222.942 105.121 222.774C105.485 222.606 105.849 222.475 106.213 222.382C106.577 222.279 106.941 222.228 107.305 222.228C107.66 222.228 108.019 222.279 108.383 222.382C108.747 222.475 109.107 222.61 109.461 222.788C109.816 222.956 110.161 223.156 110.497 223.39C110.833 223.614 111.151 223.856 111.449 224.118L109.489 228.808H112.415V229.928H102.447V228.808ZM107.305 223.46C106.811 223.46 106.335 223.544 105.877 223.712C105.429 223.88 104.991 224.146 104.561 224.51L106.311 228.808H108.313L110.063 224.51C109.718 224.211 109.298 223.964 108.803 223.768C108.309 223.562 107.809 223.46 107.305 223.46ZM112.141 228.808H114.255V218.574H116.537V219.694H115.375V229.928H112.141V228.808ZM118.64 218.574H119.76V229.928H118.64V218.574Z" fill="#11002A"/>
<rect x="564" y="214" width="40" height="22.8571" rx="11.4286" fill="#6200EE"/>
<path d="M592.571 233.047C588.363 233.047 584.952 229.636 584.952 225.428C584.952 221.22 588.363 217.809 592.571 217.809C596.779 217.809 600.19 221.22 600.19 225.428C600.19 229.636 596.779 233.047 592.571 233.047Z" fill="white"/>
<mask id="path-19-inside-2_1_14025" fill="white">
<path d="M32 260.857H612V331.715H32V260.857Z"/>
</mask>
<path d="M612 330.715H32V332.715H612V330.715Z" fill="#F2F4F7" mask="url(#path-19-inside-2_1_14025)"/>
<g clip-path="url(#clip1_1_14025)">
<g clip-path="url(#clip2_1_14025)">
<rect x="40" y="287.285" width="24.75" height="18" rx="2.25" fill="white"/>
<path fill-rule="evenodd" clip-rule="evenodd" d="M40 287.285H50.6071V295.685H40V287.285Z" fill="#1A47B8"/>
<path fill-rule="evenodd" clip-rule="evenodd" d="M50.6071 287.285V288.485H64.75V287.285H50.6071ZM50.6071 289.685V290.885H64.75V289.685H50.6071ZM50.6071 292.085V293.285H64.75V292.085H50.6071ZM50.6071 294.485V295.685H64.75V294.485H50.6071ZM40 296.885V298.085H64.75V296.885H40ZM40 299.285V300.485H64.75V299.285H40ZM40 301.685V302.885H64.75V301.685H40ZM40 304.085V305.285H64.75V304.085H40Z" fill="#F93939"/>
<path fill-rule="evenodd" clip-rule="evenodd" d="M41.1786 288.484V289.684H42.3572V288.484H41.1786ZM43.5357 288.484V289.684H44.7143V288.484H43.5357ZM45.8929 288.484V289.684H47.0714V288.484H45.8929ZM48.25 288.484V289.684H49.4286V288.484H48.25ZM47.0714 289.684V290.884H48.25V289.684H47.0714ZM44.7143 289.684V290.884H45.8929V289.684H44.7143ZM42.3572 289.684V290.884H43.5357V289.684H42.3572ZM41.1786 290.884V292.084H42.3572V290.884H41.1786ZM43.5357 290.884V292.084H44.7143V290.884H43.5357ZM45.8929 290.884V292.084H47.0714V290.884H45.8929ZM48.25 290.884V292.084H49.4286V290.884H48.25ZM41.1786 293.284V294.484H42.3572V293.284H41.1786ZM43.5357 293.284V294.484H44.7143V293.284H43.5357ZM45.8929 293.284V294.484H47.0714V293.284H45.8929ZM48.25 293.284V294.484H49.4286V293.284H48.25ZM47.0714 292.084V293.284H48.25V292.084H47.0714ZM44.7143 292.084V293.284H45.8929V292.084H44.7143ZM42.3572 292.084V293.284H43.5357V292.084H42.3572Z" fill="white"/>
</g>
</g>
<path d="M75.3481 292.063V295.325H78.9041V296.375H75.3481V299.735H79.3241V300.785H74.0741V291.013H79.3241V292.063H75.3481ZM84.9898 292.973C85.9232 292.973 86.6792 293.258 87.2578 293.827C87.8365 294.387 88.1258 295.199 88.1258 296.263V300.785H86.8658V296.445C86.8658 295.68 86.6745 295.096 86.2918 294.695C85.9092 294.284 85.3865 294.079 84.7238 294.079C84.0518 294.079 83.5152 294.289 83.1138 294.709C82.7218 295.129 82.5258 295.74 82.5258 296.543V300.785H81.2518V293.113H82.5258V294.205C82.7778 293.813 83.1185 293.51 83.5478 293.295C83.9865 293.08 84.4672 292.973 84.9898 292.973ZM93.3709 292.987C94.0336 292.987 94.6122 293.132 95.1069 293.421C95.6109 293.71 95.9842 294.074 96.2269 294.513V293.113H97.5149V300.953C97.5149 301.653 97.3656 302.274 97.0669 302.815C96.7682 303.366 96.3389 303.795 95.7789 304.103C95.2282 304.411 94.5842 304.565 93.8469 304.565C92.8389 304.565 91.9989 304.327 91.3269 303.851C90.6549 303.375 90.2582 302.726 90.1369 301.905H91.3969C91.5369 302.372 91.8262 302.745 92.2649 303.025C92.7036 303.314 93.2309 303.459 93.8469 303.459C94.5469 303.459 95.1162 303.24 95.5549 302.801C96.0029 302.362 96.2269 301.746 96.2269 300.953V299.343C95.9749 299.791 95.6016 300.164 95.1069 300.463C94.6122 300.762 94.0336 300.911 93.3709 300.911C92.6896 300.911 92.0689 300.743 91.5089 300.407C90.9582 300.071 90.5242 299.6 90.2069 298.993C89.8896 298.386 89.7309 297.696 89.7309 296.921C89.7309 296.137 89.8896 295.451 90.2069 294.863C90.5242 294.266 90.9582 293.804 91.5089 293.477C92.0689 293.15 92.6896 292.987 93.3709 292.987ZM96.2269 296.935C96.2269 296.356 96.1102 295.852 95.8769 295.423C95.6436 294.994 95.3262 294.667 94.9249 294.443C94.5329 294.21 94.0989 294.093 93.6229 294.093C93.1469 294.093 92.7129 294.205 92.3209 294.429C91.9289 294.653 91.6162 294.98 91.3829 295.409C91.1496 295.838 91.0329 296.342 91.0329 296.921C91.0329 297.509 91.1496 298.022 91.3829 298.461C91.6162 298.89 91.9289 299.222 92.3209 299.455C92.7129 299.679 93.1469 299.791 93.6229 299.791C94.0989 299.791 94.5329 299.679 94.9249 299.455C95.3262 299.222 95.6436 298.89 95.8769 298.461C96.1102 298.022 96.2269 297.514 96.2269 296.935ZM100.942 290.425V300.785H99.6678V290.425H100.942ZM103.771 291.867C103.528 291.867 103.323 291.783 103.155 291.615C102.987 291.447 102.903 291.242 102.903 290.999C102.903 290.756 102.987 290.551 103.155 290.383C103.323 290.215 103.528 290.131 103.771 290.131C104.004 290.131 104.2 290.215 104.359 290.383C104.527 290.551 104.611 290.756 104.611 290.999C104.611 291.242 104.527 291.447 104.359 291.615C104.2 291.783 104.004 291.867 103.771 291.867ZM104.387 293.113V300.785H103.113V293.113H104.387ZM109.274 300.911C108.686 300.911 108.159 300.813 107.692 300.617C107.226 300.412 106.857 300.132 106.586 299.777C106.316 299.413 106.166 298.998 106.138 298.531H107.454C107.492 298.914 107.669 299.226 107.986 299.469C108.313 299.712 108.738 299.833 109.26 299.833C109.746 299.833 110.128 299.726 110.408 299.511C110.688 299.296 110.828 299.026 110.828 298.699C110.828 298.363 110.679 298.116 110.38 297.957C110.082 297.789 109.62 297.626 108.994 297.467C108.425 297.318 107.958 297.168 107.594 297.019C107.24 296.86 106.932 296.632 106.67 296.333C106.418 296.025 106.292 295.624 106.292 295.129C106.292 294.737 106.409 294.378 106.642 294.051C106.876 293.724 107.207 293.468 107.636 293.281C108.066 293.085 108.556 292.987 109.106 292.987C109.956 292.987 110.642 293.202 111.164 293.631C111.687 294.06 111.967 294.648 112.004 295.395H110.73C110.702 294.994 110.539 294.672 110.24 294.429C109.951 294.186 109.559 294.065 109.064 294.065C108.607 294.065 108.243 294.163 107.972 294.359C107.702 294.555 107.566 294.812 107.566 295.129C107.566 295.381 107.646 295.591 107.804 295.759C107.972 295.918 108.178 296.048 108.42 296.151C108.672 296.244 109.018 296.352 109.456 296.473C110.007 296.622 110.455 296.772 110.8 296.921C111.146 297.061 111.44 297.276 111.682 297.565C111.934 297.854 112.065 298.232 112.074 298.699C112.074 299.119 111.958 299.497 111.724 299.833C111.491 300.169 111.16 300.435 110.73 300.631C110.31 300.818 109.825 300.911 109.274 300.911ZM117.681 292.973C118.26 292.973 118.782 293.099 119.249 293.351C119.716 293.594 120.08 293.962 120.341 294.457C120.612 294.952 120.747 295.554 120.747 296.263V300.785H119.487V296.445C119.487 295.68 119.296 295.096 118.913 294.695C118.53 294.284 118.008 294.079 117.345 294.079C116.673 294.079 116.136 294.289 115.735 294.709C115.343 295.129 115.147 295.74 115.147 296.543V300.785H113.873V290.425H115.147V294.205C115.399 293.813 115.744 293.51 116.183 293.295C116.631 293.08 117.13 292.973 117.681 292.973Z" fill="#11002A"/>
<rect x="564" y="284.857" width="40" height="22.8571" rx="11.4286" fill="#6200EE"/>
<path d="M592.571 303.904C588.363 303.904 584.952 300.493 584.952 296.285C584.952 292.077 588.363 288.666 592.571 288.666C596.779 288.666 600.19 292.077 600.19 296.285C600.19 300.493 596.779 303.904 592.571 303.904Z" fill="white"/>
<mask id="path-29-inside-3_1_14025" fill="white">
<path d="M32 331.715H612V402.572H32V331.715Z"/>
</mask>
<path d="M612 401.572H32V403.572H612V401.572Z" fill="#F2F4F7" mask="url(#path-29-inside-3_1_14025)"/>
<g clip-path="url(#clip3_1_14025)">
<g clip-path="url(#clip4_1_14025)">
<rect x="40" y="358.143" width="24.75" height="18" rx="2.25" fill="white"/>
<path fill-rule="evenodd" clip-rule="evenodd" d="M40 358.143H47.875V376.143H40V358.143Z" fill="#1A47B8"/>
<path fill-rule="evenodd" clip-rule="evenodd" d="M56.875 358.143H64.75V376.143H56.875V358.143Z" fill="#F93939"/>
</g>
</g>
<path d="M79.971 361.885V362.921H75.729V366.211H79.173V367.247H75.729V371.643H74.455V361.885H79.971ZM82.7836 365.217C83.0076 364.778 83.325 364.437 83.7356 364.195C84.1556 363.952 84.6643 363.831 85.2616 363.831V365.147H84.9256C83.4976 365.147 82.7836 365.921 82.7836 367.471V371.643H81.5096V363.971H82.7836V365.217ZM93.7323 367.513C93.7323 367.755 93.7183 368.012 93.6903 368.283H87.5583C87.605 369.039 87.8616 369.631 88.3283 370.061C88.8043 370.481 89.3783 370.691 90.0503 370.691C90.601 370.691 91.0583 370.565 91.4223 370.313C91.7956 370.051 92.057 369.706 92.2063 369.277H93.5783C93.373 370.014 92.9623 370.616 92.3463 371.083C91.7303 371.54 90.965 371.769 90.0503 371.769C89.3223 371.769 88.669 371.605 88.0903 371.279C87.521 370.952 87.073 370.49 86.7463 369.893C86.4196 369.286 86.2563 368.586 86.2563 367.793C86.2563 366.999 86.415 366.304 86.7323 365.707C87.0496 365.109 87.493 364.652 88.0623 364.335C88.641 364.008 89.3036 363.845 90.0503 363.845C90.7783 363.845 91.4223 364.003 91.9823 364.321C92.5423 364.638 92.9716 365.077 93.2703 365.637C93.5783 366.187 93.7323 366.813 93.7323 367.513ZM92.4163 367.247C92.4163 366.761 92.309 366.346 92.0943 366.001C91.8796 365.646 91.5856 365.38 91.2123 365.203C90.8483 365.016 90.4423 364.923 89.9943 364.923C89.3503 364.923 88.7996 365.128 88.3423 365.539C87.8943 365.949 87.6376 366.519 87.5723 367.247H92.4163ZM99.1519 363.831C100.085 363.831 100.841 364.115 101.42 364.685C101.999 365.245 102.288 366.057 102.288 367.121V371.643H101.028V367.303C101.028 366.537 100.837 365.954 100.454 365.553C100.071 365.142 99.5486 364.937 98.8859 364.937C98.2139 364.937 97.6773 365.147 97.2759 365.567C96.8839 365.987 96.6879 366.598 96.6879 367.401V371.643H95.4139V363.971H96.6879V365.063C96.9399 364.671 97.2806 364.367 97.7099 364.153C98.1486 363.938 98.6293 363.831 99.1519 363.831ZM103.893 367.793C103.893 366.999 104.052 366.309 104.369 365.721C104.686 365.123 105.125 364.661 105.685 364.335C106.254 364.008 106.903 363.845 107.631 363.845C108.574 363.845 109.348 364.073 109.955 364.531C110.571 364.988 110.977 365.623 111.173 366.435H109.801C109.67 365.968 109.414 365.599 109.031 365.329C108.658 365.058 108.191 364.923 107.631 364.923C106.903 364.923 106.315 365.175 105.867 365.679C105.419 366.173 105.195 366.878 105.195 367.793C105.195 368.717 105.419 369.431 105.867 369.935C106.315 370.439 106.903 370.691 107.631 370.691C108.191 370.691 108.658 370.56 109.031 370.299C109.404 370.037 109.661 369.664 109.801 369.179H111.173C110.968 369.963 110.557 370.593 109.941 371.069C109.325 371.535 108.555 371.769 107.631 371.769C106.903 371.769 106.254 371.605 105.685 371.279C105.125 370.952 104.686 370.49 104.369 369.893C104.052 369.295 103.893 368.595 103.893 367.793ZM116.681 363.831C117.26 363.831 117.782 363.957 118.249 364.209C118.716 364.451 119.08 364.82 119.341 365.315C119.612 365.809 119.747 366.411 119.747 367.121V371.643H118.487V367.303C118.487 366.537 118.296 365.954 117.913 365.553C117.53 365.142 117.008 364.937 116.345 364.937C115.673 364.937 115.136 365.147 114.735 365.567C114.343 365.987 114.147 366.598 114.147 367.401V371.643H112.873V361.283H114.147V365.063C114.399 364.671 114.744 364.367 115.183 364.153C115.631 363.938 116.13 363.831 116.681 363.831Z" fill="#11002A"/>
<rect x="564" y="355.715" width="40" height="22.8571" rx="11.4286" fill="#6200EE"/>
<path d="M592.571 374.762C588.363 374.762 584.952 371.35 584.952 367.142C584.952 362.934 588.363 359.523 592.571 359.523C596.779 359.523 600.19 362.934 600.19 367.142C600.19 371.35 596.779 374.762 592.571 374.762Z" fill="white"/>
<mask id="path-38-inside-4_1_14025" fill="white">
<path d="M32 402.572H612V473.429H32V402.572Z"/>
</mask>
<path d="M612 472.429H32V474.429H612V472.429Z" fill="#F2F4F7" mask="url(#path-38-inside-4_1_14025)"/>
<g clip-path="url(#clip5_1_14025)">
<g clip-path="url(#clip6_1_14025)">
<rect x="40" y="429.363" width="23.75" height="17.2727" rx="2.15909" fill="#F93939"/>
<path d="M61.4881 429.363H42.2619C41.0127 429.363 40 430.394 40 431.666V444.333C40 445.605 41.0127 446.636 42.2619 446.636H61.4881C62.7373 446.636 63.75 445.605 63.75 444.333V431.666C63.75 430.394 62.7373 429.363 61.4881 429.363Z" fill="#F93939"/>
<path fill-rule="evenodd" clip-rule="evenodd" d="M40 433.971H63.75V442.031H40V433.971Z" fill="#FFDA2C"/>
<path fill-rule="evenodd" clip-rule="evenodd" d="M50.1786 436.529V439.43C50.1786 440.236 49.4186 440.881 48.4821 440.881H46.2202C45.2861 440.879 44.5238 440.231 44.5238 439.428V436.526C44.5238 435.868 45.0305 435.317 45.7271 435.139C45.9375 434.54 46.5844 435.077 47.3512 435.077C48.1225 435.077 48.7649 434.543 48.9752 435.14C49.6696 435.323 50.1786 435.875 50.1786 436.529Z" fill="#D4AF2C"/>
<path fill-rule="evenodd" clip-rule="evenodd" d="M50.1785 437.424H51.3095V440.878H50.1785V437.424ZM43.3928 437.424H44.5238V440.878H43.3928V437.424Z" fill="#CBCBCB"/>
<path fill-rule="evenodd" clip-rule="evenodd" d="M50.1785 439.727H51.3095V440.878H50.1785V439.727ZM43.3928 439.727H44.5238V440.878H43.3928V439.727Z" fill="#1A47B8"/>
<path fill-rule="evenodd" clip-rule="evenodd" d="M50.1785 436.273H51.3095V437.425H50.1785V436.273ZM43.3928 436.273H44.5238V437.425H43.3928V436.273Z" fill="#D4AF2C"/>
<path fill-rule="evenodd" clip-rule="evenodd" d="M45.6547 436.273H46.7856V438.001H45.6547V436.273ZM47.9166 438.576H49.0475V440.304H47.9166V438.576Z" fill="#AF010D"/>
<path fill-rule="evenodd" clip-rule="evenodd" d="M47.9167 436.273H49.0477V438.001H47.9167V436.273Z" fill="#AE6A3E"/>
<path fill-rule="evenodd" clip-rule="evenodd" d="M45.6547 438.576H46.7856V440.303H45.6547V438.576Z" fill="#FFDA2C"/>
<path fill-rule="evenodd" clip-rule="evenodd" d="M46.7856 436.273L45.6547 435.121H49.0475L47.9166 436.273H46.7856Z" fill="#AF010D"/>
<path fill-rule="evenodd" clip-rule="evenodd" d="M46.7858 433.971H47.9167V435.122H46.7858V433.971Z" fill="#D4AF2C"/>
</g>
</g>
<path d="M76.1134 442.598C75.4694 442.598 74.8907 442.486 74.3774 442.262C73.8734 442.029 73.4767 441.711 73.1874 441.31C72.8981 440.899 72.7487 440.428 72.7394 439.896H74.0974C74.1441 440.353 74.3307 440.741 74.6574 441.058C74.9934 441.366 75.4787 441.52 76.1134 441.52C76.7201 441.52 77.1961 441.371 77.5414 441.072C77.8961 440.764 78.0734 440.372 78.0734 439.896C78.0734 439.523 77.9707 439.219 77.7654 438.986C77.5601 438.753 77.3034 438.575 76.9954 438.454C76.6874 438.333 76.2721 438.202 75.7494 438.062C75.1054 437.894 74.5874 437.726 74.1954 437.558C73.8127 437.39 73.4814 437.129 73.2014 436.774C72.9307 436.41 72.7954 435.925 72.7954 435.318C72.7954 434.786 72.9307 434.315 73.2014 433.904C73.4721 433.493 73.8501 433.176 74.3354 432.952C74.8301 432.728 75.3947 432.616 76.0294 432.616C76.9441 432.616 77.6907 432.845 78.2694 433.302C78.8574 433.759 79.1887 434.366 79.2634 435.122H77.8634C77.8167 434.749 77.6207 434.422 77.2754 434.142C76.9301 433.853 76.4727 433.708 75.9034 433.708C75.3714 433.708 74.9374 433.848 74.6014 434.128C74.2654 434.399 74.0974 434.781 74.0974 435.276C74.0974 435.631 74.1954 435.92 74.3914 436.144C74.5967 436.368 74.8441 436.541 75.1334 436.662C75.4321 436.774 75.8474 436.905 76.3794 437.054C77.0234 437.231 77.5414 437.409 77.9334 437.586C78.3254 437.754 78.6614 438.02 78.9414 438.384C79.2214 438.739 79.3614 439.224 79.3614 439.84C79.3614 440.316 79.2354 440.764 78.9834 441.184C78.7314 441.604 78.3581 441.945 77.8634 442.206C77.3687 442.467 76.7854 442.598 76.1134 442.598ZM82.5102 436.242C82.7622 435.803 83.1355 435.439 83.6302 435.15C84.1342 434.851 84.7175 434.702 85.3802 434.702C86.0615 434.702 86.6775 434.865 87.2282 435.192C87.7882 435.519 88.2269 435.981 88.5442 436.578C88.8615 437.166 89.0202 437.852 89.0202 438.636C89.0202 439.411 88.8615 440.101 88.5442 440.708C88.2269 441.315 87.7882 441.786 87.2282 442.122C86.6775 442.458 86.0615 442.626 85.3802 442.626C84.7269 442.626 84.1482 442.481 83.6442 442.192C83.1495 441.893 82.7715 441.525 82.5102 441.086V446.14H81.2362V434.828H82.5102V436.242ZM87.7182 438.636C87.7182 438.057 87.6015 437.553 87.3682 437.124C87.1349 436.695 86.8175 436.368 86.4162 436.144C86.0242 435.92 85.5902 435.808 85.1142 435.808C84.6475 435.808 84.2135 435.925 83.8122 436.158C83.4202 436.382 83.1029 436.713 82.8602 437.152C82.6269 437.581 82.5102 438.081 82.5102 438.65C82.5102 439.229 82.6269 439.737 82.8602 440.176C83.1029 440.605 83.4202 440.937 83.8122 441.17C84.2135 441.394 84.6475 441.506 85.1142 441.506C85.5902 441.506 86.0242 441.394 86.4162 441.17C86.8175 440.937 87.1349 440.605 87.3682 440.176C87.6015 439.737 87.7182 439.224 87.7182 438.636ZM90.2211 438.636C90.2211 437.852 90.3798 437.166 90.6971 436.578C91.0145 435.981 91.4485 435.519 91.9991 435.192C92.5591 434.865 93.1798 434.702 93.8611 434.702C94.5331 434.702 95.1165 434.847 95.6111 435.136C96.1058 435.425 96.4745 435.789 96.7171 436.228V434.828H98.0051V442.5H96.7171V441.072C96.4651 441.52 96.0871 441.893 95.5831 442.192C95.0885 442.481 94.5098 442.626 93.8471 442.626C93.1658 442.626 92.5498 442.458 91.9991 442.122C91.4485 441.786 91.0145 441.315 90.6971 440.708C90.3798 440.101 90.2211 439.411 90.2211 438.636ZM96.7171 438.65C96.7171 438.071 96.6005 437.567 96.3671 437.138C96.1338 436.709 95.8165 436.382 95.4151 436.158C95.0231 435.925 94.5891 435.808 94.1131 435.808C93.6371 435.808 93.2031 435.92 92.8111 436.144C92.4191 436.368 92.1065 436.695 91.8731 437.124C91.6398 437.553 91.5231 438.057 91.5231 438.636C91.5231 439.224 91.6398 439.737 91.8731 440.176C92.1065 440.605 92.4191 440.937 92.8111 441.17C93.2031 441.394 93.6371 441.506 94.1131 441.506C94.5891 441.506 95.0231 441.394 95.4151 441.17C95.8165 440.937 96.1338 440.605 96.3671 440.176C96.6005 439.737 96.7171 439.229 96.7171 438.65ZM103.896 434.688C104.829 434.688 105.585 434.973 106.164 435.542C106.743 436.102 107.032 436.914 107.032 437.978V442.5H105.772V438.16C105.772 437.395 105.581 436.811 105.198 436.41C104.815 435.999 104.293 435.794 103.63 435.794C102.958 435.794 102.421 436.004 102.02 436.424C101.628 436.844 101.432 437.455 101.432 438.258V442.5H100.158V434.828H101.432V435.92C101.684 435.528 102.025 435.225 102.454 435.01C102.893 434.795 103.373 434.688 103.896 434.688ZM109.771 433.582C109.528 433.582 109.323 433.498 109.155 433.33C108.987 433.162 108.903 432.957 108.903 432.714C108.903 432.471 108.987 432.266 109.155 432.098C109.323 431.93 109.528 431.846 109.771 431.846C110.004 431.846 110.2 431.93 110.359 432.098C110.527 432.266 110.611 432.471 110.611 432.714C110.611 432.957 110.527 433.162 110.359 433.33C110.2 433.498 110.004 433.582 109.771 433.582ZM110.387 434.828V442.5H109.113V434.828H110.387ZM115.274 442.626C114.686 442.626 114.159 442.528 113.692 442.332C113.226 442.127 112.857 441.847 112.586 441.492C112.316 441.128 112.166 440.713 112.138 440.246H113.454C113.492 440.629 113.669 440.941 113.986 441.184C114.313 441.427 114.738 441.548 115.26 441.548C115.746 441.548 116.128 441.441 116.408 441.226C116.688 441.011 116.828 440.741 116.828 440.414C116.828 440.078 116.679 439.831 116.38 439.672C116.082 439.504 115.62 439.341 114.994 439.182C114.425 439.033 113.958 438.883 113.594 438.734C113.24 438.575 112.932 438.347 112.67 438.048C112.418 437.74 112.292 437.339 112.292 436.844C112.292 436.452 112.409 436.093 112.642 435.766C112.876 435.439 113.207 435.183 113.636 434.996C114.066 434.8 114.556 434.702 115.106 434.702C115.956 434.702 116.642 434.917 117.164 435.346C117.687 435.775 117.967 436.363 118.004 437.11H116.73C116.702 436.709 116.539 436.387 116.24 436.144C115.951 435.901 115.559 435.78 115.064 435.78C114.607 435.78 114.243 435.878 113.972 436.074C113.702 436.27 113.566 436.527 113.566 436.844C113.566 437.096 113.646 437.306 113.804 437.474C113.972 437.633 114.178 437.763 114.42 437.866C114.672 437.959 115.018 438.067 115.456 438.188C116.007 438.337 116.455 438.487 116.8 438.636C117.146 438.776 117.44 438.991 117.682 439.28C117.934 439.569 118.065 439.947 118.074 440.414C118.074 440.834 117.958 441.212 117.724 441.548C117.491 441.884 117.16 442.15 116.73 442.346C116.31 442.533 115.825 442.626 115.274 442.626ZM123.681 434.688C124.26 434.688 124.782 434.814 125.249 435.066C125.716 435.309 126.08 435.677 126.341 436.172C126.612 436.667 126.747 437.269 126.747 437.978V442.5H125.487V438.16C125.487 437.395 125.296 436.811 124.913 436.41C124.53 435.999 124.008 435.794 123.345 435.794C122.673 435.794 122.136 436.004 121.735 436.424C121.343 436.844 121.147 437.455 121.147 438.258V442.5H119.873V432.14H121.147V435.92C121.399 435.528 121.744 435.225 122.183 435.01C122.631 434.795 123.13 434.688 123.681 434.688Z" fill="#11002A"/>
<rect x="564" y="426.572" width="40" height="22.8571" rx="11.4286" fill="#6200EE"/>
<path d="M592.571 445.619C588.363 445.619 584.952 442.208 584.952 438C584.952 433.792 588.363 430.381 592.571 430.381C596.779 430.381 600.19 433.792 600.19 438C600.19 442.208 596.779 445.619 592.571 445.619Z" fill="white"/>
<mask id="path-56-inside-5_1_14025" fill="white">
<path d="M32 473.428H612V544.285H32V473.428Z"/>
</mask>
<path d="M612 543.285H32V545.285H612V543.285Z" fill="#F2F4F7" mask="url(#path-56-inside-5_1_14025)"/>
<g clip-path="url(#clip7_1_14025)">
<g clip-path="url(#clip8_1_14025)">
<rect x="40" y="499.855" width="24.7499" height="17.9999" rx="2.24999" fill="white"/>
<path fill-rule="evenodd" clip-rule="evenodd" d="M40 499.855H47.875V517.855H40V499.855Z" fill="#249F58"/>
<path fill-rule="evenodd" clip-rule="evenodd" d="M56.8749 499.855H64.7498V517.855H56.8749V499.855Z" fill="#F93939"/>
</g>
</g>
<path d="M75.762 503.597V513.355H74.488V503.597H75.762ZM79.4873 506.733V511.255C79.4873 511.629 79.5667 511.895 79.7253 512.053C79.884 512.203 80.1593 512.277 80.5513 512.277H81.4893V513.355H80.3413C79.632 513.355 79.1 513.192 78.7453 512.865C78.3907 512.539 78.2133 512.002 78.2133 511.255V506.733H77.2193V505.683H78.2133V503.751H79.4873V505.683H81.4893V506.733H79.4873ZM84.307 502.995V513.355H83.033V502.995H84.307ZM86.0023 509.491C86.0023 508.707 86.1609 508.021 86.4783 507.433C86.7956 506.836 87.2296 506.374 87.7803 506.047C88.3403 505.721 88.9609 505.557 89.6423 505.557C90.3143 505.557 90.8976 505.702 91.3923 505.991C91.8869 506.281 92.2556 506.645 92.4983 507.083V505.683H93.7863V513.355H92.4983V511.927C92.2463 512.375 91.8683 512.749 91.3643 513.047C90.8696 513.337 90.2909 513.481 89.6283 513.481C88.9469 513.481 88.3309 513.313 87.7803 512.977C87.2296 512.641 86.7956 512.17 86.4783 511.563C86.1609 510.957 86.0023 510.266 86.0023 509.491ZM92.4983 509.505C92.4983 508.927 92.3816 508.423 92.1483 507.993C91.9149 507.564 91.5976 507.237 91.1963 507.013C90.8043 506.78 90.3703 506.663 89.8943 506.663C89.4183 506.663 88.9843 506.775 88.5923 506.999C88.2003 507.223 87.8876 507.55 87.6543 507.979C87.4209 508.409 87.3043 508.913 87.3043 509.491C87.3043 510.079 87.4209 510.593 87.6543 511.031C87.8876 511.461 88.2003 511.792 88.5923 512.025C88.9843 512.249 89.4183 512.361 89.8943 512.361C90.3703 512.361 90.8043 512.249 91.1963 512.025C91.5976 511.792 91.9149 511.461 92.1483 511.031C92.3816 510.593 92.4983 510.084 92.4983 509.505ZM102.547 505.683L97.9272 516.967H96.6112L98.1232 513.271L95.0292 505.683H96.4432L98.8512 511.899L101.231 505.683H102.547Z" fill="#11002A"/>
<rect x="564" y="497.428" width="40" height="22.8571" rx="11.4286" fill="#BFBFBF"/>
<ellipse cx="575.429" cy="508.855" rx="8.57143" ry="8.57143" fill="white"/>
<mask id="path-65-inside-6_1_14025" fill="white">
<path d="M32 544.285H612V615.142H32V544.285Z"/>
</mask>
<path d="M612 614.142H32V616.142H612V614.142Z" fill="#F2F4F7" mask="url(#path-65-inside-6_1_14025)"/>
<g clip-path="url(#clip9_1_14025)">
<g clip-path="url(#clip10_1_14025)">
<rect x="40" y="570.713" width="24.75" height="18" rx="2.25" fill="#F93939"/>
<path d="M62.3929 570.713H42.3571C41.0553 570.713 40 571.787 40 573.113V586.313C40 587.638 41.0553 588.713 42.3571 588.713H62.3929C63.6947 588.713 64.75 587.638 64.75 586.313V573.113C64.75 571.787 63.6947 570.713 62.3929 570.713Z" fill="#F93939"/>
<path fill-rule="evenodd" clip-rule="evenodd" d="M46.4799 579.388L44.7474 580.316L45.0774 578.352L43.6772 576.96L45.6136 576.675L46.4799 574.887L47.345 576.675L49.2814 576.96L47.8789 578.352L48.2112 580.315L46.4799 579.388ZM50.6072 574.312H51.7858V575.512H50.6072V574.312ZM51.7858 576.712H52.9644V577.912H51.7858V576.712ZM51.7858 579.112H52.9644V580.312H51.7858V579.112ZM50.6072 581.512H51.7858V582.712H50.6072V581.512Z" fill="#FFDA2C"/>
</g>
</g>
<path d="M73.5043 579.327C73.5043 578.375 73.719 577.521 74.1483 576.765C74.5777 576 75.161 575.402 75.8983 574.973C76.645 574.544 77.471 574.329 78.3763 574.329C79.4403 574.329 80.369 574.586 81.1623 575.099C81.9557 575.612 82.5343 576.34 82.8983 577.283H81.3723C81.1017 576.695 80.7097 576.242 80.1963 575.925C79.6923 575.608 79.0857 575.449 78.3763 575.449C77.695 575.449 77.0837 575.608 76.5423 575.925C76.001 576.242 75.5763 576.695 75.2683 577.283C74.9603 577.862 74.8063 578.543 74.8063 579.327C74.8063 580.102 74.9603 580.783 75.2683 581.371C75.5763 581.95 76.001 582.398 76.5423 582.715C77.0837 583.032 77.695 583.191 78.3763 583.191C79.0857 583.191 79.6923 583.037 80.1963 582.729C80.7097 582.412 81.1017 581.959 81.3723 581.371H82.8983C82.5343 582.304 81.9557 583.028 81.1623 583.541C80.369 584.045 79.4403 584.297 78.3763 584.297C77.471 584.297 76.645 584.087 75.8983 583.667C75.161 583.238 74.5777 582.645 74.1483 581.889C73.719 581.133 73.5043 580.279 73.5043 579.327ZM88.6028 576.401C89.1815 576.401 89.7041 576.527 90.1708 576.779C90.6375 577.022 91.0015 577.39 91.2628 577.885C91.5335 578.38 91.6688 578.982 91.6688 579.691V584.213H90.4088V579.873C90.4088 579.108 90.2175 578.524 89.8348 578.123C89.4521 577.712 88.9295 577.507 88.2668 577.507C87.5948 577.507 87.0581 577.717 86.6568 578.137C86.2648 578.557 86.0688 579.168 86.0688 579.971V584.213H84.7948V573.853H86.0688V577.633C86.3208 577.241 86.6661 576.938 87.1048 576.723C87.5528 576.508 88.0521 576.401 88.6028 576.401ZM94.4079 575.295C94.1652 575.295 93.9599 575.211 93.7919 575.043C93.6239 574.875 93.5399 574.67 93.5399 574.427C93.5399 574.184 93.6239 573.979 93.7919 573.811C93.9599 573.643 94.1652 573.559 94.4079 573.559C94.6412 573.559 94.8372 573.643 94.9959 573.811C95.1639 573.979 95.2479 574.184 95.2479 574.427C95.2479 574.67 95.1639 574.875 94.9959 575.043C94.8372 575.211 94.6412 575.295 94.4079 575.295ZM95.0239 576.541V584.213H93.7499V576.541H95.0239ZM100.933 576.401C101.867 576.401 102.623 576.686 103.201 577.255C103.78 577.815 104.069 578.627 104.069 579.691V584.213H102.809V579.873C102.809 579.108 102.618 578.524 102.235 578.123C101.853 577.712 101.33 577.507 100.667 577.507C99.9952 577.507 99.4585 577.717 99.0572 578.137C98.6652 578.557 98.4692 579.168 98.4692 579.971V584.213H97.1952V576.541H98.4692V577.633C98.7212 577.241 99.0619 576.938 99.4912 576.723C99.9299 576.508 100.411 576.401 100.933 576.401ZM113.15 580.083C113.15 580.326 113.136 580.582 113.108 580.853H106.976C107.023 581.609 107.28 582.202 107.746 582.631C108.222 583.051 108.796 583.261 109.468 583.261C110.019 583.261 110.476 583.135 110.84 582.883C111.214 582.622 111.475 582.276 111.624 581.847H112.996C112.791 582.584 112.38 583.186 111.764 583.653C111.148 584.11 110.383 584.339 109.468 584.339C108.74 584.339 108.087 584.176 107.508 583.849C106.939 583.522 106.491 583.06 106.164 582.463C105.838 581.856 105.674 581.156 105.674 580.363C105.674 579.57 105.833 578.874 106.15 578.277C106.468 577.68 106.911 577.222 107.48 576.905C108.059 576.578 108.722 576.415 109.468 576.415C110.196 576.415 110.84 576.574 111.4 576.891C111.96 577.208 112.39 577.647 112.688 578.207C112.996 578.758 113.15 579.383 113.15 580.083ZM111.834 579.817C111.834 579.332 111.727 578.916 111.512 578.571C111.298 578.216 111.004 577.95 110.63 577.773C110.266 577.586 109.86 577.493 109.412 577.493C108.768 577.493 108.218 577.698 107.76 578.109C107.312 578.52 107.056 579.089 106.99 579.817H111.834ZM117.548 584.339C116.96 584.339 116.433 584.241 115.966 584.045C115.499 583.84 115.131 583.56 114.86 583.205C114.589 582.841 114.44 582.426 114.412 581.959H115.728C115.765 582.342 115.943 582.654 116.26 582.897C116.587 583.14 117.011 583.261 117.534 583.261C118.019 583.261 118.402 583.154 118.682 582.939C118.962 582.724 119.102 582.454 119.102 582.127C119.102 581.791 118.953 581.544 118.654 581.385C118.355 581.217 117.893 581.054 117.268 580.895C116.699 580.746 116.232 580.596 115.868 580.447C115.513 580.288 115.205 580.06 114.944 579.761C114.692 579.453 114.566 579.052 114.566 578.557C114.566 578.165 114.683 577.806 114.916 577.479C115.149 577.152 115.481 576.896 115.91 576.709C116.339 576.513 116.829 576.415 117.38 576.415C118.229 576.415 118.915 576.63 119.438 577.059C119.961 577.488 120.241 578.076 120.278 578.823H119.004C118.976 578.422 118.813 578.1 118.514 577.857C118.225 577.614 117.833 577.493 117.338 577.493C116.881 577.493 116.517 577.591 116.246 577.787C115.975 577.983 115.84 578.24 115.84 578.557C115.84 578.809 115.919 579.019 116.078 579.187C116.246 579.346 116.451 579.476 116.694 579.579C116.946 579.672 117.291 579.78 117.73 579.901C118.281 580.05 118.729 580.2 119.074 580.349C119.419 580.489 119.713 580.704 119.956 580.993C120.208 581.282 120.339 581.66 120.348 582.127C120.348 582.547 120.231 582.925 119.998 583.261C119.765 583.597 119.433 583.863 119.004 584.059C118.584 584.246 118.099 584.339 117.548 584.339ZM129.146 580.083C129.146 580.326 129.132 580.582 129.104 580.853H122.972C123.019 581.609 123.276 582.202 123.742 582.631C124.218 583.051 124.792 583.261 125.464 583.261C126.015 583.261 126.472 583.135 126.836 582.883C127.21 582.622 127.471 582.276 127.62 581.847H128.992C128.787 582.584 128.376 583.186 127.76 583.653C127.144 584.11 126.379 584.339 125.464 584.339C124.736 584.339 124.083 584.176 123.504 583.849C122.935 583.522 122.487 583.06 122.16 582.463C121.834 581.856 121.67 581.156 121.67 580.363C121.67 579.57 121.829 578.874 122.146 578.277C122.464 577.68 122.907 577.222 123.476 576.905C124.055 576.578 124.718 576.415 125.464 576.415C126.192 576.415 126.836 576.574 127.396 576.891C127.956 577.208 128.386 577.647 128.684 578.207C128.992 578.758 129.146 579.383 129.146 580.083ZM127.83 579.817C127.83 579.332 127.723 578.916 127.508 578.571C127.294 578.216 127 577.95 126.626 577.773C126.262 577.586 125.856 577.493 125.408 577.493C124.764 577.493 124.214 577.698 123.756 578.109C123.308 578.52 123.052 579.089 122.986 579.817H127.83Z" fill="#11002A"/>
<rect x="564" y="568.285" width="40" height="22.8571" rx="11.4286" fill="#BFBFBF"/>
<ellipse cx="575.429" cy="579.712" rx="8.57143" ry="8.57143" fill="white"/>
<g clip-path="url(#clip11_1_14025)">
<g clip-path="url(#clip12_1_14025)">
<rect x="40" y="641.57" width="24.75" height="18" rx="2.25" fill="#1A47B8"/>
<path fill-rule="evenodd" clip-rule="evenodd" d="M40 653.57H64.75V659.57H40V653.57Z" fill="#F93939"/>
<path fill-rule="evenodd" clip-rule="evenodd" d="M40 641.57H64.75V647.57H40V641.57Z" fill="white"/>
</g>
</g>
<path d="M79.0031 655.07L76.6791 651.08H75.1391V655.07H73.8651V645.312H77.0151C77.7524 645.312 78.3731 645.438 78.8771 645.69C79.3904 645.942 79.7731 646.283 80.0251 646.712C80.2771 647.142 80.4031 647.632 80.4031 648.182C80.4031 648.854 80.2071 649.447 79.8151 649.96C79.4324 650.474 78.8538 650.814 78.0791 650.982L80.5291 655.07H79.0031ZM75.1391 650.058H77.0151C77.7058 650.058 78.2238 649.89 78.5691 649.554C78.9144 649.209 79.0871 648.752 79.0871 648.182C79.0871 647.604 78.9144 647.156 78.5691 646.838C78.2331 646.521 77.7151 646.362 77.0151 646.362H75.1391V650.058ZM89.1867 647.398V655.07H87.9127V653.936C87.67 654.328 87.3294 654.636 86.8907 654.86C86.4614 655.075 85.9854 655.182 85.4627 655.182C84.8654 655.182 84.3287 655.061 83.8527 654.818C83.3767 654.566 82.9987 654.193 82.7187 653.698C82.448 653.204 82.3127 652.602 82.3127 651.892V647.398H83.5727V651.724C83.5727 652.48 83.764 653.064 84.1467 653.474C84.5294 653.876 85.052 654.076 85.7147 654.076C86.396 654.076 86.9327 653.866 87.3247 653.446C87.7167 653.026 87.9127 652.415 87.9127 651.612V647.398H89.1867ZM94.0538 655.196C93.4658 655.196 92.9384 655.098 92.4718 654.902C92.0051 654.697 91.6364 654.417 91.3658 654.062C91.0951 653.698 90.9458 653.283 90.9178 652.816H92.2338C92.2711 653.199 92.4484 653.512 92.7658 653.754C93.0924 653.997 93.5171 654.118 94.0398 654.118C94.5251 654.118 94.9078 654.011 95.1878 653.796C95.4678 653.582 95.6078 653.311 95.6078 652.984C95.6078 652.648 95.4584 652.401 95.1598 652.242C94.8611 652.074 94.3991 651.911 93.7738 651.752C93.2044 651.603 92.7378 651.454 92.3738 651.304C92.0191 651.146 91.7111 650.917 91.4498 650.618C91.1978 650.31 91.0718 649.909 91.0718 649.414C91.0718 649.022 91.1884 648.663 91.4218 648.336C91.6551 648.01 91.9864 647.753 92.4158 647.566C92.8451 647.37 93.3351 647.272 93.8858 647.272C94.7351 647.272 95.4211 647.487 95.9438 647.916C96.4664 648.346 96.7464 648.934 96.7838 649.68H95.5098C95.4818 649.279 95.3184 648.957 95.0198 648.714C94.7304 648.472 94.3384 648.35 93.8438 648.35C93.3864 648.35 93.0224 648.448 92.7518 648.644C92.4811 648.84 92.3458 649.097 92.3458 649.414C92.3458 649.666 92.4251 649.876 92.5838 650.044C92.7518 650.203 92.9571 650.334 93.1998 650.436C93.4518 650.53 93.7971 650.637 94.2358 650.758C94.7864 650.908 95.2344 651.057 95.5798 651.206C95.9251 651.346 96.2191 651.561 96.4618 651.85C96.7138 652.14 96.8444 652.518 96.8538 652.984C96.8538 653.404 96.7371 653.782 96.5038 654.118C96.2704 654.454 95.9391 654.72 95.5098 654.916C95.0898 655.103 94.6044 655.196 94.0538 655.196ZM101.368 655.196C100.78 655.196 100.253 655.098 99.7862 654.902C99.3196 654.697 98.9509 654.417 98.6802 654.062C98.4096 653.698 98.2602 653.283 98.2322 652.816H99.5482C99.5856 653.199 99.7629 653.512 100.08 653.754C100.407 653.997 100.832 654.118 101.354 654.118C101.84 654.118 102.222 654.011 102.502 653.796C102.782 653.582 102.922 653.311 102.922 652.984C102.922 652.648 102.773 652.401 102.474 652.242C102.176 652.074 101.714 651.911 101.088 651.752C100.519 651.603 100.052 651.454 99.6882 651.304C99.3336 651.146 99.0256 650.917 98.7642 650.618C98.5122 650.31 98.3862 649.909 98.3862 649.414C98.3862 649.022 98.5029 648.663 98.7362 648.336C98.9696 648.01 99.3009 647.753 99.7302 647.566C100.16 647.37 100.65 647.272 101.2 647.272C102.05 647.272 102.736 647.487 103.258 647.916C103.781 648.346 104.061 648.934 104.098 649.68H102.824C102.796 649.279 102.633 648.957 102.334 648.714C102.045 648.472 101.653 648.35 101.158 648.35C100.701 648.35 100.337 648.448 100.066 648.644C99.7956 648.84 99.6602 649.097 99.6602 649.414C99.6602 649.666 99.7396 649.876 99.8982 650.044C100.066 650.203 100.272 650.334 100.514 650.436C100.766 650.53 101.112 650.637 101.55 650.758C102.101 650.908 102.549 651.057 102.894 651.206C103.24 651.346 103.534 651.561 103.776 651.85C104.028 652.14 104.159 652.518 104.168 652.984C104.168 653.404 104.052 653.782 103.818 654.118C103.585 654.454 103.254 654.72 102.824 654.916C102.404 655.103 101.919 655.196 101.368 655.196ZM106.625 646.152C106.382 646.152 106.177 646.068 106.009 645.9C105.841 645.732 105.757 645.527 105.757 645.284C105.757 645.042 105.841 644.836 106.009 644.668C106.177 644.5 106.382 644.416 106.625 644.416C106.858 644.416 107.054 644.5 107.213 644.668C107.381 644.836 107.465 645.042 107.465 645.284C107.465 645.527 107.381 645.732 107.213 645.9C107.054 646.068 106.858 646.152 106.625 646.152ZM107.241 647.398V655.07H105.967V647.398H107.241ZM108.936 651.206C108.936 650.422 109.095 649.736 109.412 649.148C109.729 648.551 110.163 648.089 110.714 647.762C111.274 647.436 111.895 647.272 112.576 647.272C113.248 647.272 113.831 647.417 114.326 647.706C114.821 647.996 115.189 648.36 115.432 648.798V647.398H116.72V655.07H115.432V653.642C115.18 654.09 114.802 654.464 114.298 654.762C113.803 655.052 113.225 655.196 112.562 655.196C111.881 655.196 111.265 655.028 110.714 654.692C110.163 654.356 109.729 653.885 109.412 653.278C109.095 652.672 108.936 651.981 108.936 651.206ZM115.432 651.22C115.432 650.642 115.315 650.138 115.082 649.708C114.849 649.279 114.531 648.952 114.13 648.728C113.738 648.495 113.304 648.378 112.828 648.378C112.352 648.378 111.918 648.49 111.526 648.714C111.134 648.938 110.821 649.265 110.588 649.694C110.355 650.124 110.238 650.628 110.238 651.206C110.238 651.794 110.355 652.308 110.588 652.746C110.821 653.176 111.134 653.507 111.526 653.74C111.918 653.964 112.352 654.076 112.828 654.076C113.304 654.076 113.738 653.964 114.13 653.74C114.531 653.507 114.849 653.176 115.082 652.746C115.315 652.308 115.432 651.799 115.432 651.22ZM122.611 647.258C123.544 647.258 124.3 647.543 124.879 648.112C125.458 648.672 125.747 649.484 125.747 650.548V655.07H124.487V650.73C124.487 649.965 124.296 649.382 123.913 648.98C123.53 648.57 123.008 648.364 122.345 648.364C121.673 648.364 121.136 648.574 120.735 648.994C120.343 649.414 120.147 650.026 120.147 650.828V655.07H118.873V647.398H120.147V648.49C120.399 648.098 120.74 647.795 121.169 647.58C121.608 647.366 122.088 647.258 122.611 647.258Z" fill="#11002A"/>
<rect x="564" y="639.143" width="40" height="22.8571" rx="11.4286" fill="#BFBFBF"/>
<ellipse cx="575.429" cy="650.569" rx="8.57143" ry="8.57143" fill="white"/>
<line x1="32" y1="709.5" x2="612" y2="709.5" stroke="#F2F4F7"/>
<rect x="489" y="734" width="123" height="48" rx="8" fill="#6200EE"/>
<path d="M536.84 763.098C536.159 763.098 535.543 762.981 534.992 762.748C534.451 762.515 534.021 762.179 533.704 761.74C533.387 761.301 533.223 760.783 533.214 760.186H535.314C535.342 760.587 535.482 760.905 535.734 761.138C535.995 761.371 536.35 761.488 536.798 761.488C537.255 761.488 537.615 761.381 537.876 761.166C538.137 760.942 538.268 760.653 538.268 760.298C538.268 760.009 538.179 759.771 538.002 759.584C537.825 759.397 537.601 759.253 537.33 759.15C537.069 759.038 536.705 758.917 536.238 758.786C535.603 758.599 535.085 758.417 534.684 758.24C534.292 758.053 533.951 757.778 533.662 757.414C533.382 757.041 533.242 756.546 533.242 755.93C533.242 755.351 533.387 754.847 533.676 754.418C533.965 753.989 534.371 753.662 534.894 753.438C535.417 753.205 536.014 753.088 536.686 753.088C537.694 753.088 538.511 753.335 539.136 753.83C539.771 754.315 540.121 754.997 540.186 755.874H538.03C538.011 755.538 537.867 755.263 537.596 755.048C537.335 754.824 536.985 754.712 536.546 754.712C536.163 754.712 535.855 754.81 535.622 755.006C535.398 755.202 535.286 755.487 535.286 755.86C535.286 756.121 535.37 756.341 535.538 756.518C535.715 756.686 535.93 756.826 536.182 756.938C536.443 757.041 536.807 757.162 537.274 757.302C537.909 757.489 538.427 757.675 538.828 757.862C539.229 758.049 539.575 758.329 539.864 758.702C540.153 759.075 540.298 759.565 540.298 760.172C540.298 760.695 540.163 761.18 539.892 761.628C539.621 762.076 539.225 762.435 538.702 762.706C538.179 762.967 537.559 763.098 536.84 763.098ZM541.493 759.094C541.493 758.31 541.647 757.615 541.955 757.008C542.273 756.401 542.697 755.935 543.229 755.608C543.771 755.281 544.373 755.118 545.035 755.118C545.614 755.118 546.118 755.235 546.547 755.468C546.986 755.701 547.336 755.995 547.597 756.35V755.244H549.571V763H547.597V761.866C547.345 762.23 546.995 762.533 546.547 762.776C546.109 763.009 545.6 763.126 545.021 763.126C544.368 763.126 543.771 762.958 543.229 762.622C542.697 762.286 542.273 761.815 541.955 761.208C541.647 760.592 541.493 759.887 541.493 759.094ZM547.597 759.122C547.597 758.646 547.504 758.24 547.317 757.904C547.131 757.559 546.879 757.297 546.561 757.12C546.244 756.933 545.903 756.84 545.539 756.84C545.175 756.84 544.839 756.929 544.531 757.106C544.223 757.283 543.971 757.545 543.775 757.89C543.589 758.226 543.495 758.627 543.495 759.094C543.495 759.561 543.589 759.971 543.775 760.326C543.971 760.671 544.223 760.937 544.531 761.124C544.849 761.311 545.185 761.404 545.539 761.404C545.903 761.404 546.244 761.315 546.561 761.138C546.879 760.951 547.131 760.69 547.317 760.354C547.504 760.009 547.597 759.598 547.597 759.122ZM554.72 761.194L556.68 755.244H558.766L555.896 763H553.516L550.66 755.244H552.76L554.72 761.194ZM567.076 758.954C567.076 759.234 567.058 759.486 567.02 759.71H561.35C561.397 760.27 561.593 760.709 561.938 761.026C562.284 761.343 562.708 761.502 563.212 761.502C563.94 761.502 564.458 761.189 564.766 760.564H566.88C566.656 761.311 566.227 761.927 565.592 762.412C564.958 762.888 564.178 763.126 563.254 763.126C562.508 763.126 561.836 762.963 561.238 762.636C560.65 762.3 560.188 761.829 559.852 761.222C559.526 760.615 559.362 759.915 559.362 759.122C559.362 758.319 559.526 757.615 559.852 757.008C560.179 756.401 560.636 755.935 561.224 755.608C561.812 755.281 562.489 755.118 563.254 755.118C563.992 755.118 564.65 755.277 565.228 755.594C565.816 755.911 566.269 756.364 566.586 756.952C566.913 757.531 567.076 758.198 567.076 758.954ZM565.046 758.394C565.037 757.89 564.855 757.489 564.5 757.19C564.146 756.882 563.712 756.728 563.198 756.728C562.713 756.728 562.302 756.877 561.966 757.176C561.64 757.465 561.439 757.871 561.364 758.394H565.046Z" fill="white"/>
<rect x="622" y="207" width="6" height="467" rx="3" fill="#F2F4F7"/>
<rect x="622" y="207" width="6" height="164.105" rx="3" fill="#D8DEE6"/>
<defs>
<clipPath id="clip0_1_14025">
<rect width="30" height="21.8182" fill="white" transform="translate(40 214.52)"/>
</clipPath>
<clipPath id="clip1_1_14025">
<rect width="24.75" height="18" fill="white" transform="translate(40 287.285)"/>
</clipPath>
<clipPath id="clip2_1_14025">
<rect x="40" y="287.285" width="24.75" height="18" rx="2.25" fill="white"/>
</clipPath>
<clipPath id="clip3_1_14025">
<rect width="24.75" height="18" fill="white" transform="translate(40 358.143)"/>
</clipPath>
<clipPath id="clip4_1_14025">
<rect x="40" y="358.143" width="24.75" height="18" rx="2.25" fill="white"/>
</clipPath>
<clipPath id="clip5_1_14025">
<rect width="23.75" height="17.2727" fill="white" transform="translate(40 429.363)"/>
</clipPath>
<clipPath id="clip6_1_14025">
<rect x="40" y="429.363" width="23.75" height="17.2727" rx="2.15909" fill="white"/>
</clipPath>
<clipPath id="clip7_1_14025">
<rect width="24.7499" height="17.9999" fill="white" transform="translate(40 499.855)"/>
</clipPath>
<clipPath id="clip8_1_14025">
<rect x="40" y="499.855" width="24.7499" height="17.9999" rx="2.24999" fill="white"/>
</clipPath>
<clipPath id="clip9_1_14025">
<rect width="24.75" height="18" fill="white" transform="translate(40 570.713)"/>
</clipPath>
<clipPath id="clip10_1_14025">
<rect x="40" y="570.713" width="24.75" height="18" rx="2.25" fill="white"/>
</clipPath>
<clipPath id="clip11_1_14025">
<rect width="24.75" height="18" fill="white" transform="translate(40 641.57)"/>
</clipPath>
<clipPath id="clip12_1_14025">
<rect x="40" y="641.57" width="24.75" height="18" rx="2.25" fill="white"/>
</clipPath>
</defs>
</svg>
