<svg width="40" height="29" viewBox="0 0 40 29" fill="none" xmlns="http://www.w3.org/2000/svg">
<path d="M11.7163 20.7216H36.9896C36.9896 19.7004 36.9304 18.6926 36.7217 17.7268C35.5859 12.4722 32.3645 7.94412 27.4757 5.59251C25.7626 4.76956 23.9219 4.24455 22.0324 4.04004H18.3967C11.0654 4.83078 5.14889 10.3463 3.75391 17.4832L11.7163 20.7216Z" fill="#D2DCFD"/>
<path d="M1.64606 2.14624C2.50739 1.28459 3.90676 1.28459 4.7681 2.14624C5.63163 3.00788 5.63163 4.4078 4.7681 5.26945C3.90676 6.13329 2.50739 6.13329 1.64606 5.26945C0.784647 4.4078 0.784647 3.00788 1.64606 2.14624ZM38.7854 2.14624C37.9218 1.28459 36.5246 1.28459 35.661 2.14624C34.7997 3.00788 34.7997 4.4078 35.661 5.26945C36.5246 6.13329 37.9217 6.13329 38.7854 5.26945C39.6468 4.4078 39.6468 3.00788 38.7854 2.14624Z" fill="#6200EE"/>
<path d="M19.1671 2.15234H21.2617C21.6868 2.15234 22.0323 2.49791 22.0323 2.92317V5.65658C22.0323 6.07964 21.6869 6.42521 21.2617 6.42521H19.1671C18.7442 6.42521 18.3965 6.07964 18.3965 5.65658V2.92317C18.3966 2.49783 18.7442 2.15234 19.1671 2.15234Z" fill="#6200EE"/>
<path d="M14.1143 17.1045H26.3169V20.7217H14.1143V17.1045Z" fill="white"/>
<path d="M18.1816 17.1045H22.2492V20.7217H18.1816V17.1045Z" fill="#D2DCFD"/>
<path d="M14.5081 13.0117C15.5466 13.0117 16.3902 12.1656 16.3902 11.1289C16.3902 10.0922 15.5466 9.24609 14.5081 9.24609C13.4719 9.24609 12.626 10.0922 12.626 11.1289C12.626 12.1656 13.4719 13.0117 14.5081 13.0117ZM26.0155 13.0117C27.0517 13.0117 27.8976 12.1656 27.8976 11.1289C27.8976 10.0922 27.0518 9.24609 26.0155 9.24609C24.9792 9.24609 24.1334 10.0922 24.1334 11.1289C24.1334 12.1656 24.9792 13.0117 26.0155 13.0117Z" fill="#6200EE"/>
<path opacity="0.45" d="M10.2865 13.9736H4.85351C4.35841 15.0993 3.98962 16.2765 3.75391 17.4834L11.7163 20.7219H14.9194V18.6081C14.9194 16.0599 12.8339 13.9736 10.2865 13.9736Z" fill="#93B2F4"/>
<path d="M8.35516 8.85784L4.7681 5.26945M4.7681 5.26945C5.63163 4.4078 5.63163 3.00788 4.7681 2.14624C3.90676 1.28459 2.50739 1.28459 1.64606 2.14624C0.784647 3.00788 0.784647 4.4078 1.64606 5.26945C2.50739 6.13329 3.90676 6.13329 4.7681 5.26945ZM32.0763 8.85784L35.6611 5.26945M35.6611 5.26945C34.7998 4.4078 34.7997 3.00788 35.661 2.14624C36.5246 1.28459 37.9218 1.28459 38.7854 2.14624C39.6468 3.00788 39.6468 4.4078 38.7854 5.26945C37.9217 6.13329 36.5246 6.13329 35.6611 5.26945ZM26.317 20.7217V17.1044H14.1144V20.7217M14.5085 13.011C15.547 13.011 16.3906 12.1649 16.3906 11.1282C16.3906 10.0915 15.547 9.24537 14.5085 9.24537C13.4723 9.24537 12.6264 10.0915 12.6264 11.1282C12.6264 12.1649 13.4723 13.011 14.5085 13.011ZM26.0159 13.011C27.0521 13.011 27.898 12.1649 27.898 11.1282C27.898 10.0915 27.0522 9.24537 26.0159 9.24537C24.9795 9.24537 24.1337 10.0915 24.1337 11.1282C24.1337 12.1649 24.9796 13.011 26.0159 13.011Z" stroke="#290064" stroke-width="1.56863" stroke-miterlimit="10" stroke-linecap="round" stroke-linejoin="round"/>
<path d="M18.3967 4.04004C11.0654 4.83078 5.14889 10.3463 3.75391 17.4832M11.7163 20.7216H36.9895C36.9895 19.7004 36.9303 18.6926 36.7216 17.7268C35.5858 12.4722 32.3644 7.94412 27.4756 5.59251C25.7626 4.76956 23.9218 4.24455 22.0323 4.04004" stroke="#290064" stroke-width="1.56863" stroke-miterlimit="10" stroke-linecap="round" stroke-linejoin="round"/>
<path d="M26.6297 25.2165H19.2364L16.8029 28.1781L13.7118 23.2783L10.6208 28.1781L8.18727 25.2165H5.21582" stroke="#6200EE" stroke-width="1.56863" stroke-miterlimit="10" stroke-linecap="round" stroke-linejoin="round"/>
</svg>
