<svg width="1920" height="847" viewBox="0 0 1920 847" fill="none" xmlns="http://www.w3.org/2000/svg">
<path opacity="0.3" d="M3290.47 1311.51C3332.99 645.73 3388.46 -32.3185 3447.16 -697.642C3452.24 -748.087 3445.77 -723.092 3448.54 -716.275C3454.09 -689.462 3484.6 -683.554 3505.86 -699.005C3228.53 -372.252 2700.69 245.354 2419.66 569.381C2243.56 774.341 2066.53 978.846 1888.12 1181.53C1858.54 1217.44 1293.71 1860.04 1287.71 1868.22C1051.52 2188.61 553.715 2050.91 525.982 1657.8C521.822 1614.18 513.04 1527.37 508.88 1482.38C436.313 744.347 405.807 -9.59583 378.075 -751.268C385.008 -704.913 444.633 -616.749 536.613 -621.748C583.758 -618.567 651.241 -660.377 664.646 -692.643C649.855 -669.92 171.928 -1.41553 143.733 39.031C-483.487 917.949 -1122.73 1789.14 -1780.45 2648.97C-1791.54 2663.51 -1812.34 2666.24 -1826.67 2655.33C-1840.08 2645.34 -1843.77 2627.61 -1835.92 2613.98C-1181.89 1416.03 -482.101 214.451 217.225 -958.954C341.56 -1184.82 682.672 -1211.63 844.446 -1003.04C902.222 -933.505 922.559 -850.339 929.03 -764.902C1011.77 -35.4998 1092.19 706.172 1130.09 1438.76C1132.87 1486.93 1137.49 1576.46 1140.26 1625.08C1129.17 1466.02 916.088 1391.49 807.007 1514.65C830.579 1490.56 894.827 1426.49 920.248 1400.58C1451.33 862.505 2103.97 209.906 2641.52 -321.807L3221.14 -890.786C3259.04 -928.96 3301.56 -972.134 3355.18 -992.584C3542.37 -1076.2 3770.7 -926.234 3759.61 -725.364C3763.31 -694.461 3679.19 -303.174 3673.64 -260.455C3570.1 266.714 3465.64 793.882 3351.02 1319.69C3342.23 1355.59 3288.62 1348.32 3290.47 1311.51Z" fill="url(#paint0_linear_1983_7052)"/>
<defs>
<linearGradient id="paint0_linear_1983_7052" x1="-1643.47" y1="608.941" x2="4357.97" y2="-867.883" gradientUnits="userSpaceOnUse">
<stop stop-color="#00DDD0"/>
<stop offset="1" stop-color="#6100DD"/>
</linearGradient>
</defs>
</svg>
