<svg width="264" height="145" viewBox="0 0 264 145" fill="none" xmlns="http://www.w3.org/2000/svg">
<rect x="14" y="2.69727" width="200.405" height="119.493" rx="8.16824" transform="rotate(6.55235 14 2.69727)" fill="white"/>
<rect x="24.9986" y="16.5503" width="35.2255" height="35.2255" rx="17.6128" transform="rotate(6.55235 24.9986 16.5503)" fill="#EFE6FD" fill-opacity="0.6" stroke="url(#paint0_linear_559_7425)" stroke-width="0.510515"/>
<path d="M47.2706 28.7624L45.3565 45.4268C45.2645 46.2274 44.5416 46.8014 43.741 46.7094L32.1484 45.3779C31.3478 45.2859 30.7738 44.563 30.8658 43.7624L32.7798 27.098C32.8718 26.2974 33.5947 25.7234 34.3954 25.8154L45.988 27.1469C46.7886 27.2389 47.3625 27.9618 47.2706 28.7624Z" fill="#290064"/>
<path d="M46.4221 29.7631L44.5912 45.703C44.5683 45.9022 44.3866 46.0465 44.1873 46.0236L33.3193 44.7753C33.12 44.7524 32.9757 44.5707 32.9986 44.3714L33.0402 44.0091L43.546 45.2159C43.7453 45.2387 43.927 45.0944 43.9499 44.8952L45.7391 29.3177L46.1014 29.3593C46.3007 29.3822 46.445 29.5639 46.4221 29.7631Z" fill="#00325A"/>
<path d="M45.78 28.9585L43.9491 44.8983C43.9262 45.0975 43.7445 45.2418 43.5452 45.2189L32.6772 43.9706C32.4779 43.9477 32.3336 43.766 32.3565 43.5667L34.1874 27.6269C34.2103 27.4277 34.392 27.2834 34.5913 27.3063L45.4593 28.5546C45.6586 28.5775 45.8029 28.7592 45.78 28.9585Z" fill="#F0F0F0"/>
<path d="M36.5691 26.0615L37.2936 26.1447L37.1272 27.5938L36.4026 27.5106L36.5691 26.0615Z" fill="#00325A"/>
<path d="M44.5393 26.9795L45.2638 27.0627L45.0974 28.5118L44.3729 28.4286L44.5393 26.9795Z" fill="#00325A"/>
<path d="M45.0975 28.5123L44.8479 30.6859C44.8021 31.0844 44.4386 31.373 44.0401 31.3273L36.7947 30.495C36.3962 30.4493 36.1076 30.0858 36.1534 29.6873L36.4031 27.5137L37.1276 27.5969L37.0028 28.6837C36.9799 28.8829 37.1242 29.0647 37.3234 29.0876L43.8443 29.8366C44.0435 29.8595 44.2253 29.7152 44.2482 29.5159L44.373 28.4291L45.0975 28.5123Z" fill="#D2D2D2"/>
<path d="M46.2833 37.3642L45.9304 40.4362L44.3149 41.7189L44.6678 38.6468L46.2833 37.3642Z" fill="#00325A"/>
<path d="M44.6663 38.6503L44.3135 41.7223L41.7161 43.7878C40.302 44.0842 41.453 43.842 40.0348 44.1416C39.7414 44.2033 39.5045 43.9008 39.6312 43.629C40.4061 41.9636 39.7079 43.4727 40.3565 42.0753L44.6663 38.6503Z" fill="#D2D2D2"/>
<path d="M47.8669 38.2419C42.6004 42.4189 43.9832 41.3221 41.801 43.0546L40.4414 41.3422C43.6389 38.8035 42.2935 39.8723 46.5041 36.5255L47.8669 38.2419Z" fill="#00DDD0"/>
<path d="M41.8002 43.0589L40.1188 43.4127C39.8254 43.4744 39.5882 43.1755 39.7148 42.9038C40.2812 41.6919 40.121 42.0361 40.4406 41.3464L41.8002 43.0589Z" fill="#F2C8A0"/>
<path d="M41.002 43.2301L40.1199 43.4159C39.8258 43.4779 39.5876 43.1774 39.7143 42.9049L40.0952 42.088L41.002 43.2301Z" fill="#00143C"/>
<path d="M49.1253 36.3124L48.6719 35.7413C48.4215 35.4259 47.9628 35.3732 47.6474 35.6236L47.076 36.077L48.4365 37.7906L49.0076 37.3372C49.3231 37.0864 49.3758 36.6278 49.1253 36.3124Z" fill="#6200EE"/>
<path d="M40.8896 41.9141L46.9534 37.0998L47.4068 37.6708L41.3431 42.4851L40.8896 41.9141Z" fill="#00325A"/>
<path d="M47.0742 36.0771L48.4347 37.7907L47.8635 38.2441L46.503 36.5306L47.0742 36.0771Z" fill="#F2C8A0"/>
<path d="M44.2606 26.2124C44.0607 26.1894 43.8797 26.3331 43.8568 26.5331L43.6071 28.7067C43.5841 28.9067 43.4032 29.0503 43.2032 29.0273L36.6824 28.2784C36.4824 28.2554 36.3388 28.0744 36.3617 27.8745L36.6114 25.7009C36.6344 25.5009 36.4907 25.32 36.2907 25.297C36.0908 25.274 35.9098 25.4177 35.8869 25.6176L35.5124 28.8781C35.4664 29.2784 35.7534 29.6398 36.1537 29.6858L43.399 30.518C43.7994 30.564 44.1608 30.277 44.2068 29.8767L44.5813 26.6163C44.6043 26.4163 44.4606 26.2354 44.2606 26.2124Z" fill="#00DDD0"/>
<path d="M36.7113 31.2143L35.9867 31.1311C35.5864 31.0851 35.225 31.3721 35.179 31.7724L35.0958 32.4969C35.0498 32.8972 35.3368 33.2587 35.7371 33.3047L36.4616 33.3879C36.8619 33.4339 37.2234 33.1469 37.2694 32.7466L37.3526 32.0221C37.3986 31.6217 37.1116 31.2603 36.7113 31.2143ZM36.9071 32.705C36.8841 32.905 36.7032 33.0486 36.5032 33.0256L35.7787 32.9424C35.5787 32.9194 35.4351 32.7385 35.458 32.5385L35.5413 31.814C35.5642 31.614 35.7452 31.4704 35.9451 31.4933L36.6697 31.5766C36.8696 31.5995 37.0133 31.7805 36.9903 31.9804L36.9071 32.705Z" fill="#6200EE"/>
<path d="M36.4008 32.7803L35.9198 32.1745C35.8573 32.0957 35.8705 31.9809 35.9492 31.9184C36.028 31.8558 36.1428 31.869 36.2053 31.9478L36.5732 32.4107L38.0457 31.2415C38.1245 31.179 38.2393 31.1922 38.3018 31.271C38.3644 31.3497 38.3512 31.4646 38.2724 31.5271L36.6569 32.8097C36.5782 32.8722 36.4637 32.8591 36.4008 32.7803Z" fill="#00143C"/>
<path d="M42.3835 32.9725L38.7609 32.5564C38.6609 32.5449 38.589 32.4545 38.6005 32.3545C38.612 32.2545 38.7025 32.1827 38.8025 32.1941L42.4252 32.6103C42.5251 32.6217 42.597 32.7122 42.5855 32.8122C42.574 32.9122 42.4835 32.984 42.3835 32.9725Z" fill="#6200EE"/>
<path d="M43.0246 33.7804L38.6774 33.281C38.5774 33.2695 38.5056 33.1791 38.517 33.0791C38.5285 32.9791 38.619 32.9073 38.719 32.9188L43.0662 33.4181C43.1662 33.4296 43.238 33.52 43.2265 33.62C43.215 33.72 43.1246 33.7918 43.0246 33.7804Z" fill="#6200EE"/>
<path d="M36.296 34.8373L35.5715 34.7541C35.1712 34.7081 34.8097 34.9951 34.7637 35.3954L34.6805 36.12C34.6345 36.5203 34.9215 36.8818 35.3218 36.9277L36.0463 37.011C36.4466 37.0569 36.8081 36.7699 36.8541 36.3696L36.9373 35.6451C36.9833 35.2448 36.6963 34.8833 36.296 34.8373ZM36.4918 36.328C36.4689 36.528 36.2879 36.6717 36.0879 36.6487L35.3634 36.5655C35.1634 36.5425 35.0198 36.3616 35.0427 36.1616L35.126 35.437C35.1489 35.2371 35.3299 35.0934 35.5299 35.1164L36.2544 35.1996C36.4544 35.2226 36.598 35.4035 36.575 35.6035L36.4918 36.328Z" fill="#6200EE"/>
<path d="M35.9855 36.4063L35.5045 35.8005C35.442 35.7217 35.4552 35.6069 35.5339 35.5443C35.6127 35.4818 35.7275 35.495 35.7901 35.5737L36.1579 36.0366L37.6304 34.8675C37.7092 34.805 37.824 34.8182 37.8866 34.8969C37.9491 34.9757 37.9359 35.0905 37.8571 35.1531L36.2416 36.4357C36.1629 36.4982 36.0484 36.4851 35.9855 36.4063Z" fill="#00143C"/>
<path d="M41.9673 36.5931L38.3446 36.177C38.2446 36.1655 38.1728 36.0751 38.1843 35.9751C38.1958 35.8751 38.2862 35.8033 38.3862 35.8148L42.0089 36.2309C42.1089 36.2423 42.1807 36.3328 42.1692 36.4328C42.1577 36.5328 42.0673 36.6046 41.9673 36.5931Z" fill="#6200EE"/>
<path d="M42.6086 37.4014L38.2613 36.9021C38.1614 36.8906 38.0895 36.8002 38.101 36.7002C38.1125 36.6002 38.203 36.5284 38.303 36.5398L42.6502 37.0392C42.7502 37.0507 42.822 37.1411 42.8105 37.2411C42.799 37.3411 42.7086 37.4129 42.6086 37.4014Z" fill="#6200EE"/>
<path d="M35.8797 38.4658L35.1552 38.3825C34.7549 38.3366 34.3934 38.6235 34.3474 39.0239L34.2642 39.7484C34.2182 40.1487 34.5052 40.5102 34.9055 40.5561L35.6301 40.6394C36.0304 40.6853 36.3919 40.3984 36.4378 39.9981L36.5211 39.2735C36.567 38.8732 36.28 38.5117 35.8797 38.4658ZM36.0756 39.9564C36.0526 40.1564 35.8717 40.3001 35.6717 40.2771L34.9471 40.1939C34.7472 40.1709 34.6035 39.99 34.6265 39.79L34.7097 39.0655C34.7327 38.8655 34.9136 38.7218 35.1136 38.7448L35.8381 38.828C36.0381 38.851 36.1818 39.0319 36.1588 39.2319L36.0756 39.9564Z" fill="#6200EE"/>
<path d="M35.5705 40.0249L35.0895 39.4191C35.0269 39.3403 35.0401 39.2255 35.1189 39.163C35.1977 39.1005 35.3125 39.1136 35.375 39.1924L35.7429 39.6553L37.2154 38.4862C37.2942 38.4236 37.409 38.4368 37.4715 38.5156C37.5341 38.5943 37.5209 38.7092 37.4421 38.7717L35.8266 40.0543C35.7478 40.1169 35.6334 40.1037 35.5705 40.0249Z" fill="#00143C"/>
<path d="M40.6446 40.1107L37.9276 39.7986C37.8276 39.7871 37.7558 39.6966 37.7673 39.5967C37.7788 39.4967 37.8692 39.4248 37.9692 39.4363L40.6862 39.7484C40.7862 39.7599 40.858 39.8504 40.8466 39.9504C40.8351 40.0503 40.7446 40.1222 40.6446 40.1107Z" fill="#6200EE"/>
<path d="M39.8376 40.757L37.8451 40.5281C37.7451 40.5166 37.6733 40.4261 37.6848 40.3262C37.6962 40.2262 37.7867 40.1543 37.8867 40.1658L39.8792 40.3947C39.9792 40.4062 40.051 40.4966 40.0395 40.5966C40.028 40.6966 39.9376 40.7684 39.8376 40.757Z" fill="#6200EE"/>
<path d="M21.5792 65.0562L21.0093 70.0182C20.9468 70.5618 21.0405 70.9954 21.2904 71.3189C21.5412 71.6348 21.9231 71.8222 22.4362 71.8811C22.9569 71.9409 23.3751 71.8455 23.691 71.5947C24.0078 71.3362 24.1973 70.9352 24.2598 70.3915L24.8297 65.4296L26.4493 65.6156L25.8806 70.5661C25.8024 71.2476 25.5866 71.8085 25.2335 72.249C24.8888 72.6827 24.454 72.9896 23.929 73.1698C23.4117 73.3509 22.8506 73.4067 22.2456 73.3372C21.6484 73.2686 21.1183 73.0875 20.6555 72.7938C20.2004 72.501 19.858 72.1048 19.6283 71.6052C19.3995 71.0979 19.3243 70.5035 19.4025 69.822L19.9711 64.8715L21.5792 65.0562ZM29.5052 74.1943C28.9845 74.1345 28.528 73.989 28.1356 73.7577C27.7441 73.5188 27.4443 73.2244 27.2362 72.8747C27.0357 72.5258 26.9465 72.1548 26.9683 71.7616L28.5879 71.9477C28.5904 72.1962 28.6857 72.4128 28.874 72.5973C29.07 72.7827 29.3249 72.8935 29.6388 72.9296C29.9451 72.9647 30.1896 72.9307 30.3721 72.8276C30.5623 72.7253 30.6684 72.5784 30.6904 72.387C30.7141 72.1802 30.6245 72.0148 30.4215 71.8906C30.2271 71.7597 29.9072 71.6065 29.4618 71.4313C29.0003 71.2619 28.6234 71.0983 28.3311 70.9406C28.0466 70.7838 27.8078 70.5663 27.6147 70.2881C27.4294 70.0108 27.3613 69.6577 27.4106 69.2289C27.451 68.8767 27.5875 68.5665 27.82 68.2984C28.0602 68.0311 28.3775 67.8348 28.7721 67.7095C29.1743 67.585 29.6319 67.5522 30.145 67.6111C30.9031 67.6982 31.486 67.9591 31.8938 68.3939C32.3025 68.821 32.4929 69.3588 32.4649 70.0073L30.9258 69.8305C30.9319 69.5752 30.8475 69.3638 30.6728 69.1963C30.5066 69.022 30.2666 68.9169 29.9526 68.8808C29.6616 68.8474 29.4296 68.875 29.2565 68.9638C29.091 69.0534 28.9973 69.1939 28.9753 69.3853C28.9507 69.5998 29.039 69.7767 29.2402 69.9162C29.4423 70.048 29.7626 70.1973 30.2012 70.3641C30.6474 70.5317 31.0128 70.6939 31.2974 70.8507C31.582 71.0076 31.8165 71.2285 32.001 71.5134C32.194 71.7916 32.2702 72.1417 32.2295 72.5638C32.1873 72.9313 32.0461 73.2487 31.8059 73.516C31.5734 73.7841 31.256 73.9804 30.8538 74.1048C30.4601 74.2226 30.0106 74.2524 29.5052 74.1943ZM39.6376 71.8902C39.6112 72.1199 39.5722 72.3249 39.5204 72.5051L34.8686 71.9708C34.8541 72.4347 34.9736 72.813 35.227 73.1059C35.4804 73.3988 35.8139 73.569 36.2274 73.6165C36.8246 73.6851 37.2791 73.4774 37.5907 72.9934L39.3251 73.1926C39.0709 73.7841 38.6607 74.249 38.0942 74.5874C37.5287 74.9181 36.8668 75.0399 36.1088 74.9528C35.4962 74.8825 34.9602 74.6851 34.501 74.3608C34.0502 74.0298 33.7156 73.5995 33.4971 73.0701C33.2863 72.5416 33.2182 71.9519 33.293 71.3011C33.3686 70.6425 33.569 70.0798 33.8942 69.6129C34.2194 69.1459 34.6386 68.8061 35.1518 68.5935C35.665 68.3809 36.2355 68.3107 36.8634 68.3828C37.4683 68.4523 37.9932 68.6445 38.4381 68.9594C38.8906 69.2751 39.2193 69.6892 39.4242 70.2015C39.6377 70.707 39.7088 71.2699 39.6376 71.8902ZM38.0249 71.2394C38.0647 70.8251 37.9532 70.4786 37.6904 70.2002C37.4285 69.9141 37.0869 69.7468 36.6657 69.6984C36.2676 69.6527 35.9166 69.7365 35.6128 69.9499C35.3175 70.1565 35.1146 70.4707 35.0041 70.8925L38.0249 71.2394ZM43.1215 72.4067C43.1954 71.7635 43.3873 71.2075 43.6972 70.7388C44.0147 70.271 44.4071 69.9282 44.8743 69.7103C45.3492 69.4933 45.8585 69.416 46.4022 69.4785C46.8769 69.533 47.2794 69.6762 47.6097 69.9081C47.9476 70.1409 48.207 70.4151 48.388 70.7307L48.4922 69.8233L50.1118 70.0093L49.3809 76.3725L47.7614 76.1865L47.8682 75.2562C47.6272 75.531 47.3114 75.7469 46.921 75.9038C46.5391 76.0539 46.1108 76.1017 45.6361 76.0471C45.1 75.9856 44.6258 75.7915 44.2133 75.4648C43.8085 75.139 43.5045 74.7123 43.3014 74.1846C43.1067 73.6502 43.0468 73.0576 43.1215 72.4067ZM48.1268 73.0049C48.1717 72.6144 48.1333 72.2725 48.0119 71.9792C47.8913 71.6783 47.7091 71.4402 47.4655 71.2648C47.2227 71.0817 46.952 70.973 46.6534 70.9387C46.3548 70.9044 46.0707 70.9455 45.8013 71.062C45.5319 71.1784 45.3006 71.3691 45.1072 71.634C44.9224 71.892 44.808 72.2125 44.764 72.5954C44.7201 72.9782 44.7579 73.324 44.8777 73.6325C45.0059 73.9343 45.1876 74.1763 45.4227 74.3585C45.6655 74.5415 45.9323 74.6498 46.2233 74.6832C46.5219 74.7175 46.8098 74.6768 47.0869 74.5613C47.3648 74.438 47.5962 74.2474 47.781 73.9893C47.9667 73.7235 48.0819 73.3954 48.1268 73.0049ZM60.065 69.4767L59.916 70.7746L57.7796 70.5293L57.0078 77.2486L55.3997 77.0639L56.1715 70.3446L54.0351 70.0992L54.1842 68.8012L60.065 69.4767ZM66.614 74.9887C66.5876 75.2184 66.5486 75.4234 66.4968 75.6037L61.845 75.0694C61.8305 75.5332 61.95 75.9116 62.2034 76.2045C62.4568 76.4973 62.7903 76.6675 63.2038 76.715C63.801 76.7836 64.2555 76.5759 64.5671 76.0919L66.3015 76.2911C66.0474 76.8826 65.6371 77.3475 65.0706 77.6859C64.5051 78.0166 63.8433 78.1384 63.0852 78.0514C62.4726 77.981 61.9367 77.7837 61.4774 77.4594C61.0266 77.1283 60.692 76.6981 60.4735 76.1687C60.2627 75.6402 60.1946 75.0505 60.2694 74.3996C60.345 73.7411 60.5454 73.1783 60.8706 72.7114C61.1958 72.2445 61.615 71.9047 62.1282 71.6921C62.6414 71.4795 63.2119 71.4093 63.8398 71.4814C64.4448 71.5509 64.9696 71.743 65.4145 72.0579C65.867 72.3737 66.1957 72.7877 66.4007 73.3C66.6141 73.8056 66.6853 74.3685 66.614 74.9887ZM65.0013 74.338C65.0412 73.9236 64.9297 73.5772 64.6668 73.2987C64.4049 73.0126 64.0633 72.8454 63.6422 72.797C63.244 72.7513 62.893 72.8351 62.5892 73.0484C62.2939 73.255 62.091 73.5692 61.9805 73.991L65.0013 74.338ZM76.0503 72.8955C76.8313 72.9852 77.4315 73.2986 77.8509 73.8355C78.2788 74.3657 78.4434 75.0596 78.3449 75.9172L77.9162 79.6501L76.3081 79.4654L76.7118 75.9507C76.769 75.453 76.6862 75.0594 76.4634 74.7701C76.2415 74.473 75.9123 74.2995 75.4758 74.2493C75.0394 74.1992 74.6756 74.2932 74.3844 74.5313C74.1018 74.7626 73.932 75.1271 73.8748 75.6249L73.4711 79.1396L71.863 78.9549L72.2667 75.4401C72.3239 74.9424 72.2411 74.5489 72.0183 74.2595C71.7964 73.9625 71.4672 73.7889 71.0308 73.7388C70.5866 73.6877 70.219 73.7813 69.9279 74.0194C69.6453 74.2507 69.4754 74.6152 69.4182 75.113L69.0145 78.6277L67.4065 78.443L68.1374 72.0797L69.7454 72.2644L69.657 73.034C69.8945 72.7897 70.1829 72.6095 70.5221 72.4933C70.869 72.378 71.2376 72.3427 71.6282 72.3876C72.1259 72.4448 72.5577 72.603 72.9236 72.8622C73.2904 73.1138 73.5586 73.4472 73.7281 73.8624C73.9771 73.5186 74.3096 73.2581 74.7256 73.0809C75.1493 72.9045 75.5908 72.8427 76.0503 72.8955ZM81.6755 74.5657C81.9157 74.2985 82.2267 74.0898 82.6086 73.9398C82.999 73.7829 83.4277 73.7313 83.8948 73.7849C84.4385 73.8474 84.9132 74.0377 85.3189 74.3558C85.7322 74.6748 86.0367 75.0977 86.2322 75.6245C86.4362 76.1444 86.5009 76.7299 86.4261 77.3807C86.3514 78.0316 86.1548 78.5948 85.8364 79.0703C85.5265 79.539 85.1337 79.8856 84.6579 80.1103C84.1898 80.3358 83.6839 80.4174 83.1402 80.3549C82.6731 80.3013 82.2706 80.1581 81.9327 79.9253C81.6025 79.6934 81.343 79.4192 81.1544 79.1027L80.7018 83.0424L79.0938 82.8577L80.173 73.4622L81.781 73.6469L81.6755 74.5657ZM84.7836 77.1921C84.8276 76.8092 84.785 76.4707 84.6559 76.1766C84.5353 75.8757 84.3532 75.6375 84.1095 75.4621C83.8735 75.2876 83.6062 75.1832 83.3076 75.1489C83.0166 75.1155 82.7322 75.1604 82.4542 75.2836C82.1848 75.4001 81.9534 75.5907 81.7601 75.8556C81.5744 76.1213 81.4596 76.4456 81.4156 76.8285C81.3716 77.2114 81.4099 77.5532 81.5305 77.8542C81.6588 78.1559 81.8405 78.3979 82.0756 78.5801C82.3192 78.7555 82.5865 78.8599 82.8775 78.8933C83.1761 78.9276 83.4606 78.8827 83.7309 78.7586C84.0088 78.6353 84.2406 78.4409 84.4263 78.1751C84.6197 77.9103 84.7388 77.5826 84.7836 77.1921ZM89.8109 72.4046L88.8346 80.9042L87.2266 80.7195L88.2028 72.2199L89.8109 72.4046ZM90.3779 77.8346C90.4518 77.1914 90.6437 76.6355 90.9536 76.1668C91.2711 75.6989 91.6635 75.3561 92.1307 75.1382C92.6056 74.9212 93.1149 74.8439 93.6586 74.9064C94.1333 74.9609 94.5358 75.1041 94.8661 75.336C95.204 75.5688 95.4634 75.843 95.6444 76.1586L95.7486 75.2512L97.3682 75.4372L96.6373 81.8005L95.0178 81.6144L95.1246 80.6841C94.8836 80.959 94.5678 81.1748 94.1774 81.3317C93.7955 81.4818 93.3672 81.5296 92.8925 81.4751C92.3564 81.4135 91.8822 81.2194 91.4697 80.8927C91.0649 80.5669 90.7609 80.1402 90.5578 79.6126C90.3631 79.0782 90.3032 78.4855 90.3779 77.8346ZM95.3832 78.4328C95.4281 78.0423 95.3897 77.7004 95.2683 77.4072C95.1477 77.1062 94.9655 76.8681 94.7219 76.6927C94.4791 76.5096 94.2084 76.401 93.9098 76.3667C93.6112 76.3324 93.3271 76.3734 93.0577 76.4899C92.7883 76.6064 92.557 76.797 92.3636 77.0619C92.1788 77.32 92.0644 77.6404 92.0204 78.0233C91.9765 78.4062 92.0143 78.7519 92.1341 79.0605C92.2623 79.3622 92.444 79.6042 92.6791 79.7864C92.9219 79.9694 93.1887 80.0777 93.4797 80.1111C93.7784 80.1454 94.0662 80.1048 94.3433 79.9892C94.6212 79.8659 94.8526 79.6753 95.0374 79.4172C95.2231 79.1515 95.3383 78.8233 95.3832 78.4328ZM100.659 77.1535L100.306 80.2318C100.281 80.4462 100.313 80.6089 100.401 80.7199C100.498 80.8241 100.668 80.8902 100.913 80.9184L101.66 81.0041L101.504 82.3595L100.494 82.2434C99.1382 82.0877 98.5361 81.3514 98.6874 80.0343L99.0397 76.9675L98.2816 76.8805L98.4333 75.5596L99.1914 75.6466L99.3721 74.0731L100.992 74.2591L100.811 75.8327L102.235 75.9962L102.083 77.3171L100.659 77.1535ZM108.957 79.8523C108.931 80.082 108.892 80.287 108.84 80.4673L104.188 79.933C104.174 80.3968 104.293 80.7752 104.547 81.0681C104.8 81.361 105.134 81.5312 105.547 81.5787C106.144 81.6473 106.599 81.4396 106.911 80.9555L108.645 81.1547C108.391 81.7462 107.981 82.2112 107.414 82.5495C106.849 82.8802 106.187 83.0021 105.429 82.915C104.816 82.8446 104.28 82.6473 103.821 82.323C103.37 81.9919 103.035 81.5617 102.817 81.0323C102.606 80.5038 102.538 79.9141 102.613 79.2632C102.688 78.6047 102.889 78.042 103.214 77.575C103.539 77.1081 103.958 76.7683 104.472 76.5557C104.985 76.3431 105.555 76.2729 106.183 76.345C106.788 76.4145 107.313 76.6067 107.758 76.9215C108.21 77.2373 108.539 77.6513 108.744 78.1637C108.958 78.6692 109.029 79.2321 108.957 79.8523ZM107.345 79.2016C107.385 78.7872 107.273 78.4408 107.01 78.1623C106.748 77.8762 106.407 77.709 105.986 77.6606C105.587 77.6149 105.236 77.6987 104.933 77.9121C104.637 78.1187 104.434 78.4328 104.324 78.8546L107.345 79.2016Z" fill="#11002A"/>
<path d="M22.936 85.5919L22.1479 92.454L21.2519 92.3511L21.6093 89.24L18.1143 88.8386L17.7569 91.9497L16.861 91.8468L17.6492 84.9847L18.5451 85.0876L18.1991 88.1002L21.6941 88.5017L22.0401 85.489L22.936 85.5919ZM23.655 89.874C23.7183 89.3227 23.8853 88.8531 24.156 88.4652C24.4274 88.0708 24.7699 87.781 25.1835 87.5957C25.6037 87.4112 26.0534 87.3465 26.5325 87.4015C27.0051 87.4558 27.4036 87.6047 27.7281 87.8481C28.0526 88.0915 28.2824 88.3773 28.4176 88.7054L28.5307 87.7208L29.4365 87.8249L28.8168 93.22L27.911 93.116L28.0264 92.1118C27.813 92.4065 27.517 92.6385 27.1385 92.8078C26.7672 92.9713 26.3486 93.0263 25.8826 92.9728C25.4035 92.9177 24.9839 92.7498 24.6238 92.4691C24.2637 92.1883 23.9965 91.8218 23.8224 91.3696C23.6482 90.9173 23.5924 90.4188 23.655 89.874ZM28.222 90.4086C28.2688 90.0016 28.2274 89.6378 28.098 89.317C27.9686 88.9963 27.7718 88.7409 27.5077 88.551C27.2509 88.3552 26.9551 88.2381 26.6204 88.1997C26.2856 88.1612 25.9714 88.2049 25.6776 88.3308C25.3839 88.4566 25.1376 88.6611 24.9389 88.9442C24.7401 89.2273 24.6173 89.5723 24.5706 89.9792C24.5231 90.3927 24.5637 90.7631 24.6923 91.0904C24.8217 91.4112 25.0149 91.6694 25.2717 91.8652C25.5292 92.0544 25.8254 92.1682 26.1601 92.2066C26.4949 92.2451 26.8091 92.2014 27.1029 92.0755C27.4039 91.9439 27.6539 91.7365 27.8526 91.4534C28.0521 91.1638 28.1753 90.8155 28.222 90.4086ZM32.4342 92.7976L34.6326 88.4217L35.5876 88.5314L32.8512 93.6834L31.8076 93.5635L30.3105 87.9253L31.2754 88.0361L32.4342 92.7976ZM41.1056 91.6889C41.086 91.8595 41.0555 92.0389 41.0139 92.227L36.7017 91.7317C36.6735 92.2671 36.8061 92.7046 37.0996 93.0442C37.4004 93.378 37.7871 93.5721 38.2597 93.6263C38.6469 93.6708 38.9787 93.6191 39.255 93.4713C39.5387 93.3177 39.7503 93.096 39.89 92.8061L40.8548 92.9169C40.6509 93.4189 40.3135 93.809 39.8426 94.0875C39.3725 94.3593 38.8158 94.4583 38.1726 94.3844C37.6606 94.3256 37.2144 94.158 36.8338 93.8815C36.4599 93.6058 36.1821 93.2447 36.0007 92.7983C35.8199 92.3453 35.7616 91.8398 35.8257 91.2819C35.8898 90.724 36.0575 90.2479 36.3289 89.8535C36.6003 89.459 36.949 89.1732 37.375 88.9961C37.8084 88.8131 38.2876 88.7517 38.8126 88.8121C39.3246 88.8709 39.7646 89.0345 40.1328 89.3028C40.501 89.5712 40.7675 89.9144 40.9323 90.3323C41.1044 90.7444 41.1622 91.1966 41.1056 91.6889ZM40.2017 91.3955C40.2409 91.0542 40.1989 90.7535 40.0759 90.4933C39.9536 90.2266 39.7683 90.0158 39.5201 89.8609C39.2792 89.7002 39.0012 89.6018 38.6862 89.5656C38.2333 89.5136 37.8295 89.6135 37.4747 89.8654C37.1265 90.118 36.9 90.4976 36.7952 91.0043L40.2017 91.3955ZM47.3097 90.6259L46.1775 90.4959L45.6426 95.1527L44.7467 95.0497L45.2816 90.393L44.5826 90.3127L44.6674 89.5743L45.3664 89.6546L45.4105 89.2706C45.4799 88.6668 45.6846 88.2448 46.0248 88.0045C46.3722 87.7585 46.8905 87.6751 47.5797 87.7542L47.4937 88.5025C47.0999 88.4572 46.8119 88.5039 46.6298 88.6426C46.4549 88.7755 46.3471 89.0191 46.3064 89.3736L46.2623 89.7575L47.3945 89.8876L47.3097 90.6259ZM53.2238 90.5571L52.6041 95.9523L51.7082 95.8494L51.7998 95.0519C51.5975 95.308 51.3331 95.497 51.0065 95.6191C50.6872 95.7354 50.3438 95.7724 49.9763 95.7302C49.5562 95.682 49.1886 95.5533 48.8735 95.3442C48.5591 95.1285 48.3234 94.8355 48.1665 94.465C48.0161 94.0953 47.9696 93.661 48.0269 93.1622L48.3899 90.0019L49.2759 90.1037L48.9265 93.1458C48.8654 93.6774 48.9529 94.1031 49.1888 94.4228C49.4255 94.736 49.7768 94.9193 50.2428 94.9728C50.722 95.0278 51.1163 94.9235 51.4259 94.6598C51.7355 94.3961 51.9227 93.9821 51.9875 93.4176L52.3279 90.4542L53.2238 90.5571ZM55.8496 88.9435L55.0127 96.2289L54.1168 96.126L54.9536 88.8406L55.8496 88.9435ZM58.2724 89.2218L57.4356 96.5072L56.5397 96.4043L57.3765 89.1189L58.2724 89.2218ZM61.5635 94.2382C61.6275 93.6803 61.7949 93.2074 62.0656 92.8196C62.337 92.4251 62.6828 92.1357 63.103 91.9512C63.5297 91.7675 63.9991 91.705 64.511 91.7638C65.1739 91.8399 65.7002 92.0633 66.0899 92.4339C66.4861 92.8053 66.7204 93.2844 66.7926 93.8713L65.8278 93.7604C65.7736 93.4217 65.6229 93.1417 65.3757 92.9205C65.135 92.7 64.8177 92.5671 64.4239 92.5219C63.912 92.4631 63.4781 92.5928 63.1224 92.911C62.7674 93.2227 62.5529 93.7002 62.4791 94.3434C62.4044 94.9932 62.5043 95.5133 62.7786 95.904C63.053 96.2946 63.4461 96.5193 63.958 96.5781C64.3518 96.6233 64.6906 96.5691 64.9742 96.4155C65.2579 96.2619 65.4685 96.0201 65.6062 95.6901L66.571 95.8009C66.3633 96.3356 66.0236 96.7455 65.552 97.0305C65.0811 97.3089 64.5207 97.4108 63.871 97.3362C63.359 97.2774 62.9161 97.1101 62.5421 96.8344C62.1746 96.5594 61.9035 96.1991 61.7286 95.7534C61.5537 95.3077 61.4986 94.8027 61.5635 94.2382ZM69.9102 98.0298C69.4048 97.9718 68.9586 97.8042 68.5715 97.5269C68.1909 97.2505 67.9066 96.8886 67.7186 96.4414C67.5379 95.9884 67.4795 95.483 67.5436 94.9251C67.607 94.3738 67.7809 93.9016 68.0654 93.5087C68.3573 93.11 68.7228 92.8228 69.1619 92.6471C69.6018 92.4649 70.0777 92.4032 70.5896 92.462C71.1016 92.5208 71.5511 92.6888 71.9382 92.966C72.3261 93.2367 72.614 93.5956 72.8021 94.0428C72.9967 94.4908 73.0619 94.9937 72.9978 95.5516C72.9338 96.1095 72.7525 96.5874 72.4541 96.9854C72.163 97.3775 71.7942 97.6644 71.3478 97.8458C70.9013 98.0273 70.4221 98.0886 69.9102 98.0298ZM70.0007 97.2422C70.3223 97.2792 70.6329 97.2384 70.9324 97.1198C71.232 97.0013 71.4844 96.8008 71.6898 96.5185C71.9017 96.237 72.0325 95.8796 72.0822 95.4464C72.132 95.0132 72.0889 94.6359 71.9529 94.3143C71.8169 93.9928 71.6194 93.744 71.3603 93.568C71.102 93.3854 70.8121 93.2756 70.4904 93.2386C70.1623 93.2009 69.8517 93.2417 69.5587 93.361C69.273 93.4745 69.0308 93.6728 68.832 93.9559C68.6332 94.2389 68.509 94.5971 68.4592 95.0303C68.4087 95.47 68.4449 95.8499 68.5677 96.1699C68.6971 96.4907 68.8877 96.742 69.1395 96.9239C69.392 97.0992 69.6791 97.2053 70.0007 97.2422ZM77.1245 93.2026C77.7808 93.278 78.2895 93.5393 78.6504 93.9864C79.0121 94.4269 79.15 95.0213 79.064 95.7695L78.6988 98.9495L77.8127 98.8478L78.1633 95.7958C78.2251 95.2576 78.1377 94.8319 77.901 94.5187C77.6651 94.199 77.3141 94.0124 76.8481 93.9589C76.3755 93.9046 75.9812 94.009 75.665 94.2719C75.3554 94.5356 75.1682 94.9497 75.1034 95.5141L74.7607 98.4972L73.8648 98.3943L74.4845 92.9991L75.3804 93.1021L75.2922 93.87C75.5011 93.6147 75.7652 93.4289 76.0844 93.3126C76.4102 93.1971 76.7569 93.1604 77.1245 93.2026ZM81.7899 94.5864L81.4247 97.7664C81.3945 98.0289 81.4288 98.2224 81.5276 98.3468C81.6271 98.4646 81.8147 98.5393 82.0904 98.571L82.75 98.6468L82.6629 99.4049L81.8556 99.3121C81.3568 99.2548 80.9959 99.097 80.7729 98.8386C80.5498 98.5803 80.4685 98.1885 80.5288 97.6635L80.894 94.4835L80.195 94.4032L80.2798 93.6648L80.9788 93.7451L81.1349 92.3865L82.0308 92.4894L81.8748 93.848L83.2826 94.0097L83.1978 94.7481L81.7899 94.5864ZM85.1634 95.1135C85.3563 94.8231 85.607 94.6092 85.9154 94.4717C86.2304 94.335 86.5979 94.2908 87.0179 94.339L86.9116 95.2644L86.6753 95.2373C85.6711 95.122 85.1065 95.6091 84.9813 96.6986L84.6443 99.6324L83.7484 99.5295L84.3681 94.1344L85.264 94.2373L85.1634 95.1135ZM89.7639 100.31C89.2586 100.252 88.8123 100.085 88.4252 99.8074C88.0447 99.5309 87.7604 99.1691 87.5723 98.7219C87.3916 98.2689 87.3333 97.7634 87.3974 97.2055C87.4607 96.6542 87.6346 96.1821 87.9192 95.7891C88.211 95.3904 88.5765 95.1032 89.0156 94.9276C89.4555 94.7453 89.9314 94.6836 90.4434 94.7424C90.9553 94.8012 91.4049 94.9692 91.792 95.2465C92.1798 95.5171 92.4678 95.876 92.6558 96.3232C92.8504 96.7712 92.9157 97.2741 92.8516 97.832C92.7875 98.3899 92.6063 98.8678 92.3078 99.2658C92.0168 99.658 91.648 99.9448 91.2015 100.126C90.7551 100.308 90.2759 100.369 89.7639 100.31ZM89.8544 99.5226C90.176 99.5596 90.4866 99.5188 90.7862 99.4002C91.0857 99.2817 91.3382 99.0813 91.5435 98.799C91.7554 98.5174 91.8862 98.16 91.936 97.7268C91.9857 97.2936 91.9426 96.9163 91.8067 96.5948C91.6707 96.2733 91.4732 96.0245 91.2141 95.8484C90.9558 95.6658 90.6658 95.556 90.3442 95.5191C90.016 95.4814 89.7054 95.5222 89.4124 95.6415C89.1267 95.755 88.8845 95.9532 88.6858 96.2363C88.487 96.5194 88.3627 96.8775 88.313 97.3107C88.2625 97.7504 88.2986 98.1303 88.4215 98.4503C88.5509 98.7711 88.7415 99.0224 88.9932 99.2043C89.2457 99.3796 89.5328 99.4857 89.8544 99.5226ZM95.4513 93.4922L94.6145 100.778L93.7186 100.675L94.5554 93.3893L95.4513 93.4922ZM106.573 96.6848L104.27 101.887L103.344 101.78L102.536 97.3484L100.745 101.482L99.8196 101.375L98.7459 95.7858L99.6615 95.891L100.382 100.562L102.241 96.1873L103.157 96.2924L103.945 100.981L105.687 96.5831L106.573 96.6848ZM110.151 96.9961C110.558 97.0428 110.915 97.1737 111.223 97.3886C111.532 97.5969 111.758 97.8856 111.902 98.2545C112.052 98.6243 112.099 99.0585 112.041 99.5574L111.676 102.737L110.79 102.636L111.141 99.5836C111.203 99.0454 111.115 98.6197 110.878 98.3066C110.642 97.9869 110.291 97.8003 109.825 97.7467C109.353 97.6925 108.959 97.7968 108.642 98.0597C108.333 98.3234 108.146 98.7375 108.081 99.3019L107.738 102.285L106.842 102.182L107.679 94.8967L108.575 94.9996L108.27 97.6578C108.479 97.4025 108.746 97.2171 109.072 97.1015C109.404 96.9868 109.764 96.9516 110.151 96.9961ZM118.396 100.567C118.376 100.737 118.346 100.917 118.304 101.105L113.992 100.609C113.964 101.145 114.096 101.582 114.39 101.922C114.691 102.256 115.077 102.45 115.55 102.504C115.937 102.548 116.269 102.497 116.545 102.349C116.829 102.195 117.041 101.974 117.18 101.684L118.145 101.795C117.941 102.297 117.604 102.687 117.133 102.965C116.663 103.237 116.106 103.336 115.463 103.262C114.951 103.203 114.505 103.036 114.124 102.759C113.75 102.483 113.472 102.122 113.291 101.676C113.11 101.223 113.052 100.717 113.116 100.16C113.18 99.6017 113.348 99.1255 113.619 98.7311C113.891 98.3367 114.239 98.0509 114.665 97.8737C115.099 97.6907 115.578 97.6294 116.103 97.6897C116.615 97.7485 117.055 97.9121 117.423 98.1805C117.791 98.4489 118.058 98.792 118.222 99.21C118.395 99.6221 118.452 100.074 118.396 100.567ZM117.492 100.273C117.531 99.9319 117.489 99.6311 117.366 99.371C117.244 99.1042 117.059 98.8934 116.81 98.7385C116.569 98.5779 116.291 98.4794 115.976 98.4433C115.524 98.3912 115.12 98.4912 114.765 98.743C114.417 98.9956 114.19 99.3752 114.085 99.8819L117.492 100.273ZM122.504 98.415C123.161 98.4904 123.669 98.7517 124.03 99.1988C124.392 99.6393 124.53 100.234 124.444 100.982L124.079 104.162L123.193 104.06L123.543 101.008C123.605 100.47 123.518 100.044 123.281 99.7311C123.045 99.4114 122.694 99.2248 122.228 99.1713C121.756 99.117 121.361 99.2214 121.045 99.4843C120.735 99.748 120.548 100.162 120.483 100.727L120.141 103.71L119.245 103.607L119.865 98.2115L120.76 98.3145L120.672 99.0824C120.881 98.8271 121.145 98.6413 121.464 98.525C121.79 98.4095 122.137 98.3728 122.504 98.415ZM128.143 101.886C128.207 101.328 128.375 100.855 128.645 100.467C128.917 100.073 129.263 99.7831 129.683 99.5986C130.109 99.4149 130.579 99.3524 131.091 99.4112C131.754 99.4874 132.28 99.7108 132.67 100.081C133.066 100.453 133.3 100.932 133.372 101.519L132.408 101.408C132.353 101.069 132.203 100.789 131.955 100.568C131.715 100.347 131.398 100.215 131.004 100.169C130.492 100.111 130.058 100.24 129.702 100.558C129.347 100.87 129.133 101.348 129.059 101.991C128.984 102.641 129.084 103.161 129.358 103.551C129.633 103.942 130.026 104.167 130.538 104.226C130.932 104.271 131.27 104.217 131.554 104.063C131.838 103.909 132.048 103.668 132.186 103.338L133.151 103.448C132.943 103.983 132.603 104.393 132.132 104.678C131.661 104.956 131.101 105.058 130.451 104.984C129.939 104.925 129.496 104.758 129.122 104.482C128.754 104.207 128.483 103.847 128.308 103.401C128.133 102.955 128.078 102.45 128.143 101.886ZM135.562 100.902C135.755 100.612 136.006 100.398 136.314 100.261C136.629 100.124 136.997 100.08 137.417 100.128L137.31 101.053L137.074 101.026C136.07 100.911 135.505 101.398 135.38 102.487L135.043 105.421L134.147 105.318L134.767 99.9232L135.663 100.026L135.562 100.902ZM143.076 103.401C143.056 103.572 143.026 103.751 142.984 103.939L138.672 103.444C138.644 103.98 138.776 104.417 139.07 104.757C139.371 105.09 139.757 105.284 140.23 105.339C140.617 105.383 140.949 105.332 141.225 105.184C141.509 105.03 141.721 104.808 141.86 104.519L142.825 104.629C142.621 105.131 142.284 105.521 141.813 105.8C141.343 106.072 140.786 106.171 140.143 106.097C139.631 106.038 139.185 105.87 138.804 105.594C138.43 105.318 138.153 104.957 137.971 104.511C137.79 104.058 137.732 103.552 137.796 102.994C137.86 102.436 138.028 101.96 138.299 101.566C138.571 101.171 138.919 100.886 139.345 100.708C139.779 100.526 140.258 100.464 140.783 100.524C141.295 100.583 141.735 100.747 142.103 101.015C142.471 101.284 142.738 101.627 142.903 102.045C143.075 102.457 143.133 102.909 143.076 103.401ZM142.172 103.108C142.211 102.767 142.169 102.466 142.046 102.206C141.924 101.939 141.739 101.728 141.49 101.573C141.25 101.413 140.972 101.314 140.657 101.278C140.204 101.226 139.8 101.326 139.445 101.578C139.097 101.83 138.87 102.21 138.766 102.717L142.172 103.108ZM143.902 103.686C143.966 103.134 144.133 102.665 144.403 102.277C144.675 101.883 145.017 101.593 145.431 101.407C145.851 101.223 146.301 101.158 146.78 101.213C147.252 101.268 147.651 101.416 147.975 101.66C148.3 101.903 148.53 102.189 148.665 102.517L148.778 101.533L149.684 101.637L149.064 107.032L148.158 106.928L148.274 105.924C148.06 106.218 147.764 106.45 147.386 106.62C147.015 106.783 146.596 106.838 146.13 106.785C145.651 106.729 145.231 106.562 144.871 106.281C144.511 106 144.244 105.634 144.07 105.181C143.896 104.729 143.84 104.231 143.902 103.686ZM148.469 104.22C148.516 103.813 148.475 103.45 148.345 103.129C148.216 102.808 148.019 102.553 147.755 102.363C147.498 102.167 147.202 102.05 146.868 102.011C146.533 101.973 146.219 102.017 145.925 102.143C145.631 102.268 145.385 102.473 145.186 102.756C144.987 103.039 144.865 103.384 144.818 103.791C144.77 104.204 144.811 104.575 144.94 104.902C145.069 105.223 145.262 105.481 145.519 105.677C145.777 105.866 146.073 105.98 146.407 106.018C146.742 106.057 147.056 106.013 147.35 105.887C147.651 105.756 147.901 105.548 148.1 105.265C148.3 104.976 148.423 104.627 148.469 104.22ZM152.206 102.674L151.841 105.854C151.81 106.117 151.845 106.31 151.944 106.435C152.043 106.553 152.231 106.627 152.506 106.659L153.166 106.735L153.079 107.493L152.272 107.4C151.773 107.343 151.412 107.185 151.189 106.927C150.966 106.668 150.884 106.277 150.945 105.752L151.31 102.572L150.611 102.491L150.696 101.753L151.395 101.833L151.551 100.475L152.447 100.577L152.291 101.936L153.699 102.098L153.614 102.836L152.206 102.674ZM155.347 101.399C155.177 101.38 155.039 101.304 154.935 101.172C154.83 101.041 154.787 100.89 154.807 100.719C154.827 100.548 154.902 100.411 155.034 100.306C155.166 100.201 155.317 100.159 155.488 100.179C155.652 100.197 155.783 100.272 155.881 100.403C155.985 100.535 156.028 100.686 156.008 100.857C155.989 101.027 155.913 101.165 155.781 101.27C155.656 101.375 155.511 101.418 155.347 101.399ZM155.68 102.325L155.06 107.72L154.164 107.618L154.784 102.222L155.68 102.325ZM159.847 102.704C160.503 102.78 161.012 103.041 161.373 103.488C161.734 103.929 161.872 104.523 161.786 105.271L161.421 108.451L160.535 108.349L160.886 105.297C160.947 104.759 160.86 104.333 160.623 104.02C160.387 103.701 160.036 103.514 159.57 103.46C159.098 103.406 158.703 103.511 158.387 103.773C158.078 104.037 157.891 104.451 157.826 105.016L157.483 107.999L156.587 107.896L157.207 102.501L158.103 102.604L158.015 103.372C158.223 103.116 158.488 102.93 158.807 102.814C159.133 102.699 159.479 102.662 159.847 102.704ZM165.739 103.391C166.205 103.445 166.601 103.593 166.925 103.836C167.256 104.081 167.489 104.367 167.625 104.695L167.738 103.71L168.643 103.814L168.01 109.328C167.954 109.82 167.799 110.244 167.545 110.601C167.29 110.964 166.954 111.231 166.535 111.403C166.123 111.575 165.658 111.631 165.139 111.571C164.43 111.49 163.859 111.255 163.425 110.866C162.99 110.477 162.764 109.989 162.745 109.401L163.631 109.503C163.692 109.842 163.865 110.128 164.151 110.361C164.436 110.6 164.795 110.744 165.228 110.794C165.721 110.85 166.139 110.742 166.483 110.469C166.833 110.197 167.04 109.781 167.104 109.224L167.234 108.091C167.021 108.386 166.728 108.618 166.356 108.789C165.984 108.959 165.565 109.017 165.099 108.963C164.62 108.908 164.197 108.74 163.831 108.459C163.471 108.178 163.203 107.811 163.029 107.359C162.855 106.907 162.799 106.408 162.862 105.863C162.925 105.312 163.092 104.843 163.363 104.455C163.634 104.06 163.977 103.77 164.39 103.585C164.811 103.401 165.26 103.336 165.739 103.391ZM167.429 106.398C167.476 105.991 167.434 105.627 167.305 105.306C167.176 104.986 166.979 104.73 166.715 104.54C166.458 104.345 166.162 104.228 165.827 104.189C165.493 104.151 165.178 104.194 164.885 104.32C164.591 104.446 164.345 104.651 164.146 104.934C163.947 105.217 163.824 105.562 163.778 105.969C163.73 106.382 163.771 106.753 163.899 107.08C164.029 107.401 164.222 107.659 164.479 107.855C164.736 108.044 165.032 108.158 165.367 108.196C165.702 108.235 166.016 108.191 166.31 108.065C166.611 107.933 166.861 107.726 167.06 107.443C167.259 107.153 167.382 106.805 167.429 106.398ZM20.416 101.887L16.2556 109.449L15.3302 109.343L16.692 106.866L15.1291 101.28L16.1235 101.394L17.3147 105.96L19.4905 101.781L20.416 101.887ZM23.0397 107.745C22.5343 107.687 22.088 107.519 21.7009 107.242C21.3204 106.965 21.0361 106.604 20.8481 106.156C20.6673 105.703 20.609 105.198 20.6731 104.64C20.7364 104.089 20.9104 103.617 21.1949 103.224C21.4867 102.825 21.8522 102.538 22.2914 102.362C22.7312 102.18 23.2072 102.118 23.7191 102.177C24.231 102.236 24.6806 102.404 25.0677 102.681C25.4556 102.952 25.7435 103.311 25.9315 103.758C26.1261 104.206 26.1914 104.709 26.1273 105.267C26.0632 105.824 25.882 106.302 25.5836 106.7C25.2925 107.093 24.9237 107.379 24.4773 107.561C24.0308 107.742 23.5516 107.804 23.0397 107.745ZM23.1301 106.957C23.4517 106.994 23.7623 106.953 24.0619 106.835C24.3615 106.716 24.6139 106.516 24.8192 106.234C25.0311 105.952 25.162 105.595 25.2117 105.161C25.2615 104.728 25.2184 104.351 25.0824 104.029C24.9464 103.708 24.7489 103.459 24.4898 103.283C24.2315 103.1 23.9415 102.991 23.6199 102.954C23.2917 102.916 22.9812 102.957 22.6882 103.076C22.4025 103.19 22.1602 103.388 21.9615 103.671C21.7627 103.954 21.6385 104.312 21.5887 104.745C21.5382 105.185 21.5744 105.565 21.6972 105.885C21.8266 106.206 22.0172 106.457 22.269 106.639C22.5215 106.814 22.8085 106.92 23.1301 106.957ZM32.3987 103.264L31.779 108.659L30.8831 108.556L30.9747 107.759C30.7724 108.015 30.508 108.204 30.1814 108.326C29.8621 108.442 29.5187 108.479 29.1512 108.437C28.7311 108.389 28.3635 108.26 28.0484 108.051C27.734 107.835 27.4983 107.542 27.3414 107.172C27.191 106.802 27.1445 106.368 27.2018 105.869L27.5648 102.709L28.4508 102.81L28.1014 105.852C28.0403 106.384 28.1278 106.81 28.3637 107.129C28.6004 107.443 28.9517 107.626 29.4177 107.679C29.8969 107.734 30.2912 107.63 30.6008 107.366C30.9104 107.103 31.0976 106.689 31.1624 106.124L31.5028 103.161L32.3987 103.264ZM34.7067 104.417C34.8996 104.126 35.1503 103.912 35.4587 103.775C35.7737 103.638 36.1412 103.594 36.5612 103.642L36.4549 104.568L36.2186 104.54C35.2144 104.425 34.6498 104.912 34.5246 106.002L34.1876 108.936L33.2917 108.833L33.9114 103.437L34.8073 103.54L34.7067 104.417ZM41.4889 109.864C41.0755 109.816 40.7125 109.705 40.4002 109.529C40.0886 109.347 39.852 109.121 39.6903 108.849C39.5293 108.572 39.4579 108.267 39.4759 107.937L40.4013 108.043C40.3967 108.315 40.4961 108.55 40.6997 108.746C40.9098 108.943 41.1986 109.063 41.5662 109.105C41.9075 109.144 42.1852 109.099 42.3995 108.971C42.6137 108.843 42.734 108.664 42.7604 108.434C42.7876 108.198 42.7025 108.012 42.5053 107.876C42.3089 107.734 41.9972 107.582 41.5702 107.419C41.1819 107.268 40.8658 107.126 40.6219 106.991C40.3853 106.851 40.1872 106.665 40.0275 106.434C39.8752 106.197 39.819 105.905 39.859 105.557C39.8906 105.281 40.0017 105.038 40.1922 104.827C40.3826 104.616 40.6364 104.463 40.9534 104.366C41.2711 104.263 41.6236 104.234 42.0109 104.278C42.6081 104.347 43.0732 104.553 43.4061 104.897C43.7389 105.241 43.8884 105.677 43.8543 106.205L42.9584 106.103C42.9711 105.818 42.8823 105.578 42.6918 105.384C42.508 105.19 42.2421 105.073 41.8942 105.033C41.5726 104.996 41.3087 105.035 41.1026 105.151C40.8964 105.267 40.7805 105.437 40.7549 105.66C40.7345 105.837 40.7733 105.991 40.8714 106.122C40.9767 106.247 41.1105 106.356 41.2729 106.448C41.4425 106.534 41.6767 106.637 41.9754 106.758C42.3506 106.907 42.6536 107.048 42.8844 107.181C43.1159 107.308 43.3053 107.482 43.4526 107.705C43.6064 107.929 43.6678 108.206 43.6366 108.535C43.6027 108.83 43.4901 109.086 43.2989 109.304C43.1077 109.521 42.8532 109.682 42.5355 109.785C42.225 109.882 41.8762 109.908 41.4889 109.864ZM50.1373 105.301L49.5176 110.696L48.6217 110.593L48.7133 109.796C48.511 110.052 48.2465 110.241 47.92 110.363C47.6007 110.48 47.2573 110.517 46.8898 110.474C46.4697 110.426 46.1021 110.297 45.787 110.088C45.4726 109.873 45.2369 109.58 45.08 109.209C44.9296 108.839 44.883 108.405 44.9403 107.906L45.3033 104.746L46.1894 104.848L45.84 107.89C45.7789 108.422 45.8663 108.847 46.1023 109.167C46.339 109.48 46.6903 109.663 47.1563 109.717C47.6354 109.772 48.0298 109.668 48.3394 109.404C48.649 109.14 48.8362 108.726 48.901 108.162L49.2414 105.198L50.1373 105.301ZM52.4453 106.454C52.6382 106.164 52.8889 105.95 53.1973 105.812C53.5122 105.676 53.8797 105.631 54.2998 105.68L54.1935 106.605L53.9572 106.578C52.953 106.463 52.3883 106.95 52.2632 108.039L51.9262 110.973L51.0303 110.87L51.65 105.475L52.5459 105.578L52.4453 106.454ZM56.8064 110.696L59.0048 106.32L59.9598 106.429L57.2234 111.581L56.1798 111.462L54.6828 105.823L55.6476 105.934L56.8064 110.696ZM65.4778 109.587C65.4582 109.758 65.4277 109.937 65.3861 110.125L61.0739 109.63C61.0457 110.165 61.1783 110.603 61.4718 110.942C61.7726 111.276 62.1593 111.47 62.6319 111.524C63.0191 111.569 63.3509 111.517 63.6272 111.369C63.9109 111.216 64.1225 110.994 64.2622 110.704L65.2271 110.815C65.0231 111.317 64.6857 111.707 64.2148 111.986C63.7447 112.257 63.188 112.356 62.5448 112.282C62.0329 112.224 61.5866 112.056 61.2061 111.78C60.8321 111.504 60.5543 111.143 60.3729 110.696C60.1922 110.243 60.1338 109.738 60.1979 109.18C60.262 108.622 60.4297 108.146 60.7011 107.752C60.9726 107.357 61.3213 107.071 61.7473 106.894C62.1806 106.711 62.6598 106.65 63.1848 106.71C63.6968 106.769 64.1369 106.933 64.505 107.201C64.8732 107.469 65.1397 107.812 65.3045 108.23C65.4766 108.642 65.5344 109.095 65.4778 109.587ZM64.5739 109.294C64.6131 108.952 64.5712 108.652 64.4481 108.391C64.3258 108.125 64.1405 107.914 63.8923 107.759C63.6514 107.598 63.3734 107.5 63.0584 107.464C62.6055 107.412 62.2017 107.512 61.8469 107.763C61.4987 108.016 61.2722 108.396 61.1675 108.902L64.5739 109.294ZM71.5934 107.766L67.4331 115.328L66.5076 115.221L67.8695 112.744L66.3066 107.158L67.3009 107.273L68.4922 111.838L70.668 107.659L71.5934 107.766Z" fill="#11002A"/>
<rect x="223.096" y="25.9336" width="182.237" height="119.493" rx="8.16824" transform="rotate(-8.10464 223.096 25.9336)" fill="white"/>
<rect x="237.242" y="36.5531" width="35.2255" height="35.2255" rx="17.6128" transform="rotate(-8.10464 237.242 36.5531)" fill="#EFE6FD" fill-opacity="0.6" stroke="url(#paint1_linear_559_7425)" stroke-width="0.510515"/>
<g clip-path="url(#clip0_559_7425)">
<path d="M253.388 54.9987L266.161 53.1797C266.088 52.6636 265.985 52.1584 265.81 51.6853C264.858 49.1113 262.904 47.0546 260.264 46.2179C259.339 45.9253 258.371 45.7924 257.401 45.8251L255.563 46.0867C251.915 47.0141 249.322 50.2275 249.13 53.935L253.388 54.9987Z" fill="#D2DCFD"/>
<path d="M246.961 46.3348C247.334 45.8373 248.042 45.7366 248.539 46.1101C249.037 46.4834 249.138 47.191 248.764 47.6886C248.39 48.1872 247.683 48.2879 247.186 47.9133C246.688 47.5398 246.588 46.8323 246.961 46.3348ZM265.732 43.6618C265.233 43.2884 264.527 43.389 264.153 43.8866C263.779 44.3841 263.88 45.0917 264.377 45.4652C264.876 45.8396 265.582 45.7391 265.957 45.2403C266.33 44.7428 266.229 44.0353 265.732 43.6618Z" fill="#6200EE"/>
<path d="M255.817 45.0793L256.875 44.9285C257.09 44.8979 257.29 45.0477 257.32 45.2627L257.517 46.6442C257.548 46.858 257.398 47.0575 257.183 47.0881L256.124 47.2389C255.911 47.2693 255.71 47.1197 255.679 46.9059L255.483 45.5244C255.452 45.3094 255.603 45.1097 255.817 45.0793Z" fill="#007A72"/>
<path d="M254.339 52.9961L260.507 52.1178L260.767 53.946L254.6 54.8243L254.339 52.9961Z" fill="white"/>
<path d="M256.395 52.7051L258.451 52.4123L258.711 54.2405L256.655 54.5333L256.395 52.7051Z" fill="#D2DCFD"/>
<path d="M254.244 50.9025C254.769 50.8278 255.134 50.3394 255.06 49.8155C254.985 49.2915 254.498 48.9246 253.973 48.9993C253.449 49.0739 253.083 49.5624 253.157 50.0864C253.232 50.6103 253.72 50.9771 254.244 50.9025ZM260.06 50.0743C260.584 49.9997 260.95 49.5112 260.876 48.9872C260.801 48.4633 260.313 48.0965 259.789 48.1711C259.265 48.2457 258.899 48.7342 258.973 49.2582C259.048 49.7821 259.536 50.1489 260.06 50.0743Z" fill="#6200EE"/>
<path opacity="0.45" d="M252.179 51.69L249.433 52.081C249.264 52.6856 249.162 53.3071 249.13 53.9341L253.387 54.9977L255.006 54.7672L254.854 53.6989C254.671 52.411 253.467 51.5066 252.179 51.69Z" fill="#93B2F4"/>
<path d="M250.835 49.2441L248.764 47.6886M248.764 47.6886C249.138 47.191 249.037 46.4834 248.539 46.1101C248.042 45.7366 247.334 45.8373 246.961 46.3348C246.588 46.8323 246.688 47.5398 247.186 47.9133C247.683 48.2879 248.39 48.1872 248.764 47.6886ZM262.824 47.5368L264.377 45.4652M264.377 45.4652C263.88 45.0917 263.779 44.3841 264.153 43.8866C264.527 43.389 265.233 43.2884 265.732 43.6618C266.229 44.0353 266.33 44.7428 265.957 45.2403C265.582 45.7391 264.876 45.8396 264.377 45.4652ZM260.767 53.9475L260.507 52.1193L254.339 52.9975L254.6 54.8258M254.244 50.9003C254.769 50.8255 255.134 50.3372 255.06 49.8132C254.985 49.2893 254.498 48.9223 253.973 48.9971C253.449 49.0717 253.082 49.5602 253.157 50.0841C253.232 50.6081 253.72 50.9749 254.244 50.9003ZM260.06 50.0721C260.584 49.9975 260.95 49.509 260.876 48.985C260.801 48.461 260.313 48.0943 259.789 48.1689C259.265 48.2434 258.898 48.732 258.973 49.2559C259.048 49.7799 259.536 50.1467 260.06 50.0721Z" stroke="#290064" stroke-width="0.800808" stroke-miterlimit="10" stroke-linecap="round" stroke-linejoin="round"/>
<path d="M255.563 46.0867C251.915 47.0141 249.322 50.2275 249.13 53.935M253.388 54.9987L266.161 53.1797C266.088 52.6636 265.985 52.1585 265.81 51.6853C264.858 49.1113 262.904 47.0546 260.264 46.2179C259.339 45.9253 258.37 45.7924 257.401 45.8251" stroke="#290064" stroke-width="0.800808" stroke-miterlimit="10" stroke-linecap="round" stroke-linejoin="round"/>
<path d="M261.249 56.1923L257.512 56.7244L256.495 58.3964L254.58 56.1424L253.371 58.8413L251.927 57.5196L250.426 57.7335" stroke="#007A72" stroke-width="0.800808" stroke-miterlimit="10" stroke-linecap="round" stroke-linejoin="round"/>
</g>
<path d="M250.533 86.1821C250.302 85.8724 250.014 85.6527 249.669 85.5228C249.323 85.3929 248.937 85.3584 248.509 85.4193C248.036 85.4866 247.632 85.6532 247.296 85.9191C246.96 86.1849 246.717 86.5309 246.568 86.957C246.418 87.3831 246.381 87.8556 246.454 88.3745C246.53 88.9087 246.7 89.3595 246.962 89.7269C247.232 90.0933 247.57 90.3567 247.974 90.5171C248.378 90.6775 248.829 90.7224 249.325 90.6518C249.935 90.5649 250.412 90.3334 250.756 89.9575C251.098 89.574 251.289 89.0836 251.328 88.4862L248.581 88.8774L248.407 87.6527L252.734 87.0366L252.932 88.433C252.905 89.0052 252.749 89.5529 252.466 90.076C252.182 90.5991 251.782 91.0453 251.267 91.4146C250.757 91.7752 250.159 92.0043 249.473 92.1021C248.702 92.2119 247.979 92.1396 247.305 91.8853C246.637 91.6224 246.079 91.2073 245.633 90.6403C245.194 90.0722 244.918 89.3952 244.806 88.6092C244.694 87.8233 244.77 87.0963 245.033 86.4282C245.302 85.7514 245.722 85.1973 246.291 84.7659C246.867 84.3258 247.536 84.0514 248.299 83.9427C249.2 83.8145 250.013 83.9244 250.74 84.2725C251.466 84.6129 252.011 85.1619 252.376 85.9197L250.533 86.1821ZM259.975 87.1615C260.008 87.3904 260.022 87.5986 260.017 87.7861L255.382 88.4462C255.485 88.8986 255.696 89.2344 256.016 89.4537C256.335 89.6729 256.701 89.7532 257.113 89.6945C257.708 89.6098 258.095 89.2938 258.274 88.7467L260.002 88.5006C259.906 89.1371 259.627 89.6907 259.165 90.1614C258.701 90.6245 258.092 90.9098 257.336 91.0174C256.726 91.1043 256.157 91.049 255.631 90.8515C255.111 90.6452 254.678 90.3137 254.333 89.8568C253.995 89.3988 253.78 88.8455 253.688 88.1969C253.595 87.5407 253.646 86.9456 253.843 86.4115C254.039 85.8775 254.359 85.4427 254.801 85.1072C255.244 84.7717 255.778 84.5593 256.404 84.4702C257.007 84.3844 257.563 84.4375 258.073 84.6296C258.591 84.8206 259.014 85.1379 259.342 85.5817C259.676 86.0168 259.887 86.5434 259.975 87.1615ZM258.25 86.94C258.184 86.529 257.989 86.2221 257.664 86.0192C257.338 85.8087 256.965 85.7333 256.546 85.7931C256.149 85.8496 255.83 86.0195 255.59 86.3028C255.357 86.5773 255.24 86.9326 255.24 87.3687L258.25 86.94ZM264.214 83.3697C264.969 83.2622 265.614 83.4156 266.148 83.8301C266.681 84.2369 267.008 84.8676 267.13 85.7222L267.659 89.4422L266.057 89.6704L265.558 86.1679C265.487 85.6643 265.306 85.2969 265.016 85.0656C264.725 84.8268 264.362 84.7383 263.927 84.8003C263.485 84.8633 263.153 85.0506 262.933 85.3623C262.719 85.6652 262.648 86.0685 262.72 86.5721L263.218 90.0746L261.616 90.3028L260.713 83.9617L262.315 83.7335L262.428 84.5233C262.602 84.2182 262.843 83.9659 263.149 83.7666C263.462 83.5585 263.817 83.4262 264.214 83.3697ZM274.607 85.0779C274.64 85.3068 274.654 85.515 274.649 85.7025L270.014 86.3626C270.117 86.815 270.328 87.1508 270.648 87.3701C270.967 87.5893 271.332 87.6696 271.745 87.6109C272.34 87.5262 272.727 87.2102 272.906 86.6631L274.634 86.417C274.538 87.0535 274.259 87.6071 273.796 88.0778C273.333 88.5409 272.723 88.8262 271.968 88.9338C271.357 89.0207 270.789 88.9654 270.263 88.7679C269.743 88.5616 269.31 88.2301 268.965 87.7732C268.627 87.3152 268.412 86.7619 268.32 86.1133C268.226 85.4571 268.278 84.8619 268.474 84.3279C268.671 83.7939 268.99 83.3591 269.433 83.0236C269.876 82.688 270.41 82.4757 271.036 82.3866C271.638 82.3008 272.195 82.3539 272.705 82.546C273.223 82.7369 273.645 83.0543 273.973 83.4981C274.308 83.9332 274.519 84.4598 274.607 85.0779ZM272.882 84.8564C272.816 84.4454 272.62 84.1385 272.296 83.9356C271.97 83.7251 271.597 83.6497 271.177 83.7094C270.78 83.7659 270.462 83.9358 270.222 84.2191C269.989 84.4937 269.872 84.849 269.872 85.285L272.882 84.8564ZM277.087 82.6343C277.246 82.2692 277.475 81.9679 277.776 81.7304C278.085 81.4918 278.453 81.3421 278.88 81.2812L279.12 82.9638L278.696 83.0241C278.192 83.0958 277.828 83.2684 277.602 83.5419C277.384 83.8144 277.317 84.2443 277.4 84.8319L277.85 87.991L276.248 88.2192L275.345 81.8781L276.947 81.6499L277.087 82.6343ZM280.008 84.4255C279.917 83.7845 279.962 83.1981 280.143 82.6662C280.332 82.1333 280.625 81.7023 281.022 81.3733C281.426 81.0432 281.9 80.8395 282.441 80.7624C282.915 80.695 283.34 80.7317 283.718 80.8725C284.104 81.0122 284.425 81.2118 284.679 81.4714L284.551 80.5671L286.165 80.3373L287.068 86.6784L285.454 86.9082L285.322 85.9811C285.158 86.308 284.907 86.5968 284.569 86.8473C284.238 87.0892 283.835 87.2438 283.362 87.3112C282.828 87.3872 282.32 87.3194 281.839 87.1077C281.364 86.895 280.962 86.5591 280.632 86.1C280.309 85.6322 280.101 85.0741 280.008 84.4255ZM285.002 83.7377C284.947 83.3485 284.823 83.0274 284.631 82.7745C284.439 82.5139 284.202 82.3295 283.922 82.2215C283.641 82.1058 283.352 82.0692 283.054 82.1116C282.756 82.154 282.492 82.2656 282.261 82.4464C282.03 82.6273 281.854 82.8703 281.734 83.1754C281.62 83.4718 281.591 83.8108 281.645 84.1924C281.7 84.5739 281.824 84.8988 282.018 85.167C282.218 85.4265 282.455 85.6147 282.729 85.7314C283.01 85.8471 283.295 85.8843 283.585 85.843C283.883 85.8006 284.151 85.6885 284.39 85.5065C284.628 85.317 284.803 85.074 284.917 84.7775C285.029 84.4735 285.058 84.1268 285.002 83.7377ZM289.783 81.165L290.22 84.2326C290.25 84.4462 290.322 84.5956 290.435 84.6807C290.555 84.757 290.737 84.7778 290.981 84.7431L291.725 84.6371L291.918 85.9877L290.91 86.1312C289.56 86.3235 288.791 85.7634 288.604 84.451L288.169 81.3949L287.413 81.5024L287.226 80.1861L287.981 80.0786L287.758 78.5105L289.372 78.2806L289.595 79.8487L291.015 79.6466L291.202 80.9629L289.783 81.165ZM298.494 81.6763C298.527 81.9052 298.541 82.1134 298.536 82.3009L293.9 82.961C294.004 83.4134 294.215 83.7492 294.534 83.9685C294.854 84.1877 295.219 84.268 295.631 84.2093C296.227 84.1246 296.614 83.8086 296.793 83.2615L298.521 83.0154C298.425 83.6519 298.146 84.2055 297.683 84.6762C297.22 85.1393 296.61 85.4246 295.855 85.5322C295.244 85.6191 294.676 85.5638 294.15 85.3663C293.63 85.16 293.197 84.8285 292.852 84.3716C292.514 83.9136 292.299 83.3603 292.207 82.7117C292.113 82.0555 292.165 81.4604 292.361 80.9263C292.558 80.3923 292.877 79.9575 293.32 79.622C293.763 79.2865 294.297 79.0741 294.923 78.985C295.525 78.8992 296.082 78.9523 296.592 79.1444C297.11 79.3354 297.532 79.6527 297.86 80.0965C298.195 80.5316 298.406 81.0582 298.494 81.6763ZM296.769 81.4548C296.703 81.0438 296.507 80.7369 296.182 80.534C295.857 80.3235 295.484 80.2481 295.064 80.3078C294.667 80.3644 294.349 80.5343 294.109 80.8176C293.876 81.0921 293.759 81.4474 293.759 81.8835L296.769 81.4548ZM303.693 78.7871C303.856 78.4525 304.103 78.1643 304.435 77.9224C304.774 77.6795 305.176 77.5249 305.641 77.4586C306.183 77.3815 306.691 77.4455 307.164 77.6506C307.644 77.8547 308.046 78.1867 308.368 78.6469C308.697 79.0983 308.908 79.6483 309 80.2969C309.093 80.9455 309.045 81.5401 308.857 82.0807C308.676 82.6126 308.384 83.0473 307.98 83.3851C307.584 83.7217 307.116 83.9286 306.574 84.0058C306.101 84.0731 305.672 84.0408 305.287 83.9087C304.909 83.7679 304.592 83.564 304.336 83.2968L304.464 84.201L302.862 84.4292L301.656 75.9592L303.258 75.731L303.693 78.7871ZM307.363 80.53C307.309 80.1485 307.182 79.8318 306.983 79.5799C306.79 79.3193 306.554 79.135 306.273 79.0269C306.001 78.9178 305.716 78.8844 305.418 78.9268C305.128 78.9681 304.865 79.0835 304.627 79.2731C304.396 79.4539 304.22 79.6969 304.1 80.0021C303.988 80.3061 303.959 80.6489 304.013 81.0305C304.067 81.412 304.191 81.7331 304.384 81.9937C304.584 82.2532 304.821 82.4413 305.095 82.5581C305.375 82.6661 305.66 82.6995 305.95 82.6582C306.247 82.6158 306.511 82.5004 306.741 82.3119C306.979 82.1224 307.154 81.8756 307.266 81.5715C307.386 81.2663 307.419 80.9192 307.363 80.53ZM315.783 76.1196L313.187 86.0186L311.481 86.2615L312.405 82.9068L308.984 77.0878L310.781 76.8319L313.048 81.0284L314.077 76.3624L315.783 76.1196ZM324.959 79.7293L321.777 80.1825L321.467 81.7798L319.785 82.0194L321.518 73.6094L323.384 73.3438L327.396 80.9354L325.702 81.1767L324.959 79.7293ZM324.342 78.5093L322.71 75.3317L322.029 78.8386L324.342 78.5093ZM328.935 72.565L330.073 80.5543L328.47 80.7825L327.333 72.7932L328.935 72.565Z" fill="#11002A"/>
<path d="M252.717 103.87L253.69 110.708L252.798 110.835L252.356 107.735L248.873 108.231L249.315 111.331L248.422 111.458L247.448 104.62L248.341 104.493L248.768 107.495L252.251 106.999L251.824 103.997L252.717 103.87ZM254.496 107.831C254.417 107.281 254.46 106.785 254.624 106.341C254.787 105.891 255.045 105.524 255.398 105.24C255.758 104.955 256.176 104.779 256.654 104.711C257.125 104.644 257.548 104.687 257.924 104.84C258.299 104.993 258.594 105.212 258.808 105.495L258.668 104.514L259.571 104.385L260.336 109.762L259.434 109.89L259.291 108.89C259.159 109.229 258.932 109.528 258.608 109.788C258.29 110.04 257.899 110.199 257.435 110.265C256.957 110.333 256.509 110.277 256.09 110.096C255.67 109.916 255.319 109.629 255.036 109.235C254.753 108.842 254.573 108.374 254.496 107.831ZM259.049 107.192C258.992 106.787 258.86 106.445 258.653 106.168C258.447 105.89 258.192 105.693 257.888 105.576C257.59 105.451 257.274 105.413 256.941 105.46C256.607 105.508 256.314 105.63 256.062 105.826C255.81 106.022 255.623 106.282 255.502 106.606C255.382 106.93 255.35 107.295 255.408 107.701C255.467 108.113 255.6 108.461 255.807 108.745C256.013 109.023 256.266 109.224 256.564 109.348C256.861 109.466 257.176 109.501 257.51 109.454C257.843 109.406 258.136 109.284 258.388 109.088C258.646 108.885 258.836 108.621 258.956 108.297C259.076 107.966 259.107 107.598 259.049 107.192ZM263.729 108.438L264.749 103.648L265.7 103.512L264.356 109.189L263.317 109.337L260.442 104.261L261.403 104.124L263.729 108.438ZM271.838 105.171C271.862 105.341 271.878 105.522 271.885 105.715L267.588 106.327C267.696 106.852 267.935 107.242 268.305 107.496C268.68 107.743 269.104 107.833 269.575 107.765C269.96 107.711 270.268 107.577 270.498 107.364C270.734 107.143 270.883 106.875 270.944 106.559L271.906 106.422C271.835 106.96 271.608 107.423 271.223 107.811C270.837 108.193 270.323 108.43 269.682 108.521C269.172 108.594 268.698 108.544 268.26 108.373C267.828 108.201 267.468 107.922 267.18 107.536C266.89 107.143 266.706 106.669 266.627 106.113C266.547 105.557 266.589 105.054 266.752 104.604C266.915 104.154 267.18 103.789 267.547 103.51C267.92 103.223 268.368 103.042 268.891 102.968C269.402 102.895 269.869 102.942 270.293 103.109C270.717 103.275 271.062 103.54 271.327 103.902C271.597 104.258 271.768 104.68 271.838 105.171ZM270.889 105.116C270.84 104.776 270.724 104.495 270.539 104.275C270.353 104.048 270.12 103.891 269.841 103.804C269.567 103.709 269.274 103.684 268.96 103.729C268.508 103.793 268.143 103.992 267.863 104.325C267.591 104.658 267.467 105.083 267.494 105.599L270.889 105.116ZM277.571 102.573L276.443 102.733L277.103 107.374L276.211 107.501L275.55 102.861L274.853 102.96L274.748 102.224L275.445 102.125L275.391 101.742C275.305 101.14 275.396 100.68 275.664 100.362C275.938 100.036 276.419 99.824 277.105 99.7262L277.212 100.472C276.819 100.528 276.552 100.646 276.411 100.826C276.276 100.999 276.233 101.262 276.283 101.615L276.338 101.998L277.466 101.837L277.571 102.573ZM283.275 101.01L284.041 106.386L283.148 106.513L283.035 105.719C282.904 106.017 282.696 106.267 282.411 106.468C282.131 106.661 281.809 106.784 281.442 106.836C281.024 106.896 280.635 106.864 280.278 106.742C279.919 106.613 279.617 106.389 279.371 106.07C279.132 105.75 278.977 105.342 278.906 104.845L278.458 101.696L279.341 101.57L279.773 104.602C279.848 105.131 280.04 105.521 280.35 105.771C280.658 106.014 281.044 106.102 281.508 106.036C281.986 105.968 282.341 105.767 282.574 105.434C282.807 105.1 282.883 104.652 282.803 104.09L282.382 101.137L283.275 101.01ZM285.407 98.7842L286.441 106.044L285.548 106.171L284.514 98.9114L285.407 98.7842ZM287.822 98.4404L288.855 105.7L287.963 105.828L286.929 98.5675L287.822 98.4404ZM292.275 102.461C292.196 101.905 292.238 101.405 292.402 100.961C292.564 100.511 292.826 100.143 293.186 99.8587C293.552 99.573 293.99 99.3938 294.5 99.3211C295.161 99.227 295.727 99.31 296.197 99.5699C296.675 99.8289 297.023 100.233 297.241 100.783L296.279 100.92C296.141 100.606 295.925 100.373 295.63 100.221C295.341 100.069 295 100.021 294.608 100.077C294.098 100.149 293.711 100.384 293.447 100.782C293.183 101.174 293.096 101.69 293.187 102.331C293.279 102.978 293.508 103.456 293.872 103.765C294.236 104.073 294.673 104.191 295.184 104.119C295.576 104.063 295.89 103.925 296.125 103.704C296.361 103.484 296.504 103.197 296.553 102.843L297.515 102.706C297.449 103.275 297.224 103.758 296.84 104.153C296.455 104.542 295.939 104.782 295.291 104.874C294.781 104.947 294.31 104.897 293.878 104.725C293.453 104.552 293.1 104.272 292.818 103.885C292.536 103.498 292.355 103.023 292.275 102.461ZM301.309 104.017C300.806 104.089 300.332 104.04 299.887 103.869C299.449 103.698 299.082 103.42 298.787 103.035C298.498 102.642 298.313 102.168 298.234 101.612C298.156 101.063 298.205 100.562 298.381 100.11C298.562 99.6503 298.843 99.2799 299.223 98.9989C299.603 98.7113 300.048 98.5312 300.558 98.4585C301.068 98.3859 301.545 98.4347 301.99 98.6049C302.434 98.7686 302.803 99.043 303.098 99.428C303.4 99.8122 303.59 100.282 303.669 100.838C303.749 101.394 303.694 101.902 303.506 102.363C303.324 102.816 303.04 103.187 302.654 103.475C302.268 103.764 301.819 103.944 301.309 104.017ZM301.198 103.232C301.518 103.187 301.808 103.068 302.068 102.878C302.328 102.688 302.521 102.43 302.649 102.105C302.782 101.779 302.818 101.4 302.757 100.968C302.696 100.536 302.558 100.182 302.345 99.9056C302.133 99.629 301.878 99.4383 301.583 99.3335C301.287 99.2222 300.979 99.1893 300.658 99.235C300.331 99.2815 300.041 99.3996 299.788 99.5891C299.54 99.7712 299.356 100.024 299.235 100.348C299.115 100.673 299.085 101.051 299.147 101.482C299.209 101.92 299.34 102.279 299.54 102.557C299.746 102.835 299.994 103.03 300.284 103.142C300.572 103.248 300.877 103.278 301.198 103.232ZM307.067 97.5215C307.721 97.4284 308.28 97.5524 308.742 97.8936C309.203 98.2283 309.487 98.7685 309.593 99.5141L310.045 102.683L309.162 102.809L308.729 99.7674C308.652 99.2311 308.46 98.8414 308.152 98.5983C307.843 98.3487 307.456 98.257 306.991 98.3231C306.52 98.3902 306.165 98.5909 305.926 98.9253C305.693 99.2587 305.617 99.7067 305.697 100.269L306.12 103.242L305.227 103.369L304.462 97.9926L305.355 97.8655L305.464 98.6308C305.601 98.3309 305.81 98.0843 306.089 97.8911C306.375 97.6968 306.701 97.5737 307.067 97.5215ZM311.931 97.6797L312.382 100.849C312.42 101.11 312.502 101.289 312.629 101.384C312.755 101.473 312.955 101.498 313.23 101.459L313.887 101.365L313.995 102.12L313.19 102.235C312.693 102.306 312.304 102.244 312.023 102.051C311.742 101.857 311.564 101.499 311.49 100.976L311.038 97.8069L310.342 97.9061L310.237 97.1702L310.934 97.071L310.741 95.7171L311.634 95.59L311.826 96.9439L313.229 96.7441L313.334 97.4799L311.931 97.6797ZM315.328 97.3361C315.441 97.0063 315.63 96.7359 315.893 96.5249C316.163 96.3129 316.508 96.1772 316.926 96.1175L317.058 97.0398L316.822 97.0733C315.822 97.2158 315.399 97.8299 315.553 98.9157L315.969 101.839L315.077 101.966L314.311 96.5901L315.204 96.4629L315.328 97.3361ZM321.094 101.2C320.59 101.271 320.116 101.222 319.672 101.052C319.233 100.881 318.867 100.603 318.572 100.218C318.282 99.825 318.098 99.3507 318.019 98.7948C317.941 98.2454 317.989 97.7446 318.165 97.2925C318.347 96.8329 318.628 96.4625 319.008 96.1815C319.388 95.8939 319.832 95.7137 320.342 95.6411C320.853 95.5684 321.33 95.6172 321.775 95.7875C322.218 95.9512 322.588 96.2256 322.883 96.6106C323.185 96.9948 323.375 97.4648 323.454 98.0208C323.533 98.5767 323.479 99.085 323.291 99.5455C323.108 99.9986 322.824 100.369 322.438 100.658C322.052 100.946 321.604 101.127 321.094 101.2ZM320.982 100.415C321.303 100.369 321.593 100.251 321.853 100.061C322.113 99.8701 322.306 99.6123 322.433 99.2872C322.567 98.9612 322.603 98.5824 322.542 98.1507C322.48 97.719 322.343 97.3649 322.13 97.0882C321.917 96.8116 321.663 96.6208 321.368 96.5161C321.072 96.4047 320.764 96.3719 320.443 96.4176C320.116 96.4641 319.826 96.5822 319.573 96.7717C319.325 96.9538 319.141 97.2069 319.02 97.5311C318.899 97.8552 318.87 98.2332 318.931 98.6648C318.994 99.1031 319.125 99.4614 319.325 99.7399C319.531 100.018 319.779 100.212 320.069 100.325C320.357 100.43 320.662 100.46 320.982 100.415ZM324.871 93.1644L325.905 100.424L325.012 100.552L323.978 93.2915L324.871 93.1644ZM336.439 93.439L335.526 99.0543L334.604 99.1857L332.701 95.1023L332.014 99.5545L331.092 99.6858L328.639 94.5497L329.551 94.4198L331.43 98.7568L332.122 94.0538L333.034 93.9238L334.983 98.2609L335.556 93.5648L336.439 93.439ZM339.979 92.8347C340.385 92.777 340.764 92.8131 341.116 92.9432C341.467 93.0667 341.759 93.2887 341.991 93.6093C342.23 93.9289 342.385 94.3373 342.456 94.8343L342.907 98.0033L342.024 98.129L341.591 95.0876C341.515 94.5513 341.323 94.1616 341.014 93.9185C340.705 93.6689 340.318 93.5772 339.854 93.6433C339.383 93.7104 339.028 93.9111 338.789 94.2455C338.556 94.5789 338.48 95.0269 338.56 95.5894L338.983 98.5621L338.09 98.6892L337.056 91.4292L337.949 91.302L338.326 93.951C338.464 93.6511 338.676 93.4041 338.962 93.2099C339.254 93.0147 339.593 92.8897 339.979 92.8347ZM348.859 94.2028C348.883 94.3729 348.899 94.5541 348.906 94.7466L344.609 95.3585C344.717 95.8837 344.956 96.2734 345.326 96.5277C345.702 96.7745 346.125 96.8644 346.596 96.7973C346.982 96.7424 347.29 96.6084 347.52 96.3955C347.755 96.1751 347.904 95.907 347.966 95.5913L348.927 95.4544C348.857 95.9916 348.629 96.4544 348.244 96.8429C347.858 97.2249 347.344 97.4615 346.703 97.5528C346.193 97.6254 345.719 97.5762 345.281 97.405C344.849 97.2329 344.489 96.9538 344.201 96.5678C343.911 96.1753 343.727 95.701 343.648 95.1451C343.569 94.5891 343.611 94.086 343.773 93.6358C343.936 93.1855 344.201 92.8208 344.568 92.5416C344.941 92.2549 345.389 92.0743 345.913 91.9998C346.423 91.9271 346.89 91.9741 347.314 92.1406C347.738 92.3071 348.083 92.5716 348.348 92.9343C348.619 93.2894 348.789 93.7123 348.859 94.2028ZM347.91 94.1477C347.862 93.8076 347.745 93.5273 347.56 93.3067C347.374 93.0796 347.142 92.9225 346.863 92.8355C346.589 92.741 346.295 92.7161 345.981 92.7608C345.53 92.8251 345.164 93.0239 344.885 93.3574C344.612 93.6899 344.489 94.1144 344.516 94.6311L347.91 94.1477ZM352.29 91.0817C352.944 90.9886 353.502 91.1126 353.964 91.4538C354.426 91.7885 354.709 92.3287 354.815 93.0743L355.267 96.2432L354.384 96.369L353.951 93.3276C353.874 92.7913 353.682 92.4016 353.374 92.1585C353.065 91.9089 352.678 91.8172 352.213 91.8833C351.743 91.9504 351.387 92.1511 351.148 92.4855C350.915 92.8189 350.839 93.2669 350.919 93.8294L351.342 96.8021L350.45 96.9292L349.684 91.5528L350.577 91.4257L350.686 92.191C350.823 91.8911 351.032 91.6445 351.311 91.4513C351.597 91.257 351.923 91.1339 352.29 91.0817ZM358.623 93.0126C358.544 92.4566 358.586 91.9568 358.75 91.5131C358.913 91.0628 359.174 90.6953 359.534 90.4105C359.9 90.1247 360.338 89.9455 360.848 89.8729C361.509 89.7788 362.075 89.8617 362.546 90.1217C363.023 90.3807 363.371 90.785 363.589 91.3344L362.628 91.4713C362.49 91.1574 362.273 90.9246 361.978 90.7731C361.689 90.6207 361.349 90.5724 360.956 90.6283C360.446 90.701 360.059 90.9362 359.795 91.3341C359.531 91.7255 359.444 92.2417 359.535 92.8827C359.628 93.5302 359.856 94.0082 360.22 94.3167C360.584 94.6251 361.022 94.7431 361.532 94.6704C361.924 94.6145 362.238 94.4764 362.474 94.256C362.709 94.0356 362.852 93.7484 362.901 93.3943L363.863 93.2574C363.797 93.8273 363.572 94.3097 363.188 94.7048C362.803 95.0933 362.287 95.3336 361.639 95.4259C361.129 95.4985 360.658 95.4488 360.227 95.2767C359.802 95.1036 359.448 94.8237 359.166 94.4367C358.884 94.0498 358.703 93.5751 358.623 93.0126ZM365.552 90.1841C365.665 89.8543 365.853 89.5839 366.117 89.3729C366.387 89.1609 366.731 89.0251 367.15 88.9655L367.281 89.8878L367.046 89.9213C366.045 90.0638 365.622 90.6779 365.777 91.7637L366.193 94.6873L365.3 94.8144L364.534 89.4381L365.427 89.3109L365.552 90.1841ZM373.453 90.7005C373.478 90.8705 373.493 91.0518 373.501 91.2443L369.204 91.8562C369.312 92.3813 369.551 92.7711 369.921 93.0254C370.296 93.2722 370.719 93.3621 371.19 93.295C371.576 93.2401 371.884 93.1061 372.114 92.8932C372.349 92.6728 372.498 92.4047 372.56 92.0889L373.521 91.952C373.451 92.4892 373.223 92.9521 372.838 93.3406C372.452 93.7225 371.939 93.9592 371.298 94.0504C370.788 94.1231 370.313 94.0738 369.875 93.9027C369.444 93.7306 369.084 93.4515 368.795 93.0655C368.506 92.673 368.321 92.1987 368.242 91.6428C368.163 91.0868 368.205 90.5837 368.368 90.1334C368.53 89.6832 368.795 89.3184 369.163 89.0392C369.536 88.7526 369.984 88.572 370.507 88.4975C371.017 88.4248 371.484 88.4717 371.908 88.6382C372.333 88.8047 372.677 89.0693 372.942 89.4319C373.213 89.7871 373.383 90.2099 373.453 90.7005ZM372.505 90.6454C372.456 90.3053 372.339 90.025 372.155 89.8044C371.969 89.5773 371.736 89.4202 371.457 89.3332C371.183 89.2387 370.889 89.2138 370.575 89.2585C370.124 89.3228 369.759 89.5216 369.479 89.855C369.206 90.1875 369.083 90.6121 369.11 91.1288L372.505 90.6454ZM374.325 90.7666C374.247 90.2172 374.289 89.7206 374.453 89.2769C374.616 88.8266 374.874 88.4595 375.227 88.1757C375.587 87.8909 376.006 87.7145 376.483 87.6465C376.954 87.5794 377.377 87.6226 377.753 87.776C378.128 87.9294 378.423 88.1477 378.637 88.4308L378.497 87.4498L379.4 87.3212L380.165 92.6976L379.263 92.8261L379.12 91.8254C378.988 92.1645 378.761 92.4639 378.437 92.7235C378.119 92.9756 377.728 93.1347 377.264 93.2008C376.787 93.2688 376.338 93.2126 375.919 93.0321C375.499 92.8516 375.148 92.5646 374.865 92.1711C374.582 91.7776 374.402 91.3095 374.325 90.7666ZM378.878 90.1281C378.821 89.7226 378.689 89.3811 378.482 89.1035C378.276 88.8259 378.021 88.6286 377.717 88.5117C377.419 88.3873 377.104 88.3489 376.77 88.3964C376.436 88.4439 376.143 88.5657 375.891 88.7618C375.639 88.9579 375.452 89.218 375.332 89.5421C375.211 89.8663 375.179 90.2311 375.237 90.6367C375.296 91.0487 375.429 91.3968 375.636 91.6809C375.842 91.9585 376.095 92.1595 376.393 92.2839C376.69 92.4017 377.005 92.4369 377.339 92.3894C377.672 92.3419 377.965 92.2201 378.217 92.024C378.475 91.8205 378.665 91.5566 378.785 91.2324C378.905 90.9018 378.936 90.5337 378.878 90.1281ZM382.102 87.6871L382.553 90.856C382.591 91.1177 382.673 91.2961 382.8 91.3915C382.926 91.4803 383.126 91.5052 383.401 91.466L384.058 91.3724L384.166 92.1279L383.361 92.2424C382.864 92.3132 382.475 92.2519 382.194 92.0583C381.913 91.8648 381.735 91.5064 381.661 90.9832L381.209 87.8142L380.513 87.9134L380.408 87.1776L381.105 87.0784L380.912 85.7245L381.805 85.5974L381.997 86.9513L383.4 86.7515L383.505 87.4873L382.102 87.6871ZM384.819 85.6586C384.649 85.6828 384.496 85.6445 384.362 85.5435C384.227 85.4425 384.148 85.307 384.124 85.137C384.1 84.9669 384.138 84.8146 384.239 84.6801C384.34 84.5457 384.476 84.4663 384.646 84.4421C384.809 84.4188 384.955 84.4581 385.083 84.56C385.217 84.661 385.297 84.7965 385.321 84.9665C385.345 85.1366 385.307 85.2889 385.206 85.4234C385.111 85.5569 384.982 85.6353 384.819 85.6586ZM385.375 86.4703L386.14 91.8467L385.248 91.9738L384.482 86.5975L385.375 86.4703ZM389.502 85.7825C390.156 85.6894 390.714 85.8134 391.177 86.1546C391.638 86.4893 391.922 87.0295 392.028 87.7751L392.479 90.944L391.596 91.0698L391.163 88.0284C391.087 87.4921 390.894 87.1024 390.586 86.8593C390.277 86.6097 389.89 86.518 389.426 86.5841C388.955 86.6512 388.6 86.8519 388.361 87.1863C388.128 87.5197 388.051 87.9677 388.132 88.5302L388.555 91.5029L387.662 91.63L386.896 86.2536L387.789 86.1265L387.898 86.8918C388.036 86.5919 388.244 86.3453 388.524 86.1521C388.81 85.9579 389.136 85.8347 389.502 85.7825ZM395.377 84.9559C395.841 84.8898 396.261 84.9334 396.637 85.0868C397.019 85.2393 397.317 85.4571 397.53 85.7403L397.391 84.7592L398.293 84.6307L399.076 90.1248C399.146 90.6153 399.103 91.0652 398.948 91.4744C398.793 91.8901 398.535 92.2338 398.173 92.5055C397.818 92.7763 397.382 92.9485 396.866 93.0221C396.159 93.1226 395.547 93.0397 395.028 92.7732C394.51 92.5067 394.167 92.0917 394 91.5282L394.883 91.4025C395.028 91.7155 395.268 91.9483 395.603 92.1007C395.94 92.2597 396.324 92.3085 396.755 92.247C397.246 92.1771 397.623 91.9666 397.887 91.6154C398.157 91.2633 398.252 90.8093 398.173 90.2533L398.012 89.1251C397.88 89.4642 397.656 89.7631 397.339 90.0217C397.022 90.2804 396.632 90.4428 396.167 90.5089C395.69 90.5769 395.238 90.5211 394.812 90.3415C394.393 90.161 394.042 89.874 393.759 89.4806C393.476 89.0871 393.296 88.6189 393.218 88.0761C393.14 87.5266 393.183 87.0301 393.347 86.5864C393.509 86.1361 393.767 85.769 394.121 85.4851C394.481 85.2003 394.899 85.0239 395.377 84.9559ZM397.772 87.4376C397.714 87.0321 397.582 86.6905 397.376 86.413C397.17 86.1354 396.915 85.9381 396.611 85.8212C396.313 85.6968 395.997 85.6584 395.664 85.7059C395.33 85.7534 395.037 85.8752 394.785 86.0712C394.532 86.2673 394.346 86.5275 394.225 86.8516C394.105 87.1758 394.073 87.5406 394.131 87.9461C394.19 88.3582 394.322 88.7063 394.53 88.9904C394.736 89.268 394.988 89.469 395.286 89.5934C395.583 89.7112 395.899 89.7464 396.232 89.6989C396.566 89.6514 396.859 89.5296 397.111 89.3335C397.369 89.1299 397.558 88.8661 397.679 88.5419C397.799 88.2112 397.83 87.8431 397.772 87.4376ZM254.402 120.273L252.29 128.641L251.368 128.773L252.059 126.032L249.133 121.023L250.124 120.882L252.432 124.998L253.48 120.404L254.402 120.273ZM258.422 125.276C257.919 125.347 257.445 125.298 257 125.128C256.562 124.957 256.195 124.679 255.9 124.294C255.611 123.901 255.426 123.427 255.347 122.871C255.269 122.321 255.318 121.821 255.494 121.368C255.675 120.909 255.956 120.539 256.336 120.257C256.716 119.97 257.161 119.79 257.671 119.717C258.181 119.644 258.658 119.693 259.103 119.864C259.547 120.027 259.916 120.302 260.211 120.687C260.513 121.071 260.703 121.541 260.782 122.097C260.862 122.653 260.807 123.161 260.619 123.622C260.437 124.075 260.153 124.445 259.767 124.734C259.381 125.022 258.932 125.203 258.422 125.276ZM258.311 124.491C258.631 124.445 258.921 124.327 259.181 124.137C259.441 123.946 259.634 123.688 259.762 123.363C259.895 123.037 259.931 122.658 259.87 122.227C259.808 121.795 259.671 121.441 259.458 121.164C259.245 120.888 258.991 120.697 258.696 120.592C258.4 120.481 258.092 120.448 257.771 120.494C257.444 120.54 257.154 120.658 256.901 120.848C256.653 121.03 256.469 121.283 256.348 121.607C256.228 121.931 256.198 122.309 256.26 122.741C256.322 123.179 256.453 123.537 256.653 123.816C256.859 124.094 257.107 124.288 257.397 124.401C257.685 124.506 257.99 124.536 258.311 124.491ZM266.343 118.572L267.109 123.949L266.216 124.076L266.103 123.281C265.972 123.58 265.764 123.83 265.479 124.031C265.199 124.224 264.876 124.347 264.51 124.399C264.091 124.458 263.703 124.427 263.345 124.304C262.987 124.175 262.685 123.951 262.439 123.633C262.2 123.313 262.045 122.905 261.974 122.408L261.526 119.258L262.409 119.132L262.84 122.164C262.916 122.694 263.108 123.084 263.417 123.333C263.726 123.576 264.112 123.665 264.576 123.599C265.054 123.531 265.409 123.33 265.642 122.996C265.874 122.663 265.951 122.215 265.871 121.652L265.45 118.699L266.343 118.572ZM268.867 119.104C268.981 118.774 269.169 118.503 269.433 118.292C269.703 118.08 270.047 117.945 270.466 117.885L270.597 118.807L270.362 118.841C269.361 118.983 268.938 119.597 269.092 120.683L269.509 123.607L268.616 123.734L267.85 118.358L268.743 118.23L268.867 119.104ZM276.807 122.658C276.395 122.716 276.016 122.7 275.669 122.609C275.322 122.512 275.036 122.353 274.811 122.131C274.585 121.903 274.438 121.627 274.372 121.303L275.294 121.171C275.359 121.436 275.514 121.637 275.761 121.776C276.014 121.913 276.324 121.956 276.69 121.904C277.03 121.855 277.288 121.742 277.462 121.563C277.637 121.385 277.708 121.181 277.676 120.952C277.642 120.717 277.513 120.558 277.288 120.477C277.062 120.389 276.722 120.321 276.267 120.272C275.854 120.224 275.512 120.166 275.242 120.098C274.977 120.022 274.739 119.892 274.526 119.709C274.318 119.519 274.19 119.25 274.141 118.903C274.102 118.629 274.147 118.365 274.278 118.113C274.409 117.861 274.616 117.648 274.898 117.474C275.179 117.294 275.513 117.176 275.899 117.121C276.494 117.037 276.996 117.119 277.405 117.367C277.814 117.616 278.069 118 278.17 118.52L277.277 118.647C277.218 118.368 277.071 118.159 276.837 118.019C276.61 117.878 276.324 117.832 275.977 117.881C275.657 117.927 275.411 118.032 275.241 118.196C275.071 118.36 275.002 118.554 275.033 118.776C275.059 118.953 275.135 119.092 275.263 119.194C275.397 119.288 275.554 119.359 275.734 119.407C275.92 119.447 276.173 119.488 276.492 119.529C276.893 119.579 277.222 119.639 277.479 119.709C277.735 119.773 277.962 119.894 278.161 120.072C278.366 120.25 278.496 120.502 278.549 120.828C278.591 121.122 278.547 121.399 278.417 121.658C278.287 121.916 278.081 122.136 277.8 122.316C277.524 122.489 277.193 122.603 276.807 122.658ZM284.02 116.055L284.785 121.431L283.893 121.559L283.779 120.764C283.649 121.063 283.441 121.313 283.155 121.513C282.876 121.707 282.553 121.829 282.187 121.881C281.768 121.941 281.38 121.91 281.022 121.787C280.664 121.658 280.361 121.434 280.116 121.115C279.877 120.796 279.722 120.387 279.651 119.89L279.203 116.741L280.086 116.615L280.517 119.647C280.593 120.177 280.785 120.566 281.094 120.816C281.402 121.059 281.789 121.147 282.253 121.081C282.731 121.013 283.086 120.813 283.318 120.479C283.551 120.146 283.628 119.698 283.548 119.135L283.127 116.182L284.02 116.055ZM286.544 116.586C286.658 116.257 286.846 115.986 287.109 115.775C287.38 115.563 287.724 115.427 288.143 115.368L288.274 116.29L288.038 116.324C287.038 116.466 286.615 117.08 286.769 118.166L287.186 121.09L286.293 121.217L285.527 115.84L286.42 115.713L286.544 116.586ZM291.837 119.586L292.856 114.797L293.808 114.661L292.464 120.338L291.424 120.486L288.549 115.41L289.511 115.273L291.837 119.586ZM299.946 116.32C299.97 116.49 299.986 116.671 299.993 116.863L295.696 117.475C295.804 118 296.043 118.39 296.413 118.644C296.788 118.891 297.211 118.981 297.682 118.914C298.068 118.859 298.376 118.725 298.606 118.512C298.842 118.292 298.99 118.024 299.052 117.708L300.014 117.571C299.943 118.108 299.716 118.571 299.331 118.96C298.944 119.342 298.431 119.578 297.79 119.67C297.28 119.742 296.806 119.693 296.368 119.522C295.936 119.35 295.576 119.071 295.287 118.685C294.998 118.292 294.814 117.818 294.734 117.262C294.655 116.706 294.697 116.203 294.86 115.753C295.023 115.302 295.288 114.938 295.655 114.658C296.028 114.372 296.476 114.191 296.999 114.117C297.509 114.044 297.977 114.091 298.401 114.257C298.825 114.424 299.169 114.688 299.435 115.051C299.705 115.406 299.876 115.829 299.946 116.32ZM298.997 116.265C298.948 115.924 298.832 115.644 298.647 115.423C298.461 115.196 298.228 115.039 297.949 114.952C297.675 114.858 297.382 114.833 297.068 114.878C296.616 114.942 296.251 115.141 295.971 115.474C295.698 115.807 295.575 116.231 295.602 116.748L298.997 116.265ZM305.401 113.01L303.29 121.379L302.368 121.51L303.058 118.769L300.133 113.76L301.124 113.619L303.432 117.735L304.479 113.142L305.401 113.01Z" fill="#11002A"/>
<defs>
<linearGradient id="paint0_linear_559_7425" x1="-0.241065" y1="-7.47137" x2="59.4892" y2="52.0036" gradientUnits="userSpaceOnUse">
<stop stop-color="#6100DD"/>
<stop offset="1" stop-color="#6100DD" stop-opacity="0"/>
</linearGradient>
<linearGradient id="paint1_linear_559_7425" x1="211.938" y1="12.5975" x2="271.669" y2="72.0725" gradientUnits="userSpaceOnUse">
<stop stop-color="#6100DD"/>
<stop offset="1" stop-color="#6100DD" stop-opacity="0"/>
</linearGradient>
<clipPath id="clip0_559_7425">
<rect width="20.4206" height="20.4206" fill="white" transform="translate(245.614 42.8379) rotate(-8.10464)"/>
</clipPath>
</defs>
</svg>
