<svg width="48" height="48" viewBox="0 0 48 48" fill="none" xmlns="http://www.w3.org/2000/svg">
<rect x="0.248047" y="0.00585938" width="47.5168" height="47.5168" rx="9.50336" fill="#6200EE"/>
<path d="M24.0065 28.218C26.4667 28.218 28.4612 26.2236 28.4612 23.7633C28.4612 21.303 26.4667 19.3086 24.0065 19.3086C21.5462 19.3086 19.5518 21.303 19.5518 23.7633C19.5518 26.2236 21.5462 28.218 24.0065 28.218Z" fill="white"/>
<path d="M22.0271 24.5064H14.1077C13.7018 24.5064 13.3652 24.1698 13.3652 23.7639C13.3652 23.3581 13.7018 23.0215 14.1077 23.0215H22.0271C22.433 23.0215 22.7696 23.3581 22.7696 23.7639C22.7696 24.1698 22.433 24.5064 22.0271 24.5064Z" fill="white"/>
<path d="M33.9061 24.5064H25.9866C25.5807 24.5064 25.2441 24.1698 25.2441 23.7639C25.2441 23.3581 25.5807 23.0215 25.9866 23.0215H33.9061C34.3119 23.0215 34.6485 23.3581 34.6485 23.7639C34.6485 24.1698 34.3119 24.5064 33.9061 24.5064Z" fill="white"/>
</svg>
