<svg width="264" height="195" viewBox="0 0 264 195" fill="none" xmlns="http://www.w3.org/2000/svg">
<rect y="21.208" width="377.57" height="192.21" rx="8.11934" transform="rotate(-3.22 0 21.208)" fill="white"/>
<path d="M21.9332 43.8296L21.867 42.6531L24.065 42.5294L24.4391 49.1781L23.1258 49.252L22.8179 43.7798L21.9332 43.8296ZM26.4155 49.131C26.1844 49.144 25.989 49.0848 25.8291 48.9535C25.6749 48.8158 25.5919 48.6406 25.5799 48.4278C25.5679 48.215 25.631 48.0345 25.769 47.8865C25.9128 47.732 26.1003 47.6483 26.3313 47.6353C26.5563 47.6226 26.7458 47.6851 26.9 47.8228C27.0538 47.9545 27.1366 48.1267 27.1486 48.3395C27.1606 48.5523 27.0977 48.7358 26.96 48.8899C26.8219 49.038 26.6404 49.1183 26.4155 49.131ZM29.1923 43.5584L29.282 45.1545L31.4253 45.0339L31.4823 46.0463L29.339 46.1669L29.4339 47.8541L31.8508 47.7181L31.9093 48.7579L28.2156 48.9657L27.8569 42.5905L31.5507 42.3827L31.6091 43.4225L29.1923 43.5584ZM35.5813 43.4094C36.1832 43.3756 36.6804 43.5397 37.0728 43.9019C37.4649 44.258 37.6801 44.7766 37.7185 45.4576L37.8852 48.4217L36.6084 48.4935L36.4514 45.7027C36.4288 45.3014 36.3112 45 36.0986 44.7985C35.8856 44.5909 35.6058 44.4968 35.2593 44.5163C34.9066 44.5361 34.6331 44.6613 34.4387 44.8918C34.25 45.1159 34.1669 45.4286 34.1895 45.8299L34.3465 48.6208L33.0697 48.6926L32.7854 43.6399L34.0623 43.5681L34.0977 44.1974C34.2556 43.9689 34.4619 43.7865 34.7165 43.6502C34.9768 43.5075 35.2651 43.4272 35.5813 43.4094ZM40.3608 44.2659L40.4983 46.7101C40.5079 46.8804 40.5544 47.0028 40.6379 47.0774C40.7271 47.1456 40.869 47.1742 41.0636 47.1633L41.6564 47.1299L41.717 48.2061L40.9144 48.2513C39.8382 48.3118 39.2707 47.8192 39.2118 46.7734L39.0748 44.3382L38.4729 44.3721L38.4139 43.3233L39.0158 43.2894L38.9455 42.0399L40.2315 41.9676L40.3018 43.217L41.4327 43.1534L41.4917 44.2023L40.3608 44.2659ZM47.1841 45.2544C47.1943 45.4368 47.1914 45.6017 47.1753 45.749L43.4815 45.9568C43.5325 46.3199 43.6762 46.5985 43.9128 46.7925C44.1494 46.9866 44.4319 47.0744 44.7602 47.0559C45.2345 47.0292 45.5605 46.8066 45.7382 46.3879L47.1154 46.3104C46.9968 46.8051 46.7397 47.2221 46.344 47.5615C45.948 47.8949 45.449 48.0785 44.8471 48.1123C44.3607 48.1397 43.9169 48.0579 43.5158 47.867C43.1204 47.6697 42.8022 47.3796 42.5611 46.9967C42.326 46.6134 42.194 46.1634 42.1649 45.6466C42.1355 45.1237 42.2161 44.6586 42.4066 44.2514C42.5972 43.8442 42.878 43.5235 43.2491 43.2891C43.6202 43.0548 44.055 42.9236 44.5536 42.8955C45.0339 42.8685 45.4684 42.9477 45.857 43.1332C46.2517 43.3184 46.5632 43.5967 46.7915 43.9682C47.0255 44.3332 47.1563 44.7619 47.1841 45.2544ZM45.8411 44.964C45.8165 44.636 45.6832 44.3812 45.4413 44.1996C45.1989 44.012 44.9105 43.9276 44.5761 43.9464C44.26 43.9642 43.9979 44.0765 43.79 44.2834C43.5878 44.4839 43.4719 44.7557 43.4424 45.0989L45.8411 44.964ZM49.301 43.4976C49.4502 43.2208 49.6512 42.9991 49.9041 42.8324C50.163 42.6653 50.4628 42.5722 50.8033 42.5531L50.8787 43.8937L50.5412 43.9127C50.1399 43.9353 49.8412 44.0467 49.6451 44.2468C49.4551 44.4465 49.3732 44.7805 49.3996 45.2487L49.5412 47.7659L48.2643 47.8378L47.9801 42.7851L49.2569 42.7132L49.301 43.4976ZM58.9306 48.363L57.8986 47.2591C57.6349 47.3411 57.3631 47.3899 57.0835 47.4056C56.4876 47.4392 55.9325 47.3301 55.4182 47.0785C54.9039 46.8268 54.4869 46.463 54.1674 45.9869C53.8475 45.5047 53.6699 44.9505 53.6347 44.3242C53.5998 43.7041 53.7144 43.1395 53.9786 42.6306C54.2424 42.1156 54.6157 41.7042 55.0985 41.3965C55.5814 41.0887 56.1207 40.9181 56.7166 40.8846C57.3185 40.8507 57.8736 40.9598 58.3819 41.2118C58.8962 41.4634 59.3102 41.8305 59.6241 42.313C59.9436 42.7891 60.1208 43.3372 60.1557 43.9574C60.1875 44.5228 60.095 45.0465 59.8781 45.5284C59.667 46.0038 59.3629 46.3991 58.9659 46.7142L60.5175 48.2738L58.9306 48.363ZM54.948 44.2504C54.972 44.676 55.0751 45.0453 55.2574 45.3583C55.4397 45.6713 55.6817 45.9078 55.9835 46.0677C56.291 46.2212 56.6363 46.2872 57.0193 46.2656C57.4024 46.2441 57.735 46.1399 58.0173 45.9533C58.2992 45.7605 58.5132 45.4984 58.6593 45.1669C58.8053 44.8354 58.8663 44.4569 58.8424 44.0313C58.8185 43.6057 58.7155 43.2394 58.5336 42.9324C58.3513 42.6194 58.1094 42.386 57.808 42.2322C57.5065 42.0783 57.1643 42.0122 56.7812 42.0338C56.3982 42.0553 56.0625 42.1596 55.7741 42.3466C55.4918 42.5333 55.2777 42.7923 55.1317 43.1238C54.9853 43.4492 54.9241 43.8247 54.948 44.2504ZM65.7893 41.7832L66.0735 46.8358L64.7876 46.9082L64.7516 46.2698C64.5998 46.4979 64.3937 46.6833 64.1333 46.826C63.8787 46.9624 63.5964 47.0392 63.2863 47.0567C62.8911 47.0789 62.5368 47.0165 62.2236 46.8694C61.91 46.7163 61.656 46.4836 61.4615 46.1712C61.2728 45.8525 61.1658 45.4681 61.1405 45.0182L60.9737 42.0541L62.2506 41.9822L62.4071 44.7639C62.4296 45.1652 62.5474 45.4697 62.7604 45.6773C62.973 45.8788 63.2526 45.9698 63.5992 45.9503C63.9518 45.9305 64.2225 45.8085 64.4112 45.5844C64.5995 45.3542 64.6824 45.0385 64.6598 44.6372L64.5033 41.8555L65.7893 41.7832ZM71.8821 43.8649C71.8923 44.0473 71.8894 44.2122 71.8733 44.3595L68.1795 44.5673C68.2305 44.9304 68.3742 45.209 68.6108 45.403C68.8474 45.5971 69.1299 45.6849 69.4582 45.6664C69.9325 45.6398 70.2585 45.4171 70.4362 44.9984L71.8134 44.9209C71.6948 45.4156 71.4377 45.8326 71.042 46.172C70.646 46.5054 70.147 46.689 69.5451 46.7229C69.0587 46.7502 68.6149 46.6685 68.2138 46.4775C67.8184 46.2802 67.5002 45.9901 67.2591 45.6072C67.024 45.2239 66.892 44.7739 66.8629 44.2571C66.8335 43.7342 66.9141 43.2691 67.1046 42.862C67.2952 42.4548 67.576 42.134 67.9471 41.8996C68.3182 41.6653 68.753 41.5341 69.2516 41.506C69.7319 41.479 70.1664 41.5582 70.555 41.7438C70.9497 41.9289 71.2612 42.2072 71.4895 42.5787C71.7235 42.9437 71.8543 43.3724 71.8821 43.8649ZM70.5391 43.5745C70.5145 43.2465 70.3813 42.9917 70.1393 42.8102C69.8969 42.6225 69.6085 42.5381 69.2741 42.5569C68.958 42.5747 68.6959 42.687 68.488 42.8939C68.2858 43.0944 68.1699 43.3662 68.1404 43.7095L70.5391 43.5745ZM74.9005 46.4216C74.487 46.4448 74.112 46.3927 73.7755 46.2653C73.4386 46.1318 73.1657 45.9428 72.9567 45.6984C72.7539 45.4536 72.6346 45.1767 72.5989 44.8676L73.8849 44.7953C73.9202 44.9885 74.0235 45.1443 74.1948 45.2627C74.3722 45.3808 74.5856 45.4329 74.8349 45.4189C75.0781 45.4052 75.2639 45.3459 75.3921 45.2411C75.5265 45.136 75.5894 45.0074 75.5809 44.8554C75.5716 44.6912 75.4797 44.5744 75.305 44.5049C75.136 44.429 74.8664 44.3527 74.4961 44.276C74.114 44.206 73.7986 44.1292 73.5499 44.0456C73.3073 43.9616 73.0922 43.8243 72.9046 43.6336C72.7231 43.4425 72.6227 43.1767 72.6036 42.8362C72.5878 42.5565 72.6525 42.2967 72.7976 42.0568C72.9488 41.8165 73.1696 41.6211 73.46 41.4705C73.7565 41.3197 74.1084 41.2328 74.5158 41.2099C75.1177 41.176 75.6066 41.301 75.9824 41.5848C76.3579 41.8626 76.5783 42.2558 76.6435 42.7645L75.4214 42.8332C75.3918 42.6336 75.2978 42.4803 75.1393 42.3733C74.9866 42.2599 74.7855 42.2103 74.5362 42.2243C74.3052 42.2373 74.1282 42.2899 74.0053 42.3822C73.8885 42.4742 73.8344 42.5962 73.8429 42.7482C73.8525 42.9184 73.945 43.0444 74.1204 43.126C74.2954 43.2015 74.5648 43.2748 74.9287 43.3459C75.2986 43.4165 75.6049 43.4938 75.8475 43.5778C76.0901 43.6617 76.3024 43.8023 76.4842 43.9994C76.6719 44.1902 76.7781 44.4526 76.803 44.7866C76.8194 45.0785 76.7521 45.3445 76.6009 45.5848C76.4558 45.8248 76.235 46.0202 75.9385 46.171C75.6478 46.3155 75.3018 46.399 74.9005 46.4216ZM79.1936 42.0812L79.3311 44.5255C79.3407 44.6957 79.3872 44.8181 79.4707 44.8927C79.5599 44.9609 79.7018 44.9895 79.8964 44.9786L80.4892 44.9452L80.5497 46.0214L79.7472 46.0666C78.671 46.1271 78.1034 45.6345 78.0446 44.5887L77.9076 42.1535L77.3057 42.1874L77.2467 41.1386L77.8486 41.1047L77.7783 39.8552L79.0643 39.7829L79.1346 41.0324L80.2655 40.9687L80.3245 42.0176L79.1936 42.0812ZM81.7975 40.2787C81.5726 40.2914 81.3802 40.232 81.2203 40.1007C81.0662 39.963 80.9831 39.7878 80.9711 39.575C80.9592 39.3621 81.0222 39.1817 81.1603 39.0337C81.304 38.8792 81.4884 38.7956 81.7134 38.783C81.9384 38.7703 82.1279 38.8328 82.2821 38.9705C82.4419 39.1018 82.5279 39.2739 82.5398 39.4867C82.5518 39.6995 82.4859 39.8832 82.3421 40.0376C82.204 40.1857 82.0225 40.266 81.7975 40.2787ZM82.4607 40.8452L82.745 45.8979L81.4681 45.9697L81.1839 40.9171L82.4607 40.8452ZM86.2547 45.7828C85.7683 45.8102 85.3246 45.7284 84.9234 45.5375C84.522 45.3405 84.1977 45.0507 83.9505 44.6681C83.7093 44.2852 83.5742 43.8354 83.5452 43.3186C83.5161 42.8017 83.6029 42.3394 83.8057 41.9315C84.0145 41.5233 84.3105 41.2017 84.6937 40.9666C85.0766 40.7255 85.5113 40.5913 85.9977 40.5639C86.4841 40.5365 86.9311 40.6212 87.3386 40.8178C87.7458 41.0084 88.073 41.295 88.3202 41.6775C88.5735 42.0598 88.7147 42.5093 88.7438 43.0261C88.7728 43.5429 88.6799 44.0056 88.465 44.4142C88.2562 44.8224 87.9573 45.1472 87.5683 45.3887C87.1851 45.6237 86.7472 45.7551 86.2547 45.7828ZM86.1921 44.6701C86.4232 44.6571 86.636 44.5903 86.8304 44.4695C87.0307 44.3424 87.1853 44.1629 87.2942 43.9311C87.4032 43.6993 87.4486 43.4222 87.4304 43.1C87.4034 42.6196 87.255 42.259 86.9853 42.018C86.7213 41.7705 86.4069 41.6571 86.0421 41.6776C85.6773 41.6981 85.3776 41.8461 85.143 42.1216C84.9141 42.3907 84.8132 42.7654 84.8403 43.2457C84.8673 43.726 85.0067 44.0903 85.2586 44.3384C85.5161 44.5801 85.8273 44.6906 86.1921 44.6701ZM92.3341 40.2166C92.936 40.1827 93.4332 40.3469 93.8257 40.7091C94.2178 41.0652 94.433 41.5837 94.4713 42.2647L94.6381 45.2288L93.3612 45.3007L93.2042 42.5098C93.1816 42.1085 93.064 41.8071 92.8514 41.6056C92.6384 41.398 92.3587 41.304 92.0121 41.3234C91.6595 41.3433 91.3859 41.4685 91.1915 41.699C91.0028 41.9231 90.9198 42.2358 90.9424 42.6371L91.0994 45.4279L89.8225 45.4997L89.5383 40.4471L90.8151 40.3752L90.8505 41.0045C91.0084 40.7761 91.2147 40.5937 91.4693 40.4574C91.7297 40.3146 92.0179 40.2344 92.3341 40.2166ZM102 38.4285L102.058 39.4591L100.361 39.5546L100.661 44.89L99.3844 44.9618L99.0843 39.6264L97.3879 39.7218L97.3299 38.6912L102 38.4285ZM103.619 39.0511C103.394 39.0637 103.201 39.0044 103.041 38.8731C102.887 38.7354 102.804 38.5601 102.792 38.3473C102.78 38.1345 102.843 37.9541 102.981 37.806C103.125 37.6515 103.31 37.568 103.535 37.5553C103.76 37.5427 103.949 37.6052 104.103 37.7429C104.263 37.8742 104.349 38.0463 104.361 38.2591C104.373 38.4719 104.307 38.6555 104.163 38.81C104.025 38.958 103.844 39.0384 103.619 39.0511ZM104.282 39.6176L104.566 44.6703L103.289 44.7421L103.005 39.6894L104.282 39.6176ZM107.089 40.5118L107.227 42.9561C107.236 43.1263 107.283 43.2488 107.366 43.3234C107.455 43.3915 107.597 43.4201 107.792 43.4092L108.385 43.3758L108.445 44.452L107.643 44.4972C106.566 44.5577 105.999 44.0651 105.94 43.0193L105.803 40.5842L105.201 40.618L105.142 39.5692L105.744 39.5353L105.674 38.2859L106.96 38.2135L107.03 39.463L108.161 39.3994L108.22 40.4482L107.089 40.5118ZM110.261 37.5795L110.64 44.3285L109.364 44.4004L108.984 37.6513L110.261 37.5795ZM116.451 41.3575C116.461 41.54 116.458 41.7048 116.442 41.8521L112.748 42.0599C112.799 42.423 112.943 42.7016 113.179 42.8957C113.416 43.0897 113.699 43.1775 114.027 43.1591C114.501 43.1324 114.827 42.9097 115.005 42.491L116.382 42.4136C116.263 42.9082 116.006 43.3252 115.611 43.6647C115.215 43.998 114.716 44.1816 114.114 44.2155C113.627 44.2429 113.184 44.1611 112.782 43.9702C112.387 43.7728 112.069 43.4827 111.828 43.0998C111.593 42.7166 111.461 42.2665 111.432 41.7497C111.402 41.2268 111.483 40.7618 111.673 40.3546C111.864 39.9474 112.145 39.6266 112.516 39.3923C112.887 39.1579 113.322 39.0267 113.82 38.9986C114.301 38.9716 114.735 39.0509 115.124 39.2364C115.518 39.4216 115.83 39.6999 116.058 40.0713C116.292 40.4363 116.423 40.865 116.451 41.3575ZM115.108 41.0671C115.083 40.7391 114.95 40.4844 114.708 40.3028C114.466 40.1151 114.177 40.0307 113.843 40.0495C113.527 40.0673 113.265 40.1797 113.057 40.3865C112.854 40.587 112.739 40.8588 112.709 41.2021L115.108 41.0671Z" fill="#8094AE"/>
<path d="M24.9657 66.4038C25.5048 66.3735 25.9764 66.449 26.3803 66.6302C26.7887 66.8065 27.1075 67.0756 27.3366 67.4375C27.5704 67.7991 27.7016 68.2329 27.73 68.7389C27.7585 69.2449 27.6768 69.6907 27.485 70.0763C27.2977 70.4569 27.011 70.7576 26.6249 70.9786C26.2433 71.1946 25.783 71.3177 25.2439 71.3481L23.7046 71.4347L23.4264 66.4904L24.9657 66.4038ZM25.2139 70.816C25.8524 70.7801 26.33 70.5848 26.6469 70.2302C26.9635 69.8708 27.1046 69.3861 27.0703 68.776C27.0357 68.1613 26.8385 67.6908 26.4786 67.3648C26.1234 67.0384 25.6289 66.8931 24.9952 66.9287L24.1014 66.979L24.3201 70.8663L25.2139 70.816ZM32.149 68.8604C32.156 68.9833 32.1562 69.1138 32.1497 69.2517L29.0427 69.4265C29.0879 69.8082 29.2348 70.1012 29.4835 70.3054C29.7367 70.5047 30.0335 70.5947 30.374 70.5756C30.653 70.5599 30.8812 70.483 31.0584 70.3449C31.2401 70.2019 31.3627 70.0194 31.4261 69.7976L32.1213 69.7585C32.0383 70.138 31.8473 70.4547 31.5485 70.7087C31.2495 70.958 30.8682 71.0957 30.4047 71.1218C30.0359 71.1425 29.7002 71.0784 29.3977 70.9294C29.0999 70.7801 28.8597 70.5588 28.6772 70.2654C28.4944 69.9673 28.3916 69.6173 28.369 69.2153C28.3464 68.8134 28.407 68.4565 28.5507 68.1448C28.6945 67.8331 28.9061 67.5887 29.1855 67.4117C29.4694 67.2297 29.8005 67.1281 30.1789 67.1068C30.5477 67.086 30.8786 67.1481 31.1713 67.2929C31.4641 67.4377 31.6942 67.6477 31.8615 67.923C32.0332 68.1932 32.1291 68.5057 32.149 68.8604ZM31.4747 68.7631C31.4608 68.5172 31.3946 68.3098 31.276 68.1409C31.1571 67.9673 31.0006 67.841 30.8063 67.7617C30.6166 67.6775 30.4082 67.6418 30.1812 67.6546C29.8549 67.6729 29.5817 67.7927 29.3617 68.0138C29.1464 68.2346 29.0326 68.5304 29.0203 68.9012L31.4747 68.7631ZM34.4986 70.8915C34.2007 70.9082 33.9307 70.8736 33.6886 70.7876C33.4463 70.6968 33.2515 70.5655 33.1043 70.3935C32.9568 70.2168 32.8693 70.0106 32.8418 69.7749L33.5086 69.7374C33.5384 69.9302 33.6372 70.0836 33.8049 70.1975C33.9773 70.3112 34.1959 70.3605 34.4608 70.3456C34.7067 70.3318 34.8975 70.2665 35.0333 70.1498C35.169 70.033 35.2322 69.8919 35.2229 69.7264C35.2133 69.5561 35.1306 69.4351 34.9748 69.3632C34.8187 69.2866 34.5799 69.217 34.2585 69.1544C33.9658 69.095 33.7251 69.0326 33.5364 68.9673C33.3522 68.897 33.1896 68.79 33.0487 68.6461C32.9122 68.4972 32.8369 68.2974 32.8228 68.0468C32.8116 67.8482 32.8605 67.6628 32.9694 67.4906C33.0783 67.3184 33.2389 67.1789 33.4511 67.0721C33.6631 66.9606 33.9086 66.897 34.1876 66.8813C34.6179 66.857 34.9716 66.9463 35.2487 67.1489C35.5258 67.3515 35.6844 67.6415 35.7246 68.0187L35.0791 68.0551C35.0535 67.8525 34.9615 67.694 34.8033 67.5796C34.6497 67.4649 34.4477 67.4146 34.197 67.4287C33.9653 67.4417 33.7837 67.5017 33.6521 67.6088C33.5206 67.7158 33.4593 67.8497 33.4683 68.0105C33.4755 68.1382 33.5217 68.2423 33.6069 68.3229C33.6965 68.3985 33.8043 68.4589 33.9302 68.504C34.0605 68.5441 34.2386 68.5886 34.4643 68.6376C34.7476 68.6976 34.9788 68.7605 35.158 68.8263C35.337 68.8874 35.4921 68.9878 35.6233 69.1274C35.7592 69.2669 35.8362 69.4547 35.8542 69.6908C35.8662 69.9037 35.8179 70.0985 35.7092 70.2754C35.6006 70.4523 35.4403 70.5965 35.2283 70.7081C35.0208 70.8146 34.7776 70.8758 34.4986 70.8915ZM36.474 68.7594C36.4514 68.3574 36.5121 68.0029 36.6562 67.6959C36.7999 67.3842 37.009 67.1376 37.2834 66.9562C37.5626 66.7744 37.8866 66.6732 38.2555 66.6524C38.7331 66.6255 39.1322 66.7193 39.4526 66.9337C39.7777 67.1479 40.0015 67.4579 40.124 67.8638L39.4288 67.9029C39.3493 67.6701 39.2088 67.4907 39.0072 67.3644C38.8103 67.2379 38.57 67.1826 38.2862 67.1986C37.9174 67.2194 37.6266 67.3638 37.414 67.6319C37.2011 67.8954 37.1077 68.2588 37.1337 68.7222C37.1601 69.1904 37.2939 69.5458 37.5353 69.7884C37.7767 70.031 38.0818 70.1419 38.4506 70.1212C38.7344 70.1052 38.9671 70.0257 39.1488 69.8826C39.3305 69.7396 39.4499 69.5431 39.507 69.2932L40.2022 69.2541C40.1205 69.6572 39.9304 69.9881 39.6319 70.2469C39.333 70.5009 38.9495 70.641 38.4814 70.6674C38.1125 70.6881 37.7792 70.6239 37.4814 70.4746C37.1883 70.325 36.9529 70.1034 36.7751 69.8098C36.5973 69.5162 36.4969 69.1661 36.474 68.7594ZM41.5961 67.1618C41.6971 66.9332 41.8482 66.7515 42.0494 66.6169C42.2552 66.4819 42.5095 66.406 42.8122 66.3889L42.8497 67.0557L42.6794 67.0653C41.9559 67.106 41.6162 67.5189 41.6604 68.3039L41.7793 70.4178L41.1338 70.4541L40.9151 66.5668L41.5606 66.5305L41.5961 67.1618ZM43.8592 65.7679C43.7363 65.7748 43.6298 65.7381 43.5399 65.6577C43.45 65.5774 43.4016 65.4758 43.3947 65.3528C43.3878 65.2298 43.4245 65.1234 43.5048 65.0335C43.5851 64.9436 43.6868 64.8952 43.8097 64.8882C43.928 64.8816 44.0297 64.9186 44.1148 64.9992C44.2048 65.0795 44.2532 65.1812 44.2601 65.3041C44.267 65.4271 44.2303 65.5335 44.15 65.6234C44.0744 65.7131 43.9774 65.7612 43.8592 65.7679ZM44.2069 66.3816L44.4255 70.2689L43.78 70.3052L43.5613 66.4179L44.2069 66.3816ZM45.9929 66.9999C46.108 66.7704 46.2868 66.5753 46.5292 66.4146C46.7761 66.2489 47.0674 66.1567 47.4031 66.1378C47.7484 66.1183 48.0651 66.1835 48.3535 66.3334C48.6465 66.4829 48.882 66.7045 49.0598 66.9981C49.2373 67.287 49.3373 67.6301 49.3596 68.0273C49.3817 68.4198 49.321 68.7743 49.1775 69.0907C49.034 69.4072 48.8252 69.6585 48.551 69.8447C48.2816 70.0306 47.9742 70.1333 47.629 70.1527C47.298 70.1714 47.0007 70.1146 46.737 69.9823C46.4779 69.8451 46.2759 69.6691 46.1309 69.4543L46.275 72.0151L45.6295 72.0514L45.307 66.3197L45.9525 66.2834L45.9929 66.9999ZM48.6999 68.0644C48.6834 67.7712 48.6099 67.5192 48.4795 67.3083C48.349 67.0974 48.1789 66.9409 47.9692 66.8389C47.7642 66.7366 47.5411 66.6922 47.2999 66.7057C47.0634 66.719 46.8469 66.7905 46.6502 66.9202C46.4579 67.0449 46.3066 67.2218 46.1961 67.451C46.0901 67.6752 46.0453 67.9315 46.0615 68.22C46.078 68.5132 46.1516 68.7676 46.2823 68.9832C46.4175 69.1938 46.5878 69.3527 46.793 69.4597C47.0028 69.5618 47.2259 69.6061 47.4623 69.5928C47.7035 69.5793 47.9202 69.5102 48.1124 69.3855C48.3091 69.2558 48.4605 69.0789 48.5665 68.8547C48.6722 68.6258 48.7167 68.3624 48.6999 68.0644ZM50.9181 66.5378L51.047 68.829C51.0576 69.0182 51.1054 69.1507 51.1903 69.2266C51.275 69.2977 51.4166 69.3277 51.6152 69.3165L52.0905 69.2898L52.1212 69.836L51.5396 69.8687C51.1801 69.8889 50.9059 69.8213 50.7169 69.6659C50.5279 69.5105 50.4227 69.2436 50.4015 68.8653L50.2726 66.5741L49.7689 66.6024L49.739 66.0704L50.2426 66.0421L50.1876 65.0631L50.8331 65.0268L50.8881 66.0057L51.9025 65.9487L51.9325 66.4807L50.9181 66.5378ZM52.9825 65.2546C52.8596 65.2615 52.7532 65.2248 52.6632 65.1445C52.5733 65.0641 52.5249 64.9625 52.518 64.8395C52.5111 64.7166 52.5478 64.6101 52.6281 64.5202C52.7085 64.4303 52.8101 64.3819 52.9331 64.375C53.0513 64.3683 53.153 64.4053 53.2382 64.4859C53.3281 64.5662 53.3765 64.6679 53.3834 64.7908C53.3903 64.9138 53.3536 65.0202 53.2733 65.1101C53.1977 65.1998 53.1008 65.2479 52.9825 65.2546ZM53.3302 65.8684L53.5489 69.7557L52.9034 69.792L52.6847 65.9047L53.3302 65.8684ZM56.348 69.6622C55.9839 69.6827 55.6482 69.6186 55.3409 69.4698C55.0384 69.3208 54.7935 69.0997 54.6063 68.8067C54.4234 68.5086 54.3207 68.1586 54.2981 67.7566C54.2758 67.3593 54.3412 67.0046 54.4944 66.6924C54.6521 66.3751 54.8754 66.1277 55.1643 65.9502C55.4529 65.7679 55.7816 65.6664 56.1505 65.6456C56.5194 65.6249 56.8574 65.6889 57.1647 65.8377C57.4717 65.9817 57.7188 66.2002 57.9061 66.4933C58.0981 66.7861 58.2054 67.1335 58.228 67.5355C58.2506 67.9375 58.1807 68.2972 58.0183 68.6147C57.8603 68.9272 57.6347 69.1747 57.3413 69.3573C57.048 69.5398 56.7169 69.6415 56.348 69.6622ZM56.3161 69.0947C56.5478 69.0817 56.7623 69.0151 56.9595 68.8949C57.1568 68.7747 57.3107 68.6023 57.4214 68.3779C57.5369 68.1532 57.5858 67.8847 57.5683 67.5726C57.5507 67.2605 57.4743 66.9991 57.3391 66.7885C57.204 66.5779 57.0341 66.4261 56.8296 66.3333C56.6249 66.2357 56.4067 66.1934 56.1749 66.2064C55.9385 66.2197 55.724 66.2864 55.5315 66.4063C55.3435 66.5213 55.1965 66.6908 55.0905 66.915C54.9845 67.1392 54.9403 67.4074 54.9578 67.7195C54.9757 68.0363 55.0474 68.3003 55.1732 68.5115C55.3036 68.7224 55.4689 68.8767 55.6689 68.9746C55.8686 69.0677 56.0844 69.1078 56.3161 69.0947ZM60.8578 65.3737C61.3307 65.3471 61.7219 65.4698 62.0313 65.7418C62.3405 66.009 62.5102 66.4122 62.5405 66.9513L62.6694 69.2425L62.031 69.2785L61.9073 67.0794C61.8855 66.6917 61.7719 66.4015 61.5666 66.2091C61.361 66.0119 61.0903 65.9228 60.7545 65.9417C60.414 65.9608 60.1481 66.0825 59.9567 66.3068C59.7701 66.5308 59.6882 66.8461 59.7111 67.2528L59.832 69.4022L59.1865 69.4385L58.9678 65.5512L59.6133 65.5149L59.6444 66.0682C59.7609 65.8624 59.9249 65.699 60.1363 65.578C60.3525 65.4567 60.5929 65.3886 60.8578 65.3737ZM67.3492 70.3029C66.8702 69.8839 66.4837 69.3387 66.1898 68.6673C65.9005 67.9957 65.7336 67.2627 65.6889 66.4682C65.6431 65.6548 65.7328 64.8883 65.958 64.1688C66.1877 63.4443 66.5379 62.8387 67.0086 62.352L67.6825 62.3141L67.6861 62.378C67.1844 62.9043 66.8184 63.525 66.5883 64.2401C66.3625 64.9502 66.2708 65.6812 66.3131 66.4331C66.3544 67.1661 66.5191 67.8589 66.8072 68.5116C67.1001 69.1641 67.5042 69.7272 68.0195 70.2011L68.0231 70.2649L67.3492 70.3029ZM70.5352 68.8641C70.1711 68.8846 69.8354 68.8204 69.5282 68.6717C69.2257 68.5226 68.9808 68.3016 68.7935 68.0085C68.6107 67.7104 68.508 67.3604 68.4853 66.9584C68.463 66.5612 68.5284 66.2065 68.6817 65.8942C68.8393 65.577 69.0626 65.3296 69.3515 65.152C69.6401 64.9698 69.9689 64.8682 70.3377 64.8475C70.7066 64.8267 71.0447 64.8907 71.3519 65.0395C71.6589 65.1835 71.906 65.4021 72.0933 65.6952C72.2853 65.988 72.3926 66.3354 72.4152 66.7373C72.4378 67.1393 72.3679 67.4991 72.2055 67.8166C72.0476 68.1291 71.8219 68.3766 71.5286 68.5591C71.2352 68.7417 70.9041 68.8433 70.5352 68.8641ZM70.5033 68.2966C70.735 68.2835 70.9495 68.2169 71.1467 68.0967C71.344 67.9765 71.498 67.8042 71.6087 67.5797C71.7241 67.355 71.7731 67.0866 71.7555 66.7745C71.7379 66.4623 71.6616 66.201 71.5264 65.9904C71.3912 65.7797 71.2213 65.628 71.0169 65.5351C70.8121 65.4375 70.5939 65.3952 70.3622 65.4083C70.1257 65.4216 69.9112 65.4882 69.7187 65.6082C69.5307 65.7231 69.3837 65.8927 69.2777 66.1169C69.1717 66.341 69.1275 66.6092 69.1451 66.9213C69.1629 67.2382 69.2347 67.5022 69.3604 67.7133C69.4909 67.9242 69.6561 68.0786 69.8561 68.1764C70.0559 68.2696 70.2716 68.3096 70.5033 68.2966ZM73.8408 65.4332C73.956 65.2037 74.1348 65.0087 74.3772 64.848C74.624 64.6823 74.9154 64.59 75.2511 64.5711C75.5963 64.5516 75.9131 64.6168 76.2014 64.7667C76.4945 64.9162 76.7299 65.1378 76.9077 65.4314C77.0853 65.7203 77.1852 66.0634 77.2076 66.4606C77.2297 66.8531 77.169 67.2076 77.0255 67.524C76.882 67.8405 76.6732 68.0918 76.399 68.278C76.1295 68.464 75.8222 68.5666 75.477 68.5861C75.146 68.6047 74.8486 68.5479 74.585 68.4156C74.3259 68.2784 74.1238 68.1024 73.9789 67.8876L74.123 70.4484L73.4775 70.4847L73.155 64.753L73.8005 64.7167L73.8408 65.4332ZM76.5479 66.4977C76.5314 66.2045 76.4579 65.9525 76.3275 65.7416C76.197 65.5307 76.0269 65.3742 75.8171 65.2722C75.6121 65.1699 75.389 65.1255 75.1479 65.139C74.9114 65.1524 74.6948 65.2238 74.4981 65.3535C74.3059 65.4782 74.1546 65.6551 74.0441 65.8843C73.9381 66.1085 73.8932 66.3648 73.9095 66.6533C73.926 66.9465 73.9996 67.2009 74.1303 67.4165C74.2655 67.6271 74.4357 67.786 74.641 67.893C74.8507 67.9951 75.0738 68.0395 75.3103 68.0261C75.5515 68.0126 75.7682 67.9435 75.9604 67.8188C76.1571 67.6891 76.3085 67.5122 76.4144 67.288C76.5202 67.0591 76.5647 66.7957 76.5479 66.4977ZM78.766 64.9711L78.895 67.2623C78.9056 67.4515 78.9534 67.584 79.0383 67.6599C79.1229 67.731 79.2646 67.761 79.4632 67.7498L79.9385 67.7231L79.9692 68.2693L79.3875 68.302C79.0281 68.3222 78.7539 68.2546 78.5649 68.0992C78.3759 67.9438 78.2707 67.677 78.2494 67.2986L78.1205 65.0074L77.6169 65.0357L77.587 64.5037L78.0906 64.4754L78.0355 63.4965L78.681 63.4601L78.7361 64.4391L79.7505 64.382L79.7804 64.914L78.766 64.9711ZM80.8305 63.6879C80.7076 63.6948 80.6011 63.6581 80.5112 63.5778C80.4213 63.4974 80.3729 63.3958 80.366 63.2728C80.359 63.1499 80.3958 63.0434 80.4761 62.9535C80.5564 62.8636 80.6581 62.8152 80.781 62.8083C80.8993 62.8016 81.001 62.8386 81.0861 62.9192C81.1761 62.9995 81.2245 63.1012 81.2314 63.2241C81.2383 63.3471 81.2016 63.4535 81.1213 63.5434C81.0457 63.6331 80.9487 63.6812 80.8305 63.6879ZM81.1781 64.3017L81.3968 68.189L80.7513 68.2253L80.5326 64.338L81.1781 64.3017ZM84.196 68.0955C83.8318 68.116 83.4962 68.0519 83.1889 67.9031C82.8864 67.7541 82.6415 67.5331 82.4542 67.24C82.2714 66.9419 82.1687 66.5919 82.1461 66.1899C82.1237 65.7927 82.1892 65.4379 82.3424 65.1257C82.5001 64.8084 82.7234 64.5611 83.0123 64.3835C83.3009 64.2012 83.6296 64.0997 83.9985 64.079C84.3673 64.0582 84.7054 64.1222 85.0126 64.271C85.3196 64.415 85.5668 64.6335 85.754 64.9266C85.946 65.2194 86.0533 65.5668 86.076 65.9688C86.0986 66.3708 86.0287 66.7305 85.8663 67.048C85.7083 67.3605 85.4827 67.608 85.1893 67.7906C84.896 67.9731 84.5649 68.0748 84.196 68.0955ZM84.1641 67.528C84.3958 67.515 84.6103 67.4484 84.8075 67.3282C85.0047 67.208 85.1587 67.0356 85.2694 66.8112C85.3849 66.5865 85.4338 66.318 85.4162 66.0059C85.3987 65.6938 85.3223 65.4324 85.1871 65.2218C85.0519 65.0112 84.8821 64.8595 84.6776 64.7666C84.4729 64.669 84.2546 64.6267 84.0229 64.6397C83.7865 64.6531 83.572 64.7197 83.3795 64.8396C83.1914 64.9546 83.0444 65.1241 82.9384 65.3483C82.8325 65.5725 82.7882 65.8407 82.8058 66.1528C82.8236 66.4696 82.8954 66.7336 83.0211 66.9448C83.1516 67.1557 83.3168 67.31 83.5169 67.4079C83.7166 67.501 83.9323 67.5411 84.1641 67.528ZM88.7057 63.807C89.1787 63.7804 89.5698 63.9031 89.8793 64.1751C90.1884 64.4423 90.3582 64.8455 90.3885 65.3846L90.5174 67.6759L89.879 67.7118L89.7553 65.5128C89.7334 65.125 89.6199 64.8349 89.4145 64.6424C89.2089 64.4452 88.9383 64.3561 88.6025 64.375C88.262 64.3941 87.9961 64.5158 87.8047 64.7401C87.618 64.9641 87.5362 65.2794 87.559 65.6861L87.68 67.8355L87.0344 67.8718L86.8157 63.9845L87.4613 63.9482L87.4924 64.5015C87.6089 64.2957 87.7729 64.1323 87.9843 64.0113C88.2004 63.89 88.4409 63.8219 88.7057 63.807ZM91.2205 65.6723C91.1982 65.275 91.259 64.9229 91.403 64.6159C91.5468 64.3042 91.7535 64.0578 92.0232 63.8766C92.2977 63.6951 92.6075 63.5946 92.9527 63.5752C93.2932 63.556 93.5929 63.6127 93.8518 63.7452C94.1107 63.8777 94.3079 64.0516 94.4433 64.267L94.4034 63.5576L95.056 63.5209L95.2747 67.4082L94.6221 67.4449L94.5814 66.7214C94.4665 66.9556 94.2856 67.1555 94.0387 67.3212C93.7964 67.4819 93.5073 67.5717 93.1715 67.5906C92.8263 67.61 92.5094 67.5424 92.2208 67.3879C91.9322 67.2333 91.6989 67.0069 91.5208 66.7086C91.3427 66.4102 91.2426 66.0648 91.2205 65.6723ZM94.5124 65.4942C94.4959 65.201 94.4224 64.9489 94.2919 64.7381C94.1615 64.5272 93.9914 64.3707 93.7816 64.2686C93.5763 64.1616 93.3531 64.1148 93.1119 64.1284C92.8708 64.142 92.654 64.2111 92.4618 64.3358C92.2696 64.4604 92.1205 64.6349 92.0145 64.8591C91.9085 65.0833 91.8637 65.3419 91.8802 65.6351C91.897 65.9331 91.9707 66.1899 92.1015 66.4055C92.2319 66.6164 92.3998 66.7753 92.6051 66.8824C92.8101 66.9847 93.0332 67.0291 93.2744 67.0155C93.5155 67.0019 93.7323 66.9328 93.9245 66.8081C94.1212 66.6785 94.2725 66.5016 94.3785 66.2774C94.4842 66.0484 94.5289 65.7874 94.5124 65.4942ZM96.7158 62.0613L97.0111 67.3105L96.3656 67.3468L96.0703 62.0976L96.7158 62.0613ZM97.9798 68.5796L97.9762 68.5158C98.4351 67.9871 98.7711 67.3823 98.9842 66.7014C99.2021 66.0202 99.2904 65.3131 99.2492 64.5801C99.2069 63.8282 99.0314 63.1122 98.7227 62.4322C98.4185 61.7472 97.9876 61.1714 97.43 60.7046L97.4264 60.6408L98.1003 60.6028C98.6227 61.0336 99.0362 61.5963 99.341 62.2907C99.6502 62.9802 99.8276 63.7316 99.8734 64.545C99.9181 65.3395 99.832 66.0868 99.6153 66.7869C99.4032 67.4867 99.0827 68.0716 98.6537 68.5417L97.9798 68.5796Z" fill="#8094AE"/>
<path d="M17.8727 98.1653L18.1501 103.095L17.3415 103.141L17.0641 98.2108L17.8727 98.1653ZM23.7194 98.797C24.0268 98.7797 24.3047 98.8281 24.553 98.9422C24.8061 99.056 25.0083 99.2344 25.1595 99.4773C25.3155 99.72 25.4034 100.019 25.4234 100.373L25.5531 102.679L24.7515 102.724L24.6286 100.539C24.6089 100.189 24.5064 99.9268 24.3211 99.7522C24.1355 99.5729 23.8913 99.4917 23.5887 99.5088C23.2861 99.5258 23.0502 99.6339 22.8812 99.8332C22.7166 100.027 22.6441 100.3 22.6638 100.649L22.7867 102.834L21.9852 102.879L21.8623 100.695C21.8426 100.345 21.7401 100.082 21.5547 99.9078C21.3691 99.7285 21.125 99.6474 20.8224 99.6644C20.5197 99.6814 20.2839 99.7896 20.1148 99.9888C19.9502 100.183 19.8778 100.455 19.8975 100.805L20.0204 102.99L19.2117 103.035L18.9919 99.127L19.8005 99.0815L19.8256 99.5283C19.949 99.3601 20.1098 99.2254 20.3081 99.1241C20.5064 99.0228 20.7214 98.9656 20.9531 98.9526C21.2652 98.935 21.5479 98.9855 21.8013 99.1041C22.0546 99.2227 22.2545 99.4036 22.401 99.6467C22.506 99.4036 22.6799 99.2065 22.9228 99.0552C23.1654 98.8993 23.431 98.8132 23.7194 98.797ZM26.2015 100.664C26.1795 100.271 26.2403 99.9194 26.3841 99.6077C26.5325 99.2957 26.7416 99.0491 27.0113 98.8679C27.2855 98.6817 27.5928 98.5791 27.9332 98.5599C28.2406 98.5426 28.5113 98.589 28.7452 98.6992C28.9835 98.8044 29.1763 98.943 29.3236 99.115L29.2916 98.5475L30.1074 98.5016L30.3272 102.41L29.5115 102.456L29.4788 101.874C29.352 102.066 29.1739 102.231 28.9444 102.367C28.7148 102.503 28.4488 102.58 28.1461 102.597C27.8104 102.616 27.4982 102.548 27.2096 102.393C26.9208 102.234 26.685 102.005 26.5022 101.707C26.3238 101.404 26.2236 101.056 26.2015 100.664ZM29.4014 100.498C29.3862 100.229 29.3163 99.9977 29.1916 99.8055C29.0717 99.613 28.919 99.4698 28.7334 99.3759C28.5479 99.282 28.3511 99.2408 28.143 99.2525C27.9349 99.2643 27.744 99.3272 27.5701 99.4413C27.396 99.5507 27.2578 99.7079 27.1555 99.9129C27.0576 100.113 27.0163 100.348 27.0314 100.617C27.0466 100.887 27.1143 101.12 27.2345 101.317C27.3594 101.514 27.5148 101.662 27.7006 101.761C27.8909 101.854 28.0877 101.896 28.291 101.884C28.4991 101.872 28.6901 101.809 28.8639 101.695C29.0377 101.581 29.1735 101.422 29.271 101.217C29.3731 101.007 29.4165 100.768 29.4014 100.498ZM32.7406 98.2894C33.0432 98.2724 33.3138 98.3189 33.5525 98.4288C33.7956 98.5337 33.9884 98.6723 34.1309 98.8445L34.0989 98.2771L34.9147 98.2312L35.1381 102.203C35.1584 102.563 35.1007 102.886 34.965 103.174C34.8297 103.466 34.6223 103.701 34.3429 103.878C34.0682 104.054 33.7322 104.154 33.335 104.176C32.8054 104.206 32.3586 104.105 31.9945 103.875C31.6308 103.648 31.4133 103.324 31.342 102.901L32.1436 102.856C32.2165 103.056 32.3557 103.211 32.5612 103.323C32.7717 103.439 33.0165 103.49 33.2955 103.474C33.6218 103.456 33.8787 103.342 34.0661 103.132C34.2583 102.922 34.3437 102.628 34.3224 102.249L34.2857 101.597C34.1589 101.789 33.9809 101.955 33.7517 102.096C33.5269 102.232 33.2655 102.309 32.9676 102.325C32.6271 102.345 32.3103 102.277 32.0169 102.123C31.7281 101.964 31.4923 101.735 31.3095 101.437C31.1311 101.134 31.0309 100.786 31.0089 100.393C30.9868 100.001 31.0476 99.6489 31.1914 99.3372C31.3398 99.0253 31.5489 98.7787 31.8186 98.5975C32.0928 98.4113 32.4001 98.3086 32.7406 98.2894ZM34.2087 100.228C34.1935 99.9582 34.1236 99.7273 33.9989 99.535C33.879 99.3426 33.7263 99.1993 33.5407 99.1054C33.3552 99.0115 33.1584 98.9704 32.9503 98.9821C32.7422 98.9938 32.5513 99.0567 32.3774 99.1709C32.2033 99.2803 32.0651 99.4375 31.9628 99.6425C31.8649 99.8425 31.8236 100.077 31.8388 100.347C31.8539 100.616 31.9216 100.85 32.0418 101.047C32.1667 101.244 32.3221 101.392 32.5079 101.49C32.6982 101.584 32.895 101.625 33.0983 101.614C33.3064 101.602 33.4974 101.539 33.6712 101.425C33.8451 101.311 33.9808 101.151 34.0784 100.947C34.1804 100.737 34.2239 100.497 34.2087 100.228ZM39.6634 99.8283C39.6716 99.9749 39.6696 100.108 39.6574 100.227L36.6711 100.395C36.7123 100.706 36.8423 100.95 37.061 101.127C37.2797 101.305 37.5404 101.385 37.843 101.368C38.2781 101.344 38.5752 101.144 38.7344 100.77L39.6069 100.721C39.5089 101.087 39.3103 101.395 39.0113 101.644C38.7167 101.888 38.34 102.023 37.8813 102.049C37.5077 102.07 37.1673 102.006 36.8601 101.857C36.5574 101.704 36.3123 101.48 36.1251 101.187C35.9423 100.889 35.8396 100.539 35.817 100.137C35.7943 99.7353 35.8549 99.3784 35.9987 99.0668C36.1469 98.7501 36.3629 98.5007 36.6468 98.3187C36.9354 98.1365 37.2712 98.0346 37.6543 98.013C38.0231 97.9923 38.3563 98.0542 38.6538 98.1987C38.9513 98.3433 39.1887 98.5576 39.3659 98.8417C39.543 99.1212 39.6421 99.45 39.6634 99.8283ZM38.8049 99.6204C38.7834 99.3228 38.6636 99.09 38.4454 98.922C38.2273 98.754 37.9645 98.6787 37.6571 98.6959C37.3781 98.7116 37.1444 98.8149 36.9559 99.0058C36.7671 99.1919 36.6623 99.4374 36.6415 99.7422L38.8049 99.6204ZM41.9548 97.3085L41.9133 96.5708L43.3887 96.4878L43.6796 101.659L42.8639 101.705L42.6145 97.2714L41.9548 97.3085Z" fill="#363E49"/>
<rect width="170.516" height="52.7757" transform="translate(17.2061 110.219) rotate(-3.22)" fill="white"/>
<rect x="17.4736" y="110.458" width="170.009" height="52.2683" rx="3.80594" transform="rotate(-3.22 17.4736 110.458)" stroke="#D8DEE6" stroke-width="0.507459" stroke-dasharray="3.04 3.04"/>
<path d="M102.352 123.893C101.838 123.922 101.399 123.53 101.37 123.016C101.341 122.503 101.734 122.064 102.247 122.035C102.76 122.006 103.199 122.398 103.228 122.912C103.257 123.425 102.865 123.864 102.352 123.893ZM102.276 122.542C102.042 122.555 101.864 122.755 101.877 122.988C101.89 123.221 102.09 123.399 102.323 123.386C102.556 123.373 102.735 123.173 102.722 122.94C102.708 122.707 102.509 122.529 102.276 122.542Z" fill="#8094AE"/>
<path d="M104.606 127.833L102.58 127.947C100.745 128.05 99.9177 127.31 99.8145 125.476L99.7005 123.449C99.5973 121.615 100.337 120.787 102.171 120.684L103.522 120.608C103.661 120.6 103.782 120.709 103.79 120.847C103.798 120.986 103.689 121.107 103.551 121.115L102.2 121.191C100.642 121.279 100.12 121.864 100.207 123.421L100.321 125.448C100.409 127.005 100.994 127.528 102.551 127.44L104.578 127.326C106.135 127.238 106.658 126.653 106.57 125.096L106.475 123.407C106.468 123.269 106.576 123.147 106.714 123.14C106.853 123.132 106.974 123.24 106.982 123.379L107.077 125.068C107.18 126.902 106.441 127.73 104.606 127.833Z" fill="#8094AE"/>
<path d="M106.395 121.971L104.537 122.076C104.398 122.084 104.277 121.975 104.269 121.837C104.261 121.698 104.37 121.577 104.508 121.569L106.366 121.465C106.505 121.457 106.626 121.565 106.634 121.704C106.641 121.842 106.533 121.964 106.395 121.971Z" fill="#8094AE"/>
<path d="M105.518 122.953C105.379 122.961 105.258 122.852 105.25 122.714L105.146 120.856C105.138 120.717 105.246 120.596 105.385 120.588C105.523 120.58 105.645 120.689 105.653 120.827L105.757 122.685C105.765 122.824 105.656 122.945 105.518 122.953Z" fill="#8094AE"/>
<path d="M100.384 127.037C100.302 127.041 100.219 127.005 100.168 126.937C100.084 126.827 100.105 126.666 100.216 126.582L101.818 125.37C102.169 125.106 102.674 125.105 103.021 125.367L103.138 125.459C103.315 125.594 103.602 125.578 103.759 125.424L105.097 124.139C105.441 123.811 106.002 123.779 106.38 124.066L106.958 124.508C107.067 124.594 107.09 124.752 107.005 124.865C106.919 124.975 106.761 124.997 106.648 124.912L106.071 124.47C105.894 124.334 105.607 124.351 105.449 124.505L104.112 125.79C103.771 126.118 103.207 126.149 102.828 125.862L102.711 125.771C102.549 125.648 102.291 125.649 102.126 125.776L100.527 126.988C100.481 127.018 100.431 127.034 100.384 127.037Z" fill="#8094AE"/>
<path d="M28.1766 139.675L28.3526 142.804C28.3773 143.243 28.5021 143.564 28.7268 143.764C28.9563 143.965 29.2626 144.054 29.6456 144.033C30.0239 144.012 30.3135 143.889 30.5143 143.664C30.7199 143.439 30.8103 143.106 30.7855 142.667L30.6095 139.539L31.255 139.502L31.4306 142.623C31.4538 143.035 31.3906 143.387 31.241 143.68C31.0912 143.968 30.8783 144.189 30.6023 144.342C30.331 144.495 30.0204 144.581 29.6704 144.601C29.3205 144.62 28.9998 144.57 28.7084 144.449C28.4217 144.327 28.1877 144.132 28.0065 143.862C27.8298 143.587 27.7298 143.244 27.7067 142.833L27.5311 139.712L28.1766 139.675ZM33.0771 141.179C33.1922 140.949 33.371 140.754 33.6134 140.593C33.8602 140.428 34.1515 140.335 34.4873 140.317C34.8325 140.297 35.1492 140.362 35.4375 140.512C35.7306 140.662 35.966 140.883 36.1438 141.177C36.3213 141.466 36.4213 141.809 36.4436 142.206C36.4657 142.598 36.405 142.953 36.2615 143.269C36.118 143.586 35.9092 143.837 35.6351 144.023C35.3656 144.209 35.0583 144.312 34.7131 144.331C34.3821 144.35 34.0848 144.293 33.8212 144.161C33.5621 144.024 33.36 143.848 33.2151 143.633L33.3592 146.194L32.7137 146.23L32.3913 140.499L33.0367 140.462L33.0771 141.179ZM35.784 142.243C35.7675 141.95 35.694 141.698 35.5635 141.487C35.4331 141.276 35.263 141.12 35.0533 141.018C34.8483 140.915 34.6252 140.871 34.384 140.885C34.1476 140.898 33.931 140.969 33.7343 141.099C33.5421 141.224 33.3908 141.401 33.2803 141.63C33.1743 141.854 33.1295 142.11 33.1457 142.399C33.1622 142.692 33.2358 142.946 33.3665 143.162C33.5017 143.372 33.6719 143.531 33.8772 143.638C34.0869 143.74 34.31 143.785 34.5464 143.771C34.7876 143.758 35.0043 143.689 35.1965 143.564C35.3932 143.434 35.5445 143.258 35.6505 143.033C35.7562 142.804 35.8007 142.541 35.784 142.243ZM37.7536 138.831L38.0489 144.08L37.4034 144.116L37.1081 138.867L37.7536 138.831ZM40.8479 143.986C40.4837 144.007 40.1481 143.943 39.8408 143.794C39.5384 143.645 39.2935 143.424 39.1062 143.131C38.9234 142.833 38.8207 142.483 38.7981 142.081C38.7757 141.683 38.8412 141.329 38.9944 141.016C39.1521 140.699 39.3753 140.452 39.6642 140.274C39.9528 140.092 40.2815 139.991 40.6504 139.97C41.0192 139.949 41.3573 140.013 41.6645 140.162C41.9714 140.306 42.2186 140.524 42.4058 140.817C42.5978 141.11 42.7051 141.458 42.7277 141.86C42.7503 142.262 42.6804 142.621 42.518 142.939C42.3601 143.251 42.1345 143.499 41.8411 143.681C41.5478 143.864 41.2167 143.965 40.8479 143.986ZM40.8159 143.419C41.0477 143.406 41.2621 143.339 41.4593 143.219C41.6566 143.099 41.8105 142.926 41.9212 142.702C42.0367 142.477 42.0856 142.209 42.0681 141.897C42.0505 141.585 41.9741 141.323 41.8389 141.113C41.7038 140.902 41.5339 140.75 41.3295 140.657C41.1247 140.56 40.9065 140.518 40.6748 140.531C40.4384 140.544 40.2239 140.611 40.0314 140.73C39.8434 140.845 39.6964 141.015 39.5904 141.239C39.4844 141.463 39.4402 141.731 39.4578 142.044C39.4756 142.36 39.5474 142.624 39.6731 142.835C39.8035 143.046 39.9688 143.201 40.1688 143.299C40.3685 143.392 40.5842 143.432 40.8159 143.419ZM43.3348 141.818C43.3125 141.421 43.3733 141.069 43.5174 140.762C43.6611 140.45 43.8678 140.204 44.1375 140.023C44.4119 139.841 44.7217 139.741 45.0669 139.721C45.4074 139.702 45.7071 139.759 45.966 139.891C46.2248 140.024 46.422 140.198 46.5575 140.413L46.5176 139.704L47.1701 139.667L47.3888 143.554L46.7362 143.591L46.6955 142.867C46.5806 143.102 46.3997 143.301 46.1529 143.467C45.9105 143.628 45.6215 143.718 45.2857 143.737C44.9405 143.756 44.6236 143.688 44.335 143.534C44.0465 143.379 43.8131 143.153 43.6351 142.855C43.457 142.556 43.3569 142.211 43.3348 141.818ZM46.6265 141.64C46.61 141.347 46.5365 141.095 46.4061 140.884C46.2756 140.673 46.1055 140.517 45.8958 140.415C45.6905 140.308 45.4673 140.261 45.2261 140.275C44.985 140.288 44.7683 140.357 44.5761 140.482C44.3838 140.607 44.2347 140.781 44.1287 141.005C44.0228 141.229 43.978 141.488 43.9945 141.781C44.0113 142.079 44.085 142.336 44.2157 142.551C44.3462 142.762 44.5141 142.921 44.7193 143.028C44.9243 143.131 45.1474 143.175 45.3886 143.161C45.6297 143.148 45.8464 143.079 46.0387 142.954C46.2353 142.824 46.3867 142.648 46.4927 142.423C46.5984 142.194 46.643 141.933 46.6265 141.64ZM48.1283 141.549C48.106 141.151 48.1668 140.799 48.3108 140.492C48.4546 140.181 48.6613 139.934 48.931 139.753C49.2054 139.572 49.5176 139.471 49.8675 139.451C50.1701 139.434 50.4555 139.489 50.7236 139.617C50.9914 139.739 51.2002 139.91 51.3501 140.129L51.2344 138.072L51.887 138.036L52.1823 143.284L51.5297 143.321L51.4886 142.591C51.3739 142.829 51.1956 143.032 50.9535 143.197C50.7111 143.358 50.422 143.448 50.0863 143.466C49.7411 143.486 49.4218 143.418 49.1285 143.264C48.8399 143.11 48.6066 142.883 48.4285 142.585C48.2505 142.287 48.1504 141.941 48.1283 141.549ZM51.4199 141.371C51.4035 141.077 51.33 140.825 51.1995 140.614C51.0691 140.404 50.899 140.247 50.6892 140.145C50.484 140.038 50.2608 139.991 50.0196 140.005C49.7784 140.018 49.5617 140.088 49.3695 140.212C49.1773 140.337 49.0282 140.511 48.9222 140.735C48.8162 140.96 48.7715 141.218 48.788 141.512C48.8047 141.809 48.8785 142.066 49.0092 142.282C49.1397 142.493 49.3075 142.652 49.5128 142.759C49.7178 142.861 49.9409 142.905 50.182 142.892C50.4232 142.878 50.6399 142.809 50.8321 142.684C51.0288 142.555 51.1801 142.378 51.2861 142.154C51.3918 141.925 51.4364 141.664 51.4199 141.371ZM55.2433 138.58C55.1204 138.587 55.0139 138.55 54.924 138.469C54.8341 138.389 54.7857 138.288 54.7788 138.165C54.7719 138.042 54.8086 137.935 54.8889 137.845C54.9692 137.755 55.0709 137.707 55.1938 137.7C55.312 137.693 55.4137 137.73 55.4989 137.811C55.5888 137.891 55.6372 137.993 55.6442 138.116C55.6511 138.239 55.6144 138.345 55.534 138.435C55.4584 138.525 55.3615 138.573 55.2433 138.58ZM55.5909 139.193L55.8096 143.08L55.1641 143.117L54.9454 139.23L55.5909 139.193ZM61.3615 138.798C61.6641 138.781 61.9372 138.829 62.1809 138.944C62.4242 139.053 62.6215 139.229 62.7728 139.472C62.924 139.715 63.0097 140.016 63.0299 140.376L63.1588 142.667L62.5204 142.703L62.3967 140.504C62.3749 140.116 62.2614 139.826 62.056 139.634C61.8552 139.436 61.5916 139.347 61.2653 139.365C60.9296 139.384 60.6685 139.508 60.4821 139.736C60.2955 139.96 60.2136 140.276 60.2365 140.682L60.357 142.825L59.7186 142.86L59.5949 140.662C59.5731 140.274 59.4595 139.984 59.2542 139.791C59.0534 139.594 58.7898 139.504 58.4635 139.523C58.1278 139.542 57.8667 139.665 57.6803 139.894C57.4937 140.118 57.4118 140.433 57.4347 140.84L57.5552 142.982L56.9097 143.019L56.691 139.131L57.3365 139.095L57.368 139.655C57.4843 139.445 57.6457 139.279 57.8524 139.159C58.0638 139.038 58.2996 138.97 58.5597 138.955C58.8859 138.937 59.1785 138.994 59.4374 139.126C59.6963 139.259 59.8952 139.464 60.0341 139.74C60.1274 139.46 60.2951 139.237 60.5372 139.072C60.7794 138.906 61.0541 138.815 61.3615 138.798ZM63.8664 140.663C63.844 140.266 63.9048 139.914 64.0489 139.607C64.1926 139.295 64.3993 139.049 64.669 138.868C64.9434 138.686 65.2533 138.586 65.5985 138.566C65.9389 138.547 66.2386 138.604 66.4975 138.736C66.7563 138.869 66.9535 139.043 67.089 139.258L67.0491 138.549L67.7016 138.512L67.9203 142.399L67.2677 142.436L67.227 141.712C67.1121 141.946 66.9313 142.146 66.6844 142.312C66.442 142.473 66.153 142.563 65.8172 142.581C65.472 142.601 65.1551 142.533 64.8666 142.379C64.578 142.224 64.3447 141.998 64.1666 141.699C63.9885 141.401 63.8884 141.056 63.8664 140.663ZM67.158 140.485C67.1415 140.192 67.068 139.94 66.9376 139.729C66.8071 139.518 66.637 139.362 66.4273 139.26C66.222 139.153 65.9988 139.106 65.7577 139.119C65.5165 139.133 65.2998 139.202 65.1076 139.327C64.9153 139.451 64.7662 139.626 64.6603 139.85C64.5543 140.074 64.5095 140.333 64.526 140.626C64.5428 140.924 64.6165 141.181 64.7472 141.396C64.8777 141.607 65.0456 141.766 65.2508 141.873C65.4558 141.976 65.6789 142.02 65.9201 142.006C66.1612 141.993 66.3779 141.924 66.5702 141.799C66.7669 141.669 66.9182 141.492 67.0242 141.268C67.1299 141.039 67.1745 140.778 67.158 140.485ZM70.3919 138.297C70.7277 138.278 71.025 138.335 71.2838 138.467C71.5474 138.599 71.747 138.773 71.8824 138.988L71.8425 138.279L72.4951 138.242L72.7186 142.215C72.7385 142.569 72.6805 142.888 72.5447 143.171C72.409 143.458 72.2037 143.688 71.9288 143.86C71.6586 144.032 71.3367 144.128 70.9631 144.149C70.4524 144.178 70.02 144.081 69.666 143.859C69.3119 143.637 69.0925 143.32 69.0076 142.907L69.646 142.871C69.7302 143.104 69.8874 143.285 70.1177 143.414C70.3482 143.548 70.6195 143.606 70.9316 143.589C71.2862 143.569 71.5684 143.441 71.7782 143.207C71.9927 142.972 72.0886 142.653 72.066 142.251L72.0201 141.436C71.9052 141.67 71.7267 141.869 71.4846 142.035C71.2424 142.2 70.9535 142.292 70.6178 142.311C70.2726 142.331 69.9533 142.263 69.66 142.109C69.3714 141.955 69.1381 141.728 68.96 141.43C68.782 141.131 68.6819 140.786 68.6598 140.394C68.6375 139.996 68.6983 139.644 68.8423 139.337C68.9861 139.026 69.1928 138.779 69.4625 138.598C69.7369 138.416 70.0467 138.316 70.3919 138.297ZM71.9515 140.215C71.935 139.922 71.8615 139.67 71.731 139.459C71.6006 139.249 71.4305 139.092 71.2208 138.99C71.0155 138.883 70.7923 138.836 70.5511 138.85C70.3099 138.863 70.0932 138.932 69.901 139.057C69.7088 139.182 69.5597 139.356 69.4537 139.58C69.3477 139.805 69.303 140.063 69.3195 140.356C69.3362 140.654 69.41 140.911 69.5407 141.127C69.6712 141.338 69.839 141.497 70.0443 141.604C70.2493 141.706 70.4724 141.75 70.7135 141.737C70.9547 141.723 71.1714 141.654 71.3636 141.529C71.5603 141.4 71.7116 141.223 71.8176 140.999C71.9233 140.77 71.9679 140.509 71.9515 140.215ZM77.2335 139.776C77.2404 139.899 77.2406 140.029 77.2341 140.167L74.1273 140.342C74.1725 140.724 74.3194 141.017 74.5681 141.221C74.8212 141.42 75.1181 141.51 75.4585 141.491C75.7375 141.475 75.9656 141.399 76.1429 141.261C76.3246 141.117 76.4472 140.935 76.5106 140.713L77.2057 140.674C77.1227 141.054 76.9318 141.37 76.633 141.624C76.3339 141.874 75.9527 142.011 75.4893 142.037C75.1204 142.058 74.7847 141.994 74.4822 141.845C74.1845 141.696 73.9443 141.474 73.7618 141.181C73.579 140.883 73.4763 140.533 73.4537 140.131C73.4311 139.729 73.4916 139.372 73.6354 139.061C73.7791 138.749 73.9907 138.504 74.2701 138.327C74.554 138.145 74.8851 138.044 75.2634 138.023C75.6322 138.002 75.963 138.064 76.2558 138.209C76.5486 138.353 76.7786 138.563 76.9459 138.839C77.1177 139.109 77.2135 139.421 77.2335 139.776ZM76.5591 139.679C76.5453 139.433 76.4791 139.225 76.3605 139.057C76.2416 138.883 76.085 138.757 75.8908 138.677C75.7011 138.593 75.4927 138.558 75.2657 138.57C74.9395 138.589 74.6663 138.708 74.4463 138.93C74.231 139.15 74.1172 139.446 74.1049 139.817L76.5591 139.679Z" fill="#AAB7C9"/>
<path d="M200.279 87.9031L200.557 92.8328L199.748 92.8783L199.471 87.9486L200.279 87.9031ZM206.126 88.5348C206.434 88.5175 206.711 88.5659 206.96 88.68C207.213 88.7938 207.415 88.9722 207.566 89.2151C207.722 89.4578 207.81 89.7564 207.83 90.1111L207.96 92.4164L207.158 92.4615L207.035 90.2767C207.016 89.9268 206.913 89.6646 206.728 89.49C206.542 89.3107 206.298 89.2295 205.995 89.2466C205.693 89.2636 205.457 89.3717 205.288 89.571C205.123 89.7653 205.051 90.0374 205.071 90.3873L205.193 92.572L204.392 92.6171L204.269 90.4324C204.249 90.0824 204.147 89.8202 203.961 89.6456C203.776 89.4663 203.532 89.3852 203.229 89.4022C202.926 89.4192 202.691 89.5274 202.522 89.7266C202.357 89.9209 202.285 90.193 202.304 90.5429L202.427 92.7276L201.618 92.7731L201.399 88.8648L202.207 88.8193L202.232 89.2661C202.356 89.0979 202.517 88.9632 202.715 88.8619C202.913 88.7606 203.128 88.7034 203.36 88.6904C203.672 88.6728 203.955 88.7233 204.208 88.8419C204.461 88.9605 204.661 89.1414 204.808 89.3845C204.913 89.1414 205.087 88.9443 205.33 88.793C205.572 88.6371 205.838 88.551 206.126 88.5348ZM208.608 90.4017C208.586 90.0092 208.647 89.6571 208.791 89.3455C208.939 89.0335 209.148 88.7869 209.418 88.6057C209.692 88.4195 210 88.3168 210.34 88.2977C210.647 88.2804 210.918 88.3268 211.152 88.437C211.39 88.5422 211.583 88.6808 211.73 88.8528L211.698 88.2853L212.514 88.2394L212.734 92.1478L211.918 92.1937L211.886 91.612C211.759 91.8042 211.581 91.9684 211.351 92.1046C211.122 92.2409 210.856 92.3175 210.553 92.3345C210.217 92.3534 209.905 92.2856 209.616 92.131C209.328 91.9718 209.092 91.7431 208.909 91.445C208.731 91.142 208.63 90.7942 208.608 90.4017ZM211.808 90.2359C211.793 89.9664 211.723 89.7355 211.598 89.5433C211.478 89.3508 211.326 89.2076 211.14 89.1137C210.955 89.0197 210.758 88.9786 210.55 88.9903C210.342 89.002 210.151 89.065 209.977 89.1791C209.803 89.2885 209.665 89.4457 209.562 89.6507C209.464 89.8507 209.423 90.0855 209.438 90.355C209.453 90.6246 209.521 90.858 209.641 91.0552C209.766 91.2521 209.922 91.3999 210.107 91.4986C210.298 91.5922 210.494 91.6334 210.698 91.6219C210.906 91.6102 211.097 91.5473 211.271 91.4331C211.444 91.319 211.58 91.1596 211.678 90.9548C211.78 90.7451 211.823 90.5055 211.808 90.2359ZM215.147 88.0272C215.45 88.0102 215.721 88.0567 215.959 88.1666C216.202 88.2715 216.395 88.4101 216.538 88.5823L216.506 88.0149L217.321 87.969L217.545 91.9412C217.565 92.3005 217.507 92.624 217.372 92.9115C217.236 93.2038 217.029 93.4384 216.75 93.6154C216.475 93.7921 216.139 93.8917 215.742 93.914C215.212 93.9438 214.765 93.8432 214.401 93.6123C214.038 93.3861 213.82 93.0615 213.749 92.6386L214.55 92.5935C214.623 92.7934 214.762 92.9492 214.968 93.061C215.178 93.1772 215.423 93.2275 215.702 93.2118C216.029 93.1934 216.285 93.0794 216.473 92.8696C216.665 92.6595 216.75 92.3654 216.729 91.9871L216.692 91.3345C216.566 91.5266 216.388 91.6932 216.158 91.8342C215.934 91.9701 215.672 92.0465 215.374 92.0633C215.034 92.0824 214.717 92.0149 214.424 91.8606C214.135 91.7013 213.899 91.4727 213.716 91.1746C213.538 90.8715 213.438 90.5238 213.416 90.1313C213.394 89.7388 213.454 89.3867 213.598 89.075C213.747 88.7631 213.956 88.5165 214.225 88.3353C214.5 88.1491 214.807 88.0464 215.147 88.0272ZM216.615 89.9655C216.6 89.6959 216.53 89.4651 216.406 89.2728C216.286 89.0803 216.133 88.9371 215.947 88.8432C215.762 88.7493 215.565 88.7082 215.357 88.7199C215.149 88.7316 214.958 88.7945 214.784 88.9087C214.61 89.0181 214.472 89.1753 214.37 89.3803C214.272 89.5803 214.23 89.815 214.245 90.0846C214.261 90.3541 214.328 90.5875 214.449 90.7847C214.573 90.9817 214.729 91.1295 214.915 91.2281C215.105 91.3218 215.302 91.3629 215.505 91.3515C215.713 91.3398 215.904 91.2768 216.078 91.1627C216.252 91.0485 216.388 90.8891 216.485 90.6844C216.587 90.4747 216.631 90.235 216.615 89.9655ZM222.07 89.5661C222.078 89.7127 222.076 89.8456 222.064 89.9649L219.078 90.1329C219.119 90.4437 219.249 90.6878 219.468 90.8653C219.686 91.0427 219.947 91.1229 220.25 91.1059C220.685 91.0814 220.982 90.8821 221.141 90.5078L222.014 90.4587C221.916 90.8248 221.717 91.1324 221.418 91.3817C221.123 91.626 220.747 91.761 220.288 91.7868C219.914 91.8078 219.574 91.744 219.267 91.5952C218.964 91.4415 218.719 91.2181 218.532 90.925C218.349 90.627 218.246 90.277 218.224 89.875C218.201 89.4731 218.262 89.1162 218.405 88.8046C218.554 88.4879 218.77 88.2385 219.054 88.0565C219.342 87.8743 219.678 87.7723 220.061 87.7508C220.43 87.73 220.763 87.7919 221.061 87.9365C221.358 88.081 221.595 88.2954 221.773 88.5795C221.95 88.8589 222.049 89.1878 222.07 89.5661ZM221.212 89.3582C221.19 89.0606 221.07 88.8278 220.852 88.6598C220.634 88.4918 220.371 88.4164 220.064 88.4337C219.785 88.4494 219.551 88.5527 219.363 88.7436C219.174 88.9297 219.069 89.1752 219.048 89.48L221.212 89.3582ZM225.102 90.349C225.534 89.931 225.873 89.5893 226.119 89.3241C226.37 89.0538 226.575 88.7766 226.734 88.4925C226.894 88.2084 226.966 87.9292 226.95 87.655C226.934 87.3712 226.853 87.1528 226.707 86.9998C226.566 86.8464 226.351 86.7779 226.062 86.7941C225.783 86.8098 225.571 86.9119 225.425 87.1004C225.283 87.2838 225.216 87.5248 225.224 87.8233L224.443 87.8671C224.427 87.3273 224.565 86.9068 224.856 86.6058C225.152 86.2998 225.539 86.1333 226.016 86.1065C226.532 86.0775 226.942 86.1967 227.246 86.4642C227.555 86.7315 227.723 87.1015 227.75 87.5744C227.769 87.9149 227.7 88.2484 227.543 88.5751C227.39 88.8968 227.2 89.1897 226.973 89.4539C226.751 89.7131 226.464 90.0162 226.114 90.3633L225.81 90.665L228.059 90.5385L228.097 91.2123L224.65 91.4063L224.616 90.8175L225.102 90.349Z" fill="#363E49"/>
<rect x="199.88" y="100.196" width="170.009" height="52.2683" rx="3.80594" transform="rotate(-3.22 199.88 100.196)" fill="white"/>
<rect x="199.88" y="100.196" width="170.009" height="52.2683" rx="3.80594" transform="rotate(-3.22 199.88 100.196)" stroke="#D8DEE6" stroke-width="0.507459" stroke-dasharray="3.04 3.04"/>
<path d="M210.583 129.413L210.759 132.541C210.784 132.981 210.909 133.301 211.134 133.502C211.363 133.703 211.669 133.792 212.052 133.771C212.431 133.749 212.72 133.626 212.921 133.402C213.127 133.177 213.217 132.844 213.192 132.404L213.016 129.276L213.662 129.24L213.837 132.361C213.86 132.772 213.797 133.125 213.648 133.418C213.498 133.706 213.285 133.927 213.009 134.08C212.738 134.233 212.427 134.319 212.077 134.339C211.727 134.358 211.407 134.308 211.115 134.186C210.828 134.065 210.594 133.869 210.413 133.6C210.237 133.325 210.137 132.982 210.113 132.571L209.938 129.45L210.583 129.413ZM215.484 130.916C215.599 130.687 215.778 130.492 216.02 130.331C216.267 130.166 216.558 130.073 216.894 130.054C217.239 130.035 217.556 130.1 217.844 130.25C218.137 130.399 218.373 130.621 218.551 130.915C218.728 131.204 218.828 131.547 218.85 131.944C218.872 132.336 218.812 132.691 218.668 133.007C218.525 133.324 218.316 133.575 218.042 133.761C217.772 133.947 217.465 134.05 217.12 134.069C216.789 134.088 216.492 134.031 216.228 133.899C215.969 133.761 215.767 133.585 215.622 133.371L215.766 135.931L215.12 135.968L214.798 130.236L215.443 130.2L215.484 130.916ZM218.191 131.981C218.174 131.688 218.101 131.436 217.97 131.225C217.84 131.014 217.67 130.857 217.46 130.755C217.255 130.653 217.032 130.609 216.791 130.622C216.554 130.636 216.338 130.707 216.141 130.837C215.949 130.961 215.798 131.138 215.687 131.367C215.581 131.592 215.536 131.848 215.552 132.136C215.569 132.43 215.643 132.684 215.773 132.9C215.908 133.11 216.079 133.269 216.284 133.376C216.494 133.478 216.717 133.523 216.953 133.509C217.194 133.496 217.411 133.427 217.603 133.302C217.8 133.172 217.951 132.995 218.057 132.771C218.163 132.542 218.207 132.279 218.191 131.981ZM220.16 128.568L220.456 133.817L219.81 133.854L219.515 128.605L220.16 128.568ZM223.255 133.724C222.89 133.744 222.555 133.68 222.248 133.532C221.945 133.383 221.7 133.162 221.513 132.868C221.33 132.57 221.227 132.22 221.205 131.818C221.182 131.421 221.248 131.067 221.401 130.754C221.559 130.437 221.782 130.19 222.071 130.012C222.36 129.83 222.688 129.728 223.057 129.708C223.426 129.687 223.764 129.751 224.071 129.9C224.378 130.044 224.625 130.262 224.813 130.555C225.005 130.848 225.112 131.195 225.134 131.597C225.157 131.999 225.087 132.359 224.925 132.677C224.767 132.989 224.541 133.237 224.248 133.419C223.955 133.602 223.623 133.703 223.255 133.724ZM223.223 133.157C223.454 133.143 223.669 133.077 223.866 132.957C224.063 132.836 224.217 132.664 224.328 132.44C224.443 132.215 224.492 131.947 224.475 131.634C224.457 131.322 224.381 131.061 224.246 130.85C224.11 130.64 223.941 130.488 223.736 130.395C223.531 130.298 223.313 130.255 223.082 130.268C222.845 130.282 222.631 130.348 222.438 130.468C222.25 130.583 222.103 130.753 221.997 130.977C221.891 131.201 221.847 131.469 221.864 131.781C221.882 132.098 221.954 132.362 222.08 132.573C222.21 132.784 222.376 132.939 222.576 133.036C222.775 133.13 222.991 133.17 223.223 133.157ZM225.742 131.556C225.719 131.159 225.78 130.807 225.924 130.5C226.068 130.188 226.275 129.942 226.544 129.76C226.819 129.579 227.128 129.479 227.474 129.459C227.814 129.44 228.114 129.497 228.373 129.629C228.632 129.762 228.829 129.936 228.964 130.151L228.924 129.442L229.577 129.405L229.796 133.292L229.143 133.329L229.102 132.605C228.987 132.839 228.806 133.039 228.56 133.205C228.317 133.366 228.028 133.455 227.692 133.474C227.347 133.494 227.03 133.426 226.742 133.272C226.453 133.117 226.22 132.891 226.042 132.592C225.864 132.294 225.764 131.949 225.742 131.556ZM229.033 131.378C229.017 131.085 228.943 130.833 228.813 130.622C228.682 130.411 228.512 130.255 228.303 130.153C228.097 130.046 227.874 129.999 227.633 130.012C227.392 130.026 227.175 130.095 226.983 130.22C226.791 130.344 226.641 130.519 226.535 130.743C226.43 130.967 226.385 131.226 226.401 131.519C226.418 131.817 226.492 132.074 226.622 132.289C226.753 132.5 226.921 132.659 227.126 132.766C227.331 132.868 227.554 132.913 227.795 132.899C228.036 132.886 228.253 132.817 228.445 132.692C228.642 132.562 228.793 132.385 228.899 132.161C229.005 131.932 229.05 131.671 229.033 131.378ZM230.535 131.286C230.513 130.889 230.574 130.537 230.718 130.23C230.861 129.918 231.068 129.672 231.338 129.491C231.612 129.309 231.924 129.209 232.274 129.189C232.577 129.172 232.862 129.227 233.13 129.354C233.398 129.477 233.607 129.648 233.757 129.867L233.641 127.81L234.294 127.773L234.589 133.022L233.936 133.059L233.895 132.328C233.781 132.567 233.602 132.769 233.36 132.935C233.118 133.096 232.829 133.185 232.493 133.204C232.148 133.224 231.829 133.156 231.535 133.002C231.247 132.847 231.013 132.621 230.835 132.323C230.657 132.024 230.557 131.679 230.535 131.286ZM233.827 131.108C233.81 130.815 233.737 130.563 233.606 130.352C233.476 130.141 233.306 129.985 233.096 129.883C232.891 129.776 232.668 129.729 232.426 129.743C232.185 129.756 231.968 129.825 231.776 129.95C231.584 130.075 231.435 130.249 231.329 130.473C231.223 130.697 231.178 130.956 231.195 131.249C231.211 131.547 231.285 131.804 231.416 132.02C231.546 132.23 231.714 132.389 231.92 132.496C232.125 132.599 232.348 132.643 232.589 132.63C232.83 132.616 233.047 132.547 233.239 132.422C233.436 132.293 233.587 132.116 233.693 131.891C233.799 131.663 233.843 131.402 233.827 131.108ZM237.65 128.317C237.527 128.324 237.421 128.288 237.331 128.207C237.241 128.127 237.192 128.025 237.186 127.902C237.179 127.779 237.215 127.673 237.296 127.583C237.376 127.493 237.478 127.445 237.601 127.438C237.719 127.431 237.82 127.468 237.906 127.549C237.996 127.629 238.044 127.731 238.051 127.854C238.058 127.977 238.021 128.083 237.941 128.173C237.865 128.263 237.768 128.311 237.65 128.317ZM237.998 128.931L238.216 132.818L237.571 132.855L237.352 128.967L237.998 128.931ZM243.768 128.535C244.071 128.518 244.344 128.567 244.588 128.681C244.831 128.791 245.028 128.967 245.179 129.21C245.331 129.453 245.416 129.754 245.437 130.114L245.566 132.405L244.927 132.441L244.803 130.242C244.782 129.854 244.668 129.564 244.463 129.371C244.262 129.174 243.998 129.085 243.672 129.103C243.336 129.122 243.075 129.246 242.889 129.474C242.702 129.698 242.62 130.014 242.643 130.42L242.764 132.562L242.125 132.598L242.002 130.399C241.98 130.012 241.866 129.722 241.661 129.529C241.46 129.332 241.197 129.242 240.87 129.261C240.534 129.279 240.273 129.403 240.087 129.632C239.9 129.856 239.819 130.171 239.841 130.578L239.962 132.72L239.316 132.756L239.098 128.869L239.743 128.833L239.775 129.393C239.891 129.183 240.052 129.017 240.259 128.896C240.471 128.775 240.706 128.708 240.966 128.693C241.293 128.675 241.585 128.732 241.844 128.864C242.103 128.997 242.302 129.201 242.441 129.478C242.534 129.198 242.702 128.975 242.944 128.809C243.186 128.644 243.461 128.553 243.768 128.535ZM246.273 130.401C246.251 130.004 246.312 129.652 246.456 129.345C246.599 129.033 246.806 128.787 247.076 128.605C247.35 128.424 247.66 128.323 248.005 128.304C248.346 128.285 248.645 128.342 248.904 128.474C249.163 128.607 249.36 128.78 249.496 128.996L249.456 128.287L250.108 128.25L250.327 132.137L249.674 132.174L249.634 131.45C249.519 131.684 249.338 131.884 249.091 132.05C248.849 132.211 248.56 132.3 248.224 132.319C247.879 132.339 247.562 132.271 247.273 132.117C246.985 131.962 246.751 131.736 246.573 131.437C246.395 131.139 246.295 130.794 246.273 130.401ZM249.565 130.223C249.548 129.93 249.475 129.678 249.344 129.467C249.214 129.256 249.044 129.1 248.834 128.997C248.629 128.89 248.406 128.844 248.164 128.857C247.923 128.871 247.707 128.94 247.514 129.065C247.322 129.189 247.173 129.364 247.067 129.588C246.961 129.812 246.916 130.071 246.933 130.364C246.95 130.662 247.023 130.919 247.154 131.134C247.284 131.345 247.452 131.504 247.658 131.611C247.863 131.713 248.086 131.758 248.327 131.744C248.568 131.731 248.785 131.662 248.977 131.537C249.174 131.407 249.325 131.23 249.431 131.006C249.537 130.777 249.581 130.516 249.565 130.223ZM252.799 128.034C253.134 128.016 253.432 128.072 253.691 128.205C253.954 128.337 254.154 128.511 254.289 128.726L254.249 128.017L254.902 127.98L255.125 131.952C255.145 132.307 255.087 132.626 254.951 132.908C254.816 133.196 254.61 133.426 254.336 133.598C254.065 133.77 253.743 133.866 253.37 133.887C252.859 133.916 252.427 133.819 252.073 133.597C251.719 133.375 251.499 133.058 251.414 132.645L252.053 132.609C252.137 132.841 252.294 133.022 252.524 133.152C252.755 133.286 253.026 133.344 253.338 133.327C253.693 133.307 253.975 133.179 254.185 132.944C254.399 132.709 254.495 132.391 254.473 131.989L254.427 131.173C254.312 131.407 254.133 131.607 253.891 131.773C253.649 131.938 253.36 132.03 253.025 132.049C252.679 132.069 252.36 132.001 252.067 131.847C251.778 131.692 251.545 131.466 251.367 131.168C251.189 130.869 251.089 130.524 251.067 130.131C251.044 129.734 251.105 129.382 251.249 129.075C251.393 128.763 251.6 128.517 251.869 128.336C252.144 128.154 252.453 128.054 252.799 128.034ZM254.358 129.953C254.342 129.66 254.268 129.408 254.138 129.197C254.007 128.986 253.837 128.83 253.627 128.728C253.422 128.621 253.199 128.574 252.958 128.588C252.717 128.601 252.5 128.67 252.308 128.795C252.116 128.92 251.966 129.094 251.86 129.318C251.754 129.542 251.71 129.801 251.726 130.094C251.743 130.392 251.817 130.649 251.947 130.865C252.078 131.075 252.246 131.234 252.451 131.341C252.656 131.444 252.879 131.488 253.12 131.475C253.361 131.461 253.578 131.392 253.77 131.267C253.967 131.138 254.118 130.961 254.224 130.736C254.33 130.508 254.375 130.246 254.358 129.953ZM259.64 129.514C259.647 129.637 259.647 129.767 259.641 129.905L256.534 130.08C256.579 130.462 256.726 130.755 256.975 130.959C257.228 131.158 257.525 131.248 257.865 131.229C258.144 131.213 258.372 131.136 258.55 130.998C258.731 130.855 258.854 130.673 258.917 130.451L259.612 130.412C259.529 130.791 259.339 131.108 259.04 131.362C258.741 131.611 258.359 131.749 257.896 131.775C257.527 131.796 257.191 131.732 256.889 131.583C256.591 131.433 256.351 131.212 256.169 130.919C255.986 130.621 255.883 130.271 255.86 129.869C255.838 129.467 255.898 129.11 256.042 128.798C256.186 128.487 256.397 128.242 256.677 128.065C256.961 127.883 257.292 127.782 257.67 127.76C258.039 127.74 258.37 127.802 258.663 127.946C258.955 128.091 259.185 128.301 259.353 128.576C259.524 128.847 259.62 129.159 259.64 129.514ZM258.966 129.417C258.952 129.171 258.886 128.963 258.767 128.794C258.648 128.621 258.492 128.494 258.298 128.415C258.108 128.331 257.899 128.295 257.672 128.308C257.346 128.326 257.073 128.446 256.853 128.667C256.638 128.888 256.524 129.184 256.512 129.555L258.966 129.417Z" fill="#AAB7C9"/>
<rect x="21.2163" y="179.244" width="86.1356" height="20.926" rx="3.93303" transform="rotate(-3.22 21.2163 179.244)" stroke="#6200EE" stroke-width="0.253744"/>
<path d="M33.4811 188.694L33.3671 186.668L34.0427 186.63L34.1567 188.656L36.1834 188.542L36.2214 189.218L34.1947 189.332L34.3087 191.359L33.6331 191.397L33.5191 189.37L31.4924 189.484L31.4544 188.808L33.4811 188.694Z" fill="#6200EE"/>
<path d="M42.9574 189.136L41.188 189.236L40.9326 190.116L40.209 190.157L41.4849 185.84L42.2875 185.795L44.0396 189.942L43.31 189.983L42.9574 189.136ZM42.731 188.582L41.9334 186.657L41.3508 188.66L42.731 188.582ZM44.3717 188.227C44.3528 187.891 44.4049 187.589 44.5282 187.322C44.6554 187.054 44.8347 186.843 45.0658 186.688C45.3008 186.528 45.5663 186.44 45.8622 186.423C46.0811 186.411 46.2987 186.448 46.5149 186.533C46.735 186.614 46.9123 186.73 47.0469 186.881L46.9559 185.264L47.6551 185.225L47.9082 189.724L47.209 189.763L47.1806 189.259C47.0762 189.427 46.9257 189.57 46.7289 189.687C46.5362 189.803 46.3102 189.869 46.0508 189.883C45.7589 189.9 45.4873 189.842 45.2358 189.71C44.9883 189.573 44.7861 189.377 44.6294 189.122C44.4765 188.862 44.3906 188.564 44.3717 188.227ZM47.1146 188.085C47.1016 187.854 47.0417 187.656 46.9348 187.491C46.832 187.326 46.7011 187.204 46.542 187.123C46.383 187.043 46.2143 187.007 46.0359 187.017C45.8576 187.027 45.6939 187.081 45.5449 187.179C45.3956 187.273 45.2771 187.408 45.1894 187.584C45.1055 187.755 45.0701 187.956 45.0831 188.187C45.0961 188.418 45.1541 188.618 45.2572 188.787C45.3642 188.956 45.4974 189.083 45.6567 189.167C45.8198 189.248 45.9885 189.283 46.1628 189.273C46.3412 189.263 46.5049 189.209 46.6539 189.111C46.8029 189.014 46.9192 188.877 47.0029 188.701C47.0904 188.522 47.1276 188.316 47.1146 188.085ZM48.4925 187.995C48.4736 187.659 48.5257 187.357 48.649 187.09C48.7762 186.823 48.9555 186.611 49.1866 186.456C49.4216 186.296 49.6871 186.208 49.983 186.192C50.2019 186.179 50.4194 186.216 50.6357 186.301C50.8558 186.382 51.0331 186.498 51.1676 186.649L51.0767 185.032L51.7759 184.993L52.029 189.492L51.3298 189.531L51.3014 189.027C51.197 189.195 51.0465 189.338 50.8497 189.455C50.657 189.571 50.431 189.637 50.1715 189.652C49.8797 189.668 49.6081 189.61 49.3566 189.478C49.109 189.341 48.9069 189.145 48.7502 188.89C48.5973 188.63 48.5114 188.332 48.4925 187.995ZM51.2354 187.853C51.2224 187.622 51.1624 187.424 51.0556 187.26C50.9528 187.095 50.8219 186.972 50.6628 186.891C50.5038 186.811 50.335 186.776 50.1567 186.786C49.9783 186.796 49.8147 186.85 49.6656 186.947C49.5164 187.041 49.3979 187.176 49.3102 187.352C49.2263 187.523 49.1909 187.724 49.2039 187.955C49.2169 188.186 49.2749 188.387 49.3779 188.556C49.485 188.724 49.6182 188.851 49.7775 188.936C49.9406 189.016 50.1093 189.051 50.2836 189.041C50.462 189.031 50.6256 188.977 50.7747 188.88C50.9237 188.782 51.04 188.645 51.1237 188.47C51.2111 188.29 51.2484 188.084 51.2354 187.853ZM54.1927 187.675C54.1738 187.338 54.226 187.037 54.3492 186.769C54.4765 186.502 54.6557 186.291 54.8869 186.135C55.1219 185.976 55.3853 185.888 55.6771 185.871C55.9406 185.856 56.1726 185.896 56.3731 185.991C56.5774 186.081 56.7427 186.2 56.8689 186.347L56.8415 185.861L57.5408 185.821L57.7292 189.171L57.03 189.211L57.002 188.712C56.8933 188.877 56.7406 189.018 56.5439 189.134C56.3471 189.251 56.119 189.317 55.8596 189.332C55.5718 189.348 55.3042 189.29 55.0569 189.157C54.8093 189.021 54.6071 188.825 54.4504 188.569C54.2976 188.309 54.2117 188.011 54.1927 187.675ZM56.9356 187.533C56.9226 187.302 56.8627 187.104 56.7558 186.939C56.653 186.774 56.5221 186.651 56.363 186.571C56.204 186.49 56.0353 186.455 55.8569 186.465C55.6786 186.475 55.5149 186.529 55.3659 186.627C55.2166 186.721 55.0981 186.855 55.0104 187.031C54.9266 187.202 54.8911 187.404 54.9041 187.635C54.9171 187.866 54.9751 188.066 55.0782 188.235C55.1853 188.404 55.3184 188.53 55.4777 188.615C55.6408 188.695 55.8095 188.731 55.9838 188.721C56.1622 188.711 56.3259 188.657 56.4749 188.559C56.6239 188.461 56.7402 188.324 56.8239 188.149C56.9114 187.969 56.9486 187.764 56.9356 187.533ZM60.1384 185.62C60.4019 185.605 60.6401 185.647 60.853 185.745C61.0699 185.842 61.2432 185.995 61.3728 186.203C61.5025 186.412 61.5758 186.668 61.5929 186.972L61.7041 188.948L61.017 188.986L60.9117 187.114C60.8948 186.814 60.8069 186.589 60.6481 186.439C60.489 186.286 60.2797 186.216 60.0203 186.231C59.7608 186.245 59.5587 186.338 59.4138 186.509C59.2727 186.675 59.2106 186.909 59.2275 187.209L59.3328 189.081L58.6397 189.12L58.4512 185.77L59.1443 185.731L59.1659 186.114C59.2716 185.97 59.4095 185.854 59.5794 185.768C59.7535 185.68 59.9398 185.631 60.1384 185.62ZM64.0445 188.871C63.7283 188.889 63.4386 188.834 63.1752 188.706C62.9116 188.575 62.6996 188.384 62.5391 188.132C62.3783 187.877 62.2883 187.577 62.2689 187.233C62.2497 186.892 62.3077 186.586 62.4429 186.314C62.578 186.042 62.7713 185.828 63.0228 185.671C63.2742 185.515 63.56 185.428 63.8803 185.41C64.2005 185.392 64.4943 185.446 64.7617 185.574C65.0291 185.701 65.2452 185.892 65.41 186.147C65.5748 186.402 65.6668 186.7 65.686 187.04C65.7051 187.381 65.6451 187.687 65.5059 187.959C65.3667 188.231 65.1674 188.448 64.9081 188.609C64.6526 188.766 64.3647 188.853 64.0445 188.871ZM64.0106 188.269C64.189 188.259 64.3528 188.207 64.502 188.113C64.6553 188.019 64.7758 187.884 64.8635 187.709C64.9513 187.533 64.9883 187.324 64.9746 187.08C64.9609 186.837 64.9028 186.635 64.8002 186.474C64.6974 186.309 64.5666 186.188 64.4077 186.112C64.2489 186.035 64.0803 186.002 63.902 186.012C63.7236 186.022 63.5598 186.074 63.4106 186.168C63.2654 186.262 63.153 186.396 63.0734 186.571C62.9936 186.743 62.9605 186.95 62.9742 187.193C62.9945 187.554 63.1014 187.828 63.295 188.017C63.4924 188.201 63.731 188.285 64.0106 188.269ZM67.1176 185.85L67.2219 187.704C67.229 187.83 67.2625 187.919 67.3224 187.973C67.3862 188.022 67.489 188.043 67.6309 188.035L68.0565 188.011L68.089 188.589L67.5418 188.619C67.2297 188.637 66.9864 188.577 66.812 188.441C66.6376 188.304 66.5412 188.072 66.5227 187.744L66.4184 185.889L66.0232 185.911L65.9913 185.346L66.3866 185.324L66.3397 184.491L67.0389 184.451L67.0858 185.284L67.9005 185.238L67.9324 185.804L67.1176 185.85ZM70.2692 185.05C70.5246 185.036 70.7546 185.078 70.9594 185.176C71.1682 185.274 71.3354 185.427 71.461 185.636C71.5907 185.844 71.664 186.1 71.6811 186.404L71.7923 188.38L71.1052 188.419L70.9999 186.546C70.983 186.246 70.8951 186.021 70.7363 185.872C70.5772 185.718 70.3679 185.649 70.1085 185.663C69.8491 185.678 69.6469 185.77 69.502 185.941C69.3609 186.108 69.2988 186.341 69.3157 186.641L69.421 188.514L68.7279 188.553L68.4747 184.053L69.1679 184.014L69.2544 185.553C69.364 185.404 69.5058 185.286 69.6798 185.199C69.8579 185.112 70.0543 185.062 70.2692 185.05ZM75.6481 186.401C75.6552 186.526 75.6535 186.64 75.643 186.742L73.0832 186.886C73.1185 187.153 73.2299 187.362 73.4174 187.514C73.6048 187.666 73.8283 187.735 74.0877 187.72C74.4606 187.7 74.7153 187.529 74.8518 187.208L75.5997 187.166C75.5157 187.48 75.3455 187.743 75.0891 187.957C74.8366 188.166 74.5137 188.282 74.1206 188.304C73.8003 188.322 73.5085 188.267 73.2452 188.14C72.9857 188.008 72.7756 187.817 72.6151 187.565C72.4584 187.31 72.3704 187.01 72.351 186.665C72.3316 186.321 72.3835 186.015 72.5068 185.748C72.6338 185.476 72.819 185.263 73.0623 185.107C73.3097 184.95 73.5976 184.863 73.9259 184.845C74.2421 184.827 74.5277 184.88 74.7827 185.004C75.0377 185.128 75.2412 185.311 75.3932 185.555C75.5449 185.794 75.6299 186.076 75.6481 186.401ZM74.9123 186.222C74.8938 185.967 74.7911 185.768 74.6041 185.624C74.4171 185.48 74.1918 185.415 73.9284 185.43C73.6892 185.443 73.4888 185.532 73.3273 185.696C73.1654 185.855 73.0756 186.066 73.0578 186.327L74.9123 186.222ZM76.9611 185.217C77.0529 185.041 77.1793 184.901 77.3402 184.799C77.505 184.692 77.7029 184.632 77.9339 184.619L77.9743 185.337L77.798 185.346C77.5264 185.362 77.3235 185.442 77.1894 185.588C77.0594 185.734 77.0039 185.977 77.0231 186.317L77.1223 188.08L76.4291 188.119L76.2406 184.769L76.9338 184.73L76.9611 185.217ZM80.7975 183.635L81.0352 187.86L80.3421 187.899L80.1043 183.674L80.7975 183.635ZM85.8092 184.176C86.0727 184.161 86.3109 184.203 86.5238 184.3C86.7407 184.398 86.914 184.551 87.0436 184.759C87.1773 184.967 87.2527 185.223 87.2698 185.527L87.381 187.503L86.6939 187.542L86.5886 185.669C86.5717 185.369 86.4838 185.144 86.325 184.995C86.1659 184.841 85.9566 184.772 85.6972 184.786C85.4377 184.801 85.2356 184.893 85.0907 185.064C84.9496 185.231 84.8875 185.464 84.9043 185.764L85.0097 187.637L84.3226 187.675L84.2173 185.803C84.2004 185.503 84.1125 185.278 83.9537 185.128C83.7946 184.975 83.5853 184.905 83.3259 184.92C83.0664 184.934 82.8643 185.027 82.7194 185.198C82.5783 185.364 82.5162 185.597 82.5331 185.897L82.6384 187.77L81.9453 187.809L81.7568 184.459L82.4499 184.42L82.4715 184.803C82.5772 184.659 82.7151 184.543 82.885 184.456C83.055 184.37 83.2393 184.321 83.4379 184.309C83.7055 184.294 83.9478 184.338 84.165 184.439C84.3821 184.541 84.5535 184.696 84.6791 184.904C84.769 184.696 84.9181 184.527 85.1263 184.397C85.3343 184.264 85.562 184.19 85.8092 184.176ZM87.9369 185.776C87.9179 185.44 87.9701 185.138 88.0933 184.871C88.2206 184.604 88.3998 184.392 88.631 184.237C88.866 184.077 89.1294 183.989 89.4213 183.973C89.6847 183.958 89.9167 183.998 90.1172 184.092C90.3216 184.182 90.4868 184.301 90.613 184.449L90.5857 183.962L91.2849 183.923L91.4734 187.273L90.7742 187.312L90.7461 186.814C90.6374 186.979 90.4847 187.119 90.288 187.236C90.0913 187.353 89.8632 187.419 89.6037 187.433C89.3159 187.449 89.0484 187.391 88.801 187.259C88.5534 187.122 88.3513 186.926 88.1946 186.671C88.0417 186.411 87.9558 186.113 87.9369 185.776ZM90.6797 185.634C90.6667 185.403 90.6068 185.205 90.5 185.041C90.3971 184.876 90.2662 184.753 90.1072 184.672C89.9481 184.592 89.7794 184.556 89.6011 184.567C89.4227 184.577 89.259 184.63 89.11 184.728C88.9608 184.822 88.8423 184.957 88.7546 185.133C88.6707 185.304 88.6353 185.505 88.6483 185.736C88.6613 185.967 88.7193 186.167 88.8223 186.336C88.9294 186.505 89.0626 186.632 89.2219 186.717C89.385 186.797 89.5537 186.832 89.728 186.822C89.9063 186.812 90.07 186.758 90.219 186.66C90.368 186.563 90.4844 186.426 90.568 186.25C90.6555 186.071 90.6927 185.865 90.6797 185.634ZM93.5421 183.741C93.8015 183.726 94.0335 183.766 94.238 183.86C94.4464 183.95 94.6117 184.069 94.7338 184.217L94.7065 183.73L95.4057 183.691L95.5972 187.096C95.6146 187.404 95.5651 187.681 95.4489 187.928C95.3328 188.178 95.1551 188.379 94.9156 188.531C94.6801 188.683 94.3921 188.768 94.0516 188.787C93.5976 188.813 93.2146 188.726 92.9026 188.528C92.5908 188.335 92.4043 188.056 92.3433 187.694L93.0303 187.655C93.0928 187.826 93.2122 187.96 93.3883 188.056C93.5688 188.155 93.7786 188.199 94.0178 188.185C94.2975 188.169 94.5176 188.072 94.6783 187.892C94.843 187.712 94.9163 187.46 94.898 187.135L94.8665 186.576C94.7579 186.741 94.6053 186.883 94.4088 187.004C94.2161 187.121 93.9921 187.186 93.7367 187.201C93.4448 187.217 93.1732 187.159 92.9218 187.027C92.6742 186.89 92.472 186.694 92.3154 186.439C92.1625 186.179 92.0766 185.881 92.0577 185.545C92.0387 185.208 92.0909 184.906 92.2141 184.639C92.3414 184.372 92.5206 184.16 92.7518 184.005C92.9868 183.845 93.2502 183.757 93.5421 183.741ZM94.8005 185.402C94.7875 185.171 94.7276 184.973 94.6207 184.809C94.5179 184.644 94.387 184.521 94.228 184.44C94.0689 184.36 93.9002 184.325 93.7218 184.335C93.5435 184.345 93.3798 184.399 93.2308 184.497C93.0815 184.59 92.9631 184.725 92.8754 184.901C92.7915 185.072 92.756 185.273 92.769 185.504C92.782 185.736 92.8401 185.936 92.9431 186.105C93.0502 186.273 93.1834 186.4 93.3426 186.485C93.5058 186.565 93.6745 186.6 93.8488 186.59C94.0271 186.58 94.1908 186.526 94.3398 186.429C94.4888 186.331 94.6052 186.194 94.6888 186.019C94.7763 185.839 94.8135 185.633 94.8005 185.402ZM99.4762 185.06C99.4833 185.186 99.4816 185.3 99.4711 185.402L96.9113 185.546C96.9466 185.812 97.058 186.022 97.2455 186.174C97.433 186.326 97.6564 186.395 97.9158 186.38C98.2888 186.359 98.5435 186.188 98.6799 185.867L99.4278 185.825C99.3438 186.139 99.1736 186.403 98.9173 186.616C98.6647 186.826 98.3419 186.942 97.9487 186.964C97.6285 186.982 97.3367 186.927 97.0733 186.799C96.8138 186.668 96.6038 186.476 96.4432 186.225C96.2865 185.969 96.1985 185.669 96.1791 185.325C96.1597 184.98 96.2117 184.674 96.3349 184.407C96.4619 184.136 96.6471 183.922 96.8905 183.766C97.1379 183.61 97.4257 183.522 97.754 183.504C98.0702 183.486 98.3558 183.539 98.6108 183.663C98.8658 183.787 99.0693 183.971 99.2213 184.214C99.373 184.454 99.458 184.736 99.4762 185.06ZM98.7404 184.882C98.722 184.627 98.6192 184.427 98.4322 184.283C98.2452 184.139 98.02 184.075 97.7565 184.089C97.5173 184.103 97.317 184.191 97.1554 184.355C96.9936 184.515 96.9037 184.725 96.8859 184.986L98.7404 184.882Z" fill="#6200EE"/>
</svg>
