<svg width="53" height="53" viewBox="0 0 53 53" fill="none" xmlns="http://www.w3.org/2000/svg">
<rect x="0.316406" y="0.734375" width="51.8367" height="51.8367" rx="10.3673" fill="#FFC107"/>
<path d="M20.1055 31.1185L20.1055 31.1185L20.1064 31.1145C20.1957 30.7168 20.1533 30.2821 20.0459 29.9063C19.9387 29.5312 19.7452 29.1393 19.4572 28.8513L16.8329 26.2271C16.0962 25.4904 15.9527 24.8583 16.0845 24.4321C16.227 24.0048 16.7069 23.5788 17.7351 23.404C17.7354 23.404 17.7357 23.4039 17.736 23.4039L21.1034 22.8427L21.1034 22.8427L21.1103 22.8415C21.4773 22.7762 21.838 22.5936 22.1305 22.3792C22.4227 22.165 22.7079 21.8744 22.8803 21.5378L22.8803 21.5378L22.8835 21.5315L24.7394 17.8087C24.7397 17.8082 24.74 17.8077 24.7402 17.8072C25.2329 16.8325 25.7941 16.5015 26.2345 16.5015C26.6749 16.5015 27.2362 16.8325 27.7288 17.8072C27.7291 17.8077 27.7294 17.8082 27.7296 17.8087L29.5856 21.5315L29.5859 21.5322C29.6764 21.713 29.8001 21.8801 29.9415 22.0295L19.8809 32.0901L20.1055 31.1185Z" fill="#11002A" stroke="#11002A" stroke-width="1.29592"/>
<path d="M33.108 34.3673L33.1084 34.3689C33.4063 35.6531 33.1456 36.3033 32.8092 36.5484C32.6643 36.6524 32.4776 36.7171 32.2169 36.7171C31.8209 36.7171 31.288 36.5666 30.6359 36.1814C30.6356 36.1812 30.6353 36.1811 30.635 36.1809L27.472 34.3025L27.472 34.3025L27.4692 34.3008C27.0969 34.0823 26.6466 33.993 26.234 33.993C25.8215 33.993 25.3712 34.0823 24.9989 34.3008L24.9989 34.3008L24.996 34.3025L21.8353 36.1796C21.8347 36.1799 21.8341 36.1802 21.8336 36.1806C20.6906 36.8494 19.9924 36.7944 19.6639 36.5521C19.6164 36.5169 19.5721 36.4771 19.5312 36.4312L32.3187 23.6438C32.67 23.2925 33.1608 23.1375 33.6281 23.2191L33.632 23.2198L34.7218 23.4032C34.722 23.4033 34.7221 23.4033 34.7223 23.4033C35.7508 23.5781 36.2307 24.0041 36.3733 24.4314C36.5051 24.8576 36.3615 25.4897 35.6248 26.2264L35.6239 26.2273L33.0114 28.8506C33.0113 28.8508 33.0111 28.8509 33.011 28.851C32.7211 29.1411 32.5235 29.5301 32.4148 29.909C32.3067 30.2856 32.267 30.7203 32.3638 31.1208L33.108 34.3673Z" fill="#11002A" stroke="#11002A" stroke-width="1.29592"/>
</svg>
